<svg width="308" height="310" viewBox="0 0 308 310" fill="none" xmlns="http://www.w3.org/2000/svg">
<g clip-path="url(#clip0_1509_5462)">
<path d="M307.335 237.088H0.667969V237.243H307.335V237.088Z" fill="#EBEBEB"/>
<path d="M276.607 247.063H256.293V247.218H276.607V247.063Z" fill="#EBEBEB"/>
<path d="M203.818 248.75H198.488V248.905H203.818V248.75Z" fill="#EBEBEB"/>
<path d="M255.68 241.31H243.91V241.465H255.68V241.31Z" fill="#EBEBEB"/>
<path d="M59.3336 242.352H32.8438V242.507H59.3336V242.352Z" fill="#EBEBEB"/>
<path d="M68.6793 242.352H64.7969V242.507H68.6793V242.352Z" fill="#EBEBEB"/>
<path d="M138.762 244.968H81.3047V245.123H138.762V244.968Z" fill="#EBEBEB"/>
<path d="M146.026 209.436H27.5976C26.6698 209.434 25.7806 209.06 25.1251 208.397C24.4697 207.733 24.1016 206.833 24.1016 205.895V37.6088C24.1096 36.6763 24.4813 35.7848 25.1359 35.1277C25.7905 34.4707 26.6751 34.1012 27.5976 34.0996H146.026C146.955 34.0996 147.846 34.4726 148.503 35.1365C149.159 35.8004 149.528 36.7009 149.528 37.6398V205.895C149.528 206.834 149.159 207.735 148.503 208.399C147.846 209.063 146.955 209.436 146.026 209.436ZM27.5976 34.2236C26.7105 34.2253 25.8603 34.5826 25.2336 35.2173C24.6069 35.852 24.2549 36.7121 24.2549 37.6088V205.895C24.2549 206.792 24.6069 207.652 25.2336 208.287C25.8603 208.922 26.7105 209.279 27.5976 209.281H146.026C146.914 209.279 147.765 208.922 148.392 208.287C149.02 207.653 149.373 206.793 149.375 205.895V37.6088C149.373 36.7115 149.02 35.8514 148.392 35.2169C147.765 34.5824 146.914 34.2252 146.026 34.2236H27.5976Z" fill="#EBEBEB"/>
<path d="M278.699 209.436H160.264C159.336 209.434 158.446 209.06 157.789 208.397C157.133 207.733 156.763 206.834 156.762 205.895V37.6088C156.771 36.6758 157.144 35.7842 157.8 35.1273C158.456 34.4704 159.341 34.1012 160.264 34.0996H278.699C279.62 34.1028 280.503 34.473 281.156 35.1299C281.809 35.7868 282.18 36.6774 282.188 37.6088V205.895C282.188 206.832 281.821 207.731 281.167 208.394C280.513 209.058 279.625 209.432 278.699 209.436ZM160.264 34.2236C159.376 34.2252 158.525 34.5824 157.898 35.2169C157.27 35.8514 156.917 36.7115 156.915 37.6088V205.895C156.917 206.793 157.27 207.653 157.898 208.287C158.525 208.922 159.376 209.279 160.264 209.281H278.699C279.586 209.279 280.437 208.922 281.065 208.287C281.692 207.653 282.046 206.793 282.047 205.895V37.6088C282.046 36.7115 281.692 35.8514 281.065 35.2169C280.437 34.5824 279.586 34.2252 278.699 34.2236H160.264Z" fill="#EBEBEB"/>
<path d="M229.539 80.6055H220.848V107.954H229.539V80.6055Z" fill="#E6E6E6"/>
<path d="M253.096 107.954H224.257L219.902 75.9434H248.741L253.096 107.954Z" fill="#F0F0F0"/>
<path d="M256.22 107.954H226.437L222.082 75.9434H251.865L256.22 107.954Z" fill="#F5F5F5"/>
<path d="M228.59 105.431L224.922 78.4668H249.713L253.387 105.431H228.59Z" fill="white"/>
<path d="M233.488 97.2657L232.108 87.1473C232.067 86.8802 232.084 86.6074 232.158 86.3477C232.232 86.088 232.361 85.8477 232.536 85.6435C232.711 85.4393 232.928 85.2761 233.172 85.1654C233.416 85.0546 233.68 84.9989 233.948 85.0021H242.958C243.409 84.9986 243.845 85.1628 244.185 85.4634C244.524 85.764 244.742 86.1801 244.798 86.6327L246.171 96.7573C246.211 97.0239 246.194 97.296 246.119 97.555C246.045 97.8139 245.916 98.0534 245.741 98.2569C245.566 98.4604 245.349 98.6229 245.106 98.7333C244.862 98.8437 244.598 98.8993 244.331 98.8963H235.334C234.882 98.9013 234.444 98.7378 234.103 98.437C233.762 98.1363 233.543 97.7193 233.488 97.2657Z" fill="#F5F5F5"/>
<path d="M175.437 50.6416H45.5391V131.645H175.437V50.6416Z" fill="#E6E6E6"/>
<path d="M178.774 50.6416H47.0977V131.645H178.774V50.6416Z" fill="#F0F0F0"/>
<path d="M175.437 131.65H45.5391V137.919H175.437V131.65Z" fill="#E6E6E6"/>
<path d="M184.329 131.65H52.6523V137.919H184.329V131.65Z" fill="#F0F0F0"/>
<path d="M174.102 126.926V55.3652L51.7722 55.3652V126.926L174.102 126.926Z" fill="#FAFAFA"/>
<path d="M60.75 126.926L88.1721 55.3652H101.113L73.6913 126.926H60.75Z" fill="white"/>
<path d="M76.4766 126.926L103.899 55.3652H108.94L81.5182 126.926H76.4766Z" fill="white"/>
<path d="M124.449 126.926L151.871 55.3652H156.913L129.497 126.926H124.449Z" fill="white"/>
<path d="M174.094 126.926V55.3652H173.499V126.926H174.094Z" fill="#E6E6E6"/>
<path d="M273.908 107.954H246.406V237.088H273.908V107.954Z" fill="#E6E6E6"/>
<path d="M271.143 237.087H273.909V229.133H268.242L271.143 237.087Z" fill="#F0F0F0"/>
<path d="M225.717 107.954H198.215V237.088H225.717V107.954Z" fill="#E6E6E6"/>
<path d="M273.907 107.954H223.301V232.208H273.907V107.954Z" fill="#F0F0F0"/>
<path d="M226.067 237.087H223.301V229.133H228.968L226.067 237.087Z" fill="#F0F0F0"/>
<path d="M271.762 110.229H225.449V168.844H271.762V110.229Z" fill="#E6E6E6"/>
<path d="M253.621 114.793H243.593C241.437 114.793 239.303 114.348 237.323 113.487C235.343 112.626 233.557 111.365 232.074 109.783H265.139C263.657 111.366 261.871 112.627 259.891 113.489C257.91 114.35 255.777 114.794 253.621 114.793Z" fill="#F0F0F0"/>
<path d="M271.762 171.219H225.449V229.834H271.762V171.219Z" fill="#E6E6E6"/>
<path d="M253.621 175.782H243.593C241.437 175.782 239.303 175.338 237.323 174.476C235.343 173.615 233.557 172.355 232.074 170.772H265.139C263.657 172.356 261.871 173.616 259.891 174.478C257.91 175.339 255.777 175.783 253.621 175.782Z" fill="#F0F0F0"/>
<path d="M80.0938 148.731H125.861L132.497 176.055H86.7239L80.0938 148.731Z" fill="#E6E6E6"/>
<path d="M86.7266 176.055L86.9167 177.561H132.684L132.5 176.055H86.7266Z" fill="#E6E6E6"/>
<path d="M81.5039 148.731H127.271L133.907 176.055H88.134L81.5039 148.731Z" fill="#F0F0F0"/>
<path d="M89.1033 174.802L83.0742 149.978H126.302L132.331 174.802H89.1033Z" fill="white"/>
<path d="M100.066 176.055L100.25 177.561H150.648L150.464 176.055H100.066Z" fill="#F0F0F0"/>
<path d="M162.147 177.562H156.664V237.082H162.147V177.562Z" fill="#E6E6E6"/>
<path d="M163.883 177.562H160.074V237.082H163.883V177.562Z" fill="#F0F0F0"/>
<path d="M94.4043 184.375H165.066V177.561H94.4043V184.375Z" fill="#F0F0F0"/>
<path d="M91.9441 184.375H86.4609V237.081H91.9441V184.375Z" fill="#E6E6E6"/>
<path d="M93.6721 184.375H89.8633V237.081H93.6721V184.375Z" fill="#F0F0F0"/>
<path d="M57.2371 184.375H51.7539V237.081H57.2371V184.375Z" fill="#E6E6E6"/>
<path d="M58.9729 184.375H55.1641V237.081H58.9729V184.375Z" fill="#F0F0F0"/>
<path d="M127.444 184.375H121.961V237.081H127.444V184.375Z" fill="#E6E6E6"/>
<path d="M129.172 184.375H125.363V237.081H129.172V184.375Z" fill="#F0F0F0"/>
<path d="M94.399 177.562H51.7539V184.375H94.399V177.562Z" fill="#E6E6E6"/>
<path d="M179.971 237.088H178.64L174.856 218.091L174.187 214.762L169.992 194.06H154.045L145.416 237.088H144.066L152.874 193.266C152.902 193.121 152.978 192.99 153.089 192.894C153.201 192.798 153.341 192.744 153.487 192.739H170.562C170.71 192.738 170.854 192.79 170.967 192.887C171.079 192.984 171.154 193.118 171.176 193.266L174.856 211.445L175.469 214.768L179.971 237.088Z" fill="#F0F0F0"/>
<path d="M205.577 237.088H204.24L195.592 194.06H179.645L175.468 214.768L174.855 218.091L171.034 237.088H169.703L174.187 214.768L174.849 211.451L178.529 193.272C178.558 193.127 178.634 192.997 178.745 192.901C178.857 192.806 178.996 192.751 179.142 192.745H196.162C196.309 192.749 196.449 192.804 196.56 192.9C196.672 192.996 196.748 193.127 196.776 193.272L205.577 237.088Z" fill="#F0F0F0"/>
<path d="M166.27 193.397H195.575C201.168 193.397 204.272 189.553 205.854 183.216L206.627 179.595C206.888 178.5 206.899 177.359 206.661 176.259C206.422 175.159 205.939 174.128 205.249 173.243C204.558 172.359 203.678 171.645 202.675 171.155C201.672 170.664 200.571 170.411 199.457 170.413H181.057C177.254 170.413 176.248 171.331 173.617 177.122C170.986 182.912 166.27 193.397 166.27 193.397Z" fill="#F0F0F0"/>
<path d="M182.246 193.396H151.015C150.626 193.396 150.254 193.24 149.979 192.962C149.704 192.684 149.549 192.307 149.549 191.914V191.778C149.549 191.245 149.653 190.718 149.855 190.226C150.056 189.734 150.352 189.287 150.724 188.911C151.097 188.534 151.539 188.236 152.025 188.032C152.512 187.828 153.034 187.723 153.56 187.723H182.246V193.402V193.396Z" fill="#F0F0F0"/>
<path d="M154.001 265.088C219.679 265.088 272.92 261.945 272.92 258.069C272.92 254.193 219.679 251.051 154.001 251.051C88.324 251.051 35.082 254.193 35.082 258.069C35.082 261.945 88.324 265.088 154.001 265.088Z" fill="#F5F5F5"/>
<path d="M125.192 238.235L121.267 240.789L114.152 232.425L118.078 229.871L125.192 238.235Z" fill="#FF8B7B"/>
<path opacity="0.2" d="M118.084 229.871L114.152 232.425L117.826 236.741L121.752 234.18L118.084 229.871Z" fill="black"/>
<path d="M95.1944 251.875L90.6803 252.322L85.9883 241.472L90.5024 241.025L95.1944 251.875Z" fill="#FF8B7B"/>
<path opacity="0.2" d="M85.9961 241.478L88.4126 247.07H93.1169L90.5041 241.031L85.9961 241.478Z" fill="black"/>
<path d="M60.9176 105.4C58.6483 105.605 58.5869 101.711 54.6003 103.54C49.5341 105.871 51.2453 109.486 47.2893 109.337C43.3333 109.188 40.6837 112.307 41.5669 114.632C42.4501 116.957 43.8179 119.158 41.0211 120.094C38.2243 121.03 36.3229 121.855 36.7277 124.198C37.1325 126.542 39.1136 127.484 35.7771 128.979C32.4405 130.473 32.7779 136.933 36.0469 136.939C39.316 136.946 36.1819 140.163 39.1136 143.437C42.0453 146.711 46.5043 147.157 48.3627 145.545C50.2211 143.933 52.2941 142.6 55.7901 145.08C59.2861 147.56 65.2048 148.18 64.9349 144.249C64.6651 140.318 61.2549 137.739 64.4688 135.693C67.6827 133.647 71.8288 132.637 70.5285 128.656C69.7005 126.176 67.1981 124.019 69.216 122.165C72.4973 119.152 72.5157 112.332 68.4923 110.602C66.1555 109.604 68.4064 104.718 60.9176 105.4Z" fill="#263238"/>
<path d="M56.5495 136.04C56.4391 137.9 56.206 139.555 55.9362 141.297C55.6663 143.04 55.2738 144.738 54.826 146.443C54.3896 148.167 53.8342 149.858 53.1639 151.503C52.8327 152.333 52.4524 153.158 52.0476 153.983C51.8452 154.392 51.6244 154.795 51.3975 155.192C51.2932 155.396 51.1644 155.595 51.0479 155.812L50.87 156.103C50.7493 156.297 50.6139 156.482 50.4652 156.655C50.125 157.043 49.7069 157.354 49.2386 157.566C48.8202 157.758 48.3718 157.873 47.9138 157.907C47.2402 157.946 46.5654 157.854 45.9266 157.634C44.9752 157.304 44.0685 156.854 43.2279 156.295C41.7475 155.316 40.3467 154.22 39.0388 153.015C36.5174 150.697 34.1662 148.196 32.0039 145.532L33.7458 143.839C34.9724 144.931 36.1991 146.04 37.481 147.094C38.7628 148.148 40.014 149.209 41.3204 150.194C42.5642 151.162 43.8761 152.036 45.2458 152.811C45.8248 153.143 46.4431 153.399 47.0858 153.573C47.2404 153.622 47.4035 153.637 47.5642 153.617H47.4415C47.3605 153.657 47.286 153.709 47.2207 153.772L47.19 153.803L47.325 153.549C47.4108 153.381 47.509 153.22 47.5887 153.046C47.7604 152.703 47.926 152.356 48.0855 152.005C48.3922 151.298 48.6988 150.579 48.9442 149.829C49.4594 148.341 49.8887 146.803 50.269 145.241C50.6492 143.678 50.9375 142.085 51.1951 140.479C51.4527 138.873 51.649 137.23 51.8084 135.705L56.5495 136.04Z" fill="#FF8B7B"/>
<path d="M60.112 136.623C59.8666 138.124 58.6338 140.963 57.6586 143.071C56.9349 144.596 56.3461 145.743 56.3461 145.743L55.4874 145.359L48.3789 142.16C48.9186 138.285 49.7957 134.1 54.0216 132.196C56.6589 131.018 60.5474 133.92 60.112 136.623Z" fill="#0BB0CF"/>
<path opacity="0.6" d="M60.112 136.623C59.8666 138.124 58.6338 140.963 57.6586 143.071C56.9349 144.596 56.3461 145.743 56.3461 145.743L55.4874 145.359L48.3789 142.16C48.9186 138.285 49.7957 134.1 54.0216 132.196C56.6589 131.018 60.5474 133.92 60.112 136.623Z" fill="#0BB0CF"/>
<path opacity="0.3" d="M57.64 143.071C56.9162 144.597 56.3274 145.744 56.3274 145.744L55.4688 145.359C55.5853 143.828 55.8858 141.416 56.6954 140.331C57.2011 141.165 57.5232 142.1 57.64 143.071Z" fill="black"/>
<path d="M34.0156 145.26L34.5799 141.087L29.9492 142.6C29.9492 142.6 30.6852 145.123 32.3351 146.159L34.0156 145.26Z" fill="#FF8B7B"/>
<path d="M32.4823 137.522L29.25 139.314L29.9492 142.625L34.5799 141.087L32.4823 137.522Z" fill="#FF8B7B"/>
<path d="M119.819 239.537L124.082 236.437C124.155 236.383 124.245 236.358 124.335 236.366C124.425 236.374 124.51 236.414 124.572 236.481L127.473 239.537C127.544 239.616 127.597 239.71 127.629 239.811C127.662 239.913 127.672 240.02 127.661 240.126C127.649 240.232 127.616 240.334 127.562 240.426C127.509 240.518 127.437 240.598 127.351 240.659C125.848 241.713 125.069 242.141 123.192 243.499C122.039 244.336 119.611 246.357 118.016 247.51C116.421 248.664 115.213 247.138 115.771 246.512C118.286 243.71 118.954 241.8 119.353 240.225C119.425 239.948 119.59 239.705 119.819 239.537Z" fill="#263238"/>
<path d="M90.0853 250.914H95.6053C95.7046 250.916 95.8007 250.95 95.8791 251.012C95.9576 251.073 96.0143 251.159 96.0408 251.255L97.2675 255.682C97.2973 255.787 97.3024 255.897 97.2823 256.004C97.2622 256.111 97.2176 256.211 97.1519 256.298C97.0862 256.384 97.0014 256.454 96.9043 256.501C96.8072 256.548 96.7005 256.571 96.5928 256.569C94.6424 256.569 93.7163 256.569 91.2813 256.569H83.8355C81.8115 256.569 81.3821 254.498 82.2224 254.312C85.976 253.475 88.1411 252.315 89.3003 251.212C89.5151 251.015 89.7958 250.909 90.0853 250.914Z" fill="#292929"/>
<path d="M81.6596 153.425L63.5847 159.204C51.0727 134.168 52.8575 132.841 52.8575 132.841C52.8575 132.841 55.7463 131.173 58.7516 129.785C59.2055 129.574 59.6655 129.369 60.1193 129.165C62.7894 128.092 65.5318 127.213 68.3257 126.536C68.7367 126.424 69.1476 126.325 69.5524 126.226C71.7773 125.717 74.0302 125.342 76.2991 125.104C76.5689 128.569 76.8388 131.502 77.1332 134.05C77.5135 137.373 77.9244 140.033 78.3599 142.333C79.1648 146.114 80.2682 149.823 81.6596 153.425Z" fill="#0BB0CF"/>
<path opacity="0.6" d="M81.6596 153.425L63.5847 159.204C51.0727 134.168 52.8575 132.841 52.8575 132.841C52.8575 132.841 55.7463 131.173 58.7516 129.785C59.2055 129.574 59.6655 129.369 60.1193 129.165C62.7894 128.092 65.5318 127.213 68.3257 126.536C68.7367 126.424 69.1476 126.325 69.5524 126.226C71.7773 125.717 74.0302 125.342 76.2991 125.104C76.5689 128.569 76.8388 131.502 77.1332 134.05C77.5135 137.373 77.9244 140.033 78.3599 142.333C79.1648 146.114 80.2682 149.823 81.6596 153.425Z" fill="#0BB0CF"/>
<path opacity="0.3" d="M78.4081 142.346C76.6724 139.866 75.0102 134.093 75.4396 131.93L77.1569 134.062C77.5372 137.386 77.9481 140.045 78.4081 142.346Z" fill="black"/>
<path d="M64.2266 137.516C64.2266 137.516 68.7836 136.518 70.2495 138.52C72.2612 136.518 71.5498 128.693 70.5807 125.903C69.8122 126.035 69.0583 126.243 68.3298 126.523L65.1098 131.558L64.2266 137.516Z" fill="white"/>
<path d="M64.2301 137.516C64.2301 137.516 61.1634 138.21 60.8384 140.746C56.545 137.516 56.8456 132.785 57.8146 129.995C58.5503 129.635 59.3239 129.361 60.1208 129.177L63.3408 132.76L64.2301 137.516Z" fill="white"/>
<path d="M65.2757 121.266C65.889 123.547 66.8213 125.804 68.3424 126.548C68.3424 126.548 69.7592 130.653 64.2392 137.516C58.4616 133.356 60.1298 129.177 60.1298 129.177C62.853 127.522 62.0864 125.339 60.9272 123.43L62.528 120.832C62.6874 120.582 62.9153 120.384 63.184 120.262C63.4527 120.14 63.7505 120.099 64.0415 120.145C64.3324 120.191 64.6039 120.322 64.823 120.521C65.0421 120.719 65.1993 120.978 65.2757 121.266Z" fill="#FF8B7B"/>
<path opacity="0.2" d="M65.2774 121.266C65.2041 120.974 65.0473 120.71 64.8267 120.507C64.606 120.304 64.3311 120.171 64.0363 120.125C63.7415 120.078 63.4397 120.121 63.1686 120.247C62.8974 120.372 62.6688 120.576 62.5113 120.832L61.9961 121.663C62.039 122.215 62.0636 122.667 62.0574 122.903C62.0084 124.515 64.247 124.441 66.0686 123.666C65.7439 122.888 65.4794 122.085 65.2774 121.266Z" fill="black"/>
<path d="M54.1835 115.035C55.7782 119.43 56.3547 121.328 59.2742 122.952C63.6595 125.401 68.6521 122.462 68.3945 117.67C68.1614 113.361 65.5977 106.888 60.7339 106.41C59.6619 106.301 58.5798 106.47 57.5906 106.901C56.6013 107.333 55.7375 108.013 55.0813 108.877C54.4251 109.741 53.9981 110.76 53.841 111.838C53.6839 112.916 53.8018 114.016 54.1835 115.035Z" fill="#FF8B7B"/>
<path d="M65.4615 108.426C63.9649 106.969 62.3948 105.276 59.3895 105.605C56.0652 105.971 54.7527 108.004 54.7527 108.004L51.8945 114.322C51.8945 114.322 53.6671 122.456 56.5927 118.662C58.2793 116.467 58.3223 113.15 57.7089 110.67C58.8583 110.506 59.9912 110.241 61.0945 109.877C62.4439 110.385 63.9588 110.385 65.0812 109.343C65.3265 109.114 65.5044 108.934 65.6332 108.792L65.7375 108.674C66.0687 108.246 65.7927 108.289 65.4615 108.426ZM61.5975 109.74C62.6452 109.398 63.7097 109.11 64.7868 108.878C64.3863 109.307 63.8761 109.614 63.3129 109.766C62.7498 109.918 62.1559 109.909 61.5975 109.74Z" fill="#263238"/>
<path d="M54.4022 119.505C54.8628 120.286 55.6104 120.85 56.4814 121.074C57.6345 121.365 58.1804 120.317 57.8308 119.214C57.518 118.24 56.5428 116.914 55.3774 117.1C55.1255 117.146 54.8892 117.256 54.6903 117.419C54.4913 117.582 54.3362 117.793 54.2391 118.033C54.1419 118.272 54.106 118.533 54.1345 118.79C54.163 119.047 54.2551 119.293 54.4022 119.505Z" fill="#FF8B7B"/>
<path d="M63.5837 159.21C63.5837 159.21 62.9703 196.652 67.8095 210.18C72.4709 223.15 86.3751 245.446 86.3751 245.446L94.4343 245.241C94.4343 245.241 81.6279 217 79.5365 205.84C76.0527 187.321 76.8194 155 76.8194 155L63.5837 159.21Z" fill="#0BB0CF"/>
<path opacity="0.3" d="M70.8203 162.44L72.9854 156.24L76.8187 155C76.8187 155 76.4691 169.713 77.3094 184.971C73.8318 178.2 70.8203 165.8 70.8203 162.44Z" fill="black"/>
<path d="M85.2404 245.868L95.1948 245.613L94.6183 242.52L83.75 243.04L85.2404 245.868Z" fill="#263238"/>
<path d="M67.5234 158C67.5234 158 80.0968 187.072 88.2234 203.62C94.7861 216.987 115.21 234.918 115.21 234.918L120.81 230.993C120.81 230.993 105.44 209.752 100.907 200.687C86.4018 171.684 89.9776 159.73 81.6362 153.425L67.5234 158Z" fill="#0BB0CF"/>
<path d="M115.539 236.79L122.114 232.06L120.624 229.158L113.398 234.682L115.539 236.79Z" fill="#263238"/>
<path d="M81.6306 152.266L82.9554 153.642C83.0597 153.748 82.9554 153.928 82.7407 153.996L63.7826 160.053C63.6231 160.109 63.4637 160.053 63.4207 159.973L62.7461 158.385C62.697 158.28 62.8074 158.137 62.9853 158.082L81.2933 152.223C81.3484 152.2 81.4085 152.191 81.4676 152.199C81.5268 152.207 81.5829 152.23 81.6306 152.266Z" fill="#263238"/>
<path d="M79.7883 155.124L80.2789 154.969C80.3771 154.969 80.4384 154.857 80.4077 154.802L79.5184 152.749C79.4921 152.716 79.4555 152.692 79.4144 152.682C79.3733 152.672 79.3301 152.676 79.2915 152.694L78.8008 152.855C78.7027 152.886 78.6413 152.96 78.672 153.022L79.5675 155.068C79.5859 155.13 79.684 155.155 79.7883 155.124Z" fill="#0BB0CF"/>
<path d="M65.1864 159.792L65.6771 159.637C65.7752 159.606 65.8304 159.532 65.8059 159.47L64.9104 157.418C64.9104 157.356 64.7816 157.337 64.6835 157.368L64.1928 157.523C64.1008 157.554 64.0395 157.629 64.064 157.691L64.9595 159.743C64.9872 159.774 65.0241 159.796 65.0649 159.805C65.1057 159.814 65.1483 159.81 65.1864 159.792Z" fill="#0BB0CF"/>
<path d="M72.4836 157.48L72.9743 157.325C73.0724 157.294 73.1337 157.219 73.1031 157.157L72.2076 155.105C72.2076 155.049 72.0849 155.024 71.9868 155.055L71.4961 155.21C71.398 155.21 71.3367 155.316 71.3673 155.378L72.2567 157.43C72.2873 157.48 72.3855 157.48 72.4836 157.48Z" fill="#0BB0CF"/>
<path d="M61.8111 114.08C61.9215 114.445 62.1975 114.7 62.4244 114.613C62.6513 114.526 62.7617 114.185 62.6513 113.825C62.5409 113.466 62.271 113.205 62.038 113.292C61.8049 113.379 61.7068 113.701 61.8111 114.08Z" fill="#263238"/>
<path d="M65.8911 112.84C66.0015 113.205 66.2775 113.46 66.5044 113.373C66.7313 113.286 66.8418 112.951 66.7375 112.585C66.6332 112.22 66.3511 111.965 66.1242 112.052C65.8972 112.139 65.7868 112.474 65.8911 112.84Z" fill="#263238"/>
<path d="M66.0273 112.102L66.8185 111.588C66.8185 111.588 66.5793 112.406 66.0273 112.102Z" fill="#263238"/>
<path d="M64.8711 113.788C65.4401 114.522 66.1044 115.174 66.846 115.729C66.6981 115.916 66.5118 116.068 66.3 116.175C66.0882 116.282 65.856 116.341 65.6194 116.349L64.8711 113.788Z" fill="#FF5652"/>
<path d="M64.4076 118.358C64.4246 118.344 64.4371 118.325 64.4436 118.305C64.4502 118.284 64.4505 118.261 64.4444 118.24C64.4359 118.212 64.4173 118.188 64.3924 118.173C64.3674 118.158 64.3379 118.153 64.3095 118.159C63.864 118.306 63.3903 118.344 62.9275 118.27C62.4647 118.196 62.026 118.011 61.6476 117.732C61.6364 117.722 61.6233 117.714 61.6092 117.71C61.5951 117.705 61.5802 117.703 61.5654 117.704C61.5506 117.706 61.5361 117.71 61.5229 117.716C61.5096 117.723 61.4978 117.733 61.4882 117.744C61.4785 117.755 61.4711 117.769 61.4665 117.783C61.4619 117.797 61.4601 117.812 61.4613 117.827C61.4624 117.842 61.4665 117.857 61.4732 117.87C61.4799 117.884 61.4892 117.895 61.5004 117.905C61.9072 118.209 62.3799 118.41 62.8792 118.492C63.3784 118.574 63.8898 118.535 64.3708 118.376L64.4076 118.358Z" fill="#263238"/>
<path d="M60.2713 113.069C60.2999 113.042 60.321 113.008 60.3326 112.97C60.4237 112.705 60.5749 112.466 60.7741 112.271C60.9733 112.076 61.2149 111.931 61.4796 111.848C61.5104 111.844 61.5402 111.834 61.567 111.819C61.5938 111.803 61.6171 111.782 61.6353 111.757C61.6535 111.731 61.6662 111.702 61.6726 111.672C61.679 111.641 61.679 111.609 61.6725 111.579C61.666 111.548 61.6532 111.519 61.635 111.494C61.6167 111.469 61.5934 111.448 61.5665 111.432C61.5396 111.416 61.5098 111.407 61.479 111.403C61.4481 111.4 61.417 111.404 61.3876 111.414C61.0466 111.512 60.7347 111.694 60.4792 111.942C60.2237 112.191 60.0323 112.499 59.9217 112.84C59.9109 112.867 59.9057 112.897 59.9063 112.926C59.9069 112.956 59.9135 112.985 59.9255 113.013C59.9375 113.04 59.9547 113.064 59.9762 113.085C59.9976 113.105 60.0229 113.121 60.0505 113.131C60.0895 113.139 60.1299 113.138 60.1683 113.127C60.2067 113.116 60.242 113.096 60.2713 113.069Z" fill="#263238"/>
<path d="M67.1353 110.502C67.1333 110.488 67.1333 110.473 67.1353 110.459C67.143 110.401 67.129 110.342 67.0961 110.294C67.0632 110.246 67.0138 110.212 66.9575 110.198C66.6138 110.125 66.2577 110.134 65.9186 110.227C65.5795 110.32 65.267 110.493 65.0071 110.732C64.9664 110.774 64.9442 110.832 64.9454 110.891C64.9465 110.95 64.9709 111.007 65.0132 111.048C65.0555 111.089 65.1122 111.111 65.1709 111.11C65.2295 111.109 65.2853 111.084 65.326 111.042C65.5337 110.856 65.7821 110.722 66.0508 110.652C66.3195 110.582 66.6008 110.577 66.8716 110.639C66.9244 110.652 66.9801 110.645 67.0285 110.62C67.0769 110.595 67.1148 110.553 67.1353 110.502Z" fill="#263238"/>
<path d="M79.0707 129.493C79.8005 130.045 80.4139 130.56 81.0517 131.118C81.6896 131.676 82.2784 132.234 82.8917 132.816C84.0877 133.982 85.2408 135.197 86.3325 136.474C87.4364 137.759 88.4606 139.111 89.3992 140.523C89.6445 140.87 89.8592 141.248 90.0861 141.608C90.3131 141.968 90.54 142.333 90.7424 142.718C90.9448 143.102 91.1595 143.443 91.3557 143.871L91.6808 144.559L91.9446 145.254C92.5099 147.014 92.7754 148.859 92.7296 150.71C92.6924 152.429 92.5097 154.143 92.1838 155.831C91.8648 157.486 91.4478 159.104 90.9571 160.692C90.4623 162.282 89.885 163.844 89.2275 165.373L87.0072 164.542C87.3875 163.054 87.7493 161.491 88.0192 159.948C88.3189 158.419 88.538 156.875 88.6755 155.322C88.8229 153.819 88.8577 152.306 88.7797 150.796C88.7358 150.081 88.6498 149.369 88.5222 148.664C88.3876 148.013 88.2009 147.374 87.964 146.754L87.7739 146.326L87.5653 145.936C87.3997 145.65 87.1728 145.316 86.952 144.999C86.7312 144.683 86.5472 144.379 86.3387 144.063C86.1301 143.747 85.9155 143.443 85.6824 143.146C84.7869 141.906 83.7749 140.777 82.7691 139.63C81.7632 138.483 80.6592 137.404 79.5368 136.35C78.9848 135.817 78.4144 135.296 77.844 134.788C77.2736 134.28 76.6603 133.771 76.1328 133.337L79.0707 129.493Z" fill="#FF8B7B"/>
<path d="M87.7126 163.06L84.3516 165.54L88.6449 167.834C88.6449 167.834 89.9268 165.54 89.5158 163.624L87.7126 163.06Z" fill="#FF8B7B"/>
<path d="M83.2891 169.564L86.8035 170.662L88.6741 167.847L84.3501 165.553L83.2891 169.564Z" fill="#FF8B7B"/>
<path d="M76.3231 125.116C78.6721 125.01 83.2905 130.844 83.2905 130.844L78.4943 137.702C78.4943 137.702 73.1092 133.362 72.6921 130.342C72.3425 127.769 73.33 125.24 76.3231 125.116Z" fill="#0BB0CF"/>
<path opacity="0.6" d="M76.3231 125.116C78.6721 125.01 83.2905 130.844 83.2905 130.844L78.4943 137.702C78.4943 137.702 73.1092 133.362 72.6921 130.342C72.3425 127.769 73.33 125.24 76.3231 125.116Z" fill="#0BB0CF"/>
<path d="M118.207 241.477H118.134C118.026 241.464 117.924 241.422 117.838 241.355C117.752 241.289 117.684 241.2 117.643 241.099C117.611 241.04 117.594 240.974 117.594 240.907C117.594 240.84 117.611 240.774 117.643 240.715C117.943 240.194 119.63 240.095 119.82 240.095C119.842 240.094 119.863 240.1 119.881 240.111C119.899 240.122 119.914 240.138 119.924 240.157C119.937 240.175 119.943 240.197 119.943 240.219C119.943 240.241 119.937 240.262 119.924 240.281C119.514 240.74 118.784 241.477 118.207 241.477ZM119.556 240.343C118.882 240.392 117.986 240.554 117.833 240.826C117.816 240.851 117.808 240.88 117.808 240.91C117.808 240.94 117.816 240.969 117.833 240.994C117.859 241.062 117.902 241.121 117.958 241.167C118.014 241.213 118.081 241.243 118.152 241.254C118.477 241.291 118.992 240.95 119.556 240.343Z" fill="#3182CE"/>
<path d="M119.706 240.33C119.142 240.33 118.032 240.014 117.823 239.555C117.79 239.474 117.784 239.384 117.806 239.299C117.828 239.214 117.877 239.138 117.946 239.084C118.01 239.026 118.084 238.983 118.166 238.956C118.247 238.929 118.333 238.92 118.418 238.929C119.087 239.003 119.878 240.101 119.909 240.169C119.919 240.186 119.924 240.205 119.924 240.225C119.924 240.245 119.919 240.264 119.909 240.281C119.9 240.297 119.888 240.311 119.873 240.322C119.858 240.333 119.841 240.34 119.823 240.343L119.706 240.33ZM118.345 239.152C118.253 239.152 118.165 239.187 118.099 239.251C117.995 239.344 118.007 239.419 118.026 239.468C118.161 239.766 119.031 240.088 119.602 240.088C119.32 239.735 118.792 239.177 118.375 239.134L118.345 239.152Z" fill="#3182CE"/>
<path d="M87.6285 251.838C87.2507 251.865 86.8737 251.775 86.549 251.578C86.4648 251.515 86.3956 251.434 86.3468 251.34C86.2979 251.247 86.2706 251.144 86.2669 251.038C86.2618 250.979 86.2722 250.92 86.297 250.867C86.3218 250.814 86.36 250.768 86.4079 250.734C86.9108 250.393 88.7938 251.255 89.1679 251.435C89.1888 251.444 89.2061 251.46 89.2172 251.48C89.2283 251.5 89.2325 251.524 89.2293 251.547C89.2272 251.57 89.2178 251.592 89.2024 251.61C89.1869 251.628 89.1663 251.641 89.1434 251.646C88.6461 251.761 88.1385 251.825 87.6285 251.838ZM86.7514 250.871C86.6747 250.867 86.5984 250.884 86.5306 250.92C86.5147 250.932 86.5024 250.949 86.4948 250.967C86.4872 250.986 86.4848 251.006 86.4877 251.026C86.49 251.099 86.5089 251.17 86.543 251.235C86.577 251.299 86.6252 251.355 86.6839 251.398C87.009 251.646 87.7757 251.683 88.7631 251.497C88.1291 251.183 87.4502 250.972 86.7514 250.871Z" fill="#0BB0CF"/>
<path d="M89.1165 251.646H89.0797C88.4663 251.385 87.1906 250.362 87.2397 249.835C87.2397 249.724 87.3317 249.575 87.6138 249.544C88.7178 249.407 89.1839 251.404 89.2023 251.515C89.2064 251.536 89.2051 251.557 89.1987 251.576C89.1922 251.596 89.1808 251.613 89.1655 251.627C89.1511 251.638 89.1342 251.644 89.1165 251.646ZM87.761 249.755H87.6874C87.5709 249.755 87.5095 249.804 87.4973 249.86C87.4605 250.164 88.3314 250.976 88.9693 251.329C88.8037 250.84 88.405 249.755 87.761 249.755Z" fill="#0BB0CF"/>
<path d="M61.9453 113.33L62.7365 112.815C62.7365 112.815 62.4973 113.634 61.9453 113.33Z" fill="#263238"/>
<path d="M177.696 67.9953H88.5602C87.6079 67.9887 86.6643 68.1794 85.7877 68.5556C84.9111 68.9318 84.12 69.4855 83.4631 70.1825C82.8063 70.8796 82.2977 71.7053 81.9686 72.6087C81.6395 73.5121 81.497 74.4741 81.5498 75.4353L89.9095 250.629C90.0286 252.624 90.8903 254.501 92.3215 255.881C93.7527 257.261 95.6475 258.043 97.6253 258.069H186.761C187.713 258.075 188.656 257.885 189.533 257.508C190.409 257.132 191.2 256.578 191.856 255.881C192.512 255.184 193.02 254.358 193.349 253.455C193.677 252.551 193.819 251.59 193.765 250.629L185.412 75.4353C185.293 73.4395 184.431 71.5631 183 70.1831C181.568 68.803 179.674 68.0214 177.696 67.9953Z" fill="black"/>
<path d="M180.988 67.9953H91.8278C90.8758 67.9887 89.9325 68.1794 89.0562 68.5556C88.1798 68.9319 87.3891 69.4857 86.7328 70.1829C86.0764 70.88 85.5684 71.7058 85.24 72.6092C84.9116 73.5126 84.7699 74.4744 84.8236 75.4353L93.1772 250.629C93.2963 252.624 94.158 254.501 95.5892 255.881C97.0204 257.261 98.9151 258.043 100.893 258.069H190.029C190.981 258.075 191.924 257.885 192.8 257.508C193.677 257.132 194.467 256.578 195.124 255.881C195.78 255.184 196.288 254.358 196.617 253.455C196.945 252.551 197.087 251.59 197.033 250.629L188.679 75.4353C188.561 73.4437 187.702 71.5708 186.276 70.1914C184.85 68.8119 182.962 68.0276 180.988 67.9953Z" fill="#263238"/>
<path d="M100.644 253.108C99.9877 253.092 99.3608 252.828 98.8857 252.37C98.4107 251.911 98.1214 251.291 98.0744 250.628L89.7331 75.4351C89.7181 75.1153 89.7675 74.7958 89.8782 74.4959C89.9888 74.1959 90.1585 73.9218 90.3769 73.69C90.5953 73.4582 90.8579 73.2736 91.1489 73.1472C91.4399 73.0209 91.7532 72.9556 92.0699 72.9551H181.206C181.863 72.9691 182.492 73.2314 182.967 73.6904C183.443 74.1494 183.731 74.7718 183.775 75.4351L192.129 250.628C192.144 250.948 192.095 251.267 191.985 251.566C191.874 251.866 191.705 252.14 191.487 252.371C191.27 252.603 191.008 252.788 190.717 252.914C190.427 253.041 190.115 253.107 189.798 253.108H100.644Z" fill="#38A169"/>
<path opacity="0.1" d="M100.599 251.869C100.272 251.858 99.9593 251.725 99.7219 251.497C99.4844 251.268 99.3383 250.959 99.3114 250.629L90.9578 75.4353C90.9521 75.2761 90.9778 75.1174 91.0336 74.9684C91.0894 74.8194 91.174 74.6831 91.2826 74.5676C91.3911 74.4521 91.5214 74.3597 91.6657 74.2958C91.81 74.2318 91.9656 74.1977 92.1231 74.1953H181.259C181.587 74.205 181.9 74.337 182.138 74.5659C182.376 74.7948 182.521 75.1044 182.547 75.4353L190.901 250.629C190.906 250.788 190.88 250.947 190.825 251.096C190.769 251.245 190.684 251.381 190.576 251.496C190.467 251.612 190.337 251.704 190.193 251.768C190.048 251.832 189.893 251.866 189.735 251.869H100.599Z" fill="black"/>
<g opacity="0.3">
<path d="M127.499 241.8H109.841C109.356 241.794 108.892 241.603 108.541 241.265C108.191 240.926 107.98 240.466 107.952 239.977L106.664 212.877C106.648 212.637 106.681 212.397 106.761 212.171C106.841 211.945 106.967 211.738 107.13 211.563C107.293 211.389 107.49 211.25 107.708 211.156C107.927 211.062 108.162 211.014 108.4 211.017H126.088C126.572 211.021 127.036 211.211 127.386 211.548C127.735 211.886 127.945 212.345 127.971 212.833L129.241 239.94C129.256 240.18 129.222 240.42 129.141 240.646C129.06 240.872 128.934 241.079 128.771 241.253C128.607 241.428 128.41 241.566 128.191 241.66C127.972 241.754 127.737 241.802 127.499 241.8ZM108.375 211.649C108.222 211.648 108.071 211.679 107.929 211.738C107.788 211.798 107.66 211.886 107.553 211.996C107.449 212.11 107.368 212.244 107.316 212.39C107.263 212.536 107.24 212.691 107.247 212.846L108.541 239.94C108.558 240.271 108.699 240.584 108.936 240.815C109.173 241.045 109.488 241.175 109.817 241.18H127.499C127.653 241.181 127.805 241.15 127.947 241.089C128.088 241.028 128.216 240.939 128.322 240.826C128.427 240.713 128.509 240.58 128.562 240.434C128.614 240.287 128.637 240.132 128.628 239.977L127.333 212.877C127.318 212.545 127.178 212.233 126.942 212.002C126.706 211.772 126.392 211.641 126.064 211.637L108.375 211.649Z" fill="#FAFAFA"/>
<path d="M125.831 217.942H109.229C109.147 217.942 109.069 217.91 109.012 217.851C108.954 217.793 108.922 217.714 108.922 217.632C108.922 217.55 108.954 217.471 109.012 217.413C109.069 217.355 109.147 217.322 109.229 217.322H125.85C125.931 217.322 126.009 217.355 126.067 217.413C126.124 217.471 126.157 217.55 126.157 217.632C126.157 217.714 126.124 217.793 126.067 217.851C126.009 217.91 125.931 217.942 125.85 217.942H125.831Z" fill="#FAFAFA"/>
<path d="M126.004 221.445H109.377C109.296 221.444 109.219 221.41 109.162 221.353C109.105 221.295 109.072 221.217 109.07 221.135C109.07 221.053 109.103 220.974 109.16 220.916C109.218 220.858 109.296 220.825 109.377 220.825H126.004C126.086 220.825 126.164 220.858 126.221 220.916C126.279 220.974 126.311 221.053 126.311 221.135C126.31 221.217 126.277 221.295 126.22 221.353C126.162 221.41 126.085 221.444 126.004 221.445Z" fill="#FAFAFA"/>
<path d="M126.169 224.948H109.541C109.46 224.947 109.383 224.913 109.326 224.856C109.269 224.798 109.236 224.72 109.234 224.638C109.234 224.556 109.267 224.477 109.324 224.419C109.382 224.361 109.46 224.328 109.541 224.328H126.169C126.25 224.328 126.328 224.361 126.385 224.419C126.443 224.477 126.475 224.556 126.475 224.638C126.475 224.72 126.443 224.799 126.385 224.857C126.328 224.915 126.25 224.948 126.169 224.948Z" fill="#FAFAFA"/>
<path d="M126.334 228.451H109.713C109.632 228.451 109.554 228.418 109.496 228.36C109.439 228.302 109.406 228.223 109.406 228.141C109.406 228.059 109.439 227.98 109.496 227.922C109.554 227.864 109.632 227.831 109.713 227.831H126.334C126.416 227.831 126.494 227.864 126.551 227.922C126.609 227.98 126.641 228.059 126.641 228.141C126.641 228.223 126.609 228.302 126.551 228.36C126.494 228.418 126.416 228.451 126.334 228.451Z" fill="#FAFAFA"/>
<path d="M126.498 231.954H109.877C109.796 231.954 109.718 231.921 109.66 231.863C109.603 231.805 109.57 231.726 109.57 231.644C109.57 231.562 109.603 231.483 109.66 231.425C109.718 231.367 109.796 231.334 109.877 231.334H126.498C126.58 231.334 126.658 231.367 126.715 231.425C126.773 231.483 126.805 231.562 126.805 231.644C126.805 231.726 126.773 231.805 126.715 231.863C126.658 231.921 126.58 231.954 126.498 231.954Z" fill="#FAFAFA"/>
<path d="M123.262 235.457H110.045C109.964 235.457 109.886 235.424 109.828 235.366C109.771 235.308 109.738 235.229 109.738 235.147C109.738 235.065 109.771 234.986 109.828 234.928C109.886 234.87 109.964 234.837 110.045 234.837H123.262C123.344 234.837 123.422 234.87 123.479 234.928C123.537 234.986 123.569 235.065 123.569 235.147C123.567 235.229 123.535 235.307 123.477 235.364C123.42 235.422 123.343 235.455 123.262 235.457Z" fill="#FAFAFA"/>
</g>
<g opacity="0.3">
<path d="M138.634 142.371L126.508 144.33C126.04 143.163 125.421 142.065 124.668 141.063C123.942 140.292 123.084 139.662 122.135 139.203L122.589 148.813C129.331 150.606 133.868 152.499 136.199 154.492C137.685 155.743 138.89 157.3 139.736 159.058C140.582 160.816 141.049 162.736 141.105 164.691C141.268 166.978 140.852 169.269 139.897 171.35C138.989 173.29 137.682 175.013 136.064 176.403C134.556 177.708 132.813 178.706 130.93 179.341C128.72 180.013 126.43 180.376 124.122 180.42L124.202 182.113C124.22 182.426 124.175 182.74 124.068 183.035C123.962 183.329 123.796 183.599 123.582 183.826C123.368 184.054 123.11 184.234 122.825 184.356C122.539 184.479 122.231 184.54 121.92 184.537C121.275 184.53 120.657 184.276 120.19 183.826C119.723 183.376 119.443 182.764 119.406 182.113L119.326 180.42C116.634 180.245 113.976 179.716 111.42 178.845C109.462 178.13 107.651 177.056 106.078 175.677C104.642 174.438 103.427 172.96 102.484 171.306C101.538 169.528 100.851 167.622 100.441 165.646L113.634 164.089C114.133 166.276 114.746 167.857 115.474 168.832C116.389 169.966 117.564 170.855 118.897 171.424L118.338 159.694C115.071 158.871 111.872 157.793 108.77 156.47C106.764 155.458 105.039 153.955 103.753 152.099C102.251 149.952 101.419 147.399 101.368 144.77C101.225 142.956 101.475 141.132 102.1 139.426C102.725 137.719 103.71 136.17 104.986 134.887C107.587 132.238 111.573 130.771 116.946 130.485L116.903 129.624C116.885 129.31 116.93 128.996 117.037 128.702C117.143 128.407 117.309 128.137 117.523 127.91C117.737 127.683 117.995 127.502 118.281 127.38C118.567 127.258 118.874 127.196 119.185 127.199C119.83 127.206 120.448 127.46 120.915 127.91C121.382 128.36 121.662 128.973 121.7 129.624L121.742 130.485C126.649 130.795 130.454 131.969 133.157 134.007C135.875 136.079 137.808 139.031 138.634 142.371ZM117.351 139.054C116.257 139.337 115.27 139.939 114.511 140.784C113.995 141.484 113.745 142.349 113.806 143.22C113.838 144.155 114.175 145.053 114.763 145.775C115.582 146.643 116.618 147.271 117.762 147.591L117.351 139.054ZM123.711 171.74C125.551 171.327 126.88 170.632 127.698 169.657C128.091 169.218 128.393 168.705 128.589 168.148C128.785 167.59 128.87 166.999 128.839 166.408C128.776 165.332 128.342 164.311 127.612 163.525C126.839 162.651 125.367 161.833 123.208 161.082L123.711 171.74Z" fill="#FAFAFA"/>
</g>
<path opacity="0.2" d="M170.685 90.8672H109.965L115.884 214.935C116.172 220.018 118.36 224.8 122.003 228.315C125.646 231.83 130.474 233.816 135.51 233.87H196.23L190.318 109.802C190.032 104.717 187.844 99.9323 184.199 96.4166C180.554 92.9009 175.723 90.9172 170.685 90.8672Z" fill="black"/>
<path d="M185.559 90.8672H109.984C115.021 90.9202 119.849 92.9051 123.493 96.4204C127.137 99.9356 129.324 104.719 129.611 109.802L134.438 210.8C134.727 215.883 136.914 220.665 140.557 224.18C144.201 227.695 149.029 229.68 154.065 229.735H192.171C194.597 229.76 197.003 229.281 199.238 228.327C201.473 227.372 203.49 225.963 205.163 224.188C206.837 222.412 208.131 220.307 208.965 218.003C209.799 215.7 210.156 213.248 210.013 210.8L205.192 109.802C204.906 104.717 202.719 99.9323 199.074 96.4166C195.428 92.9009 190.597 90.9172 185.559 90.8672Z" fill="#FAFAFA"/>
<path d="M171.902 210.8C172.046 213.247 171.69 215.698 170.857 218C170.024 220.302 168.732 222.407 167.06 224.182C165.389 225.958 163.374 227.368 161.14 228.323C158.907 229.278 156.503 229.758 154.078 229.735H229.647C232.072 229.758 234.476 229.278 236.71 228.323C238.943 227.368 240.959 225.959 242.631 224.183C244.303 222.407 245.596 220.303 246.43 218C247.263 215.698 247.62 213.247 247.477 210.8H171.902Z" fill="#E6E6E6"/>
<path d="M196.199 153.555H142.79C142.416 153.551 142.057 153.403 141.786 153.142C141.515 152.881 141.352 152.526 141.33 152.148C141.32 151.966 141.347 151.784 141.409 151.613C141.471 151.442 141.567 151.286 141.691 151.154C141.816 151.022 141.965 150.918 142.131 150.847C142.297 150.775 142.475 150.739 142.655 150.74H196.064C196.443 150.738 196.808 150.883 197.084 151.145C197.36 151.407 197.526 151.766 197.548 152.148C197.559 152.332 197.531 152.516 197.467 152.688C197.404 152.861 197.305 153.018 197.179 153.15C197.052 153.282 196.899 153.387 196.731 153.456C196.562 153.526 196.381 153.56 196.199 153.555Z" fill="#BE8E89"/>
<path d="M196.617 162.341H143.208C142.833 162.337 142.475 162.19 142.204 161.928C141.933 161.667 141.77 161.312 141.748 160.934C141.738 160.752 141.765 160.57 141.827 160.399C141.889 160.229 141.985 160.072 142.109 159.94C142.234 159.809 142.383 159.704 142.549 159.633C142.715 159.561 142.893 159.525 143.073 159.526H196.488C196.861 159.532 197.219 159.68 197.489 159.941C197.758 160.202 197.92 160.557 197.942 160.934C197.952 161.116 197.925 161.297 197.863 161.468C197.801 161.639 197.705 161.795 197.58 161.927C197.456 162.059 197.307 162.164 197.141 162.235C196.975 162.306 196.797 162.342 196.617 162.341Z" fill="#BE8E89"/>
<path d="M197.041 171.12H143.626C143.251 171.115 142.893 170.968 142.622 170.707C142.351 170.445 142.188 170.09 142.166 169.712C142.156 169.53 142.183 169.349 142.245 169.178C142.307 169.007 142.403 168.851 142.527 168.719C142.652 168.587 142.801 168.482 142.967 168.411C143.132 168.34 143.311 168.304 143.491 168.305H196.937C197.311 168.309 197.67 168.456 197.941 168.718C198.212 168.979 198.375 169.334 198.397 169.712C198.407 169.897 198.379 170.081 198.315 170.254C198.251 170.427 198.152 170.585 198.025 170.717C197.897 170.849 197.744 170.953 197.575 171.023C197.405 171.092 197.224 171.125 197.041 171.12Z" fill="#BE8E89"/>
<path d="M197.457 179.917H144.048C143.674 179.912 143.316 179.764 143.045 179.503C142.774 179.242 142.611 178.887 142.588 178.51C142.578 178.328 142.605 178.146 142.667 177.976C142.729 177.805 142.825 177.649 142.949 177.517C143.073 177.385 143.223 177.28 143.389 177.209C143.554 177.138 143.733 177.101 143.913 177.103H197.322C197.696 177.107 198.055 177.254 198.326 177.515C198.597 177.777 198.76 178.132 198.782 178.51C198.792 178.692 198.765 178.874 198.703 179.044C198.64 179.215 198.544 179.371 198.42 179.503C198.296 179.635 198.147 179.74 197.981 179.811C197.815 179.882 197.637 179.919 197.457 179.917Z" fill="#BE8E89"/>
<path d="M176.641 188.703H144.466C144.091 188.699 143.732 188.552 143.461 188.291C143.19 188.029 143.028 187.674 143.006 187.296C142.996 187.114 143.023 186.932 143.085 186.762C143.147 186.591 143.243 186.435 143.367 186.303C143.491 186.171 143.641 186.066 143.807 185.995C143.972 185.924 144.151 185.888 144.331 185.889H176.506C176.881 185.893 177.24 186.04 177.511 186.302C177.781 186.563 177.944 186.918 177.966 187.296C177.976 187.478 177.949 187.66 177.887 187.831C177.825 188.001 177.729 188.158 177.605 188.289C177.481 188.421 177.331 188.526 177.165 188.597C177 188.668 176.821 188.705 176.641 188.703Z" fill="#BE8E89"/>
<path d="M180.352 135.344C186.672 128.8 186.288 118.059 179.494 111.355C172.7 104.65 162.068 104.52 155.748 111.065C149.428 117.61 149.812 128.35 156.607 135.055C163.401 141.759 174.032 141.889 180.352 135.344Z" fill="#BE8E89"/>
<path d="M181.898 123.194C182.014 125.498 181.548 127.793 180.543 129.865C179.454 132.086 177.767 133.951 175.676 135.248C173.586 136.544 171.176 137.218 168.724 137.193C166.187 137.174 163.699 136.488 161.503 135.203C159.307 133.919 157.48 132.079 156.2 129.865C155.005 127.839 154.321 125.549 154.206 123.194C154.1 121.384 154.364 119.572 154.98 117.87C155.596 116.168 156.552 114.612 157.788 113.299C159.024 111.986 160.514 110.944 162.165 110.238C163.817 109.532 165.594 109.176 167.387 109.194C171.109 109.241 174.674 110.711 177.367 113.308C180.059 115.906 181.679 119.438 181.898 123.194Z" fill="white"/>
<path opacity="0.4" d="M180.542 129.865C179.453 132.086 177.766 133.952 175.676 135.248C173.585 136.544 171.176 137.218 168.723 137.193C166.187 137.174 163.698 136.488 161.503 135.204C159.307 133.919 157.479 132.079 156.199 129.865C159.729 127.417 163.915 126.118 168.196 126.145C172.581 126.153 176.869 127.445 180.542 129.865Z" fill="#BE8E89"/>
<path opacity="0.4" d="M172.338 122.858C174.662 120.452 174.521 116.504 172.025 114.04C169.528 111.577 165.621 111.53 163.297 113.936C160.974 116.342 161.114 120.29 163.61 122.754C166.107 125.218 170.015 125.264 172.338 122.858Z" fill="#BE8E89"/>
<path d="M219.479 253.419H214.977L214.523 242.866H219.031L219.479 253.419Z" fill="#B55B52"/>
<path opacity="0.2" d="M214.531 242.872L214.758 248.309H219.266L219.033 242.872H214.531Z" fill="black"/>
<path d="M257.832 241.056L253.551 242.47L248.16 233.151L252.447 231.737L257.832 241.056Z" fill="#B55B52"/>
<path opacity="0.2" d="M252.447 231.737L248.16 233.151L250.945 237.956L255.226 236.542L252.447 231.737Z" fill="black"/>
<path d="M234.716 101.01C235.274 101.698 235.746 102.312 236.231 102.988C236.716 103.663 237.175 104.308 237.635 104.978C238.543 106.323 239.414 107.7 240.23 109.119C241.927 112 243.311 115.058 244.358 118.24L244.462 118.55L244.511 118.711L244.578 118.965L244.701 119.473L244.769 119.938C244.841 120.495 244.864 121.058 244.836 121.619C244.779 122.565 244.643 123.504 244.431 124.427C244.043 126.081 243.528 127.702 242.892 129.276C241.679 132.292 240.21 135.196 238.5 137.956L235.434 136.474C236.354 133.566 237.274 130.59 237.948 127.695C238.3 126.299 238.566 124.883 238.746 123.454C238.821 122.837 238.844 122.215 238.813 121.594C238.804 121.373 238.775 121.153 238.727 120.937L238.697 120.825C238.685 120.805 238.675 120.784 238.666 120.763L238.617 120.645L238.519 120.403L238.108 119.43L237.648 118.463C237.341 117.843 237.004 117.173 236.666 116.528C235.967 115.251 235.213 113.98 234.428 112.715C233.643 111.451 232.809 110.235 231.974 108.995C231.14 107.755 230.226 106.515 229.398 105.393L234.716 101.01Z" fill="#B55B52"/>
<path d="M235.717 135.706L233.957 139.643H238.993C238.993 139.643 239.796 136.654 237.968 135.445L235.717 135.706Z" fill="#B55B52"/>
<path d="M234.546 144.069L239.219 143.158L238.993 139.643H233.957L234.546 144.069Z" fill="#B55B52"/>
<path d="M212.402 81.0277C212.402 81.3997 212.211 81.6973 211.972 81.6973C211.733 81.6973 211.543 81.3997 211.543 81.0277C211.543 80.6557 211.739 80.3643 211.972 80.3643C212.205 80.3643 212.402 80.6619 212.402 81.0277Z" fill="#263238"/>
<path d="M212.267 81.6973C211.835 82.8191 211.251 83.8749 210.531 84.8345C210.779 85.0142 211.063 85.1372 211.363 85.195C211.662 85.2528 211.971 85.244 212.267 85.1693V81.6973Z" fill="#A02724"/>
<path d="M213.69 78.9937C213.645 78.9943 213.602 78.9789 213.567 78.9503C213.354 78.7878 213.105 78.678 212.842 78.6296C212.579 78.5811 212.309 78.5954 212.052 78.6713C212.001 78.6854 211.946 78.6798 211.899 78.6555C211.851 78.6312 211.815 78.59 211.796 78.5398C211.776 78.4897 211.776 78.4341 211.796 78.384C211.815 78.3338 211.852 78.2926 211.899 78.2683C212.222 78.1646 212.565 78.1408 212.899 78.1991C213.233 78.2574 213.549 78.3959 213.819 78.6031C213.864 78.6377 213.894 78.6885 213.903 78.7451C213.913 78.8016 213.9 78.8596 213.868 78.9069C213.847 78.934 213.82 78.9559 213.789 78.9709C213.758 78.9859 213.724 78.9937 213.69 78.9937Z" fill="#263238"/>
<path d="M224.136 85.2617C223.486 88.5973 222.842 94.7043 225.148 96.9239C225.148 96.9239 224.247 100.303 218.126 100.303C211.379 100.303 214.906 96.9239 214.906 96.9239C218.586 96.0373 218.488 93.2845 217.844 90.6929L224.136 85.2617Z" fill="#B55B52"/>
<path d="M226.032 98.0833C226.516 97.0169 227.05 95.7893 225.946 95.4049C224.719 94.9833 218.12 94.5555 215.832 95.3491C215.531 95.4333 215.25 95.5772 215.004 95.7724C214.759 95.9675 214.554 96.21 214.403 96.4858C214.251 96.7615 214.155 97.0651 214.12 97.3787C214.085 97.6923 214.113 98.0098 214.2 98.3127L226.032 98.0833Z" fill="#263238"/>
<path d="M252.623 243.555C252.292 243.877 251.918 244.137 251.636 244.094C251.547 244.076 251.466 244.03 251.403 243.964C251.34 243.897 251.3 243.813 251.286 243.722C251.268 243.652 251.264 243.578 251.277 243.506C251.29 243.434 251.318 243.366 251.36 243.307C251.728 242.73 253.2 242.482 253.28 242.476C253.299 242.473 253.319 242.475 253.338 242.483C253.356 242.491 253.372 242.503 253.384 242.519C253.396 242.537 253.402 242.557 253.402 242.578C253.402 242.599 253.396 242.62 253.384 242.637C253.163 242.969 252.908 243.276 252.623 243.555ZM251.624 243.319C251.592 243.349 251.563 243.382 251.538 243.418C251.513 243.454 251.496 243.495 251.489 243.537C251.482 243.58 251.484 243.624 251.495 243.666C251.544 243.858 251.636 243.877 251.667 243.877C251.979 243.927 252.648 243.257 253.059 242.736C252.544 242.821 252.054 243.02 251.624 243.319Z" fill="#0BB0CF"/>
<path d="M253.361 242.656L253.312 242.687C252.803 242.823 251.472 242.736 251.19 242.302C251.148 242.233 251.13 242.151 251.139 242.07C251.148 241.99 251.183 241.914 251.239 241.856C251.292 241.793 251.357 241.741 251.429 241.704C251.502 241.667 251.581 241.645 251.662 241.639C252.337 241.589 253.312 242.463 253.355 242.501C253.37 242.513 253.381 242.53 253.386 242.549C253.392 242.567 253.392 242.587 253.386 242.606C253.384 242.625 253.376 242.643 253.361 242.656ZM251.442 241.961L251.405 241.998C251.319 242.104 251.356 242.16 251.368 242.184C251.534 242.439 252.466 242.581 253.042 242.513C252.661 242.165 252.188 241.936 251.681 241.856C251.595 241.863 251.515 241.9 251.454 241.961H251.442Z" fill="#0BB0CF"/>
<path d="M213.165 253.648C212.588 253.648 212.03 253.568 211.846 253.307C211.796 253.239 211.77 253.156 211.77 253.072C211.77 252.987 211.796 252.904 211.846 252.836C211.882 252.773 211.931 252.718 211.989 252.674C212.047 252.63 212.113 252.599 212.184 252.582C212.932 252.377 214.508 253.282 214.576 253.326C214.595 253.336 214.61 253.353 214.619 253.373C214.628 253.393 214.63 253.416 214.625 253.437C214.621 253.458 214.612 253.478 214.598 253.493C214.584 253.509 214.565 253.519 214.545 253.524C214.089 253.605 213.628 253.646 213.165 253.648ZM212.453 252.768C212.384 252.758 212.314 252.758 212.245 252.768C212.202 252.776 212.161 252.794 212.125 252.82C212.089 252.845 212.059 252.878 212.036 252.917C211.963 253.053 211.987 253.121 212.036 253.158C212.245 253.45 213.386 253.456 214.22 253.338C213.673 253.034 213.073 252.84 212.453 252.768Z" fill="#0BB0CF"/>
<path d="M214.524 253.524H214.481C213.941 253.276 212.862 252.284 212.942 251.776C212.942 251.652 213.046 251.503 213.34 251.472C213.45 251.46 213.56 251.47 213.666 251.502C213.771 251.534 213.869 251.587 213.954 251.658C214.524 252.135 214.647 253.363 214.653 253.413C214.652 253.432 214.648 253.451 214.639 253.468C214.631 253.485 214.619 253.5 214.604 253.512C214.592 253.519 214.579 253.524 214.565 253.526C214.551 253.528 214.538 253.528 214.524 253.524ZM213.426 251.664H213.365C213.169 251.664 213.156 251.757 213.156 251.782C213.107 252.092 213.837 252.867 214.383 253.202C214.33 252.681 214.115 252.19 213.77 251.801C213.672 251.722 213.551 251.678 213.426 251.677V251.664Z" fill="#0BB0CF"/>
<path d="M253.177 241.967L256.857 238.427C256.921 238.363 257.005 238.324 257.094 238.316C257.184 238.308 257.273 238.332 257.347 238.384L260.758 240.69C260.84 240.746 260.909 240.821 260.959 240.908C261.008 240.995 261.038 241.092 261.045 241.193C261.052 241.293 261.037 241.394 261 241.487C260.962 241.58 260.905 241.664 260.831 241.732C259.537 242.972 258.844 243.474 257.237 245.024C256.243 245.985 253.287 249.24 251.919 250.567C250.552 251.893 249.08 250.691 249.521 250.027C251.508 247.045 252.747 244.187 252.858 242.68C252.878 242.412 252.991 242.159 253.177 241.967Z" fill="#292929"/>
<path d="M215.004 252.892H219.911C220 252.891 220.086 252.922 220.156 252.978C220.225 253.035 220.273 253.114 220.291 253.202L221.18 257.25C221.203 257.347 221.203 257.449 221.181 257.546C221.159 257.643 221.115 257.734 221.053 257.812C220.991 257.89 220.912 257.952 220.823 257.994C220.733 258.037 220.635 258.058 220.536 258.056C218.758 258.056 216.194 257.926 213.962 257.926C211.355 257.926 209.104 258.069 206.043 258.069C204.203 258.069 203.682 256.178 204.455 256.004C207.975 255.229 210.858 255.142 213.9 253.245C214.228 253.025 214.611 252.903 215.004 252.892Z" fill="#292929"/>
<path d="M208.588 107.26C206.797 109.926 204.951 112.418 202.964 114.879C200.969 117.371 198.837 119.747 196.579 121.997L195.708 122.853L195.487 123.063L195.328 123.212L195.095 123.38C194.806 123.615 194.496 123.823 194.168 124C193.133 124.552 191.994 124.875 190.826 124.948C189.043 125.055 187.255 124.904 185.514 124.502C182.36 123.799 179.302 122.712 176.406 121.265L177.535 118.041C180.407 118.622 183.311 119.023 186.232 119.244C187.515 119.347 188.807 119.293 190.077 119.083C190.443 119.028 190.791 118.89 191.096 118.68C191.126 118.68 191.096 118.643 191.096 118.643L191.145 118.593L191.323 118.389L192.052 117.583C193.966 115.375 195.824 113.019 197.628 110.614C199.431 108.208 201.24 105.741 202.964 103.335L208.588 107.26Z" fill="#B55B52"/>
<path d="M233.22 97.9596C237.439 98.9392 242.285 110.577 242.285 110.577L233.802 116.454C231.695 113.394 229.827 110.173 228.215 106.819C225.7 101.494 228.902 96.9552 233.22 97.9596Z" fill="#0BB0CF"/>
<path opacity="0.3" d="M230.188 105.399L234.199 116.194L233.8 116.473C233.8 116.473 232.064 113.993 230.188 110.688V105.399Z" fill="black"/>
<path d="M207.974 98.1891C207.974 98.1891 203.177 103.664 207.71 137.559H231.808C231.973 133.839 229.649 115.574 233.219 97.9535C230.553 97.4352 227.857 97.0915 225.147 96.9243C221.736 96.7258 218.316 96.7258 214.904 96.9243C212.565 97.1626 210.248 97.5854 207.974 98.1891Z" fill="#0BB0CF"/>
<path opacity="0.3" d="M210.647 107.991C210.02 111.838 208.375 115.441 205.887 118.42C205.789 116.237 205.752 114.278 205.758 112.523L210.647 107.991Z" fill="black"/>
<path d="M212.728 101.884C213.342 106.193 204.914 117.211 204.914 117.211L196.469 111.333C196.469 111.333 198.812 105.263 202.755 101.283C207.263 96.7195 212.084 97.1907 212.728 101.884Z" fill="#0BB0CF"/>
<path d="M178.118 118.42L174.812 114.967L171.285 119.561C171.285 119.561 173.972 122.184 177.167 121.421L178.118 118.42Z" fill="#B55B52"/>
<path d="M170.273 113.044L168.758 117.868L171.285 119.542L174.811 114.947L170.273 113.044Z" fill="#B55B52"/>
<path d="M224.534 80.2523C224.258 84.7597 224.325 87.4195 222.08 89.7321C218.689 93.2165 213.181 91.1519 212.12 86.6321C211.157 82.5773 211.77 75.8813 216.137 74.0895C217.099 73.6899 218.146 73.5457 219.178 73.6706C220.211 73.7954 221.195 74.1852 222.036 74.8028C222.878 75.4205 223.549 76.2454 223.986 77.1992C224.423 78.153 224.612 79.204 224.534 80.2523Z" fill="#B55B52"/>
<path d="M228.417 70.8347C229.791 72.1119 229.209 73.5379 228.491 73.8045C230.717 74.2695 231.042 76.0613 229.871 79.8433C228.755 83.4641 226.05 88.3187 222.67 88.6163C217.592 89.0627 216.108 83.7121 216.071 78.4049C213.201 78.5847 214.439 76.0117 210.913 76.6069C207.846 77.1215 208.999 74.7035 206.393 73.6495C203.369 72.4095 203.976 67.7285 206.797 69.0739C206.797 69.0739 205.491 69.9419 207.012 70.7603C208.533 71.5787 208.386 69.6877 211.397 69.4583C214.409 69.2289 214.758 71.8329 218.279 70.2643C222.695 68.2927 225.596 68.1997 228.417 70.8347Z" fill="#263238"/>
<path d="M226.723 73.78C226.923 73.4554 227.222 73.2046 227.574 73.065C227.926 72.9254 228.314 72.9044 228.679 73.005C230.059 73.3026 230.17 73.9164 231.034 73.8358C231.899 73.7552 231.586 74.6852 231.586 74.6852C231.586 74.6852 231.353 73.9846 230.311 74.3752C229.268 74.7658 228.587 73.811 228.139 74.2388C227.692 74.6666 226.723 73.78 226.723 73.78Z" fill="#263238"/>
<path d="M218.474 81.4804C218.278 82.5857 217.723 83.5935 216.897 84.3448C215.806 85.3244 214.861 84.537 214.824 83.1978C214.824 81.9888 215.333 80.0172 216.591 79.546C217.848 79.0748 218.7 80.1412 218.474 81.4804Z" fill="#B55B52"/>
<path d="M216.254 137.559C216.254 137.559 221.369 172.36 224.178 185.38C227.245 199.64 248.62 237.584 248.62 237.584L256.47 235.004C256.47 235.004 239.45 200.818 237.696 186.675C235.789 171.33 231.808 137.534 231.808 137.534L216.254 137.559Z" fill="#263238"/>
<path d="M246.426 235.103C246.395 235.103 248.223 237.881 248.223 237.881L257.043 234.979L256.006 232.313L246.426 235.103Z" fill="#0BB0CF"/>
<path opacity="0.3" d="M219.487 149.959C225.4 151.131 224.774 173.42 224.063 184.884C222.358 176.78 219.861 161.187 218.156 150.12C218.569 149.915 219.038 149.858 219.487 149.959Z" fill="black"/>
<path d="M207.712 137.56C207.712 137.56 207.099 171.616 207.577 185.504C208.086 199.95 213.097 247.256 213.097 247.256H220.733C220.733 247.256 221.009 200.793 221.346 186.608C221.714 171.108 223.561 137.56 223.561 137.56H207.712Z" fill="#263238"/>
<path d="M211.611 244.181C211.575 244.181 212.041 247.386 212.041 247.386H221.327L221.578 244.528L211.611 244.181Z" fill="#0BB0CF"/>
</g>
<defs>
<clipPath id="clip0_1509_5462">
<rect width="306.667" height="310" fill="white" transform="translate(0.667969)"/>
</clipPath>
</defs>
</svg>
