<svg width="528" height="360" viewBox="0 0 528 360" fill="none" xmlns="http://www.w3.org/2000/svg">
<path d="M487.428 224.078L478.191 224.28L473.502 224.359C471.932 224.395 470.356 224.359 468.786 224.402H468.476V224.078L468.434 216V215.64H468.786L478.107 215.683C481.218 215.683 484.323 215.762 487.428 215.798H487.625V216C487.625 217.368 487.568 218.728 487.533 220.075L487.428 224.078ZM487.428 224.078L487.329 220.01C487.294 218.671 487.251 217.346 487.237 216.021L487.428 216.223C484.323 216.259 481.218 216.338 478.107 216.338L468.786 216.381L469.138 216.021V224.078L468.821 223.761C470.356 223.761 471.89 223.761 473.432 223.797L478.015 223.92L487.428 224.078Z" fill="#EBEBEB"/>
<path d="M477.03 234.237L467.793 234.439L463.098 234.518C461.535 234.518 459.958 234.518 458.388 234.561H458.078V234.237V226.18V225.82H458.43L467.751 225.871C470.856 225.871 473.967 225.95 477.072 225.986H477.269V226.18C477.269 227.548 477.213 228.909 477.178 230.255L477.03 234.237ZM477.03 234.237L476.931 230.169C476.896 228.83 476.854 227.505 476.84 226.18L477.03 226.382C473.925 226.418 470.813 226.497 467.709 226.497L458.388 226.54L458.74 226.18V234.237L458.423 233.92C459.958 233.92 461.493 233.92 463.034 233.956L467.66 234.043L477.03 234.237Z" fill="#EBEBEB"/>
<path d="M497.826 234.237L488.59 234.439L483.901 234.518C482.331 234.518 480.754 234.518 479.184 234.561H478.874V234.237L478.832 226.18V225.82H479.184L488.505 225.871C491.617 225.871 494.721 225.95 497.826 225.986H498.023V226.18C498.023 227.548 497.96 228.909 497.932 230.255L497.826 234.237ZM497.826 234.237L497.727 230.169C497.727 228.83 497.65 227.505 497.636 226.18L497.826 226.382C494.721 226.418 491.617 226.497 488.505 226.497L479.184 226.54L479.536 226.18V234.237L479.219 233.92C480.761 233.92 482.289 233.92 483.83 233.956L488.463 234.043L497.826 234.237Z" fill="#EBEBEB"/>
<path d="M221.611 128.21L212.375 128.412L207.686 128.491C206.116 128.491 204.539 128.491 202.969 128.491H202.659V128.167L202.617 120.11V119.75H202.969L212.29 119.793C215.402 119.793 218.506 119.872 221.611 119.908H221.808V120.103C221.808 121.471 221.745 122.824 221.71 124.171L221.611 128.21ZM221.611 128.21L221.513 124.135C221.513 122.796 221.435 121.471 221.421 120.153L221.611 120.348C218.506 120.348 215.402 120.463 212.29 120.463L202.969 120.513L203.321 120.153L203.286 128.21L202.969 127.886C204.504 127.886 206.039 127.886 207.58 127.929L212.213 128.008L221.611 128.21Z" fill="#EBEBEB"/>
<path d="M211.199 138.37L201.963 138.571L197.267 138.65C195.704 138.65 194.127 138.65 192.557 138.686H192.248V138.362L192.191 130.32V129.96H192.543L201.864 130.003C204.969 130.003 208.081 130.082 211.185 130.118H211.382V130.32C211.382 131.688 211.326 133.042 211.291 134.388L211.199 138.37ZM211.199 138.37L211.101 134.294C211.066 132.955 211.023 131.63 211.009 130.313L211.199 130.507C208.095 130.543 204.983 130.622 201.878 130.622L192.557 130.673L192.909 130.313L192.895 138.37L192.579 138.046C194.113 138.046 195.648 138.046 197.19 138.089L201.815 138.168L211.199 138.37Z" fill="#EBEBEB"/>
<path d="M232.01 138.37L222.773 138.571L218.084 138.65C216.515 138.65 214.945 138.65 213.368 138.686H213.058V138.362L213.016 130.32V129.96H213.368L222.689 130.003C225.8 130.003 228.905 130.082 232.01 130.118H232.207V130.32C232.207 131.688 232.143 133.042 232.115 134.388L232.01 138.37ZM232.01 138.37L231.911 134.294C231.911 132.955 231.834 131.63 231.819 130.313L232.01 130.507C228.905 130.543 225.8 130.622 222.689 130.622L213.368 130.673L213.72 130.313L213.684 138.37L213.368 138.046C214.909 138.046 216.437 138.046 217.979 138.089L222.611 138.168L232.01 138.37Z" fill="#EBEBEB"/>
<path d="M69.611 181.519L60.3745 181.72L55.6789 181.8C54.116 181.8 52.539 181.8 50.9691 181.836H50.6875V181.512V173.455V173.095H51.0395L60.3605 173.138C63.4651 173.138 66.5768 173.217 69.6814 173.253H69.8785V173.448C69.8785 174.816 69.8222 176.169 69.787 177.516L69.611 181.519ZM69.611 181.519L69.5125 177.444C69.5125 176.104 69.435 174.78 69.4209 173.462L69.611 173.656C66.5064 173.692 63.3947 173.772 60.2901 173.772L50.9691 173.822L51.3211 173.462L51.2859 181.519L50.9691 181.195C52.5038 181.195 54.0385 181.195 55.5803 181.238L60.2056 181.317L69.611 181.519Z" fill="#EBEBEB"/>
<path d="M378.654 128.203L369.418 128.405L364.729 128.484C363.159 128.52 361.582 128.484 360.012 128.52H359.702V128.196L359.66 120.139V119.779H360.012L369.333 119.822C372.445 119.822 375.549 119.909 378.654 119.945H378.851V120.139C378.851 121.507 378.795 122.868 378.76 124.207L378.654 128.203ZM378.654 128.203L378.555 124.135C378.52 122.789 378.478 121.464 378.464 120.146L378.654 120.341C375.549 120.377 372.445 120.456 369.333 120.463L360.012 120.506L360.364 120.146L360.329 128.203L360.012 127.879C361.547 127.879 363.082 127.879 364.623 127.922L369.256 128.002L378.654 128.203Z" fill="#EBEBEB"/>
<path d="M486.35 49.9539L477.114 50.1555L472.418 50.2347C470.855 50.2347 469.278 50.2347 467.708 50.2779H467.398V49.9539V41.8971V41.5371H467.75L477.071 41.5803C480.176 41.5803 483.288 41.6667 486.392 41.7027H486.589V41.8971C486.589 43.2651 486.533 44.6259 486.498 45.9651L486.35 49.9539ZM486.35 49.9539L486.252 45.8859C486.216 44.5395 486.174 43.2147 486.16 41.8971L486.35 42.0915C483.246 42.0915 480.134 42.2067 477.029 42.2139L467.708 42.2571L468.06 41.8971L468.025 49.9539L467.708 49.6299C469.243 49.6299 470.778 49.6299 472.319 49.6731L476.945 49.7523L486.35 49.9539Z" fill="#EBEBEB"/>
<path d="M496.748 60.1125L487.511 60.3141L482.823 60.3933C481.253 60.4293 479.676 60.3933 478.106 60.4293H477.796V60.1053L477.754 52.0485V51.6885H478.106L487.427 51.7317C490.539 51.7317 493.643 51.8181 496.748 51.8541H496.945V52.0485C496.945 53.4165 496.882 54.7773 496.846 56.1165L496.748 60.1125ZM496.748 60.1125L496.649 56.0445C496.649 54.6981 496.572 53.3733 496.558 52.0557L496.748 52.2501C493.643 52.2861 490.539 52.3653 487.427 52.3725L478.106 52.4157L478.458 52.0557V60.1125L478.141 59.7885C479.676 59.7885 481.211 59.7885 482.752 59.8317L487.385 59.9109L496.748 60.1125Z" fill="#EBEBEB"/>
<path d="M48.8142 49.9607L39.5707 50.1623L34.882 50.2415C33.3191 50.2415 31.7422 50.2415 30.1723 50.2847H29.8555V49.9607V41.9039V41.5439H30.2145L39.5355 41.5943C42.6401 41.5943 45.7448 41.6735 48.8564 41.7095H49.0465V41.9039C49.0465 43.2719 48.9831 44.6327 48.955 45.9791L48.8142 49.9607ZM48.8142 49.9607L48.7086 45.8927C48.7086 44.5463 48.6311 43.2215 48.6171 41.9039L48.8142 42.0983C45.7025 42.1415 42.5979 42.2135 39.4932 42.2207L30.1723 42.2639L30.5243 41.9039L30.482 49.9607L30.1723 49.6799C31.707 49.6799 33.2347 49.6799 34.7764 49.6799L39.4087 49.7591L48.8142 49.9607Z" fill="#EBEBEB"/>
<path d="M277.149 149.897C276.285 150.731 275.214 151.307 274.052 151.56C273.348 151.747 272.566 151.855 271.82 151.992H269.271C268.222 151.826 267.159 151.697 266.139 151.488C262.324 150.651 258.71 149.045 255.508 146.765C247.076 141.064 239.972 133.538 234.698 124.718C232.93 121.808 231.712 118.584 231.108 115.214C230.953 114.329 230.833 113.436 230.699 112.543V109.937C230.91 108.936 231.079 107.921 231.34 106.934C231.597 106.009 232.081 105.166 232.748 104.486C232.875 104.602 232.987 104.695 233.1 104.81C237.155 108.953 241.212 113.095 245.272 117.238C245.403 117.349 245.497 117.501 245.54 117.67C245.583 117.839 245.573 118.018 245.511 118.181C245.203 119.207 245.161 120.298 245.391 121.346C245.621 122.394 246.113 123.363 246.821 124.157C250.284 128.179 253.992 131.974 257.923 135.518C258.707 136.246 259.662 136.752 260.696 136.985C261.73 137.219 262.805 137.173 263.815 136.85C264.111 136.771 264.322 136.721 264.576 136.98C268.72 141.242 272.873 145.495 277.036 149.738C277.058 149.76 277.086 149.825 277.149 149.897Z" fill="#38A169"/>
<path d="M285.119 140.588V141.452C284.752 141.993 284.355 142.512 283.929 143.007C282.676 144.339 281.381 145.628 280.107 146.931L279.712 147.313L267.195 134.518C268.836 132.862 270.469 131.17 272.159 129.521C272.342 129.348 272.557 129.213 272.792 129.126C273.027 129.039 273.276 129.001 273.526 129.014C273.775 129.028 274.02 129.092 274.244 129.204C274.469 129.316 274.669 129.473 274.834 129.665C275.777 130.601 276.692 131.559 277.65 132.502C279.825 134.734 282.015 136.952 284.169 139.198C284.521 139.635 284.838 140.1 285.119 140.588Z" fill="#38A169"/>
<path d="M252.305 110.002C250.756 111.535 249.172 113.033 247.637 114.516L235.219 101.823C235.493 101.571 235.81 101.304 236.099 101.016C237.239 99.857 238.359 98.669 239.52 97.5314C239.992 97.108 240.488 96.7137 241.006 96.3506H241.857C242.332 96.6488 242.784 96.9833 243.209 97.3514C246.25 100.433 249.28 103.529 252.298 106.639C253.438 107.806 253.438 108.857 252.305 110.002Z" fill="#38A169"/>
<path d="M44.1836 117.065H125.658V64.2021H44.1836V117.065Z" fill="#38A169"/>
<path d="M140.898 117.065H125.656V100.829L140.898 117.065Z" fill="#38A169"/>
<path d="M116.223 73.3389H53.6094V74.3469H116.223V73.3389Z" fill="white"/>
<path d="M85.9723 78.7676H53.6094V79.7756H85.9723V78.7676Z" fill="white"/>
<path d="M104.241 89.6182H53.6094V90.6262H104.241V89.6182Z" fill="white"/>
<path d="M116.223 95.04H53.6094V96.048H116.223V95.04Z" fill="white"/>
<path d="M116.223 100.462H53.6094V101.47H116.223V100.462Z" fill="white"/>
<path d="M75.8558 105.891H53.6094V106.899H75.8558V105.891Z" fill="white"/>
<path d="M483.818 138.175H402.344V184.795H483.818V138.175Z" fill="#38A169"/>
<path d="M387.102 184.802H402.343V168.566L387.102 184.802Z" fill="#DBDBDB"/>
<path d="M466.468 162.519H411.957V163.527H466.468V162.519Z" fill="white"/>
<path d="M455.26 167.947H411.957V168.955H455.26V167.947Z" fill="white"/>
<path d="M458.527 151.668H411.957V152.676H458.527V151.668Z" fill="white"/>
<path d="M472.762 146.246H411.957V147.254H472.762V146.246Z" fill="white"/>
<path d="M459.752 173.369H411.957V174.377H459.752V173.369Z" fill="white"/>
<path d="M442.654 88.625H293.047V95.3354H442.654V88.625Z" fill="#EBEBEB"/>
<path d="M307.991 95.3428H301.43V117.533H307.991V95.3428Z" fill="#EBEBEB"/>
<path d="M307.991 95.3428H301.43V102.204H307.991V95.3428Z" fill="#DBDBDB"/>
<path d="M434.268 95.3428H427.707V117.533H434.268V95.3428Z" fill="#EBEBEB"/>
<path d="M434.268 95.3428H427.707V102.204H434.268V95.3428Z" fill="#DBDBDB"/>
<path d="M331.504 88.6251V45.8643H320.972V88.6251H331.504Z" fill="#C7C7C7"/>
<path d="M331.504 48.2758V43.5742H320.972V48.2758H331.504Z" fill="#DBDBDB"/>
<path d="M331.5 56.0451V54.3027H320.968V56.0451H331.5Z" fill="#DBDBDB"/>
<path d="M332.816 83.0229V78.3213H320.975V83.0229H332.816Z" fill="#DBDBDB"/>
<path d="M338.863 88.6248V38.7432H331.506V88.6248H338.863Z" fill="#DBDBDB"/>
<path d="M337.363 62.6187V43.4307H332.949V62.6187H337.363Z" fill="#EBEBEB"/>
<path d="M391.19 83.2964L356.504 48.2285L351.332 53.5793L386.018 88.6472L391.19 83.2964Z" fill="#C7C7C7"/>
<path d="M382.038 76.1253L368.695 62.6357L365.592 65.8462L378.935 79.3358L382.038 76.1253Z" fill="#DBDBDB"/>
<path d="M351.352 88.6387V50.7451H338.856V88.6387H351.352Z" fill="#A6A6A6"/>
<path d="M351.352 84.6139V81.0859H338.856V84.6139H351.352Z" fill="#C7C7C7"/>
<path d="M351.352 78.7752V77.4072H338.856V78.7752H351.352Z" fill="#C7C7C7"/>
<path d="M320.973 88.6395V53.0283H312.342V88.6395H320.973Z" fill="#A6A6A6"/>
<path d="M320.973 84.8593V81.54H312.342V84.8593H320.973Z" fill="#C7C7C7"/>
<path d="M320.973 63.6844V60.3652H312.342V63.6844H320.973Z" fill="#C7C7C7"/>
<path d="M320.973 67.2478V65.959H312.342V67.2478H320.973Z" fill="#C7C7C7"/>
<path d="M426.925 72.0356L425.989 74.5772L425.412 76.1252L424.468 78.674L420.793 88.6316H400.919L397.23 78.674L396.287 76.1252L395.717 74.5772L394.773 72.0356L402.109 61.0988L398.308 53.8916H423.412L419.589 61.0988L426.925 72.0356Z" fill="#DBDBDB"/>
<path d="M426.925 72.0361L425.989 74.5777H395.717L394.773 72.0361H426.925Z" fill="#A6A6A6"/>
<path d="M425.414 76.126L424.47 78.6748H397.232L396.289 76.126H425.414Z" fill="#A6A6A6"/>
<path d="M39.2969 282.694L95.4761 282.521L151.648 282.456L264 282.341L376.351 282.456L432.523 282.521L488.702 282.694L432.523 282.874L376.351 282.938L264 283.054L151.648 282.938L95.4761 282.874L39.2969 282.694Z" fill="#263238"/>
<path d="M257.902 282.679H344.255L327.042 180.244H262.464L257.902 282.679Z" fill="#DBDBDB"/>
<path d="M257.902 282.679H265.477L269.723 180.244H262.464L257.902 282.679Z" fill="#A6A6A6"/>
<path d="M332.933 200.325C342.705 222.645 366.317 259.689 376.884 250.509C392.689 236.786 403.39 206.431 407.614 194.155C409.986 187.279 375.737 175.773 373.639 182.015C370.654 190.886 365.972 209.426 363.262 212.054C361.854 213.429 350.632 197.323 342.142 189.683C329.885 178.675 329.815 193.197 332.933 200.325Z" fill="#AD6359"/>
<path d="M416.167 183.823C413.118 190.836 401.383 202.695 397.483 204.444C393.582 206.194 372.983 187.164 373.413 182.686C373.842 178.207 386.134 154.75 392.942 151.15C399.75 147.55 419.328 176.551 416.167 183.823Z" fill="#AD6359"/>
<path d="M375.026 177.761C375.026 177.761 375.519 167.782 373.055 159.343C370.985 152.251 367.135 141.963 370.817 140.681C378.392 138.053 387.994 163.721 387.994 163.721C387.994 163.721 390.458 175.745 383.186 179.028C378.624 181.087 375.026 177.761 375.026 177.761Z" fill="#AD6359"/>
<path d="M383.567 158.832C384.06 162.871 388.432 159.962 388.432 159.962C388.432 159.962 383.131 165.722 385.215 169.66C387.242 173.469 392.396 169.761 392.769 169.502C392.487 169.812 387.756 175.212 390.255 178.97C392.853 182.872 397.401 178.25 397.697 177.948C397.521 178.315 395.31 183.29 397.845 185.709C402.195 189.849 408.193 177.292 412.812 175.888C412.812 175.888 416.036 183.614 416.17 183.808C416.17 183.808 422.118 171.972 419.922 165.708C419.614 164.792 419.01 164.012 418.211 163.495C417.411 162.978 416.462 162.755 415.522 162.864C415.522 162.864 417.852 159.264 415.98 156.24C415.008 154.692 411.756 154.893 411.756 154.893C411.756 154.893 413.502 151.934 411.671 149.356C410.214 147.29 407.151 147.816 407.151 147.816C407.151 147.816 407.539 144.172 405.384 142.56C401.006 139.305 382.504 150.184 383.567 158.832Z" fill="#AD6359"/>
<path d="M406.623 147.838C406.687 147.802 406.623 147.708 406.588 147.73C399.647 149.789 392.642 154.21 388.179 160.092C388.031 160.287 388.27 160.611 388.474 160.431C394.24 155.283 399.696 151.2 406.623 147.838Z" fill="#263238"/>
<path d="M411.798 154.8C411.875 154.764 411.798 154.634 411.735 154.656C404.589 156.816 396.838 162.043 392.466 169.423C392.318 169.675 392.431 170.057 392.628 169.783C395.895 165.117 405.546 157.802 411.798 154.8Z" fill="#263238"/>
<path d="M397.562 178.56C402.018 171.648 408.192 166.889 415.225 162.936C415.31 162.886 415.225 162.763 415.148 162.785C411.191 163.757 406.967 166.752 403.884 169.373C400.966 171.744 398.708 174.857 397.337 178.402C397.273 178.56 397.47 178.718 397.562 178.56Z" fill="#263238"/>
<path d="M388.292 159.955C388.116 160.185 388.644 160.193 388.475 160.43C387.771 161.424 384.004 167.796 385.729 169.79C387.137 171.381 390.157 170.575 391.213 169.79L393.853 167.839L392.037 170.64C391.219 171.867 390.601 173.221 390.207 174.65C389.988 175.301 389.907 175.992 389.969 176.677C390.031 177.362 390.234 178.026 390.566 178.625C390.876 179.179 391.365 179.608 391.948 179.837C392.532 180.067 393.175 180.084 393.769 179.885C395.093 179.419 396.278 178.613 397.211 177.545L399.887 174.665L398.281 178.265C397.833 179.261 397.509 180.311 397.317 181.389C397.102 182.404 397.183 183.46 397.549 184.428C397.731 184.854 398.024 185.22 398.397 185.486C398.77 185.751 399.208 185.906 399.661 185.933C400.689 185.826 401.666 185.421 402.477 184.766C404.255 183.377 405.924 181.849 407.469 180.194C408.278 179.388 409.088 178.574 409.94 177.797C410.74 176.978 411.699 176.34 412.756 175.925C411.752 176.445 410.857 177.162 410.123 178.034C409.341 178.862 408.595 179.726 407.849 180.597C406.382 182.396 404.756 184.052 402.991 185.544C402.045 186.365 400.886 186.888 399.654 187.049C398.975 187.055 398.309 186.861 397.736 186.489C397.163 186.118 396.707 185.584 396.423 184.953C395.93 183.766 395.795 182.455 396.036 181.188C396.225 179.983 396.568 178.809 397.057 177.696L398.127 178.416C397.042 179.696 395.649 180.664 394.086 181.224C393.21 181.51 392.263 181.475 391.41 181.123C390.586 180.754 389.889 180.139 389.411 179.359C388.992 178.599 388.735 177.757 388.657 176.888C388.58 176.02 388.683 175.144 388.961 174.319C389.41 172.754 390.112 171.277 391.037 169.949L391.861 170.769C390.453 171.705 387.186 172.987 384.729 170.805C382.012 167.429 387.257 161.049 388.292 159.955Z" fill="#263238"/>
<path d="M388.432 159.962C387.671 160.273 386.869 160.465 386.053 160.531C385.725 160.566 385.394 160.51 385.094 160.369C384.795 160.229 384.537 160.009 384.349 159.732C384.017 159.066 383.883 158.315 383.962 157.572C384.004 156.751 384.089 155.894 384.215 155.009C383.679 155.732 383.3 156.564 383.103 157.45C382.967 157.927 382.926 158.428 382.98 158.922C383.035 159.416 383.184 159.895 383.42 160.33C383.728 160.782 384.162 161.128 384.666 161.323C385.151 161.485 385.67 161.505 386.165 161.381C387.048 161.164 387.842 160.668 388.432 159.962Z" fill="#263238"/>
<path d="M371.556 182.686L407.206 208.08C407.206 208.08 385.91 253.202 372.753 253.08C359.595 252.958 340.587 219.161 334.033 204.552C327.478 189.943 331.386 177.566 344.649 190.872C357.912 204.178 362.664 209.664 363.094 209.484C363.896 209.153 371.556 182.686 371.556 182.686Z" fill="white"/>
<path d="M407.208 208.08C407.208 208.08 392.424 239.371 379.9 249.768C377.386 251.856 374.972 253.101 372.754 253.072C359.596 252.957 340.588 219.153 333.999 204.552C329.923 195.508 329.887 187.322 333.59 185.558C335.878 184.471 339.574 185.81 344.622 190.893C357.998 204.292 362.63 209.678 363.067 209.498C363.898 209.152 371.564 182.692 371.564 182.692L407.208 208.08Z" fill="#0BB0CF"/>
<path d="M385.142 244.439C384.705 244.958 384.262 245.462 383.818 245.951C379.806 248.535 375.305 250.22 370.611 250.898C369.316 251.044 368.013 251.097 366.711 251.056L365.901 250.538C367.455 250.634 369.015 250.593 370.562 250.415C372.414 250.208 374.236 249.778 375.99 249.134L377.32 248.687L378.608 248.133C379.038 247.946 379.481 247.787 379.897 247.571L381.143 246.923C382.529 246.189 383.865 245.359 385.142 244.439ZM358.094 204.688C354.026 206.58 350.315 209.191 347.133 212.399C345.068 214.479 343.16 216.715 341.423 219.088C341.508 219.246 341.599 219.412 341.698 219.57C343.455 217.158 345.392 214.888 347.492 212.781C350.159 210.101 353.198 207.837 356.51 206.063L357.756 205.415C357.985 205.297 358.22 205.191 358.46 205.098L358.094 204.688ZM388.887 206.985C385.506 205.293 381.968 203.949 378.327 202.974C377.947 202.881 377.567 202.787 377.179 202.708C376.933 202.65 376.68 202.593 376.433 202.55C373.356 201.89 370.197 201.725 367.07 202.06C366.612 202.125 366.162 202.197 365.704 202.283C365.655 202.449 365.599 202.622 365.549 202.78C366.07 202.686 366.598 202.607 367.126 202.542C370.029 202.229 372.96 202.353 375.828 202.91L376.595 203.054C377.137 203.169 377.679 203.291 378.221 203.428C381.832 204.38 385.341 205.697 388.697 207.359C393.723 209.881 398.599 212.706 403.298 215.819C403.368 215.697 403.432 215.574 403.488 215.459C398.79 212.34 393.914 209.51 388.887 206.985ZM392.583 197.668C386.875 197.909 381.314 199.586 376.391 202.55L375.785 202.91C374.542 203.672 373.341 204.503 372.188 205.401C366.155 210.095 361.339 216.129 356.756 222.198C354.461 225.244 352.208 228.311 349.829 231.278C349.66 231.494 349.484 231.702 349.308 231.918L349.576 232.314C349.78 232.07 349.984 231.825 350.181 231.594C352.575 228.621 354.834 225.554 357.136 222.515C361.72 216.467 366.528 210.477 372.498 205.847C373.792 204.838 375.146 203.912 376.553 203.075C376.743 202.953 376.94 202.838 377.137 202.73C378.777 201.789 380.486 200.98 382.248 200.31L383.565 199.821C384.001 199.662 384.459 199.554 384.909 199.418L386.254 199.036L387.662 198.755C389.48 198.336 391.339 198.138 393.202 198.165H393.287L392.583 197.668ZM348.829 195.155C346.37 196.273 343.799 197.116 341.163 197.668L339.79 197.942C339.332 198.028 338.868 198.057 338.382 198.122L336.974 198.287L335.566 198.345C334.28 198.436 332.989 198.412 331.708 198.273L331.835 198.748C337.786 199.192 343.75 198.093 349.174 195.551C349.097 195.414 348.963 195.285 348.829 195.155ZM338.678 186.213C336.185 187.945 333.599 189.534 330.934 190.972C330.934 191.166 330.934 191.361 330.934 191.562C333.778 190.041 336.529 188.344 339.17 186.479C339.001 186.386 338.84 186.292 338.678 186.213Z" fill="white"/>
<path d="M398.778 212.314C397.835 211.514 396.884 210.737 395.927 209.959C393.984 208.39 392.041 206.827 390.098 205.272C386.226 202.183 382.269 199.202 378.284 196.272C376.025 194.602 373.8 192.845 371.47 191.282C371.459 191.274 371.446 191.268 371.433 191.264C371.419 191.261 371.405 191.26 371.391 191.262C371.378 191.264 371.365 191.269 371.353 191.276C371.341 191.283 371.33 191.293 371.322 191.304C371.314 191.315 371.308 191.328 371.304 191.342C371.301 191.356 371.3 191.37 371.302 191.384C371.304 191.398 371.308 191.412 371.316 191.424C371.323 191.436 371.332 191.447 371.343 191.455C373.195 193.126 375.18 194.652 377.102 196.243C379.024 197.834 380.931 199.433 382.882 200.988C386.758 204.07 390.682 207.091 394.652 210.053C395.758 210.888 396.849 211.766 397.996 212.551C398.581 212.954 399.137 213.401 399.728 213.79C400.32 214.178 400.953 214.51 401.531 214.949C401.544 214.956 401.559 214.959 401.574 214.956C401.589 214.953 401.602 214.945 401.612 214.932C401.621 214.92 401.626 214.905 401.625 214.89C401.625 214.874 401.618 214.859 401.608 214.848C400.643 214.02 399.742 213.12 398.778 212.314Z" fill="#263238"/>
<path d="M363.368 208.678C362.007 212.439 360.887 216.287 360.016 220.198C359.552 222.127 359.186 224.078 358.827 226.022C358.447 227.954 358.193 229.91 358.066 231.876C358.066 231.948 358.172 231.948 358.186 231.876C358.777 229.997 359.214 228.038 359.636 226.116C360.059 224.194 360.537 222.257 360.96 220.356C361.812 216.482 362.811 212.645 363.551 208.75C363.555 208.737 363.557 208.724 363.557 208.711C363.557 208.698 363.554 208.685 363.549 208.673C363.543 208.661 363.536 208.65 363.527 208.641C363.517 208.632 363.506 208.625 363.494 208.62C363.482 208.615 363.469 208.613 363.457 208.613C363.444 208.614 363.431 208.617 363.419 208.622C363.407 208.627 363.397 208.635 363.388 208.644C363.379 208.654 363.372 208.665 363.368 208.678Z" fill="#263238"/>
<path opacity="0.1" d="M379.9 249.768C377.386 251.856 374.972 253.102 372.754 253.073C359.596 252.958 340.588 219.154 333.999 204.552C329.923 195.509 329.887 187.323 333.59 185.559L379.9 249.768Z" fill="black"/>
<path d="M359.489 282.679H273.904C272.961 280.908 286.984 204.242 315.848 182.65C322.255 177.862 333.617 180.943 336.771 185.602C352.653 209.009 359.489 282.679 359.489 282.679Z" fill="#0BB0CF"/>
<path d="M355.04 248.644C352.903 247.87 350.809 246.979 348.767 245.973C345.902 244.569 343.135 243.014 340.383 241.372L339.981 241.127C337.165 239.421 334.349 237.614 331.59 235.792L331.195 235.533L329.323 234.295C322.987 230.14 316.749 225.863 309.984 222.537C306.64 220.827 303.089 219.577 299.424 218.822C297.585 218.486 295.712 218.38 293.848 218.505C293.384 218.505 292.926 218.606 292.44 218.671C292.123 218.735 291.807 218.779 291.483 218.843C291.532 218.728 291.574 218.62 291.631 218.505C291.884 218.455 292.145 218.411 292.398 218.354C292.863 218.296 293.334 218.224 293.806 218.188C295.689 218.059 297.58 218.163 299.438 218.498C303.142 219.247 306.731 220.499 310.111 222.22C316.911 225.547 323.191 229.823 329.513 233.963L331.371 235.18L331.773 235.439C334.589 237.29 337.405 239.126 340.326 240.861L340.728 241.106C343.403 242.697 346.127 244.209 348.929 245.57C350.886 246.527 352.891 247.38 354.934 248.126L355.04 248.644ZM347.423 212.09L347.134 212.371C341.706 217.778 337.651 224.373 333.828 230.968C333.021 232.375 332.209 233.779 331.393 235.18C331.329 235.303 331.266 235.418 331.195 235.533C330.161 237.319 329.119 239.097 328.034 240.847C327.084 242.387 326.091 243.907 325.035 245.375C324.937 245.512 324.845 245.649 324.747 245.779C323.678 247.255 322.526 248.666 321.297 250.005C320.016 251.395 318.601 252.65 317.073 253.749L316.503 254.159C316.313 254.296 316.102 254.404 315.905 254.527L314.701 255.247C313.871 255.675 313.015 256.048 312.138 256.363C308.587 257.569 304.869 258.184 301.128 258.184C297.399 258.169 293.683 257.737 290.047 256.895C286.527 256.132 283.112 255.11 279.67 254.087C279.67 254.203 279.613 254.318 279.578 254.426C283.014 255.455 286.463 256.492 289.969 257.263C293.649 258.121 297.41 258.565 301.184 258.587C304.968 258.589 308.728 257.972 312.321 256.759C313.218 256.443 314.093 256.066 314.94 255.628L316.172 254.908C316.38 254.795 316.582 254.67 316.777 254.534L317.362 254.116C318.913 253.006 320.349 251.737 321.649 250.329C322.96 248.894 324.187 247.382 325.324 245.8C325.43 245.663 325.521 245.534 325.613 245.397C326.612 244 327.556 242.567 328.429 241.113C329.52 239.363 330.541 237.585 331.597 235.807L331.801 235.454L334.244 231.235C338.073 224.647 342.129 218.109 347.5 212.767L347.592 212.68C347.528 212.471 347.472 212.277 347.423 212.09ZM351.485 229.19C350.943 229.91 350.393 230.587 349.837 231.278C347.506 234.275 344.901 237.037 342.058 239.529C341.495 239.983 340.932 240.436 340.347 240.861L339.981 241.127C339.166 241.715 338.313 242.245 337.426 242.711L336.813 243.05C336.609 243.165 336.384 243.244 336.173 243.345L334.891 243.907C334.018 244.229 333.124 244.491 332.216 244.691C330.034 245.169 327.809 245.411 325.577 245.411H325.035C323.712 245.411 322.388 245.303 321.072 245.159C317.357 244.681 313.704 243.785 310.181 242.488C306.661 241.243 303.19 239.709 299.741 238.168C296.307 236.58 292.78 235.211 289.181 234.071C288.118 233.762 287.069 233.488 285.942 233.287L285.837 233.596C286.935 233.805 288.026 234.071 289.089 234.388C292.668 235.532 296.174 236.902 299.586 238.492C303.035 240.011 306.485 241.552 310.04 242.812C313.594 244.12 317.277 245.028 321.023 245.519C322.262 245.663 323.501 245.757 324.74 245.779C324.923 245.779 325.099 245.779 325.282 245.779C327.646 245.818 330.007 245.591 332.322 245.102C333.247 244.893 334.16 244.626 335.053 244.303L336.363 243.727C336.581 243.626 336.799 243.547 337.01 243.431L337.637 243.086C338.598 242.585 339.521 242.009 340.397 241.365L340.763 241.099C341.298 240.703 341.826 240.285 342.347 239.86C345.219 237.359 347.85 234.581 350.203 231.566C350.673 230.975 351.142 230.378 351.611 229.773C351.569 229.586 351.527 229.384 351.485 229.19ZM342.642 197.33C342.15 197.452 341.657 197.567 341.164 197.668L339.791 197.942C339.334 198.028 338.869 198.057 338.383 198.122L336.975 198.287L335.567 198.345C333.708 198.468 331.841 198.367 330.006 198.043C327.126 197.534 324.335 196.59 321.727 195.242L321.023 194.889C320.53 194.63 320.044 194.356 319.565 194.075C316.343 192.14 313.319 189.878 310.54 187.322L310.23 187.639C313.035 190.222 316.085 192.513 319.333 194.479C319.671 194.68 320.037 194.875 320.361 195.062L321.065 195.422C323.848 196.915 326.84 197.962 329.935 198.525C334.225 199.141 338.592 198.896 342.79 197.805C342.762 197.647 342.699 197.488 342.642 197.33ZM337.63 186.926C333.891 189.491 329.901 191.65 325.725 193.37C324.211 193.973 322.661 194.481 321.086 194.889L320.424 195.062C318.594 195.497 316.735 195.793 314.863 195.947L313.455 196.041C312.99 196.077 312.525 196.041 312.047 196.041H310.639L309.231 195.926C307.534 195.825 305.854 195.538 304.218 195.069C304.12 195.206 304.021 195.343 303.929 195.487C309.552 196.931 315.439 196.908 321.051 195.422L321.755 195.242C323.159 194.861 324.541 194.4 325.894 193.859C330.092 192.128 334.103 189.957 337.862 187.379L337.63 186.926ZM358.687 275.147C357.983 275.147 357.222 275.212 356.49 275.234H356.434L356.004 275.27C352.397 275.656 348.89 276.723 345.663 278.416C343.353 279.65 341.147 281.075 339.066 282.679H339.51C341.495 281.175 343.595 279.836 345.789 278.675C349.045 276.975 352.584 275.918 356.223 275.558H356.483H356.652C357.356 275.558 358.018 275.479 358.694 275.486C358.708 275.356 358.701 275.255 358.687 275.147ZM359.053 278.459C358.288 277.466 357.497 276.489 356.68 275.529C356.603 275.428 356.518 275.335 356.434 275.241L356.145 274.895C353.685 271.963 350.856 269.378 347.732 267.206C346.147 266.148 344.44 265.294 342.649 264.664C342.206 264.513 341.741 264.383 341.291 264.254C340.84 264.124 340.369 264.023 339.883 263.959C338.953 263.779 338.003 263.764 337.067 263.671C333.282 263.529 329.506 264.143 325.951 265.478C322.428 266.848 319.064 268.61 315.919 270.734C310.287 274.442 305.154 278.805 299.67 282.679H299.903C305.359 278.87 310.463 274.586 316.038 270.957C319.172 268.848 322.525 267.102 326.035 265.751C329.555 264.433 333.293 263.829 337.039 263.973C337.961 264.074 338.904 264.088 339.819 264.268C340.284 264.333 340.728 264.47 341.185 264.563C341.643 264.657 342.086 264.815 342.523 264.967C344.287 265.591 345.968 266.438 347.528 267.487C350.625 269.644 353.426 272.216 355.857 275.133C355.899 275.183 355.941 275.227 355.976 275.277L356.223 275.558C357.208 276.731 358.173 277.927 359.102 279.158C359.109 278.927 359.081 278.704 359.039 278.459H359.053Z" fill="white"/>
<path d="M304.485 192.045C287.061 212.659 263.575 249.069 273.171 257.119C288.948 270.352 335.024 277.999 345.598 279.28C350.16 279.842 359.298 249.343 356.25 245.397C353.202 241.451 304.485 238.665 304.154 235.605C303.964 233.87 311.363 218.779 316.122 200.267C321.592 178.927 309.392 186.235 304.485 192.045Z" fill="#AD6359"/>
<path d="M348.269 242.885C348.269 242.885 362.25 242.777 371.395 243.144C376.499 243.346 385.214 244.498 388.896 246.406C394.402 249.25 415.648 264.766 412.086 270.115C408.855 274.954 392.254 259.258 392.254 259.258C392.254 259.258 410.375 273.586 405.44 278.698C400.505 283.81 384.053 263.52 384.053 263.52C384.053 263.52 402.357 278.64 396.45 283.104C391.987 286.452 376.077 268.942 376.077 268.942C376.077 268.942 391.712 282.067 387.27 285.718C382.342 289.75 366.678 274.529 366.678 274.529C353.865 281.859 344.854 279.987 338.518 277.877C337.033 277.337 348.269 242.885 348.269 242.885Z" fill="#AD6359"/>
<path d="M386.298 253.893C388.488 255.499 390.712 257.104 392.754 258.933C394.795 260.762 396.774 262.598 398.646 264.585C403.229 269.452 405.355 273.225 405.193 273.009C401.504 267.832 394.296 261.287 392.254 259.487C390.212 257.687 388.262 255.794 386.228 254.001C386.178 253.922 386.249 253.857 386.298 253.893Z" fill="#263238"/>
<path d="M379.821 261.317C382.525 263.477 385.291 265.536 387.903 267.833C390.515 270.13 394.049 273.442 396.492 275.904C396.675 276.091 396.492 276.451 396.295 276.271C393.76 273.91 389.994 270.684 387.432 268.351C384.869 266.019 382.398 263.592 379.765 261.367C379.723 261.36 379.779 261.281 379.821 261.317Z" fill="#263238"/>
<path d="M373.119 266.659C377.421 269.762 381.159 273.672 384.735 277.596C384.918 277.79 384.735 277.819 384.51 277.632C380.715 273.924 377.759 270.986 373.014 266.832C372.957 266.746 373.049 266.594 373.119 266.659Z" fill="#263238"/>
<path d="M346.305 242.431C352.684 242.388 371.417 242.337 377.781 242.841C383.413 243.281 388.053 244.519 392.776 247.716C402.914 254.57 409.447 262.62 411.08 264.996C412.066 266.436 413.495 268.761 412.193 270.374C410.595 272.333 404.716 270.417 398.514 264.679C398.289 264.47 398.43 264.341 398.662 264.535C407.37 271.735 410.834 270.914 411.742 269.683C412.334 268.884 411.742 267.523 411.235 266.443C410.387 264.915 409.351 263.504 408.152 262.245C404.152 257.869 399.726 253.92 394.945 250.459C389.821 246.548 383.719 244.204 377.345 243.698C370.826 243.151 352.789 243.324 346.277 242.683C346.143 242.64 346.165 242.438 346.305 242.431Z" fill="#263238"/>
<path d="M406.476 275.817C406.117 274.039 404.864 272.412 403.871 270.943C402.665 269.094 401.281 267.375 399.738 265.809C399.675 265.744 399.555 265.809 399.619 265.91C400.932 267.48 402.152 269.13 403.273 270.849C403.868 271.795 404.409 272.776 404.892 273.787C405.349 274.759 405.891 275.882 405.652 276.991C405.202 279.108 402.569 279.057 401.013 278.488C400.005 278.1 399.034 277.618 398.112 277.048C396.857 276.23 395.666 275.313 394.55 274.305C394.458 274.219 394.205 274.255 394.304 274.348C396.627 276.609 401.027 281.311 404.617 279.59C405.306 279.279 405.868 278.732 406.207 278.044C406.546 277.356 406.641 276.569 406.476 275.817Z" fill="#263238"/>
<path d="M348.48 241.034L331.732 279.914C331.732 279.914 273.201 266.4 269.808 255.038C266.414 243.677 284.754 213.278 301.305 194.299C317.581 175.651 319.989 188.301 315.941 202.723C311.893 217.145 305.254 233.769 305.993 235.015C306.733 236.261 348.48 241.034 348.48 241.034Z" fill="#0BB0CF"/>
<path d="M309.76 222.048C309.718 222.156 309.683 222.271 309.641 222.379C306.389 220.744 302.944 219.548 299.39 218.823C297.551 218.487 295.679 218.381 293.815 218.506C293.35 218.506 292.892 218.607 292.407 218.671C291.921 218.736 291.491 218.815 291.041 218.945C290.126 219.147 289.26 219.507 288.366 219.787C284.916 221.13 281.751 223.139 279.045 225.706L279.488 224.921C282.07 222.59 285.041 220.753 288.26 219.499C289.161 219.211 290.041 218.844 290.971 218.643C291.428 218.513 291.9 218.455 292.379 218.355C292.857 218.254 293.315 218.225 293.787 218.189C295.669 218.06 297.56 218.164 299.419 218.499C303.002 219.217 306.479 220.41 309.76 222.048ZM340.736 241.107L340.335 240.862L338.73 239.89L337.758 239.775C338.462 240.228 339.23 240.689 339.969 241.128L340.37 241.373C342.482 242.633 344.594 243.843 346.763 244.973L346.931 244.577C344.848 243.475 342.785 242.316 340.736 241.107ZM329.31 238.723C328.888 239.443 328.459 240.163 328.022 240.847C327.072 242.388 326.079 243.907 325.023 245.376C324.924 245.513 324.833 245.65 324.734 245.779C323.666 247.256 322.514 248.667 321.285 250.006C320.004 251.396 318.588 252.65 317.061 253.75L316.491 254.16C316.3 254.297 316.089 254.405 315.892 254.527L314.688 255.247C313.859 255.676 313.003 256.048 312.126 256.363C308.575 257.57 304.857 258.185 301.115 258.185C297.391 258.169 293.68 257.737 290.048 256.896C286.38 256.097 282.783 255.01 279.171 253.937C275.968 252.987 272.744 252.029 269.449 251.403C269.449 251.518 269.449 251.633 269.449 251.741C272.709 252.367 275.898 253.332 279.087 254.275C282.691 255.355 286.303 256.435 289.985 257.263C293.665 258.122 297.425 258.566 301.2 258.588C304.984 258.59 308.744 257.973 312.337 256.759C313.234 256.444 314.109 256.066 314.956 255.629L316.188 254.909C316.396 254.795 316.598 254.67 316.793 254.535L317.378 254.117C318.929 253.007 320.365 251.738 321.665 250.33C322.976 248.895 324.203 247.383 325.34 245.801C325.445 245.664 325.537 245.535 325.628 245.398C326.628 244.001 327.571 242.568 328.444 241.114C328.923 240.351 329.388 239.573 329.852 238.803L329.31 238.723ZM341.222 240.163C340.933 240.394 340.638 240.624 340.335 240.84L339.969 241.107C339.154 241.695 338.3 242.224 337.413 242.691L336.801 243.029C336.597 243.144 336.371 243.223 336.16 243.324L334.879 243.886C334.005 244.208 333.112 244.471 332.204 244.671C330.022 245.148 327.797 245.39 325.565 245.391H325.023C323.699 245.391 322.376 245.283 321.059 245.139C317.344 244.66 313.692 243.764 310.169 242.467C306.649 241.222 303.178 239.688 299.728 238.147C296.295 236.559 292.768 235.191 289.168 234.051C285.557 232.992 281.706 232.416 277.968 233.165C276.778 233.41 275.627 233.819 274.546 234.382C274.476 234.526 274.405 234.677 274.342 234.821C275.499 234.19 276.739 233.734 278.024 233.467C281.699 232.747 285.5 233.309 289.077 234.367C292.656 235.511 296.161 236.882 299.573 238.471C303.023 239.991 306.473 241.531 310.028 242.791C313.585 244.107 317.273 245.022 321.024 245.52C322.263 245.664 323.502 245.758 324.741 245.779C324.924 245.779 325.1 245.779 325.283 245.779C327.647 245.819 330.008 245.592 332.323 245.103C333.249 244.893 334.161 244.627 335.055 244.303L336.364 243.727C336.583 243.627 336.801 243.547 337.012 243.432L337.639 243.087C338.6 242.586 339.523 242.01 340.398 241.366L340.764 241.099C341.131 240.826 341.468 240.538 341.863 240.25L341.222 240.163ZM310.57 187.287C310.267 187.013 309.971 186.747 309.676 186.466L309.296 186.718L310.281 187.618C312.573 189.717 315.021 191.631 317.603 193.342C317.603 193.162 317.603 192.982 317.603 192.809C315.132 191.158 312.786 189.319 310.584 187.308L310.57 187.287ZM314.85 195.927L313.442 196.02C312.978 196.056 312.513 196.02 312.034 196.02H310.626L309.218 195.905C307.356 195.791 305.514 195.458 303.727 194.911C302.946 194.674 302.171 194.4 301.411 194.083L301.242 194.278L301.08 194.465C301.901 194.817 302.74 195.122 303.593 195.379C308.052 196.597 312.709 196.862 317.272 196.157C317.272 195.977 317.321 195.804 317.349 195.624C316.568 195.783 315.716 195.883 314.864 195.948L314.85 195.927ZM337.068 263.65C333.282 263.515 329.506 264.136 325.952 265.479C322.43 266.848 319.065 268.611 315.92 270.735C314.16 271.901 312.443 273.125 310.746 274.385L311.02 274.464C312.668 273.247 314.336 272.074 316.047 270.958C319.18 268.849 322.533 267.103 326.044 265.752C329.564 264.434 333.301 263.83 337.047 263.974C337.533 264.024 338.019 264.053 338.505 264.096L338.638 263.794C338.138 263.751 337.603 263.722 337.083 263.671L337.068 263.65Z" fill="white"/>
<path d="M325.016 273.485C325.587 272.376 326.136 271.267 326.685 270.151C327.788 267.891 328.886 265.625 329.98 263.355C332.148 258.847 334.204 254.283 336.182 249.675C337.315 247.068 338.547 244.491 339.568 241.834C339.58 241.807 339.582 241.776 339.572 241.749C339.562 241.721 339.541 241.699 339.515 241.686C339.489 241.674 339.459 241.672 339.432 241.683C339.405 241.693 339.383 241.713 339.371 241.74C338.153 243.936 337.097 246.233 335.971 248.487C334.844 250.74 333.697 252.972 332.613 255.247C330.454 259.755 328.36 264.298 326.333 268.877C325.763 270.159 325.143 271.426 324.629 272.736C324.362 273.406 324.052 274.054 323.792 274.731C323.531 275.407 323.334 276.099 323.088 276.768C323.084 276.775 323.082 276.783 323.082 276.791C323.082 276.799 323.083 276.806 323.086 276.814C323.088 276.821 323.092 276.828 323.097 276.834C323.103 276.839 323.109 276.844 323.116 276.847C323.123 276.851 323.13 276.853 323.138 276.853C323.145 276.853 323.153 276.852 323.16 276.849C323.167 276.847 323.174 276.843 323.18 276.837C323.185 276.832 323.19 276.826 323.193 276.819C323.763 275.703 324.432 274.623 325.016 273.485Z" fill="#263238"/>
<path d="M332.99 277.243L331.815 279.965L331.779 280.051H331.667C326.126 279 320.621 277.74 315.151 276.336C309.681 274.932 304.253 273.341 298.881 271.57C293.491 269.827 288.204 267.764 283.049 265.392C280.462 264.202 277.963 262.821 275.572 261.259C274.379 260.464 273.251 259.57 272.2 258.588C271.116 257.637 270.285 256.421 269.785 255.053C270.408 256.338 271.317 257.455 272.439 258.314C273.55 259.187 274.73 259.965 275.966 260.64C278.411 262.03 280.936 263.268 283.527 264.348C288.702 266.544 294.017 268.416 299.36 270.173C304.704 271.93 310.096 273.564 315.503 275.134C320.91 276.703 326.337 278.258 331.772 279.749L331.632 279.821L332.99 277.243Z" fill="#263238"/>
<path d="M347.811 242.546L348.395 240.998L348.458 241.106C342.587 240.71 336.723 240.228 330.858 239.601C324.994 238.975 319.165 238.291 313.336 237.398C311.878 237.168 310.421 236.923 308.964 236.635C308.26 236.484 307.507 236.34 306.753 236.124C306.563 236.066 306.38 236.009 306.176 235.929C306.059 235.89 305.946 235.84 305.838 235.778C305.756 235.733 305.678 235.68 305.606 235.62C305.53 235.555 305.466 235.477 305.416 235.389C305.387 235.333 305.361 235.276 305.338 235.217C305.334 235.188 305.334 235.159 305.338 235.13C305.31 234.856 305.324 234.579 305.381 234.309C305.416 234.115 305.451 233.906 305.5 233.726C306.246 230.738 307.19 227.916 308.147 225.086C310.062 219.391 312.146 213.768 314.342 208.181C312.646 213.941 310.907 219.701 309.175 225.461C308.344 228.341 307.429 231.221 306.789 234.101C306.746 234.281 306.725 234.446 306.69 234.619C306.655 234.792 306.69 234.993 306.655 234.921C306.647 234.883 306.633 234.847 306.613 234.813C306.613 234.741 306.486 234.669 306.514 234.684C306.479 234.684 306.542 234.698 306.514 234.684L306.69 234.756L307.155 234.907C307.859 235.094 308.563 235.231 309.267 235.375C310.675 235.641 312.146 235.872 313.589 236.095C316.49 236.541 319.395 236.961 322.305 237.355L331.041 238.557C336.863 239.349 342.686 240.199 348.508 241.07H348.613L348.571 241.164L347.811 242.546Z" fill="#263238"/>
<path d="M314.969 211.867C314.556 212.883 314.034 213.849 313.413 214.747C312.829 215.666 312.118 216.493 311.301 217.202C311.836 216.245 312.406 215.338 313.011 214.438C313.599 213.531 314.253 212.672 314.969 211.867Z" fill="#263238"/>
<path d="M332.028 198.568C327.058 200.008 318.103 192.571 314.428 186.372C314.175 185.947 315.174 168.436 315.019 164.944C315.019 164.224 336.66 169.264 336.66 169.264C336.66 169.264 334.879 176.68 335.189 182.764C335.21 183.283 336.822 197.172 332.028 198.568Z" fill="#AD6359"/>
<path d="M314.688 175.911C324.818 183.226 334.688 180.418 335.104 180.288C335.27 176.577 335.772 172.889 336.603 169.272C336.603 169.272 314.92 164.232 314.955 164.952C315.082 166.587 314.906 171.31 314.688 175.911Z" fill="#263238"/>
<path d="M336.552 154.843C337.108 160.012 341.156 163.799 345.584 163.295C350.012 162.791 353.159 158.205 352.624 153.043C352.089 147.88 348.027 144.086 343.592 144.59C339.157 145.094 335.996 149.68 336.552 154.843Z" fill="#455A64"/>
<path d="M333.989 155.462C334.609 161.222 339.107 165.42 344.035 164.865C348.963 164.311 352.483 159.206 351.843 153.453C351.202 147.7 346.732 143.496 341.797 144.05C336.861 144.604 333.37 149.716 333.989 155.462Z" fill="#BE8E89"/>
<path d="M312.017 138.636C309.652 146.397 313.531 168.876 318.902 173.916C326.695 181.224 339.522 181.994 345.605 172.404C351.504 163.101 345.943 133.905 339.931 129.319C331.081 122.551 315.509 127.18 312.017 138.636Z" fill="#AD6359"/>
<path d="M330.279 152.748C330.279 152.697 330.181 152.841 330.195 152.906C330.519 154.404 330.652 156.182 329.413 156.945C329.371 156.945 329.413 157.046 329.413 157.025C331.025 156.47 330.828 154.116 330.279 152.748Z" fill="#263238"/>
<path d="M328.669 151.43C326.262 151.711 326.987 156.621 329.219 156.362C331.45 156.103 330.69 151.199 328.669 151.43Z" fill="#263238"/>
<path d="M338.826 151.567C338.826 151.51 338.953 151.625 338.96 151.69C339.136 153.216 339.593 154.93 341.008 155.232C341.051 155.232 341.065 155.319 341.008 155.319C339.326 155.333 338.756 153.043 338.826 151.567Z" fill="#263238"/>
<path d="M339.919 149.76C342.284 149.205 343.192 154.08 341.003 154.598C338.813 155.116 337.919 150.242 339.919 149.76Z" fill="#263238"/>
<path d="M326.445 149.479C327.049 149.194 327.637 148.875 328.205 148.522C328.87 148.273 329.437 147.807 329.817 147.197C329.9 146.981 329.91 146.743 329.846 146.52C329.782 146.297 329.649 146.102 329.465 145.966C329.065 145.751 328.615 145.649 328.163 145.672C327.711 145.695 327.274 145.841 326.896 146.095C326.047 146.486 325.372 147.187 325.002 148.061C324.928 148.265 324.914 148.486 324.961 148.698C325.008 148.91 325.115 149.103 325.269 149.254C325.422 149.405 325.615 149.506 325.824 149.546C326.033 149.586 326.249 149.563 326.445 149.479Z" fill="#263238"/>
<path d="M341.438 147.016C340.773 146.983 340.111 146.913 339.453 146.808C338.746 146.835 338.051 146.622 337.475 146.203C337.317 146.035 337.218 145.817 337.193 145.585C337.169 145.353 337.221 145.12 337.341 144.921C337.636 144.569 338.016 144.303 338.444 144.15C338.872 143.997 339.332 143.963 339.777 144.05C340.706 144.089 341.587 144.482 342.248 145.152C342.39 145.312 342.483 145.511 342.516 145.724C342.55 145.937 342.522 146.156 342.436 146.353C342.35 146.551 342.21 146.719 342.033 146.836C341.856 146.954 341.65 147.017 341.438 147.016Z" fill="#263238"/>
<path d="M331.098 166.997C331.506 167.299 331.936 167.717 332.506 167.717C333.057 167.622 333.583 167.408 334.048 167.091C334.056 167.08 334.068 167.073 334.081 167.072C334.095 167.071 334.108 167.075 334.118 167.083C334.128 167.092 334.135 167.104 334.136 167.118C334.137 167.131 334.133 167.145 334.125 167.155C333.958 167.489 333.705 167.769 333.394 167.965C333.082 168.162 332.724 168.268 332.358 168.271C332.043 168.239 331.746 168.111 331.502 167.905C331.259 167.698 331.081 167.422 330.992 167.112C330.929 167.04 331.034 166.954 331.098 166.997Z" fill="#263238"/>
<path d="M331.985 162.209C332.452 162.751 333.023 163.189 333.662 163.495C334.302 163.801 334.997 163.969 335.702 163.987C336.321 164.012 336.94 163.947 337.54 163.793C337.656 163.771 337.769 163.737 337.878 163.692C337.985 163.664 338.091 163.63 338.195 163.591C338.272 163.565 338.338 163.513 338.384 163.444C338.43 163.375 338.452 163.293 338.448 163.21C338.444 163.158 338.432 163.107 338.413 163.058V162.929C338.265 161.755 337.892 159.991 337.892 159.991C338.342 160.142 340.623 160.79 340.497 160.186C339.455 155.146 338.293 149.587 336.216 144.828C336.202 144.797 336.178 144.772 336.147 144.757C336.116 144.743 336.082 144.74 336.049 144.75C336.017 144.759 335.989 144.781 335.97 144.809C335.952 144.838 335.944 144.873 335.949 144.907C336.766 149.767 338.413 154.447 339.314 159.307C338.502 159.064 337.661 158.94 336.815 158.94C336.66 159.012 337.596 162.331 337.617 162.864C337.622 162.883 337.622 162.903 337.617 162.922C335.731 163.469 334.196 163.102 332.133 162.072C331.978 162 331.88 162.101 331.985 162.209Z" fill="#263238"/>
<path d="M336.771 163.303C336.27 164.234 335.543 165.018 334.659 165.578C334.166 165.865 333.598 165.991 333.033 165.938C331.801 165.801 331.625 164.692 331.681 163.706C331.728 163.181 331.834 162.664 331.998 162.165C333.43 163.054 335.102 163.453 336.771 163.303Z" fill="#263238"/>
<path d="M334.651 165.6C334.158 165.887 333.59 166.013 333.025 165.96C331.793 165.823 331.617 164.714 331.673 163.728C332.99 163.642 334.355 164.333 334.651 165.6Z" fill="#FF99BA"/>
<path opacity="0.2" d="M315.625 146.621C314.759 148.853 312.978 154.094 311.964 154.462C311 147.175 310.964 140.566 312.731 136.505C313.462 134.828 314.488 133.302 315.759 132.005C315.906 133.956 316.547 144.288 315.625 146.621Z" fill="#263238"/>
<path d="M334.665 136.203C334.062 137.271 333.201 138.163 332.164 138.794C331.128 139.424 329.95 139.771 328.744 139.803C327.517 139.835 326.302 139.547 325.214 138.965C324.126 138.383 323.201 137.526 322.528 136.476C322.524 136.47 322.519 136.464 322.513 136.459C322.507 136.454 322.501 136.451 322.494 136.449C322.486 136.447 322.479 136.446 322.471 136.447C322.464 136.448 322.457 136.451 322.45 136.455C322.444 136.458 322.438 136.463 322.434 136.469C322.429 136.475 322.426 136.482 322.424 136.49C322.422 136.497 322.421 136.505 322.422 136.512C322.423 136.52 322.426 136.527 322.429 136.534C323.042 137.706 323.956 138.684 325.072 139.363C326.189 140.042 327.466 140.396 328.765 140.386C330.038 140.312 331.269 139.898 332.336 139.184C333.402 138.47 334.266 137.481 334.841 136.318C334.856 136.294 334.861 136.265 334.855 136.237C334.849 136.21 334.833 136.185 334.809 136.17C334.786 136.155 334.758 136.15 334.73 136.156C334.703 136.162 334.68 136.179 334.665 136.203Z" fill="#263238"/>
<path d="M349.352 124.617C348.338 122.704 346.694 121.22 344.713 120.427C341.967 119.318 339.214 120.06 336.49 120.859C336.475 120.859 336.461 120.865 336.45 120.876C336.44 120.887 336.434 120.901 336.434 120.917C336.434 120.932 336.44 120.947 336.45 120.957C336.461 120.968 336.475 120.974 336.49 120.974C338.806 120.305 341.2 119.765 343.565 120.499C345.523 121.098 347.219 122.37 348.366 124.099C349.486 125.89 349.937 128.033 349.639 130.136C349.34 132.24 348.311 134.163 346.74 135.554C345.814 136.331 344.743 136.907 343.591 137.245C342.44 137.583 341.233 137.676 340.045 137.52C339.954 137.52 339.911 137.649 340.01 137.664C341.627 137.944 343.289 137.758 344.808 137.126C346.328 136.494 347.645 135.442 348.611 134.087C349.578 132.731 350.156 131.127 350.281 129.455C350.406 127.782 350.072 126.107 349.317 124.617H349.352Z" fill="#263238"/>
<path d="M311.378 143.121C311.378 143.121 306.288 136.433 308.752 131.601C310.16 128.858 316.221 128.102 316.221 128.102C316.221 128.102 317.629 124.927 322.423 122.868C327.218 120.809 333.687 122.018 333.687 122.018C333.687 122.018 337.989 118.361 342.917 120.175C349.788 122.709 350.661 132.581 344.916 136.829C340.875 139.817 334.201 136.893 334.201 136.893C333.638 137.073 328.358 141.768 322.979 137.181C322.979 137.181 319.917 141.127 316.263 139.399C315.918 140.455 315.264 141.378 314.391 142.043C313.518 142.709 312.466 143.085 311.378 143.121Z" fill="#263238"/>
<path d="M316.603 156.96C316.603 156.96 311.541 149.76 308.345 151.625C305.149 153.49 309.049 163.951 312.822 165.305C313.296 165.518 313.807 165.631 314.325 165.637C314.843 165.644 315.356 165.543 315.835 165.341C316.313 165.139 316.747 164.841 317.11 164.464C317.473 164.086 317.758 163.638 317.947 163.145L316.603 156.96Z" fill="#AD6359"/>
<path d="M309.527 154.605C309.463 154.605 309.456 154.685 309.527 154.706C312.195 155.772 313.624 158.263 314.638 160.855C313.835 159.861 312.758 159.329 311.456 160.308C311.385 160.358 311.456 160.466 311.526 160.452C311.99 160.301 312.488 160.299 312.953 160.447C313.417 160.595 313.826 160.886 314.124 161.28C314.625 161.95 315.052 162.674 315.398 163.44C315.525 163.677 315.947 163.541 315.856 163.267V163.202C315.856 159.703 313.159 154.901 309.527 154.605Z" fill="#263238"/>
<path d="M312.383 151.92C312.383 151.92 309.645 140.76 311.778 133.92C314.15 126.317 323.098 118.872 333.672 122.033C333.672 122.033 321.937 123.581 316.234 133.61C313.615 138.218 316.129 151.524 316.129 151.524L312.383 151.92Z" fill="#BE8E89"/>
<path d="M323.749 155.678C324.819 161.438 321.701 166.867 316.773 167.832C311.845 168.797 306.973 164.952 305.896 159.192C304.819 153.432 307.945 148.003 312.873 147.038C317.801 146.074 322.672 149.933 323.749 155.678Z" fill="#BE8E89"/>
<path d="M321.086 155.866C322.05 161.028 319.241 165.946 314.813 166.788C310.385 167.63 306.006 164.16 305.042 159.005C304.077 153.85 306.879 148.925 311.307 148.082C315.735 147.24 320.114 150.696 321.086 155.866Z" fill="#A06862"/>
<path d="M41.7461 282.68H128.099L110.879 180.245H46.308L41.7461 282.68Z" fill="#DBDBDB"/>
<path d="M41.7461 282.68H49.3141L53.5663 180.245H46.308L41.7461 282.68Z" fill="#A6A6A6"/>
<path d="M92.9272 135.569C84.9086 143.727 82.6065 157.169 82.6065 157.169C82.6065 157.169 74.9189 170.698 77.0661 178.049C77.634 180.133 78.6878 182.046 80.1372 183.622C81.5865 185.198 83.3881 186.391 85.3873 187.099L84.627 183.039C84.627 183.039 87.2037 188.259 95.8136 190.361C104.423 192.463 115.814 189.756 121.742 186.689C125.255 184.89 128.253 182.191 130.443 178.855L128.226 184.759C128.226 184.759 136.582 184.457 141.545 175.363C146.509 166.27 132.253 153.202 131.042 150.387C129.831 147.571 128.296 127.059 107.197 130.594C107.225 130.543 98.4747 129.953 92.9272 135.569Z" fill="#263238"/>
<path d="M82.3647 186.516C80.1683 184.839 77.9999 182.916 76.7891 180.54C75.4687 178.077 74.9998 175.231 75.4585 172.462C76.0428 169.143 77.7535 166.212 79.415 163.354C81.0764 160.495 83.0758 157.594 84.7443 154.591C84.8358 154.426 84.5894 154.289 84.4767 154.419C82.6021 156.67 80.8534 159.028 79.239 161.482C77.5874 163.725 76.1981 166.159 75.0995 168.732C74.0726 171.102 73.7353 173.724 74.1279 176.285C74.5432 178.366 75.4468 180.313 76.7609 181.959C78.3167 183.939 80.2809 185.206 82.2521 186.696C82.3647 186.79 82.4844 186.61 82.3647 186.516Z" fill="#263238"/>
<path d="M143.354 165.961C140.82 158.408 134.202 153.613 130.14 147.025C127.958 143.461 126.261 139.515 123.417 136.419C123.34 136.333 123.199 136.47 123.269 136.556C125.606 139.342 126.958 142.698 128.648 145.916C130.448 149.083 132.551 152.059 134.927 154.801C139.109 159.927 144.115 165.997 143.157 173.175C142.714 176.487 140.799 180.159 137.476 181.189C137.349 181.232 137.427 181.448 137.553 181.39C138.864 180.852 140.053 180.047 141.05 179.023C142.046 177.999 142.827 176.779 143.347 175.436C144.467 172.382 144.469 169.017 143.354 165.961Z" fill="#263238"/>
<path d="M143.656 167.991C143.885 165.13 143.24 162.268 141.812 159.797C140.354 157.364 138.066 155.607 135.778 154.037C133.138 152.245 130.358 150.538 128.682 147.694C128.612 147.572 128.443 147.694 128.506 147.817C131.167 152.511 136.25 154.7 139.65 158.653C143.558 163.167 143.565 169.741 140.875 174.903C139.166 178.05 136.754 180.739 133.835 182.751C133.786 182.751 133.835 182.859 133.892 182.823C138.869 179.482 143.255 174.341 143.656 167.991Z" fill="#263238"/>
<path d="M111.753 202.4C133.119 214.395 158.695 229.45 174.366 225.908C181.315 224.338 212.516 182.506 213.84 177.668C214.973 173.514 186.722 156.788 183.568 160.064C178.245 165.558 163.856 196.489 161.744 197.007C159.632 197.526 141.694 193.803 123.024 190.354C105.058 187.057 96.9193 194.077 111.753 202.4Z" fill="#EB9481"/>
<path d="M210.803 182.88C213.239 179.741 223.179 164.348 225.002 159.43C226.826 154.512 231.092 139.99 227.558 138.161C224.024 136.332 222.461 140.472 222.461 140.472C222.461 140.472 223.313 134.043 219.589 132.552C215.865 131.062 213.612 137.592 213.612 137.592C213.612 137.592 214.013 130.925 210.19 129.672C206.368 128.42 205.185 135.432 205.185 135.432C205.185 135.432 205.833 129.356 202.27 129.672C197.99 130.097 198.046 141.444 195.625 146.715C195.075 147.91 182.805 170.172 182.805 170.172L210.803 182.88Z" fill="#EB9481"/>
<path d="M205.271 134.863C205.271 143.208 203.863 146.866 199.639 153.821C199.555 153.951 199.731 154.109 199.837 153.979C204.624 147.557 207.031 143.237 205.694 134.842C205.602 134.431 205.271 134.467 205.271 134.863Z" fill="#263238"/>
<path d="M213.569 136.937C212.865 145.577 211.359 149.58 207.409 157.205C207.353 157.313 207.529 157.421 207.592 157.313C212.077 150.171 214.386 145.793 213.992 137.045C214.013 136.649 213.605 136.541 213.569 136.937Z" fill="#263238"/>
<path d="M222.223 140.854C220.935 149.192 219.484 153.627 214.725 160.524C214.713 160.54 214.703 160.558 214.698 160.577C214.692 160.597 214.69 160.617 214.692 160.637C214.694 160.657 214.7 160.676 214.709 160.694C214.719 160.712 214.731 160.728 214.746 160.74C214.762 160.753 214.779 160.763 214.798 160.768C214.817 160.774 214.837 160.776 214.856 160.774C214.876 160.772 214.895 160.766 214.912 160.757C214.93 160.747 214.945 160.734 214.958 160.719C220.484 154.167 222.336 148.652 222.469 140.919C222.462 140.4 222.307 140.328 222.223 140.854Z" fill="#263238"/>
<path d="M176.758 172.692C176.758 172.692 176.159 162.259 176.891 157.615C177.624 152.971 186.557 136.685 190.077 138.456C194.66 140.753 191.309 151.193 189.014 156.089C189.014 156.089 199.617 161.374 198.8 169.402C197.983 177.43 176.758 172.692 176.758 172.692Z" fill="#EB9481"/>
<path d="M191.162 139.507C193.866 144.684 190.458 150.912 188.572 155.83C188.541 155.901 188.527 155.978 188.532 156.056C188.537 156.134 188.56 156.209 188.6 156.275C188.639 156.342 188.694 156.397 188.759 156.438C188.824 156.478 188.897 156.502 188.973 156.506C193.274 159.026 198.625 163.865 199.082 169.193C199.082 169.225 199.095 169.257 199.117 169.279C199.14 169.302 199.17 169.315 199.202 169.315C199.234 169.315 199.264 169.302 199.287 169.279C199.309 169.257 199.322 169.225 199.322 169.193C199.589 163.433 194.711 158.22 189.832 155.765C191.831 150.725 194.992 144.353 191.24 139.479C191.191 139.457 191.148 139.478 191.162 139.507Z" fill="#263238"/>
<path d="M156.659 195.301L130.942 217.347C130.942 217.347 115.243 208.995 103.648 199.397C92.0528 189.8 104.894 185.134 124.803 188.554C144.712 191.974 156.659 195.301 156.659 195.301Z" fill="#0BB0CF"/>
<path d="M126.198 199.728C125.47 198.711 124.626 197.785 123.685 196.97C124.726 199.259 126.231 201.296 128.099 202.946C127.594 201.799 126.956 200.719 126.198 199.728ZM103.67 199.411L103.98 199.656C104.184 199.433 104.388 199.195 104.578 198.936C104.255 199.087 103.952 199.245 103.656 199.44L103.67 199.411ZM146.72 199.555C145.503 199.372 144.27 199.334 143.045 199.44C144.194 199.883 145.39 200.19 146.607 200.354C147.823 200.543 149.057 200.584 150.282 200.477C149.129 200.029 147.929 199.72 146.706 199.555H146.72ZM138.11 191.03C138.094 191.511 138.111 191.992 138.159 192.47C138.331 192.038 138.477 191.596 138.596 191.145L138.11 191.03Z" fill="white"/>
<path d="M125.185 212.638C130.416 207.498 136.005 202.724 141.673 198.073C143.278 196.762 144.911 195.481 146.601 194.25C146.65 194.214 146.713 194.25 146.664 194.314C144.003 196.827 141.236 199.225 138.484 201.637C135.731 204.049 132.943 206.461 130.12 208.801C128.522 210.126 126.931 211.45 125.312 212.739C125.213 212.79 125.122 212.703 125.185 212.638Z" fill="#263238"/>
<path d="M141.87 207.98L130.937 217.34C130.937 217.34 115.238 208.995 103.643 199.397C99.5245 195.992 98.4896 193.213 99.7498 191.189L141.87 207.98Z" fill="#263238"/>
<path d="M136.574 282.593H54.6211C54.6211 282.593 72.4253 212.271 88.9059 192.471C89.272 192.017 89.6521 191.585 90.0323 191.182C90.1097 191.088 90.1801 191.023 90.2576 190.944C91.5334 189.55 93.0188 188.374 94.6576 187.459C94.9462 187.301 95.2349 187.15 95.5376 187.02C101.874 184.032 108.59 186.509 113.426 190.743C114.961 192.082 132.336 215.223 133.842 224.014C135.173 231.797 130.034 240.156 130.034 240.156L136.574 282.593Z" fill="#0BB0CF"/>
<path d="M117.757 237.147C114.267 237.495 110.808 238.108 107.408 238.983C105.718 239.443 104.071 239.976 102.417 240.545C101.593 240.833 100.769 241.092 99.9386 241.344C99.0736 241.632 98.1776 241.811 97.2704 241.877C97.2536 241.877 97.2375 241.884 97.2256 241.896C97.2137 241.908 97.207 241.925 97.207 241.942C97.207 241.959 97.2137 241.975 97.2256 241.988C97.2375 242 97.2536 242.007 97.2704 242.007C98.1299 242.044 98.9908 242.02 99.847 241.935C100.671 241.829 101.488 241.666 102.29 241.445C104.008 240.991 105.697 240.466 107.408 240.005C110.858 239.069 114.3 238.133 117.806 237.449C117.845 237.442 117.88 237.42 117.903 237.387C117.926 237.354 117.936 237.313 117.929 237.273C117.923 237.233 117.901 237.197 117.869 237.173C117.836 237.149 117.796 237.14 117.757 237.147Z" fill="#263238"/>
<path d="M126.415 240.235C123.535 239.952 120.641 239.834 117.748 239.883C116.34 239.919 114.869 240.034 113.426 240.185C112.722 240.264 112.018 240.351 111.37 240.444C110.723 240.538 109.878 240.754 109.124 240.847C109.047 240.847 109.047 240.984 109.124 240.977C109.828 240.912 110.568 240.977 111.286 240.941L113.447 240.862C114.855 240.819 116.326 240.783 117.77 240.718C120.656 240.595 123.535 240.502 126.422 240.473C126.577 240.48 126.563 240.25 126.415 240.235Z" fill="#263238"/>
<path d="M81.1209 209.002C80.7337 208.498 80.3395 208.001 79.91 207.562L79.6073 208.21C79.8889 208.656 80.1916 209.095 80.5014 209.52C81.2307 210.53 82.0743 211.449 83.0147 212.256C82.5008 211.104 81.8658 210.013 81.1209 209.002ZM90.6319 190.555C90.4885 191.68 90.4649 192.817 90.5615 193.946C90.9989 192.766 91.2944 191.535 91.4415 190.282C91.4415 190.094 91.4908 189.9 91.5119 189.713C91.2163 189.979 90.9206 190.26 90.6319 190.555ZM115.504 213.984C115.066 215.163 114.763 216.391 114.603 217.642C114.426 218.888 114.386 220.151 114.483 221.407C114.926 220.23 115.223 219.002 115.371 217.75C115.564 216.505 115.609 215.24 115.504 213.984ZM99.8403 254.534C99.4064 255.709 99.1087 256.932 98.9532 258.178C98.7747 259.424 98.7369 260.688 98.8406 261.943C99.6773 259.573 100.018 257.048 99.8403 254.534ZM73.215 223.92C72.7851 225.104 72.4875 226.333 72.3279 227.585C72.1488 228.829 72.111 230.09 72.2153 231.343C72.6462 230.163 72.9415 228.936 73.0953 227.686C73.2798 226.44 73.32 225.176 73.215 223.92ZM95.2502 218.779C94.0336 218.597 92.8005 218.558 91.5753 218.664C92.7245 219.108 93.9198 219.414 95.1375 219.578C96.3535 219.767 97.587 219.808 98.8124 219.701C97.6671 219.245 96.4741 218.926 95.2572 218.751L95.2502 218.779ZM124.734 253.339C123.515 253.157 122.279 253.118 121.052 253.224C123.37 254.08 125.838 254.428 128.296 254.246C127.149 253.802 125.956 253.493 124.741 253.325L124.734 253.339ZM69.695 250.02C68.4993 249.843 67.2883 249.799 66.0835 249.89H66.0131H66.0764C67.2136 250.32 68.3944 250.617 69.5964 250.776C70.813 250.959 72.0461 250.997 73.2713 250.891C72.1161 250.46 70.916 250.168 69.695 250.02ZM100.615 279.749C99.3981 279.566 98.165 279.528 96.9398 279.634C99.2599 280.491 101.731 280.837 104.191 280.649C103.027 280.209 101.818 279.907 100.587 279.749H100.615ZM67.3577 276.106C66.1388 275.923 64.9033 275.884 63.6758 275.991C64.8257 276.429 66.0209 276.731 67.238 276.891C68.456 277.084 69.6927 277.123 70.9199 277.006C69.761 276.565 68.5562 276.263 67.3295 276.106H67.3577ZM101.417 200.88C100.426 201.634 99.5209 202.502 98.7209 203.465C99.8442 202.942 100.907 202.292 101.889 201.528C102.879 200.777 103.777 199.906 104.564 198.936C103.448 199.464 102.393 200.116 101.417 200.88ZM110.189 239.422C109.2 240.166 108.301 241.029 107.514 241.992C108.634 241.473 109.69 240.82 110.661 240.048C111.652 239.306 112.55 238.443 113.336 237.478C112.217 238.004 111.161 238.662 110.189 239.436V239.422ZM79.4313 262.98C78.4363 263.722 77.5353 264.588 76.7491 265.558C77.8648 265.03 78.9201 264.378 79.8959 263.614C80.8856 262.862 81.79 262 82.5923 261.043C81.4621 261.554 80.3999 262.21 79.4313 262.994V262.98ZM130.514 229.09C129.785 228.072 128.941 227.147 128 226.332C129.042 228.621 130.546 230.658 132.414 232.308C131.909 231.166 131.27 230.09 130.514 229.104V229.09ZM120.031 272.7C119.296 271.688 118.453 270.763 117.518 269.943C118.011 271.098 118.648 272.185 119.411 273.175C120.139 274.189 120.983 275.11 121.925 275.918C121.411 274.778 120.776 273.698 120.031 272.7ZM89.1676 238.399C88.437 237.384 87.5936 236.458 86.6543 235.642C87.1535 236.796 87.7921 237.882 88.5551 238.874C89.2804 239.89 90.1244 240.812 91.0684 241.618C90.5558 240.475 89.9181 239.395 89.1676 238.399Z" fill="white"/>
<path d="M87.2308 193.018C71.4683 206.014 31.1009 257.515 40.2036 269.417C49.3064 281.319 109.808 275.897 127.373 270.267C132.597 268.596 118.348 234.691 112.702 233.129C107.999 231.826 81.9227 239.71 81.4158 238.169C80.8456 236.427 87.8574 226.786 96.7701 205.899C107.048 181.807 94.1934 187.279 87.2308 193.018Z" fill="#EB9481"/>
<path d="M141.18 230.299C153.225 231.739 156.104 233.978 166.897 229.658C173.979 226.829 178.787 230.234 173.606 236.347C165.158 246.348 149.219 247.867 143.552 246.744L141.18 230.299Z" fill="#EB9481"/>
<path d="M107.395 233.561C107.395 233.561 122.34 229.608 135.322 229.824C144.305 229.975 163.806 232.531 177.041 256.37C180.181 262.022 180.737 272.362 172.324 265.01C166.355 259.805 164.109 254.657 160.096 252.274C160.096 252.274 159.272 265.5 153.612 268.502C148.662 271.12 143.535 273.375 138.272 275.249C137.714 274.343 137.216 273.4 136.779 272.426C136.779 272.426 131.232 274.716 122.699 271.541L107.395 233.561Z" fill="#EB9481"/>
<path d="M143.875 231.372C147.395 234.598 154.661 241.553 158.659 249.372C163.137 258.055 169.473 276.012 163.172 279.331C158.554 281.765 155.541 275.119 155.541 275.119C155.541 275.119 156.632 283.111 152.021 284.371C147.797 285.523 145.762 280.238 145.762 280.238C145.762 280.238 145.607 285.199 141.327 285.509C136.174 285.869 137.342 275.429 131.809 271.174C130.563 270.216 143.875 231.372 143.875 231.372Z" fill="#EB9481"/>
<path d="M148.929 252.72C151.745 256.32 156.046 266.112 155.68 274.99C155.68 275.191 155.518 275.292 155.49 275.105C154.169 267.417 151.94 259.922 148.851 252.785C148.843 252.774 148.839 252.761 148.84 252.747C148.841 252.734 148.848 252.721 148.858 252.713C148.868 252.704 148.882 252.7 148.895 252.701C148.908 252.703 148.92 252.709 148.929 252.72Z" fill="#263238"/>
<path d="M140.487 257.559C142.599 260.907 146.605 271.239 145.929 280.203C145.929 280.405 145.753 280.491 145.732 280.304C144.801 272.552 143.013 264.934 140.402 257.595C140.402 257.585 140.405 257.575 140.41 257.567C140.416 257.558 140.424 257.552 140.433 257.548C140.442 257.544 140.452 257.543 140.461 257.545C140.471 257.547 140.48 257.552 140.487 257.559Z" fill="#263238"/>
<path d="M160.118 252.217C163.638 254.377 165.602 256.918 168.221 260.036C169.501 261.597 170.864 263.085 172.304 264.493C173.628 265.753 175.578 267.646 177.563 266.746C178.668 266.242 178.971 264.889 179.062 263.765C179.149 262.503 178.969 261.235 178.534 260.05C178.534 259.993 178.619 259.949 178.64 260.014C179.072 261.06 179.357 262.163 179.485 263.29C179.652 264.35 179.502 265.437 179.055 266.408C177.957 268.395 175.423 268.021 173.832 266.977C172.891 266.31 172.016 265.55 171.22 264.709C170.438 263.924 169.692 263.103 168.967 262.268C167.482 260.54 166.095 258.733 164.63 256.997C163.195 255.342 161.657 253.784 160.026 252.332C159.963 252.274 160.047 252.173 160.118 252.217Z" fill="#263238"/>
<path d="M164.595 267.955C164.18 265.486 161.195 254.873 160.012 252.288C160.004 252.275 160.002 252.259 160.006 252.244C160.01 252.229 160.02 252.216 160.033 252.209C160.046 252.201 160.062 252.199 160.076 252.203C160.091 252.207 160.103 252.217 160.11 252.23C162.342 255.881 165.158 264.744 165.651 267.473C166.144 270.202 166.615 273.578 165.932 276.264C164.905 280.31 162.089 280.382 161.068 280.325C159.862 280.235 158.722 279.727 157.836 278.885C156.828 277.809 156.042 276.535 155.527 275.141C155.527 275.076 155.591 275.018 155.626 275.083C156.597 277.042 158.477 279.223 160.702 279.504C161.194 279.582 161.697 279.559 162.181 279.435C162.664 279.311 163.119 279.09 163.518 278.784C164.353 277.966 164.871 276.866 164.975 275.688C165.282 273.107 165.153 270.492 164.595 267.955Z" fill="#263238"/>
<path d="M145.93 280.203C146.359 280.83 147.07 282.81 148.781 283.645C149.376 283.992 150.044 284.185 150.729 284.209C151.413 284.233 152.093 284.086 152.709 283.782C153.885 283.035 154.731 281.85 155.068 280.477C155.352 278.72 155.505 276.944 155.525 275.163C155.525 275.077 155.631 275.07 155.638 275.163C155.857 277.094 155.791 279.048 155.441 280.959C155.276 281.708 154.966 282.415 154.529 283.04C154.093 283.664 153.539 284.193 152.9 284.595C152.223 284.973 151.457 285.153 150.686 285.113C149.916 285.074 149.171 284.817 148.535 284.372C147.894 283.918 146.036 281.866 145.719 280.254C145.726 280.203 145.909 280.174 145.93 280.203Z" fill="#263238"/>
<path d="M132.352 270.54C132.861 271.117 133.303 271.752 133.669 272.433C134.084 273.153 134.478 273.837 134.851 274.557C135.593 276.013 136.185 277.542 136.618 279.122C137.069 280.706 137.421 282.434 138.484 283.737C138.982 284.382 139.665 284.85 140.437 285.074C141.209 285.299 142.031 285.27 142.785 284.99C143.584 284.666 144.249 284.068 144.665 283.298C145.148 282.469 145.47 281.552 145.616 280.598C145.612 280.59 145.611 280.58 145.612 280.571C145.614 280.562 145.617 280.553 145.622 280.545C145.627 280.538 145.634 280.531 145.642 280.527C145.65 280.523 145.659 280.521 145.668 280.521C145.677 280.521 145.686 280.523 145.694 280.527C145.702 280.531 145.709 280.538 145.715 280.545C145.72 280.553 145.723 280.562 145.724 280.571C145.725 280.58 145.724 280.59 145.721 280.598C145.661 281.463 145.515 282.32 145.285 283.154C145.019 283.904 144.565 284.57 143.968 285.084C143.343 285.572 142.598 285.875 141.816 285.959C141.033 286.043 140.244 285.904 139.533 285.559C137.956 284.839 137.069 283.212 136.52 281.599C135.907 279.806 135.499 277.956 134.802 276.185C134.443 275.249 134.098 274.313 133.662 273.413C133.225 272.513 132.62 271.577 132.254 270.612C132.211 270.554 132.296 270.475 132.352 270.54Z" fill="#263238"/>
<path d="M126.851 272.773C129.077 273.102 131.328 273.215 133.574 273.111C133.645 273.111 133.687 273.32 133.617 273.334C132.503 273.548 131.37 273.637 130.237 273.601C129.089 273.551 127.955 273.326 126.872 272.931C126.781 272.881 126.781 272.758 126.851 272.773Z" fill="#263238"/>
<path d="M57.7243 245.88C61.4877 244.022 65.3767 242.444 69.3614 241.157C73.3045 239.896 77.3328 238.933 81.4139 238.277C83.7441 237.881 86.0814 237.6 88.4539 237.305C88.5243 237.305 88.5384 237.405 88.4539 237.413C84.3532 238.092 80.2939 239.01 76.2958 240.163C72.3159 241.272 68.3594 242.455 64.4264 243.713C62.2017 244.433 60.0053 245.239 57.8017 246.024C57.7243 246.081 57.6539 245.93 57.7243 245.88Z" fill="#263238"/>
<path d="M54.2969 224.288L87.6594 227.996C87.6594 227.996 96.1708 212.156 100.599 197.561C105.027 182.967 92.4537 185.804 77.7612 199.952C63.0687 214.1 54.2969 224.288 54.2969 224.288Z" fill="white"/>
<path d="M54.2969 224.288L87.6594 227.996C87.6594 227.996 96.1708 212.156 100.599 197.561C105.027 182.967 92.4537 185.804 77.7612 199.952C63.0687 214.1 54.2969 224.288 54.2969 224.288Z" fill="#0BB0CF"/>
<path d="M90.6873 190.08C90.6907 190.116 90.6907 190.153 90.6873 190.188C90.5086 191.435 90.4708 192.699 90.5746 193.954C91.012 192.773 91.3075 191.543 91.4546 190.289C91.4546 190.073 91.511 189.864 91.5321 189.648L90.6873 190.08ZM73.214 223.92C72.9084 224.706 72.6728 225.518 72.51 226.347L73.214 226.419C73.2914 225.588 73.2914 224.751 73.214 223.92ZM61.6402 216.238L61.3164 216.584C61.6825 216.584 62.0204 216.584 62.4217 216.519C62.1542 216.411 61.9007 216.317 61.6402 216.238ZM91.5814 218.636C91.7785 218.715 91.9826 218.794 92.1868 218.859C92.2232 218.765 92.2656 218.674 92.3135 218.585C92.0742 218.592 91.8278 218.607 91.5814 218.636ZM81.1199 209.002C80.3854 207.99 79.5424 207.065 78.6066 206.244C79.1017 207.402 79.738 208.491 80.5004 209.484C81.2297 210.495 82.0733 211.413 83.0137 212.22C82.4976 211.081 81.8626 210.002 81.1199 209.002Z" fill="white"/>
<path d="M86.3077 227.678C86.4907 227.678 87.7157 227.678 87.7157 227.678C87.8635 227.239 90.7358 220.478 91.4398 219.038C92.8901 216.079 94.5093 213.199 96.0862 210.312C96.1355 210.218 96.2763 210.312 96.227 210.377C95.1147 212.897 94.0446 215.417 92.9112 217.951C93.1928 217.613 93.4744 217.274 93.7489 216.929C94.3051 216.209 94.812 215.489 95.34 214.726C95.3893 214.661 95.4878 214.726 95.4526 214.805C94.9488 215.846 94.312 216.815 93.5589 217.685C93.2391 218.067 92.8933 218.425 92.524 218.758C92.4325 218.966 92.3409 219.182 92.2424 219.384C91.5384 220.824 88.0677 228.082 87.9409 228.074L86.3358 227.873C86.2161 227.902 86.2161 227.671 86.3077 227.678Z" fill="#263238"/>
<path d="M60.5852 218.491C67.8223 218.988 75.0383 220.003 82.2121 221.155C84.249 221.487 86.2718 221.863 88.2805 222.286C88.3369 222.286 88.3369 222.387 88.2805 222.379C84.6761 222.055 81.0786 221.58 77.4812 221.127C73.8837 220.673 70.2581 220.183 66.6607 219.6C64.6332 219.283 62.5986 218.967 60.5781 218.614C60.4937 218.621 60.4936 218.484 60.5852 218.491Z" fill="#263238"/>
<path d="M98.9297 187.992C99.0564 189.49 104.505 199.901 111.031 200.542C113.143 200.743 114.77 188.928 114.77 188.928L115.079 188.086L119.465 176.263L106.723 164.995L104.871 163.483C104.871 163.483 103.879 166.795 102.689 170.935C102.633 171.13 102.569 171.324 102.513 171.526C102.457 171.727 102.372 171.979 102.309 172.195C102.126 172.815 101.936 173.441 101.767 174.075C101.633 174.557 101.499 175.025 101.373 175.515C101.246 176.004 101.119 176.523 100.978 177.027C100.052 180.63 99.3677 184.294 98.9297 187.992Z" fill="#EB9481"/>
<path d="M102.691 170.935C103.417 174.542 104.901 177.944 107.041 180.906C109.18 183.867 111.924 186.317 115.082 188.086L119.468 176.263L106.725 164.995L104.874 163.483C104.874 163.483 103.881 166.795 102.691 170.935Z" fill="#263238"/>
<path d="M123.325 158.105C124.445 163.145 128.88 166.464 133.231 165.463C137.581 164.462 140.193 159.53 139.074 154.462C137.955 149.393 133.519 146.095 129.169 147.103C124.818 148.111 122.206 153.029 123.325 158.105Z" fill="#455A64"/>
<path d="M120.839 159.013C122.092 164.65 127.02 168.315 131.863 167.199C136.707 166.083 139.607 160.604 138.361 154.959C137.115 149.314 132.18 145.657 127.344 146.773C122.507 147.889 119.593 153.361 120.839 159.013Z" fill="#BE8E89"/>
<path d="M135.075 151.798C140.988 173.146 129.154 179.158 124.648 180.483C120.558 181.664 106.492 185.148 98.4525 164.535C90.4128 143.921 98.2483 134.36 107.457 131.156C116.665 127.952 129.161 130.443 135.075 151.798Z" fill="#EB9481"/>
<path d="M127.808 149.113C127.312 149.163 126.814 149.185 126.315 149.178C125.791 149.28 125.249 149.201 124.774 148.954C124.638 148.847 124.541 148.697 124.498 148.528C124.455 148.359 124.467 148.179 124.534 148.018C124.714 147.722 124.968 147.48 125.27 147.318C125.572 147.156 125.911 147.079 126.252 147.097C126.945 147.018 127.643 147.205 128.209 147.622C128.331 147.727 128.421 147.865 128.469 148.021C128.516 148.176 128.519 148.342 128.477 148.499C128.435 148.657 128.349 148.798 128.23 148.907C128.112 149.015 127.965 149.087 127.808 149.113Z" fill="#263238"/>
<path d="M114.048 154.081C114.526 153.929 114.996 153.751 115.456 153.548C115.977 153.43 116.446 153.142 116.793 152.727C116.875 152.574 116.906 152.397 116.881 152.224C116.855 152.051 116.775 151.891 116.652 151.769C116.373 151.568 116.047 151.447 115.706 151.418C115.366 151.389 115.024 151.453 114.716 151.604C114.049 151.809 113.479 152.261 113.118 152.871C113.044 153.015 113.012 153.178 113.027 153.34C113.041 153.502 113.101 153.656 113.199 153.784C113.298 153.912 113.43 154.008 113.581 154.061C113.731 154.113 113.893 154.12 114.048 154.081Z" fill="#263238"/>
<path d="M118.269 157.846C118.269 157.789 118.178 157.947 118.199 158.005C118.649 159.445 118.903 161.173 117.776 162.03C117.741 162.03 117.776 162.123 117.812 162.109C119.304 161.425 118.91 159.121 118.269 157.846Z" fill="#263238"/>
<path d="M116.567 156.694C114.23 157.184 115.356 161.921 117.525 161.468C119.693 161.014 118.524 156.284 116.567 156.694Z" fill="#263238"/>
<path d="M115.714 157.169C115.376 157.544 115.087 158.112 114.615 158.285C114.144 158.458 113.517 158.091 113.038 157.702C112.989 157.666 112.954 157.702 112.968 157.781C113.172 158.688 113.735 159.538 114.721 159.437C115.707 159.336 116.051 158.386 116.051 157.414C116.059 157.234 115.854 157.025 115.714 157.169Z" fill="#263238"/>
<path d="M126.5 155.247C126.5 155.189 126.634 155.29 126.641 155.347C126.936 156.831 127.514 158.479 128.929 158.652C128.971 158.652 128.985 158.731 128.929 158.739C127.296 158.89 126.549 156.694 126.5 155.247Z" fill="#263238"/>
<path d="M127.421 153.403C129.687 152.683 130.941 157.363 128.829 158.047C126.717 158.731 125.527 154.015 127.421 153.403Z" fill="#263238"/>
<path d="M128.479 153.439C128.909 153.583 129.388 153.936 129.831 153.842C130.275 153.749 130.577 153.122 130.767 152.539C130.767 152.482 130.838 152.539 130.852 152.539C131.119 153.432 131.084 154.447 130.282 154.858C129.479 155.268 128.782 154.62 128.332 153.785C128.247 153.67 128.303 153.36 128.479 153.439Z" fill="#263238"/>
<path d="M121.523 169.683C121.931 169.964 122.368 170.403 122.931 170.309C123.47 170.19 123.978 169.957 124.423 169.625C124.432 169.615 124.444 169.608 124.457 169.607C124.47 169.605 124.484 169.609 124.494 169.618C124.504 169.627 124.511 169.639 124.512 169.653C124.513 169.666 124.509 169.68 124.501 169.69C124.348 170.023 124.111 170.308 123.814 170.514C123.516 170.721 123.17 170.841 122.811 170.864C122.497 170.848 122.195 170.735 121.944 170.541C121.693 170.348 121.505 170.081 121.403 169.776C121.354 169.697 121.46 169.647 121.523 169.683Z" fill="#263238"/>
<path d="M126.248 162.367C126.248 162.367 127.086 164.477 127.347 165.507C127.347 165.607 123.883 167.335 121.644 165.219C121.621 165.202 121.605 165.177 121.6 165.149C121.594 165.121 121.6 165.091 121.616 165.067C121.632 165.044 121.656 165.027 121.684 165.022C121.712 165.016 121.741 165.022 121.764 165.039C123.274 165.601 124.921 165.649 126.46 165.175C126.46 164.873 124.897 161.611 125.052 161.575C125.852 161.441 126.667 161.417 127.473 161.503C125.84 157.061 123.531 152.921 121.975 148.464C121.961 148.431 121.96 148.394 121.972 148.36C121.983 148.326 122.007 148.298 122.037 148.281C122.068 148.264 122.104 148.259 122.138 148.268C122.172 148.276 122.202 148.298 122.222 148.327C124.946 152.496 126.931 157.572 128.726 162.115C128.966 162.67 126.72 162.439 126.248 162.367Z" fill="#263238"/>
<path d="M126.45 165.672C126.076 166.628 125.47 167.47 124.69 168.12C124.252 168.456 123.723 168.647 123.176 168.667C121.972 168.667 121.655 167.652 121.613 166.695C121.596 166.188 121.636 165.68 121.733 165.183C123.213 165.858 124.867 166.029 126.45 165.672Z" fill="#263238"/>
<path d="M124.69 168.121C124.252 168.457 123.723 168.648 123.176 168.668C121.972 168.668 121.656 167.653 121.613 166.695C122.845 166.472 124.253 166.962 124.69 168.121Z" fill="#FF99BA"/>
<path d="M99.4604 163.822C103.501 164.089 103.966 154.635 103.966 154.635C103.966 154.635 120.862 150.61 121.467 136.297C121.467 136.297 124.938 145.182 134.139 148.724C134.139 148.724 132.612 133.172 120.348 130.897C120.348 130.897 105.015 126.246 97.3061 138.946C89.5973 151.647 96.75 163.642 99.4604 163.822Z" fill="#263238"/>
<path d="M121.464 135.238C121.798 137.422 121.671 139.654 121.091 141.783C120.544 143.947 119.561 145.97 118.205 147.723C117.872 148.164 117.513 148.582 117.128 148.976L116.565 149.588C116.367 149.775 116.156 149.948 115.945 150.128C115.523 150.473 115.114 150.848 114.678 151.172C114.241 151.496 113.763 151.762 113.27 152.05C113.038 152.187 112.812 152.338 112.566 152.468L111.862 152.813L110.391 153.497C109.377 153.857 108.349 154.16 107.328 154.448C108.279 153.951 109.264 153.555 110.2 153.058L111.573 152.266L112.277 151.87C112.495 151.726 112.7 151.561 112.911 151.402C113.333 151.085 113.756 150.776 114.185 150.473C114.615 150.171 114.959 149.753 115.347 149.429L115.931 148.904L116.452 148.313C116.81 147.936 117.146 147.536 117.459 147.118C118.738 145.449 119.731 143.569 120.394 141.56C120.734 140.551 120.993 139.516 121.169 138.464C121.356 137.399 121.455 136.32 121.464 135.238Z" fill="#263238"/>
<path d="M102.473 163.599C102.473 163.599 96.5455 157.702 93.8492 159.999C91.1529 162.296 96.4962 171.468 100.291 172.116C100.772 172.235 101.271 172.252 101.759 172.168C102.246 172.084 102.712 171.9 103.128 171.627C103.545 171.354 103.903 170.997 104.181 170.579C104.459 170.161 104.652 169.69 104.747 169.193L102.473 163.599Z" fill="#EB9481"/>
<path d="M95.4477 162.583C95.4347 162.583 95.4221 162.589 95.4129 162.598C95.4036 162.607 95.3984 162.62 95.3984 162.634C95.3984 162.647 95.4036 162.66 95.4129 162.669C95.4221 162.679 95.4347 162.684 95.4477 162.684C98.13 163.224 99.8759 165.326 101.256 167.587C100.341 166.795 99.2352 166.478 98.1722 167.587C98.1159 167.652 98.1722 167.738 98.2637 167.71C98.6749 167.483 99.1444 167.392 99.6081 167.449C100.072 167.505 100.507 167.707 100.854 168.026C101.432 168.563 101.952 169.161 102.403 169.812C102.558 170.021 102.938 169.812 102.805 169.574L102.769 169.517C102.22 166.32 98.9044 162.245 95.4477 162.583Z" fill="#263238"/>
<path d="M98.4183 160.596C98.4183 160.596 94.5744 150.12 95.905 143.28C97.3834 135.663 106.613 126.972 117.166 130.227C117.166 130.227 104.613 132.149 100.178 142.467C98.1367 147.219 101.995 159.797 101.995 159.797L98.4183 160.596Z" fill="#BE8E89"/>
<path d="M104.345 175.527C109.004 174.043 111.439 168.436 109.785 163.003C108.13 157.57 103.012 154.369 98.3535 155.853C93.6947 157.337 91.2592 162.944 92.9138 168.377C94.5683 173.81 99.6863 177.011 104.345 175.527Z" fill="#BE8E89"/>
<path d="M107.244 163.44C108.73 168.322 106.54 173.362 102.316 174.694C98.0924 176.026 93.5305 173.153 92.038 168.271C90.5455 163.39 92.742 158.35 96.966 157.01C101.19 155.671 105.759 158.587 107.244 163.44Z" fill="#A06862"/>
<path d="M115.032 188.158L111.16 198.152L98.9808 185.588L95.5664 189.649C95.5664 189.649 107.534 209.65 107.577 208.743L111.561 200.103L117.39 206.057L116.862 191.067L115.032 188.158Z" fill="#EBEBEB"/>
<path d="M117.567 198.641C117.391 196.171 117.292 193.666 117.01 191.203C117.01 191.117 116.863 191.081 116.841 191.203C116.37 193.594 117.067 203.062 117.067 205.33C116.827 205.07 111.667 200.088 111.618 200.167C110.752 201.535 107.83 207.814 107.633 208.382C105.739 205.207 97.7279 192.686 95.4962 189.662C95.4829 189.649 95.4655 189.64 95.4467 189.637C95.4279 189.635 95.4088 189.639 95.3926 189.649C95.3763 189.659 95.3638 189.674 95.3571 189.692C95.3504 189.71 95.3498 189.73 95.3554 189.749C97.0239 193.104 107.373 209.628 107.521 209.585C109.06 206.623 110.451 203.583 111.688 200.477C112.561 201.564 117.771 207.187 117.785 206.82C117.85 204.092 117.777 201.362 117.567 198.641Z" fill="#263238"/>
<path d="M185.491 121.572C185.069 125.713 183.529 129.654 181.044 132.952C178.56 136.251 175.228 138.779 171.42 140.254C167.612 141.729 163.479 142.093 159.48 141.305C155.482 140.517 151.777 138.608 148.778 135.792L137.781 137.44L143.287 127.72C142.041 124.559 141.514 121.149 141.747 117.748C141.98 114.348 142.967 111.046 144.632 108.093C146.297 105.14 148.597 102.614 151.359 100.704C154.12 98.795 157.269 97.5532 160.569 97.0729C163.869 96.5925 167.232 96.8862 170.405 97.9318C173.577 98.9774 176.475 100.747 178.88 103.108C181.285 105.468 183.133 108.357 184.284 111.556C185.436 114.755 185.861 118.18 185.527 121.572H185.491Z" fill="white"/>
<path d="M185.491 121.571C185.065 125.716 183.53 129.659 181.056 132.969C179.84 134.622 178.387 136.079 176.747 137.289C175.127 138.545 173.343 139.56 171.446 140.306C169.547 141.065 167.555 141.55 165.525 141.746C164.512 141.841 163.493 141.86 162.477 141.803C161.456 141.779 160.439 141.67 159.436 141.479C155.381 140.733 151.609 138.846 148.545 136.029L148.805 136.108L137.823 137.836L137.027 137.959L137.429 137.239L142.913 127.497V127.886C141.623 124.664 141.075 121.182 141.311 117.709C141.546 114.236 142.559 110.865 144.271 107.855C145.981 104.858 148.333 102.295 151.15 100.36C153.964 98.454 157.164 97.2241 160.51 96.7628C163.855 96.3014 167.26 96.6206 170.467 97.6963C173.636 98.8036 176.522 100.622 178.915 103.017C181.312 105.4 183.148 108.308 184.287 111.522C185.426 114.736 185.838 118.172 185.491 121.571ZM185.491 121.571C185.842 118.187 185.429 114.765 184.283 111.569C183.137 108.374 181.288 105.49 178.881 103.14C176.473 100.79 173.57 99.0372 170.395 98.016C167.22 96.9948 163.859 96.7327 160.569 97.2499C157.31 97.7506 154.206 99.0066 151.495 100.922C148.809 102.849 146.565 105.35 144.919 108.251C143.299 111.164 142.346 114.414 142.132 117.758C141.917 121.101 142.446 124.451 143.68 127.555L143.758 127.756L143.652 127.936L138.119 137.642L137.724 137.044L148.728 135.467H148.883L148.988 135.575C151.937 138.39 155.593 140.31 159.548 141.119C160.53 141.321 161.526 141.444 162.526 141.487C163.527 141.559 164.532 141.559 165.532 141.487C167.539 141.327 169.515 140.883 171.404 140.169C173.303 139.469 175.09 138.484 176.705 137.246C178.356 136.044 179.814 134.586 181.027 132.926C183.51 129.634 185.054 125.705 185.491 121.571Z" fill="#263238"/>
<path d="M173.228 122.638C174.697 122.638 175.889 121.419 175.889 119.916C175.889 118.413 174.697 117.194 173.228 117.194C171.758 117.194 170.566 118.413 170.566 119.916C170.566 121.419 171.758 122.638 173.228 122.638Z" fill="#BE8E89"/>
<path d="M163.688 122.638C165.158 122.638 166.35 121.419 166.35 119.916C166.35 118.413 165.158 117.194 163.688 117.194C162.219 117.194 161.027 118.413 161.027 119.916C161.027 121.419 162.219 122.638 163.688 122.638Z" fill="#BE8E89"/>
<path d="M154.157 122.638C155.627 122.638 156.818 121.419 156.818 119.916C156.818 118.413 155.627 117.194 154.157 117.194C152.688 117.194 151.496 118.413 151.496 119.916C151.496 121.419 152.688 122.638 154.157 122.638Z" fill="#BE8E89"/>
<path d="M404.097 121.571C403.674 125.713 402.135 129.653 399.65 132.952C397.165 136.251 393.833 138.779 390.025 140.254C386.218 141.729 382.084 142.093 378.086 141.305C374.088 140.517 370.382 138.608 367.383 135.791L356.387 137.44L361.885 127.72C360.634 124.557 360.103 121.144 360.333 117.74C360.563 114.335 361.548 111.029 363.213 108.072C364.878 105.115 367.18 102.585 369.943 100.673C372.706 98.7603 375.859 97.5167 379.162 97.0358C382.466 96.555 385.833 96.8496 389.008 97.8973C392.183 98.945 395.084 100.718 397.489 103.083C399.895 105.447 401.743 108.341 402.892 111.544C404.042 114.748 404.464 118.177 404.125 121.571H404.097Z" fill="white"/>
<path d="M404.098 121.572C403.669 125.715 402.135 129.658 399.663 132.969C399.044 133.789 398.379 134.57 397.67 135.309C396.937 136.027 396.161 136.698 395.347 137.318C393.729 138.577 391.944 139.592 390.046 140.335C388.15 141.095 386.16 141.58 384.132 141.775C383.117 141.87 382.095 141.889 381.077 141.833C380.056 141.808 379.039 141.699 378.036 141.509C373.984 140.748 370.221 138.848 367.166 136.022L367.426 136.101L356.444 137.829L355.648 137.952L356.05 137.232L361.52 127.49V127.879C360.231 124.657 359.682 121.176 359.917 117.703C360.151 114.23 361.162 110.859 362.871 107.849C364.584 104.851 366.938 102.288 369.757 100.353C372.571 98.4472 375.771 97.2173 379.117 96.7559C382.462 96.2946 385.867 96.6137 389.074 97.6895C392.243 98.7959 395.13 100.614 397.522 103.01C399.921 105.393 401.759 108.302 402.898 111.517C404.037 114.733 404.447 118.171 404.098 121.572ZM404.098 121.572C404.449 118.187 404.036 114.765 402.89 111.57C401.744 108.374 399.895 105.49 397.488 103.14C395.08 100.791 392.177 99.0376 389.002 98.0163C385.827 96.9951 382.466 96.7331 379.176 97.2503C375.917 97.7509 372.813 99.0069 370.102 100.922C367.416 102.849 365.172 105.35 363.526 108.252C361.895 111.163 360.932 114.415 360.71 117.763C360.503 121.104 361.03 124.45 362.252 127.555L362.336 127.757L362.231 127.937L356.697 137.642L356.303 137.045L367.307 135.468H367.462L367.567 135.576C370.506 138.385 374.15 140.304 378.092 141.12C379.074 141.321 380.069 141.444 381.07 141.487C382.071 141.559 383.075 141.559 384.076 141.487C386.083 141.327 388.059 140.884 389.947 140.169C391.846 139.468 393.632 138.483 395.248 137.246C396.895 136.041 398.351 134.584 399.564 132.926C402.074 129.644 403.644 125.713 404.098 121.572Z" fill="#263238"/>
<path d="M391.798 122.638C393.268 122.638 394.459 121.419 394.459 119.916C394.459 118.413 393.268 117.194 391.798 117.194C390.328 117.194 389.137 118.413 389.137 119.916C389.137 121.419 390.328 122.638 391.798 122.638Z" fill="#BE8E89"/>
<path d="M382.267 122.638C383.736 122.638 384.928 121.419 384.928 119.916C384.928 118.413 383.736 117.194 382.267 117.194C380.797 117.194 379.605 118.413 379.605 119.916C379.605 121.419 380.797 122.638 382.267 122.638Z" fill="#BE8E89"/>
<path d="M375.396 119.916C375.398 120.454 375.243 120.981 374.951 121.43C374.66 121.878 374.245 122.228 373.759 122.435C373.272 122.642 372.737 122.697 372.22 122.593C371.704 122.489 371.229 122.23 370.856 121.85C370.483 121.469 370.229 120.985 370.126 120.456C370.023 119.928 370.075 119.381 370.276 118.883C370.477 118.385 370.818 117.96 371.256 117.66C371.694 117.361 372.209 117.201 372.735 117.201C373.44 117.201 374.116 117.487 374.615 117.996C375.113 118.505 375.395 119.195 375.396 119.916Z" fill="#BE8E89"/>
<path d="M149.108 280.923H144.398V284.069H149.108V280.923Z" fill="#455A64"/>
<path d="M155.218 280.714H150.508V283.86H155.218V280.714Z" fill="#455A64"/>
<path d="M161.327 280.505H156.617V283.651H161.327V280.505Z" fill="#455A64"/>
<path d="M167.432 280.297H162.723V283.443H167.432V280.297Z" fill="#455A64"/>
<path d="M173.542 280.088H168.832V283.234H173.542V280.088Z" fill="#455A64"/>
<path d="M179.655 279.886H174.945V283.032H179.655V279.886Z" fill="#455A64"/>
<path d="M185.757 279.677H181.047V282.823H185.757V279.677Z" fill="#455A64"/>
<path d="M191.866 279.469H187.156V282.615H191.866V279.469Z" fill="#455A64"/>
<path d="M197.971 279.26H193.262V282.406H197.971V279.26Z" fill="#455A64"/>
<path d="M199.126 285.877H143.242V282.046L199.126 280.455V285.877Z" fill="#37474F"/>
<path d="M253.67 270.785H161.418L176.089 200.542H268.341L253.67 270.785Z" fill="#455A64"/>
<path d="M257.087 270.785H164.828L179.499 200.542H271.759L257.087 270.785Z" fill="#37474F"/>
<path d="M226.265 231.596C225.982 233.195 225.171 234.646 223.968 235.708C222.765 236.769 221.242 237.376 219.654 237.428C218.937 237.451 218.225 237.307 217.57 237.008C216.916 236.708 216.336 236.261 215.875 235.7C215.413 235.139 215.082 234.478 214.907 233.767C214.731 233.056 214.715 232.314 214.86 231.596C215.14 229.996 215.948 228.543 217.15 227.48C218.352 226.417 219.875 225.809 221.463 225.757C222.181 225.732 222.895 225.875 223.551 226.174C224.207 226.474 224.788 226.921 225.251 227.483C225.713 228.046 226.045 228.708 226.22 229.42C226.396 230.133 226.411 230.877 226.265 231.596Z" fill="#263238"/>
<path d="M230.998 289.131H185.625V285.524L230.998 284.026V289.131Z" fill="#455A64"/>
<path d="M243.33 289.123H218.964L204.293 249.761H228.658L243.33 289.123Z" fill="#455A64"/>
<path d="M247.334 289.123H222.976L208.305 249.761H232.663L247.334 289.123Z" fill="#263238"/>
<path d="M141.504 290.088H94.7439C90.7522 290.088 96.525 278.46 111.098 274.003C125.671 269.547 146.115 285.725 141.504 290.088Z" fill="#37474F"/>
<path d="M123.199 290.089C123.231 288.764 123.444 287.45 123.833 286.186C124.208 284.908 124.735 283.682 125.403 282.536C126.072 281.382 126.91 280.34 127.888 279.447C128.858 278.56 129.973 277.856 131.183 277.366C130.683 277.784 130.112 278.086 129.655 278.54L128.951 279.166L128.289 279.886C127.424 280.812 126.666 281.836 126.029 282.939C125.382 284.041 124.826 285.197 124.368 286.395C123.898 287.598 123.508 288.832 123.199 290.089Z" fill="#263238"/>
<path d="M128.703 279.022C131.486 279.923 134.118 281.251 136.51 282.961C137.721 283.817 138.817 284.831 139.77 285.978C140.77 287.119 141.378 288.562 141.502 290.089C141.114 288.681 140.371 287.402 139.348 286.381C138.35 285.342 137.259 284.402 136.088 283.573C134.926 282.716 133.709 281.946 132.47 281.19C131.23 280.434 129.984 279.721 128.703 279.022Z" fill="#263238"/>
<path d="M365.136 280.923H360.426V284.069H365.136V280.923Z" fill="#455A64"/>
<path d="M371.249 280.714H366.539V283.86H371.249V280.714Z" fill="#455A64"/>
<path d="M377.358 280.505H372.648V283.651H377.358V280.505Z" fill="#455A64"/>
<path d="M383.46 280.297H378.75V283.443H383.46V280.297Z" fill="#455A64"/>
<path d="M389.573 280.088H384.863V283.234H389.573V280.088Z" fill="#455A64"/>
<path d="M395.682 279.886H390.973V283.032H395.682V279.886Z" fill="#455A64"/>
<path d="M401.788 279.677H397.078V282.823H401.788V279.677Z" fill="#455A64"/>
<path d="M407.897 279.469H403.188V282.615H407.897V279.469Z" fill="#455A64"/>
<path d="M414.007 279.26H409.297V282.406H414.007V279.26Z" fill="#455A64"/>
<path d="M415.161 285.877H359.277V282.046L415.161 280.455V285.877Z" fill="#37474F"/>
<path d="M469.701 270.785H377.449L392.121 200.542H484.373L469.701 270.785Z" fill="#455A64"/>
<path d="M473.115 270.785H380.863L395.535 200.542H487.787L473.115 270.785Z" fill="#37474F"/>
<path d="M442.296 231.596C442.013 233.194 441.204 234.644 440.002 235.705C438.8 236.767 437.279 237.375 435.692 237.428C434.975 237.452 434.262 237.309 433.607 237.01C432.951 236.711 432.37 236.264 431.908 235.703C431.446 235.142 431.114 234.48 430.938 233.769C430.762 233.058 430.746 232.314 430.891 231.596C431.172 229.997 431.981 228.544 433.183 227.482C434.385 226.419 435.907 225.81 437.495 225.757C438.213 225.732 438.926 225.875 439.583 226.174C440.239 226.474 440.82 226.921 441.282 227.483C441.744 228.046 442.076 228.708 442.252 229.42C442.427 230.133 442.442 230.877 442.296 231.596Z" fill="#263238"/>
<path d="M447.025 289.131H401.652V285.524L447.025 284.026V289.131Z" fill="#455A64"/>
<path d="M459.361 289.123H434.996L420.324 249.761H444.69L459.361 289.123Z" fill="#455A64"/>
<path d="M463.373 289.123H439.007L424.336 249.761H448.701L463.373 289.123Z" fill="#263238"/>
<path d="M357.556 290.088H310.775C306.783 290.088 312.556 278.46 327.129 274.003C341.702 269.547 362.146 285.725 357.556 290.088Z" fill="#37474F"/>
<path d="M339.195 290.089C339.23 288.764 339.443 287.451 339.829 286.186C340.207 284.909 340.734 283.684 341.399 282.536C342.072 281.385 342.91 280.344 343.884 279.447C344.854 278.56 345.969 277.856 347.179 277.366C346.679 277.784 346.109 278.086 345.651 278.54L344.947 279.166L344.285 279.886C343.416 280.81 342.655 281.835 342.018 282.939C341.371 284.041 340.815 285.197 340.357 286.395C339.89 287.598 339.502 288.832 339.195 290.089Z" fill="#263238"/>
<path d="M344.734 279.022C347.517 279.923 350.149 281.251 352.542 282.961C353.753 283.818 354.851 284.832 355.808 285.978C356.805 287.111 357.417 288.542 357.554 290.06C357.164 288.652 356.419 287.373 355.393 286.352C354.395 285.313 353.304 284.373 352.133 283.544C350.979 282.687 349.754 281.917 348.515 281.161C347.276 280.405 346.023 279.721 344.734 279.022Z" fill="#263238"/>
</svg>
