<svg width="543" height="360" viewBox="0 0 543 360" fill="none" xmlns="http://www.w3.org/2000/svg">
<path d="M511.21 322.164C511.21 322.164 543.653 244.288 492.191 149.76C440.729 55.2308 342.279 36.2444 269.561 67.946C196.842 99.6476 159.925 116.344 102.317 132.48C44.7081 148.615 18.9626 209.8 22.8795 257.083C26.7963 304.365 65.9502 322.164 65.9502 322.164H511.21Z" fill="#B7E3C6"/>
<path opacity="0.7" d="M510.718 322.404C510.718 322.404 543.161 244.529 491.699 150C440.237 55.471 341.787 36.4846 269.069 68.1862C196.35 99.8878 159.433 116.585 101.825 132.72C44.2159 148.855 18.4704 210.041 22.3873 257.323C26.3041 304.605 65.458 322.404 65.458 322.404H510.718Z" fill="white"/>
<g opacity="0.3">
<path d="M292.497 102.715C292.497 99.05 290.651 96.1556 284.598 94.0748L284.331 93.9884V83.0444C285.062 83.079 285.789 83.1802 286.503 83.3468L287.06 85.802C287.596 88.1204 288.718 88.7468 289.703 88.7468C290.137 88.7556 290.563 88.6262 290.919 88.3776C291.274 88.129 291.541 87.774 291.679 87.3644C291.433 83.822 288.356 81.2732 284.323 80.8844V76.8164H282.528V80.8628C277.764 81.2012 274.404 84.6284 274.404 88.9556C274.404 93.4124 277.185 95.8244 281.898 97.4732L282.477 97.682V108.72C281.394 108.701 280.315 108.578 279.255 108.352L278.712 105.919C278.169 103.55 277.185 102.974 276.106 102.974C275.665 102.962 275.232 103.089 274.869 103.337C274.506 103.586 274.232 103.943 274.086 104.356C274.267 108.18 277.793 110.779 282.477 110.836V115.394H284.273V110.75C289.399 110.253 292.497 107.064 292.497 102.715ZM277.909 88.0268C277.909 85.1468 279.842 83.4908 282.535 83.1164V93.3548C279.538 92.3252 277.872 90.7772 277.872 88.0268H277.909ZM284.28 108.648V98.33C287.581 99.59 288.993 100.929 288.993 103.557C288.957 106.437 287.147 108.23 284.244 108.648H284.28Z" stroke="#38A169" stroke-miterlimit="10"/>
<path d="M283.258 123.242C298.317 123.242 310.524 111.102 310.524 96.1269C310.524 81.1516 298.317 69.0117 283.258 69.0117C268.2 69.0117 255.992 81.1516 255.992 96.1269C255.992 111.102 268.2 123.242 283.258 123.242Z" stroke="#38A169" stroke-miterlimit="10"/>
<path d="M283.258 120.002C296.517 120.002 307.266 109.313 307.266 96.1272C307.266 82.9412 296.517 72.252 283.258 72.252C269.999 72.252 259.25 82.9412 259.25 96.1272C259.25 109.313 269.999 120.002 283.258 120.002Z" stroke="#38A169" stroke-miterlimit="10"/>
</g>
<g opacity="0.3">
<path d="M459.144 222.948C459.144 220.24 457.782 218.095 453.308 216.547L453.105 216.482V208.411C453.649 208.438 454.189 208.512 454.72 208.634L455.133 210.448C455.531 212.162 456.356 212.608 457.087 212.608C457.407 212.614 457.72 212.517 457.98 212.333C458.241 212.149 458.435 211.888 458.535 211.586C458.354 208.972 456.081 207.086 453.098 206.812V203.803H451.781V206.798C448.262 207.043 445.779 209.577 445.779 212.774C445.779 215.971 447.835 217.814 451.317 219.074L451.744 219.225V227.376C450.946 227.361 450.15 227.27 449.37 227.102L448.964 225.302C448.566 223.56 447.835 223.142 447.038 223.142C446.713 223.133 446.393 223.227 446.125 223.411C445.857 223.595 445.654 223.859 445.547 224.164C445.677 226.987 448.284 228.916 451.744 228.974V232.344H453.076V228.916C456.885 228.52 459.144 226.159 459.144 222.948ZM448.363 212.097C448.363 209.937 449.811 208.742 451.781 208.497V216C449.609 215.28 448.363 214.128 448.363 212.097ZM453.076 227.332V219.708C455.509 220.636 456.559 221.63 456.559 223.574C456.559 225.698 455.219 227.023 453.076 227.332Z" stroke="#38A169" stroke-miterlimit="10"/>
<path d="M455.552 237.842C466.539 236.085 474.012 225.802 472.245 214.876C470.477 203.95 460.138 196.518 449.151 198.276C438.164 200.034 430.691 210.316 432.458 221.242C434.226 232.168 444.565 239.6 455.552 237.842Z" stroke="#38A169" stroke-miterlimit="10"/>
<path d="M452.343 235.728C462.143 235.728 470.088 227.827 470.088 218.081C470.088 208.335 462.143 200.434 452.343 200.434C442.542 200.434 434.598 208.335 434.598 218.081C434.598 227.827 442.542 235.728 452.343 235.728Z" stroke="#38A169" stroke-miterlimit="10"/>
</g>
<g opacity="0.3">
<path d="M415.1 81.0647C415.1 78.3575 413.738 76.2119 409.264 74.6639L409.069 74.5991V66.5279C409.612 66.5555 410.152 66.6301 410.683 66.7511L411.089 68.5655C411.487 70.2791 412.312 70.7255 413.043 70.7255C413.362 70.7286 413.674 70.6314 413.934 70.4478C414.194 70.2642 414.389 70.0035 414.491 69.7031C414.303 67.0895 412.03 65.2031 409.054 64.9295V61.9199H407.722V64.9151C404.211 65.1599 401.72 67.6943 401.72 70.8911C401.72 74.0879 403.776 75.9311 407.259 77.1911L407.693 77.3423V85.4927C406.892 85.4786 406.094 85.387 405.311 85.2191L404.906 83.4191C404.507 81.6767 403.776 81.2591 402.98 81.2591C402.654 81.2502 402.334 81.3444 402.066 81.5282C401.798 81.712 401.596 81.9758 401.488 82.2815C401.619 85.1039 404.225 87.0335 407.693 87.0911V90.4607H409.061V87.0335C412.841 86.6303 415.1 84.2759 415.1 81.0647ZM404.326 70.2143C404.326 68.0543 405.774 66.8591 407.736 66.6143V74.1599C405.55 73.3823 404.326 72.2447 404.326 70.2143ZM409.032 85.4423V77.8247C411.472 78.7535 412.515 79.7471 412.515 81.6911C412.515 83.8151 411.175 85.1399 409.061 85.4423H409.032Z" stroke="#38A169" stroke-miterlimit="10"/>
<path d="M412.985 95.6523C423.808 93.0783 430.483 82.2665 427.895 71.5036C425.306 60.7406 414.435 54.1022 403.612 56.6762C392.789 59.2503 386.114 70.062 388.702 80.825C391.291 91.5879 402.162 98.2263 412.985 95.6523Z" stroke="#38A169" stroke-miterlimit="10"/>
<path d="M408.3 93.8442C418.1 93.8442 426.045 85.9433 426.045 76.197C426.045 66.4507 418.1 58.5498 408.3 58.5498C398.5 58.5498 390.555 66.4507 390.555 76.197C390.555 85.9433 398.5 93.8442 408.3 93.8442Z" stroke="#38A169" stroke-miterlimit="10"/>
</g>
<g opacity="0.3">
<path d="M186.418 50.0253C186.418 48.3261 185.563 46.9797 182.747 46.0005L182.624 45.9573V40.9173C182.966 40.9334 183.305 40.9816 183.637 41.0613L183.898 42.1989C184.144 43.2789 184.666 43.5669 185.129 43.5669C185.33 43.571 185.527 43.511 185.691 43.3956C185.855 43.2803 185.978 43.1158 186.041 42.9261C185.925 41.2773 184.499 40.0965 182.624 39.9237V37.9941H181.791V39.8733C180.793 39.8901 179.84 40.2924 179.135 40.9952C178.43 41.698 178.027 42.6461 178.012 43.6389C178.012 45.7125 179.308 46.8285 181.494 47.5989L181.77 47.6925V52.8261C181.266 52.8156 180.764 52.7577 180.271 52.6533L180.017 51.5229C179.764 50.4213 179.293 50.1477 178.808 50.1477C178.602 50.1414 178.4 50.2009 178.23 50.3176C178.061 50.4342 177.934 50.6018 177.867 50.7957C177.947 52.5741 179.59 53.7837 181.77 53.8197V55.9365H182.602V53.7765C184.999 53.5317 186.418 52.0485 186.418 50.0253ZM179.641 43.1997C179.625 42.6108 179.845 42.0398 180.252 41.612C180.66 41.1841 181.221 40.9343 181.813 40.9173V45.6765C180.416 45.1941 179.641 44.4741 179.641 43.1997ZM182.602 52.7829V47.9877C184.137 48.5781 184.774 49.1973 184.774 50.4213C184.798 51.0201 184.583 51.604 184.176 52.0461C183.77 52.4883 183.204 52.7531 182.602 52.7829Z" stroke="#38A169" stroke-miterlimit="10"/>
<path d="M193.88 51.7403C196.531 45.2959 193.427 37.9345 186.947 35.2981C180.467 32.6616 173.065 35.7485 170.413 42.1929C167.762 48.6372 170.866 55.9986 177.347 58.635C183.827 61.2715 191.229 58.1846 193.88 51.7403Z" stroke="#38A169" stroke-miterlimit="10"/>
<path d="M183.94 57.9277C190.025 56.941 194.154 51.2352 193.162 45.1835C192.17 39.1317 186.432 35.0256 180.347 36.0123C174.261 36.999 170.132 42.7048 171.125 48.7565C172.117 54.8083 177.854 58.9144 183.94 57.9277Z" stroke="#38A169" stroke-miterlimit="10"/>
</g>
<g opacity="0.3">
<path d="M41.835 306.151C41.835 304.444 40.9807 303.098 38.1643 302.126L38.034 302.083V297.007C38.3775 297.024 38.719 297.07 39.0549 297.144L39.3083 298.288C39.5617 299.361 40.0829 299.656 40.5391 299.656C40.741 299.661 40.939 299.601 41.1044 299.486C41.2698 299.371 41.3938 299.206 41.4585 299.016C41.3427 297.367 39.9092 296.179 38.034 296.006V294.112H37.2014V295.999C36.205 296.015 35.2542 296.417 34.5502 297.118C33.8463 297.82 33.4443 298.766 33.4294 299.757C33.4294 301.831 34.7181 302.954 36.9118 303.724L37.1797 303.818V308.944C36.6756 308.937 36.1735 308.879 35.681 308.772L35.4276 307.641C35.1815 306.54 34.7036 306.273 34.2185 306.273C34.014 306.268 33.8131 306.328 33.6442 306.443C33.4753 306.558 33.347 306.723 33.2773 306.914C33.3642 308.692 35.0005 309.902 37.1797 309.945V312.062H38.0195V309.902C40.4087 309.657 41.835 308.16 41.835 306.151ZM35.0511 299.325C35.0356 298.736 35.2555 298.165 35.6626 297.737C36.0698 297.309 36.631 297.06 37.2231 297.043V301.795C35.8258 301.32 35.0511 300.6 35.0511 299.325ZM38.0195 308.88V304.084C39.5472 304.668 40.1915 305.294 40.1915 306.511C40.2133 307.11 39.9981 307.693 39.592 308.136C39.1859 308.579 38.6213 308.846 38.0195 308.88Z" stroke="#38A169" stroke-miterlimit="10"/>
<path d="M40.4554 315.367C47.2696 313.767 51.4898 306.977 49.8815 300.201C48.2732 293.424 41.4454 289.227 34.6312 290.827C27.817 292.426 23.5968 299.216 25.2051 305.993C26.8134 312.769 33.6412 316.966 40.4554 315.367Z" stroke="#38A169" stroke-miterlimit="10"/>
<path d="M40.1078 313.902C46.1087 312.494 49.8252 306.514 48.4089 300.547C46.9925 294.579 40.9797 290.883 34.9788 292.291C28.9779 293.7 25.2614 299.68 26.6778 305.647C28.0941 311.615 34.107 315.311 40.1078 313.902Z" stroke="#38A169" stroke-miterlimit="10"/>
</g>
<g opacity="0.3">
<path d="M478.058 164.038C478.058 162.339 477.204 160.992 474.388 160.013L474.264 159.97V154.894C474.606 154.911 474.945 154.959 475.278 155.038L475.531 156.176C475.785 157.256 476.306 157.544 476.762 157.544C476.964 157.549 477.163 157.49 477.329 157.375C477.494 157.259 477.618 157.094 477.682 156.903C477.566 155.254 476.14 154.073 474.264 153.9V152.007H473.425V153.886C472.428 153.905 471.477 154.308 470.773 155.01C470.069 155.713 469.667 156.66 469.653 157.652C469.653 159.725 470.941 160.841 473.135 161.612L473.403 161.705V166.839C472.901 166.828 472.402 166.77 471.911 166.666L471.651 165.536C471.405 164.434 470.927 164.168 470.442 164.168C470.238 164.161 470.037 164.22 469.869 164.335C469.701 164.451 469.574 164.616 469.508 164.808C469.587 166.587 471.224 167.796 473.403 167.832V169.92H474.221V167.76C476.639 167.544 478.058 166.061 478.058 164.038ZM471.282 157.212C471.273 156.921 471.322 156.63 471.427 156.357C471.531 156.084 471.689 155.835 471.891 155.623C472.093 155.411 472.335 155.24 472.603 155.121C472.871 155.003 473.16 154.937 473.454 154.93V159.689C472.049 159.207 471.282 158.494 471.282 157.212ZM474.221 166.796V162C475.756 162.584 476.393 163.203 476.393 164.427C476.419 165.027 476.205 165.613 475.798 166.056C475.391 166.5 474.824 166.766 474.221 166.796Z" stroke="#38A169" stroke-miterlimit="10"/>
<path d="M482.744 169.893C487.695 164.97 487.695 156.987 482.744 152.064C477.793 147.14 469.767 147.14 464.816 152.064C459.865 156.987 459.865 164.97 464.816 169.893C469.766 174.817 477.793 174.817 482.744 169.893Z" stroke="#38A169" stroke-miterlimit="10"/>
<path d="M481.675 168.829C486.035 164.493 486.035 157.464 481.675 153.128C477.315 148.792 470.246 148.792 465.886 153.128C461.527 157.464 461.527 164.493 465.886 168.829C470.246 173.165 477.315 173.165 481.675 168.829Z" stroke="#38A169" stroke-miterlimit="10"/>
</g>
<g opacity="0.3">
<path d="M286.761 297.972C286.761 295.272 285.407 293.126 280.926 291.578L280.73 291.506V283.442C281.28 283.47 281.825 283.55 282.359 283.68L282.765 285.494C283.163 287.208 283.996 287.654 284.72 287.654C285.039 287.657 285.35 287.56 285.61 287.376C285.87 287.193 286.065 286.932 286.168 286.632C285.979 284.011 283.706 282.132 280.73 281.858V278.849H279.406V281.837C275.887 282.089 273.404 284.623 273.404 287.82C273.404 291.017 275.46 292.896 278.935 294.113L279.369 294.264V302.4C278.569 302.382 277.771 302.291 276.987 302.126L276.582 300.326C276.184 298.577 275.46 298.166 274.663 298.166C274.338 298.156 274.017 298.25 273.749 298.434C273.48 298.618 273.278 298.882 273.172 299.189C273.302 302.011 275.901 303.933 279.369 303.998V307.368H280.694V303.933C284.531 303.545 286.761 301.19 286.761 297.972ZM275.988 287.121C275.988 284.961 277.436 283.773 279.406 283.521V291.089C277.212 290.297 275.988 289.152 275.988 287.121ZM280.694 302.357V294.739C283.134 295.668 284.177 296.661 284.177 298.598C284.177 300.729 282.837 302.054 280.694 302.357Z" stroke="#38A169" stroke-miterlimit="10"/>
<path d="M284.513 312.629C295.354 310.134 302.109 299.371 299.6 288.59C297.091 277.808 286.268 271.091 275.427 273.586C264.586 276.081 257.831 286.844 260.34 297.625C262.849 308.407 273.671 315.124 284.513 312.629Z" stroke="#38A169" stroke-miterlimit="10"/>
<path d="M296.657 299.104C299.985 289.936 295.21 279.822 285.992 276.513C276.774 273.203 266.603 277.952 263.276 287.119C259.948 296.286 264.723 306.401 273.941 309.71C283.159 313.019 293.33 308.271 296.657 299.104Z" stroke="#38A169" stroke-miterlimit="10"/>
</g>
<g opacity="0.3">
<path d="M51.2162 101.519C51.2162 98.8193 49.8623 96.6737 45.3808 95.1257L45.1853 95.0609V87.0113C45.7293 87.0352 46.2698 87.11 46.7998 87.2345L47.2052 89.0489C47.6034 90.7625 48.436 91.2089 49.16 91.2089C49.4789 91.212 49.7907 91.1148 50.0507 90.9312C50.3108 90.7476 50.5058 90.4869 50.608 90.1865C50.427 87.5729 48.1464 85.6865 45.1708 85.4129V82.4033H43.8604V85.3985C40.3417 85.6433 37.8584 88.1777 37.8584 91.3745C37.8584 94.5713 39.9146 96.4145 43.397 97.6745L43.8242 97.8257V105.976C43.0231 105.962 42.2254 105.87 41.4422 105.703L41.0368 103.903C40.6386 102.16 39.9146 101.743 39.1182 101.743C38.7961 101.737 38.4805 101.833 38.2165 102.017C37.9526 102.2 37.7537 102.462 37.6484 102.765C37.7788 105.587 40.3779 107.51 43.8459 107.575V110.944H45.1708V107.51C48.9573 107.114 51.2162 104.759 51.2162 101.519ZM40.4431 90.7193C40.4431 88.5593 41.8911 87.3641 43.8604 87.1193V94.6793C41.6739 93.8657 40.4431 92.7209 40.4431 90.7193ZM45.1491 105.947V98.3081C47.589 99.2369 48.6315 100.231 48.6315 102.175C48.6315 104.299 47.2921 105.623 45.1491 105.926V105.947Z" stroke="#38A169" stroke-miterlimit="10"/>
<path d="M63.0387 104.354C67.2971 94.13 62.415 82.4086 52.1341 78.1737C41.8533 73.9387 30.0668 78.7939 25.8083 89.0179C21.5498 99.242 26.432 110.963 36.7128 115.198C46.9937 119.433 58.7802 114.578 63.0387 104.354Z" stroke="#38A169" stroke-miterlimit="10"/>
<path d="M60.818 103.44C64.5685 94.4356 60.2688 84.1126 51.2144 80.3828C42.16 76.6531 31.7796 80.929 28.0291 89.9334C24.2786 98.9378 28.5783 109.261 37.6327 112.991C46.6872 116.72 57.0676 112.444 60.818 103.44Z" stroke="#38A169" stroke-miterlimit="10"/>
</g>
<path d="M381.658 38.7719C381.658 38.7719 378.856 25.7615 369.039 22.5143C359.221 19.2671 356.89 25.7615 354.088 29.5199C351.286 33.2783 347.08 27.6551 341.006 29.5199C334.931 31.3847 337.27 36.4895 333.527 38.3471C329.784 40.2047 323.253 36.0215 319.047 39.2759C314.84 42.5303 313.906 45.3167 313.906 45.3167H402.683C402.683 45.3167 388.667 32.2703 381.658 38.7719Z" stroke="#263238" stroke-miterlimit="10"/>
<path d="M241.487 69.0764C241.487 69.0764 240.039 62.4308 235.043 60.7748C230.047 59.1188 228.838 62.4308 227.412 64.3316C225.986 66.2324 223.792 63.3812 220.73 64.3316C217.667 65.282 218.818 67.8884 216.914 68.8388C215.01 69.7892 211.658 67.6508 209.515 69.314C207.372 70.9772 206.887 72.3956 206.887 72.3956H252.224C252.224 72.3956 245.063 65.7572 241.487 69.0764Z" stroke="#263238" stroke-miterlimit="10"/>
<path d="M479.832 92.6783C479.832 92.6783 477.66 82.5983 470.065 80.0927C462.47 77.5871 460.653 82.6055 458.481 85.4855C456.309 88.3655 453.058 84.0455 448.345 85.4855C443.632 86.9255 445.449 90.8783 442.553 92.3183C439.657 93.7583 434.589 90.5183 431.345 93.0383C428.102 95.5583 427.363 97.7111 427.363 97.7111H496.085C496.085 97.7111 485.254 87.6455 479.832 92.6783Z" stroke="#263238" stroke-miterlimit="10"/>
<path d="M138.467 60.3426C138.467 60.3426 135.31 45.6834 124.255 42.0186C113.199 38.3538 110.564 45.6834 107.407 49.8738C104.251 54.0642 99.5085 47.7786 92.6594 49.8738C85.8104 51.969 88.4457 57.729 84.2393 59.8242C80.0329 61.9194 72.6553 57.2034 67.9131 60.8682C63.1709 64.533 62.1211 67.6722 62.1211 67.6722H162.178C162.178 67.6722 146.366 53.013 138.467 60.3426Z" stroke="#263238" stroke-miterlimit="10"/>
<path d="M309.098 130.953V322.12H501.334V130.953H309.098ZM489.301 310.154H321.131V142.92H489.301V310.154Z" fill="#BE8E89" stroke="black" stroke-linecap="round" stroke-linejoin="round"/>
<path d="M322.906 202.507C322.906 202.507 323.037 200.8 323.732 201.369C324.427 201.938 324.984 207.849 325.274 209.289C325.563 210.729 325.686 211.924 325.686 211.924L352.981 208.079L352.793 207.043L359.229 206.517L359.99 207.179L364.848 205.948L365.897 208.317L354.357 215.02L324.296 213.199L322.906 202.507Z" fill="white" stroke="#263238" stroke-linecap="round" stroke-linejoin="round"/>
<path d="M356.207 195.839C356.207 195.839 358.683 200.764 359.349 201.045C359.875 201.251 360.417 201.41 360.971 201.52C360.971 201.52 360.877 205.689 361.253 205.783C361.63 205.876 363.063 206.164 363.063 206.164C363.063 206.164 367.545 210.239 368.131 209.764C368.718 209.289 370.984 207.489 370.984 207.489L375.371 209.476L378.18 196.559L376.276 194.947C376.276 194.947 372.374 190.684 370.086 189.071C367.798 187.459 361.608 187.466 358.937 189.266C356.265 191.066 355.7 194.961 356.207 195.839Z" fill="white" stroke="#263238" stroke-linecap="round" stroke-linejoin="round"/>
<path d="M361.704 192.405C360.677 193.574 359.49 194.594 358.178 195.436C356.18 196.667 353.508 198.28 353.508 198.28L354.08 192.217L352.082 193.067C352.082 193.067 352.654 187.48 357.418 184.427C360.759 182.414 364.684 181.58 368.56 182.058C369.328 182.245 373.23 184.614 373.628 185.752C374.026 186.889 375.8 193.521 376.01 194.089C376.22 194.658 376.734 195.601 376.481 195.889C376.227 196.177 376.01 196.609 375.243 196.357C374.537 195.978 373.895 195.492 373.339 194.917C373.339 194.917 372.101 192.93 370.58 193.78C369.06 194.629 369.053 197.099 369.053 197.099C369.053 197.099 368.198 197.855 367.815 197.38C367.431 196.905 365.433 195.105 365.433 195.105C365.433 195.105 364.383 195.774 363.717 195.486C363.051 195.198 361.704 192.405 361.704 192.405Z" fill="#263238" stroke="#263238" stroke-linecap="round" stroke-linejoin="round"/>
<path d="M360.942 200.548C360.942 200.548 360.848 199.317 362.658 198.942" stroke="#263238" stroke-linecap="round" stroke-linejoin="round"/>
<path d="M362.277 200.93L363.327 201.881C363.847 201.551 364.332 201.17 364.775 200.743" stroke="#263238" stroke-linecap="round" stroke-linejoin="round"/>
<path d="M373.325 194.961C373.325 194.961 374.657 196.401 373.897 197.711C373.56 198.388 373.063 198.974 372.449 199.418C372.676 200.252 372.802 201.11 372.826 201.974" stroke="#263238" stroke-linecap="round" stroke-linejoin="round"/>
<path d="M366.604 301.189C366.37 301.87 366.095 302.536 365.779 303.184C365.301 304.127 361.877 306.006 360.219 306.942C358.561 307.878 355.614 308.944 355.73 309.527C355.846 310.11 362.702 310.002 364.831 309.765C366.959 309.527 368.733 309.412 369.435 309.045L370.159 308.692H371.462L371.578 309.513L376.074 308.929C375.962 307.798 375.681 306.689 375.242 305.639C374.87 304.749 374.437 303.885 373.946 303.054L372.86 301.305L366.604 301.189Z" fill="white" stroke="#263238" stroke-linecap="round" stroke-linejoin="round"/>
<path d="M370.145 308.706H371.448L371.564 309.527L376.06 308.944C375.947 307.812 375.667 306.703 375.227 305.654C374.856 304.763 374.423 303.9 373.931 303.069L373.772 302.802C371.419 304.962 368.255 303.89 368.255 303.89C368.144 303.353 367.946 302.837 367.669 302.363C367.515 302.171 367.315 302.022 367.087 301.928C366.859 301.835 366.61 301.801 366.365 301.83C366.221 302.212 366.011 302.716 365.779 303.184C365.301 304.127 361.877 306.006 360.219 306.942C358.561 307.878 355.614 308.944 355.73 309.527C355.846 310.11 362.702 310.002 364.831 309.765C366.959 309.527 368.733 309.412 369.435 309.045L370.145 308.706Z" fill="#263238" stroke="#263238" stroke-linecap="round" stroke-linejoin="round"/>
<path d="M424.263 298.526C424.263 298.526 425.233 302.314 424.987 302.782C424.833 303.785 424.399 304.726 423.734 305.496C422.401 306.704 420.871 307.678 419.209 308.376C418.029 308.851 418.029 310.14 419.933 310.14C421.837 310.14 426.5 310.061 427.383 309.787C428.662 309.192 429.783 308.307 430.656 307.202C430.887 306.734 430.417 305.323 431.242 304.855L432.075 304.387L433.016 305.107L435.738 301.111C434.916 300.242 433.978 299.489 432.951 298.872C431.293 297.936 428.462 296.287 428.462 296.287L424.263 298.526Z" fill="white" stroke="#263238" stroke-linecap="round" stroke-linejoin="round"/>
<path d="M432.952 298.872L430.925 297.72C430.024 299.328 428.757 300.704 427.225 301.737C426.634 301.346 425.964 301.086 425.263 300.974C425.133 300.973 425.007 301.019 424.908 301.104C425.057 301.65 425.106 302.218 425.053 302.781C424.899 303.785 424.465 304.725 423.801 305.496C422.467 306.704 420.937 307.677 419.276 308.376C418.095 308.851 418.095 310.14 420 310.14C421.904 310.14 426.566 310.061 427.45 309.787C428.729 309.192 429.85 308.307 430.722 307.202C430.954 306.734 430.483 305.323 431.308 304.855L432.141 304.387L433.082 305.107L435.804 301.111C434.962 300.237 434.002 299.484 432.952 298.872Z" fill="#263238" stroke="#263238" stroke-linecap="round" stroke-linejoin="round"/>
<path d="M381.107 236.519L378.508 242.999C378.508 242.999 356.933 258.883 351.141 267.839C351.141 267.839 351.141 270.424 351.611 271.483C352.082 272.541 362.833 302.277 362.833 302.277H373.353C373.353 302.277 369.805 288.64 368.748 282.88C367.691 277.12 365.671 269.013 365.671 269.013L390.345 256.175C390.345 256.175 398.128 276.119 399.069 276.479C400.011 276.839 421.694 301.348 421.694 301.348L429.26 296.063C429.26 296.063 423.099 285.04 420.464 281.181C417.372 276.659 410.653 270.489 410.653 270.489C410.653 270.489 406.751 240.875 406.165 238.053C405.578 235.231 405.332 233.625 405.332 233.625C405.332 233.625 391.511 238.046 381.107 236.519Z" fill="#263238" stroke="#263238" stroke-linecap="round" stroke-linejoin="round"/>
<path d="M373.229 214.559C373.229 214.559 375.039 222.897 377.421 225.165C379.803 227.433 380.759 229.715 380.853 230.666C380.947 231.616 379.615 236.635 379.709 237.103C379.803 237.571 381.157 238.147 381.613 238.24C382.069 238.334 391.235 240.4 395.905 239.565C400.575 238.73 404.188 237.203 404.955 236.159C405.722 235.115 405.997 235.115 405.331 233.603C404.665 232.091 403.521 229.334 403.521 229.334C403.521 229.334 398.757 210.484 398.186 208.684C397.614 206.884 392.756 201.391 388.375 199.403C385.105 198.043 381.683 197.076 378.181 196.523L376.943 197.092C376.943 197.092 373.041 209.361 373.229 214.559Z" fill="#A7F0FA" stroke="#263238" stroke-linecap="round" stroke-linejoin="round"/>
<path d="M377.422 195.53L372.086 208.699L376.473 212.011L380.187 196.574L377.422 195.53Z" fill="#A7F0FA" stroke="#263238" stroke-linecap="round" stroke-linejoin="round"/>
<path d="M356.599 208.274C356.599 208.274 325.757 211.571 325.12 211.298C324.482 211.024 324.222 208.699 323.911 207.41C323.599 206.121 323.382 203.428 322.926 202.507C322.47 201.585 322.202 199.929 321.818 200.735C321.434 201.542 321.63 203.579 321.767 203.975C321.905 204.371 321.898 210.974 321.985 212.507C322.072 214.041 322.796 215.258 324.041 215.387C325.286 215.517 359.415 216.597 359.415 216.597L356.599 208.274Z" fill="white" stroke="#263238" stroke-linecap="round" stroke-linejoin="round"/>
<path d="M373.228 208.979L370.086 238.73L373.894 243.179L376.754 237.974L375.328 209.455L373.228 208.979Z" fill="#0BB0CF" stroke="#263238" stroke-linecap="round" stroke-linejoin="round"/>
<path d="M383.52 214.761C383.52 214.761 393.047 220.636 397.051 221.018" stroke="#263238" stroke-linecap="round" stroke-linejoin="round"/>
<path d="M384.566 216.942C384.566 216.942 389.634 221.867 391.234 222.436" stroke="#263238" stroke-linecap="round" stroke-linejoin="round"/>
<path d="M389.612 202.449C389.612 202.449 382.467 200.08 378.948 200.93C375.429 201.78 359.32 208.8 359.32 208.8L363.034 216.662L394.166 214.862" fill="#A7F0FA"/>
<path d="M389.612 202.449C389.612 202.449 382.467 200.08 378.948 200.93C375.429 201.78 359.32 208.8 359.32 208.8L363.034 216.662L394.166 214.862" stroke="#263238" stroke-linecap="round" stroke-linejoin="round"/>
<path d="M355.172 207.612C355.172 207.612 358.937 218.649 359.226 218.649C359.516 218.649 365.511 218.268 365.511 217.512C365.511 216.756 361.225 207.28 359.986 207.18C358.374 207.218 356.765 207.363 355.172 207.612Z" fill="#A7F0FA" stroke="#263238" stroke-linecap="round" stroke-linejoin="round"/>
<path d="M390.331 256.147L383.945 248.623" stroke="white" stroke-linecap="round" stroke-linejoin="round"/>
<path d="M385.008 252.151L380.52 247.68" stroke="white" stroke-linecap="round" stroke-linejoin="round"/>
<path d="M277.67 209.297V187.409L257.933 185.35C256.746 175.779 254.229 166.418 250.454 157.536L266.498 145.951L255.493 126.994L237.357 135.029C231.503 127.347 224.619 120.499 216.897 114.674L224.977 96.6383L205.914 85.6799L194.265 101.635C185.33 97.8842 175.915 95.3836 166.289 94.2047L164.219 74.5703H142.209L140.139 94.2047C130.515 95.3836 121.103 97.8843 112.17 101.635L100.521 85.6799L81.4583 96.6239L89.5382 114.66C81.8127 120.489 74.9263 127.342 69.0707 135.029L50.9707 126.994L39.9297 145.951L55.9735 157.536C52.2035 166.419 49.6914 175.78 48.5091 185.35L28.7656 187.409V209.297L48.5091 211.356C49.6946 220.928 52.2091 230.291 55.9808 239.177L39.9297 250.762L50.9417 269.719L69.0417 261.684C74.8985 269.363 81.7849 276.209 89.5092 282.031L81.4294 300.067L100.521 311.04L112.17 295.085C121.103 298.838 130.515 301.341 140.139 302.522L142.209 322.15H164.219L166.289 302.522C175.915 301.341 185.33 298.838 194.265 295.085L205.914 311.04L224.977 300.096L216.897 282.06C224.619 276.238 231.503 269.392 237.357 261.713L255.493 269.748L266.498 250.79L250.454 239.206C254.228 230.32 256.745 220.958 257.933 211.385L277.67 209.297ZM153.214 281.52C136.682 281.52 120.522 276.645 106.776 267.512C93.0299 258.379 82.3156 245.398 75.9876 230.21C69.6595 215.022 68.002 198.309 71.2245 182.184C74.447 166.059 82.4049 151.246 94.092 139.619C105.779 127.991 120.671 120.071 136.884 116.859C153.097 113.648 169.903 115.289 185.179 121.575C200.454 127.862 213.512 138.511 222.701 152.177C231.891 165.843 236.8 181.912 236.807 198.353C236.812 209.273 234.653 220.087 230.454 230.177C226.255 240.267 220.099 249.435 212.336 257.159C204.573 264.882 195.356 271.009 185.212 275.188C175.068 279.368 164.195 281.52 153.214 281.52Z" fill="#BE8E89" stroke="black" stroke-linecap="round" stroke-linejoin="round"/>
<path d="M136.794 177.545L125.5 167.155C125.5 167.155 122.053 162.54 121.836 161.813C121.619 161.086 120.388 161.813 120.041 162.281C119.693 162.749 116.638 166.68 117.376 167.616C118.257 168.619 119.374 169.388 120.627 169.855C121.655 170.187 123.458 170.957 123.458 170.957L132.494 184.421L136.794 177.545Z" fill="white" stroke="#263238" stroke-linecap="round" stroke-linejoin="round"/>
<path d="M122.503 161.921C122.503 161.921 121.533 160.121 120.882 160.279C120.23 160.438 119.137 161.352 119.224 161.676C119.784 162.744 120.493 163.729 121.33 164.599C121.736 164.787 122.735 164.103 122.988 163.807C123.242 163.512 122.503 161.921 122.503 161.921Z" fill="white" stroke="#263238" stroke-linecap="round" stroke-linejoin="round"/>
<path d="M119.222 161.676C119.222 161.676 117.535 162.799 117.731 163.224C117.926 163.649 119.649 165.773 120.149 165.787C120.648 165.801 121.329 164.599 121.329 164.599L119.222 161.676Z" fill="white" stroke="#263238" stroke-linecap="round" stroke-linejoin="round"/>
<path d="M117.73 163.224C117.73 163.224 116.282 164.664 116.543 164.966C116.804 165.268 118.288 166.759 119.287 166.795C120.286 166.831 120.149 165.787 120.149 165.787L117.73 163.224Z" fill="white" stroke="#263238" stroke-linecap="round" stroke-linejoin="round"/>
<path d="M116.564 164.967C116.564 164.967 115.651 166.14 115.97 166.666C116.288 167.192 118.402 167.962 118.779 167.883C119.155 167.804 119.698 166.817 119.698 166.817C119.698 166.817 116.737 165.392 116.564 164.967Z" fill="white" stroke="#263238" stroke-linecap="round" stroke-linejoin="round"/>
<path d="M127.028 168.617C127.028 168.617 124.965 164.636 124.48 163.678C123.995 162.72 123.466 161.352 122.8 161.403C121.618 161.793 120.555 162.474 119.709 163.383C119.18 164.103 118.319 164.729 118.985 165.096C119.651 165.464 120.071 165.096 120.433 164.816C120.795 164.535 122.098 163.692 122.098 163.692C122.098 163.692 121.598 166.875 122.59 167.876C123.34 168.513 124.283 168.881 125.269 168.92" fill="white"/>
<path d="M127.028 168.617C127.028 168.617 124.965 164.636 124.48 163.678C123.995 162.72 123.466 161.352 122.8 161.403C121.618 161.793 120.555 162.474 119.709 163.383C119.18 164.103 118.319 164.729 118.985 165.096C119.651 165.464 120.071 165.096 120.433 164.816C120.795 164.535 122.098 163.692 122.098 163.692C122.098 163.692 121.598 166.875 122.59 167.876C123.34 168.513 124.283 168.881 125.269 168.92" stroke="#263238" stroke-linecap="round" stroke-linejoin="round"/>
<path d="M143.432 177.962L140.941 179.877L138.371 178.437L134.664 185.983C134.664 185.983 137.06 188.445 137.908 188.74C138.755 189.036 145.872 187.826 145.872 187.826L143.432 177.962Z" fill="#A7F0FA" stroke="#263238" stroke-linecap="round" stroke-linejoin="round"/>
<path d="M140.059 179.043L135.39 187.1L131.77 185.04C131.77 185.04 136.468 176.343 137.207 176.465C137.945 176.588 140.059 179.043 140.059 179.043Z" fill="#A7F0FA" stroke="#263238" stroke-linecap="round" stroke-linejoin="round"/>
<path d="M193.213 252.986L194.285 254.426C194.285 254.426 194.951 258.746 194.466 260.618C193.981 262.49 192.569 265.759 193.452 265.745C194.336 265.73 196.58 263.93 198.238 262.058C199.321 260.963 200.097 259.605 200.49 258.12C200.569 257.551 200.815 254.03 200.815 254.03L202.459 254.441C202.782 253.728 203.048 252.992 203.255 252.238C203.436 251.251 203.726 250.078 203.726 250.078C203.726 250.078 201.713 249.055 200.49 248.508C199.538 248.143 198.542 247.901 197.529 247.788L194.9 247.133L193.213 252.986Z" fill="white" stroke="#263238" stroke-linecap="round" stroke-linejoin="round"/>
<path d="M200.49 258.091C200.569 257.523 200.815 254.002 200.815 254.002L202.459 254.412C202.782 253.7 203.048 252.963 203.255 252.209C203.436 251.223 203.726 250.049 203.726 250.049C203.726 250.049 201.713 249.027 200.49 248.479C199.909 248.237 199.305 248.056 198.687 247.939C198.402 250 198.001 252.044 197.485 254.059C197.485 254.059 196.175 253.836 195.422 253.793C195.194 253.787 194.969 253.841 194.769 253.95C194.57 254.059 194.403 254.218 194.285 254.412C194.285 254.412 194.951 258.732 194.466 260.604C193.981 262.476 192.569 265.745 193.452 265.731C194.336 265.716 196.58 263.916 198.238 262.044C199.323 260.945 200.099 259.582 200.49 258.091Z" fill="#263238" stroke="#263238" stroke-linecap="round" stroke-linejoin="round"/>
<path d="M151.18 223.639C151.18 223.639 156.631 235.994 158.087 236.808L192.223 255.73L196.386 246.859L174.883 231.84C171.119 229.205 167.694 227.009 167.694 227.009L164.595 213.084L151.18 223.639Z" fill="#263238" stroke="#263238" stroke-linecap="round" stroke-linejoin="round"/>
<path d="M128.576 265.255L127.852 268.07C127.852 268.07 120.764 267.969 119.613 267.206C116.442 265.104 115.312 267.206 115.312 267.206C116.035 268.705 117.069 270.035 118.346 271.108C119.635 272.21 123.769 274.032 126.875 275.313L126.332 276.184C128.33 277.163 130.408 277.97 132.544 278.596C132.544 278.596 133.268 278.748 133.869 277.747C134.452 276.917 134.906 276.004 135.215 275.04C135.708 273.463 136.178 267.573 136.178 267.573L128.576 265.255Z" fill="white" stroke="#263238" stroke-linecap="round" stroke-linejoin="round"/>
<path d="M119.621 267.206C116.45 265.103 115.32 267.206 115.32 267.206C116.043 268.705 117.077 270.035 118.354 271.108C119.643 272.21 123.777 274.031 126.883 275.313L126.34 276.184C128.337 277.163 130.416 277.97 132.552 278.596C132.552 278.596 133.276 278.747 133.876 277.747C134.459 276.917 134.913 276.004 135.223 275.039C135.465 274.054 135.637 273.054 135.737 272.044C132.792 271.793 129.899 271.117 127.15 270.035L127.874 268.055C127.874 268.055 120.772 267.969 119.621 267.206Z" fill="#263238" stroke="#263238" stroke-linecap="round" stroke-linejoin="round"/>
<path d="M144.216 202.406L145.237 210.859C145.237 210.859 139.083 218.685 136.231 221.825C133.378 224.964 128.991 229.781 128.911 231.185C128.831 232.589 125.762 264.873 125.762 264.873L135.999 269.193C135.999 269.193 139.967 250.574 140.64 247.284C141.313 243.993 143.065 234.129 143.065 234.129C143.065 234.129 165.075 215.229 166.66 213.725C168.246 212.22 169.607 207.799 169.238 205.085C168.869 202.37 168.695 199.879 168.695 199.879L144.216 202.406Z" fill="#263238" stroke="#263238" stroke-linecap="round" stroke-linejoin="round"/>
<path d="M146.532 162C146.532 162 141.602 167.76 141.421 172.447C141.24 177.134 143.433 194.767 143.593 196.56C143.752 198.353 143.52 201.55 144.23 202.399C144.939 203.249 159.173 202.522 162.786 202.061C166.399 201.6 168.723 201.146 168.708 199.793C168.694 198.439 168.1 189.598 168.1 189.598C168.1 189.598 169.548 168.379 168.448 164.844C167.347 161.309 160.136 156.42 160.136 156.42C160.136 156.42 148.422 159.595 146.532 162Z" fill="#A7F0FA" stroke="#263238" stroke-linecap="round" stroke-linejoin="round"/>
<path d="M172.949 185.99L161.843 199.728C161.843 199.728 157.622 202.205 157.659 202.687C157.695 203.169 157.391 205.567 157.391 205.567C157.391 205.567 157.478 206.633 157.883 206.798C158.288 206.964 159.7 206.265 159.7 206.265C159.7 206.265 162.227 207.151 162.596 207.021C162.965 206.892 164.993 206.345 165.268 206.035C165.543 205.725 167.071 200.232 167.15 199.937C167.23 199.641 181.167 188.417 181.167 188.417L172.949 185.99Z" fill="white" stroke="#263238" stroke-linecap="round" stroke-linejoin="round"/>
<path d="M158.556 160.444C158.556 160.444 166.02 160.444 167.33 162.108C168.641 163.771 182.201 174.139 184.945 176.565C187.689 178.992 188.174 180.223 187.74 180.936C187.306 181.648 183.715 185.932 183.715 185.932L173.644 182.707L173.752 180.36L155.355 174.744" fill="#A7F0FA"/>
<path d="M158.556 160.444C158.556 160.444 166.02 160.444 167.33 162.108C168.641 163.771 182.201 174.139 184.945 176.565C187.689 178.992 188.174 180.223 187.74 180.936C187.306 181.648 183.715 185.932 183.715 185.932L173.644 182.707L173.752 180.36L155.355 174.744" stroke="#263238" stroke-linecap="round" stroke-linejoin="round"/>
<path d="M179.218 178.279L173.781 180.36L180.218 180.569" stroke="#263238" stroke-linecap="round" stroke-linejoin="round"/>
<path d="M173.398 181.656L171.762 185.882C171.762 185.882 181.948 190.663 182.18 189.864C182.412 189.065 185.018 187.236 185.112 185.962C185.206 184.687 176.33 180.259 173.398 181.656Z" fill="#A7F0FA" stroke="#263238" stroke-linecap="round" stroke-linejoin="round"/>
<path d="M162.334 177.041L155.449 176.89" stroke="#263238" stroke-linecap="round" stroke-linejoin="round"/>
<path d="M146.402 162.72C146.402 162.72 147.467 166.983 148.357 167.912C149.248 168.84 151.782 167.379 153.251 166.472C154.721 165.564 169.578 156.154 170.736 155.794C171.894 155.434 185.998 155.247 185.998 155.247L189.531 152.712C189.531 152.712 185.035 148.803 184.767 148.824C184.499 148.846 169.889 151.964 169.107 152.475C168.325 152.986 150.949 166.104 150.319 166.241L149.697 166.385L148.763 166.09L150.659 163.592L148.039 161.525L146.402 162.72Z" fill="#0BB0CF" stroke="#263238" stroke-linecap="round" stroke-linejoin="round"/>
<path d="M149.216 157.903L144.987 160.949L143.742 164.851L145.726 162.252L147.891 163.167L149.643 159.862L149.216 157.903Z" fill="white" stroke="#263238" stroke-linecap="round" stroke-linejoin="round"/>
<path d="M147.203 133.236C147.203 133.236 143.808 137.664 143.743 139.119C143.677 140.573 143.938 141.639 143.743 142.474C143.547 143.309 140.847 146.074 141.332 146.556C141.817 147.039 141.657 147.276 142.309 147.478C142.961 147.68 141.809 155.031 143.301 155.463C144.792 155.895 147.913 155.016 147.913 155.016L149.658 159.862L159.526 155.542C159.526 155.542 158.186 152.381 158.317 151.74C158.447 151.1 162.516 148.335 163.479 145.541C164.442 142.748 164.261 136.901 160.764 134.064C157.267 131.228 149.868 129.68 147.203 133.236Z" fill="white" stroke="#263238" stroke-linecap="round" stroke-linejoin="round"/>
<path d="M153.249 152.431C153.423 151.15 153.075 144.288 153.886 143.071C154.697 141.854 157.267 140.911 157.441 143.071C157.615 145.231 154.4 147.298 154.4 147.298C154.4 147.298 157.752 151.747 158.302 151.798C158.433 151.15 162.502 148.392 163.464 145.598C164.427 142.805 164.246 136.958 160.749 134.122C157.253 131.285 149.839 129.708 147.203 133.265C147.203 133.265 146.943 133.603 146.566 134.122L146.726 134.208C146.726 134.208 149.173 134.021 149.897 135.137C150.621 136.253 150.483 136.814 149.716 137.513C148.948 138.211 148.116 139.176 148.818 140.026C149.52 140.875 151.555 142.351 151.584 142.711C151.613 143.071 150.621 149.126 150.027 149.623C149.62 149.954 149.112 150.139 148.587 150.146C148.061 150.154 147.548 149.985 147.131 149.666C145.799 148.867 143.88 146.477 142.316 147.506C142.975 147.722 141.817 155.059 143.308 155.491C144.8 155.923 147.92 155.045 147.92 155.045C147.92 155.045 153.075 153.713 153.249 152.431Z" fill="#263238" stroke="#263238" stroke-linecap="round" stroke-linejoin="round"/>
<path d="M161.627 134.842C161.627 134.842 161.439 133.589 163.126 133.006C164.813 132.422 166.833 132.631 167.76 135.166C168.686 137.7 167.159 140.285 166.037 139.918C164.914 139.55 163.865 136.548 163.322 135.504C163.158 135.217 162.901 134.995 162.592 134.875C162.284 134.754 161.943 134.743 161.627 134.842Z" fill="#263238" stroke="#263238" stroke-linecap="round" stroke-linejoin="round"/>
<path d="M144.512 140.781C144.512 140.781 145.96 139.219 146.879 140.781" stroke="#263238" stroke-linecap="round" stroke-linejoin="round"/>
<path d="M145.671 142.819C145.707 143.244 145.57 143.597 145.367 143.611C145.164 143.626 144.983 143.302 144.947 142.891C144.911 142.481 145.049 142.114 145.251 142.099C145.454 142.085 145.642 142.394 145.671 142.819Z" fill="#263238"/>
<path d="M159.651 153.835C159.383 153.95 146.938 160.25 146.938 160.25L148.979 165.348L161.287 156.974L159.651 153.835Z" fill="#A7F0FA" stroke="#263238" stroke-linecap="round" stroke-linejoin="round"/>
<path d="M525.075 322.121H13.1562" stroke="#263238" stroke-linecap="round" stroke-linejoin="round"/>
</svg>
