<svg width="538" height="570" viewBox="0 0 538 570" fill="none" xmlns="http://www.w3.org/2000/svg">
<path d="M538 435.936H0V436.222H538V435.936Z" fill="#EBEBEB"/>
<path d="M356.393 457.379H347.043V457.665H356.393V457.379Z" fill="#EBEBEB"/>
<path d="M186.383 443.209H161.441V443.495H186.383V443.209Z" fill="#EBEBEB"/>
<path d="M493.637 449.32H432.66V449.606H493.637V449.32Z" fill="#EBEBEB"/>
<path d="M106.942 449.32H45.9648V449.606H106.942V449.32Z" fill="#EBEBEB"/>
<path d="M255.011 385.092H47.2465C45.6189 385.089 44.0589 384.402 42.909 383.182C41.7591 381.961 41.1133 380.307 41.1133 378.583V69.1526C41.1274 67.4381 41.7795 65.7987 42.9279 64.5906C44.0763 63.3824 45.6281 62.7031 47.2465 62.7002H255.011C256.641 62.7002 258.204 63.386 259.356 64.6068C260.508 65.8275 261.155 67.4832 261.155 69.2096V378.583C261.155 380.309 260.508 381.965 259.356 383.186C258.204 384.406 256.641 385.092 255.011 385.092ZM47.2465 62.9282C45.6902 62.9312 44.1987 63.5883 43.0992 64.7553C41.9998 65.9223 41.3823 67.5038 41.3823 69.1526V378.583C41.3823 380.232 41.9998 381.813 43.0992 382.98C44.1987 384.147 45.6902 384.804 47.2465 384.807H255.011C256.569 384.804 258.061 384.147 259.162 382.981C260.264 381.814 260.883 380.233 260.886 378.583V69.1526C260.883 67.5027 260.264 65.9213 259.162 64.7546C258.061 63.588 256.569 62.9312 255.011 62.9282H47.2465Z" fill="#EBEBEB"/>
<path d="M487.763 385.092H279.988C278.359 385.089 276.798 384.402 275.646 383.182C274.495 381.962 273.847 380.308 273.844 378.583V69.1526C273.861 67.437 274.515 65.7977 275.665 64.5899C276.815 63.382 278.368 62.7031 279.988 62.7002H487.763C489.38 62.7061 490.929 63.3868 492.075 64.5946C493.221 65.8024 493.872 67.44 493.886 69.1526V378.583C493.886 380.305 493.241 381.957 492.094 383.178C490.946 384.398 489.389 385.086 487.763 385.092ZM279.988 62.9282C278.43 62.9312 276.938 63.588 275.837 64.7546C274.735 65.9213 274.116 67.5027 274.113 69.1526V378.583C274.116 380.233 274.735 381.814 275.837 382.981C276.938 384.147 278.43 384.804 279.988 384.807H487.763C489.321 384.804 490.813 384.147 491.914 382.981C493.016 381.814 493.635 380.233 493.638 378.583V69.1526C493.635 67.5027 493.016 65.9213 491.914 64.7546C490.813 63.588 489.321 62.9312 487.763 62.9282H279.988Z" fill="#EBEBEB"/>
<path d="M121.91 269.451L407.609 269.451V105.028L121.91 105.028V269.451Z" fill="#E6E6E6"/>
<path d="M118.66 269.451L404.359 269.451V105.028L118.66 105.028V269.451Z" fill="#F5F5F5"/>
<path d="M398.539 262.519V111.959L124.493 111.959V262.519H398.539Z" fill="white"/>
<path d="M126.945 262.531L126.945 111.971H124.492L124.492 262.531H126.945Z" fill="#E6E6E6"/>
<path d="M121.07 236.163L401.949 236.163V226.86L121.07 226.86V236.163Z" fill="#F5F5F5"/>
<path d="M121.07 157.115L401.949 157.115V147.813L121.07 147.813V157.115Z" fill="#F5F5F5"/>
<path d="M112.322 93.5601H413.957C414.195 93.5631 414.422 93.6653 414.589 93.8445C414.756 94.0238 414.85 94.2657 414.85 94.5177C414.85 94.7686 414.756 95.0093 414.588 95.1867C414.421 95.3642 414.194 95.4639 413.957 95.4639H112.322C112.084 95.4639 111.856 95.3646 111.686 95.1874C111.517 95.0103 111.421 94.7697 111.418 94.5177C111.421 94.2646 111.517 94.0228 111.686 93.8438C111.855 93.6649 112.083 93.563 112.322 93.5601Z" fill="#E6E6E6"/>
<path d="M106.945 94.5175C106.945 95.4582 107.209 96.3777 107.702 97.1597C108.196 97.9417 108.897 98.551 109.718 98.9105C110.538 99.27 111.441 99.3634 112.312 99.1791C113.182 98.9947 113.982 98.5409 114.609 97.8749C115.236 97.2089 115.662 96.3608 115.834 95.4379C116.006 94.515 115.916 93.5588 115.575 92.6904C115.233 91.8219 114.656 91.0803 113.917 90.5593C113.178 90.0383 112.309 89.7614 111.421 89.7637C110.833 89.7637 110.25 89.8867 109.706 90.1258C109.162 90.3648 108.668 90.7152 108.253 91.1567C107.837 91.5983 107.507 92.1225 107.283 92.6991C107.059 93.2758 106.944 93.8938 106.945 94.5175Z" fill="#E6E6E6"/>
<path d="M406.404 99.83C406.723 99.83 407.03 99.6955 407.256 99.456C407.482 99.2166 407.609 98.8918 407.609 98.5532V95.7602C407.609 95.4216 407.482 95.0968 407.256 94.8574C407.03 94.6179 406.723 94.4834 406.404 94.4834C406.083 94.4834 405.775 94.6175 405.548 94.8567C405.32 95.0958 405.191 95.4205 405.188 95.7602V98.519C405.185 98.6901 405.214 98.86 405.274 99.019C405.334 99.1779 405.423 99.3226 405.536 99.4447C405.649 99.5667 405.784 99.6636 405.933 99.7298C406.082 99.796 406.242 99.83 406.404 99.83Z" fill="#E6E6E6"/>
<path d="M125.892 99.8298C126.213 99.8298 126.52 99.6957 126.748 99.4565C126.976 99.2174 127.105 98.8927 127.108 98.553V95.76C127.097 95.4263 126.964 95.1103 126.737 94.8784C126.51 94.6466 126.207 94.5172 125.892 94.5174C125.732 94.5098 125.572 94.536 125.422 94.5946C125.272 94.6532 125.134 94.743 125.017 94.8587C124.899 94.9744 124.805 95.1137 124.739 95.2685C124.673 95.4232 124.637 95.5903 124.633 95.76V98.5188C124.629 98.6942 124.658 98.8688 124.72 99.0316C124.782 99.1943 124.875 99.3419 124.993 99.4649C125.111 99.5879 125.252 99.6838 125.407 99.7466C125.561 99.8094 125.727 99.8377 125.892 99.8298Z" fill="#E6E6E6"/>
<path opacity="0.5" d="M112.614 129.037L401.961 129.037V94.5174L112.614 94.5174V129.037Z" fill="#E0E0E0"/>
<path d="M391.975 99.2713C394.453 99.2713 396.462 97.1429 396.462 94.5175C396.462 91.892 394.453 89.7637 391.975 89.7637C389.497 89.7637 387.488 91.892 387.488 94.5175C387.488 97.1429 389.497 99.2713 391.975 99.2713Z" fill="#E6E6E6"/>
<path d="M318.378 435.936H336.734V305.93H318.378V435.936Z" fill="#E6E6E6"/>
<path d="M323.21 435.936H318.379V418.232H328.267L323.21 435.936Z" fill="#F0F0F0"/>
<path d="M467.448 435.936H485.805V305.93H467.448V435.936Z" fill="#E6E6E6"/>
<path d="M318.376 425.072H471.652V305.93H318.376V425.072Z" fill="#F0F0F0"/>
<path d="M322.123 343.87H467.91V311.197H322.123V343.87Z" fill="#E6E6E6"/>
<path d="M351.043 321.355H435.778C440.48 321.355 444.989 317.331 448.227 310.206H338.594C341.833 317.331 346.33 321.355 351.043 321.355Z" fill="#F0F0F0"/>
<path d="M466.834 435.936H471.654V418.232H461.766L466.834 435.936Z" fill="#F0F0F0"/>
<path d="M322.123 381.832H467.91V349.159H322.123V381.832Z" fill="#E6E6E6"/>
<path d="M351.043 359.317H435.778C440.48 359.317 444.989 355.281 448.227 348.167H338.594C341.833 355.281 346.33 359.317 351.043 359.317Z" fill="#F0F0F0"/>
<path d="M322.123 419.794H467.91V387.122H322.123V419.794Z" fill="#E6E6E6"/>
<path d="M351.043 397.267H435.778C440.48 397.267 444.989 393.232 448.227 386.118H338.594C341.833 393.232 346.33 397.267 351.043 397.267Z" fill="#F0F0F0"/>
<path d="M429.56 240.745C426.654 230.383 462.84 178.535 478.722 180.086C494.604 181.636 466.682 244.53 458.106 250.093C448.433 256.375 432.723 252.02 429.56 240.745Z" fill="#38A169"/>
<path d="M427.485 255.691C426.087 250.401 451.383 241.794 461.433 248.03C471.483 254.266 450.964 270.328 445.293 269.599C438.826 268.778 429.013 261.448 427.485 255.691Z" fill="#F5F5F5"/>
<path d="M458.215 250.948C461.712 243.994 435.952 203.376 422.222 202.624C408.493 201.871 426.128 249.364 432.896 254.231C440.547 259.76 454.395 258.506 458.215 250.948Z" fill="#38A169"/>
<path d="M445.012 229.334H444.959C444.306 229.323 443.672 229.563 443.173 230.01C442.675 230.456 442.346 231.078 442.247 231.762C439.264 253.192 438.903 274.94 441.171 296.468C441.247 297.154 441.554 297.787 442.037 298.251C442.52 298.714 443.145 298.976 443.797 298.988H443.85C444.231 298.994 444.608 298.914 444.957 298.753C445.306 298.592 445.619 298.354 445.874 298.056C446.13 297.757 446.322 297.404 446.439 297.02C446.556 296.636 446.594 296.231 446.551 295.83C444.39 274.777 444.748 253.518 447.616 232.56C447.67 232.162 447.643 231.757 447.537 231.372C447.431 230.986 447.249 230.629 447.003 230.323C446.756 230.018 446.451 229.772 446.108 229.601C445.765 229.431 445.392 229.34 445.012 229.334Z" fill="#1D5F3F"/>
<path d="M443.043 305.919C452.555 305.919 460.571 299.991 462.518 291.954C462.995 289.808 463.677 287.719 464.552 285.718L464.703 285.388H421.383L421.533 285.718C422.409 287.719 423.09 289.808 423.567 291.954C425.515 299.991 433.542 305.919 443.043 305.919Z" fill="#BE8E89"/>
<path d="M421.298 287.405H464.832C466.048 287.405 467.103 286.151 467.404 284.35C467.835 281.762 466.565 279.254 464.832 279.254H421.298C419.565 279.254 418.295 281.762 418.737 284.35C419.038 286.14 420.092 287.405 421.298 287.405Z" fill="#A06862"/>
<path d="M287.197 354.039H233.602V435.936H287.197V354.039Z" fill="#F0F0F0"/>
<path d="M74.2107 435.936H233.609V354.038H74.2107V435.936Z" fill="#F5F5F5"/>
<path d="M88.2098 417.799H121.91V381.444H88.2098V417.799Z" fill="#FAFAFA"/>
<path d="M133.964 417.799H167.664V381.444H133.964V417.799Z" fill="#FAFAFA"/>
<g style="mix-blend-mode:multiply" opacity="0.7">
<path d="M287.194 362.748H73.6406V367.411H287.194V362.748Z" fill="#E6E6E6"/>
</g>
<path d="M290.156 351.211H233.602V364.72H290.156V351.211Z" fill="#F0F0F0"/>
<path d="M71.2517 364.709H233.609V351.2H71.2517V364.709Z" fill="#F5F5F5"/>
<path d="M117.176 328.218C117.176 328.218 118.198 351.212 157.311 351.212C196.423 351.212 197.445 328.218 197.445 328.218H117.176Z" fill="#F0F0F0"/>
<path d="M117.176 312.987C117.176 312.987 118.198 335.981 157.311 335.981C196.423 335.981 197.445 312.987 197.445 312.987H117.176Z" fill="#F0F0F0"/>
<path d="M269.001 487.418C384.221 487.418 477.626 481.641 477.626 474.514C477.626 467.387 384.221 461.609 269.001 461.609C153.78 461.609 60.375 467.387 60.375 474.514C60.375 481.641 153.78 487.418 269.001 487.418Z" fill="#F5F5F5"/>
<path d="M205.883 449.685H100.23V470.752H205.883V449.685Z" fill="#88CDA4"/>
<path opacity="0.2" d="M205.883 449.685H100.23V452.079H205.883V449.685Z" fill="black"/>
<path opacity="0.2" d="M112.129 449.685H107.965V470.752H112.129V449.685Z" fill="black"/>
<path opacity="0.2" d="M121.684 449.685H117.52V470.752H121.684V449.685Z" fill="black"/>
<path opacity="0.2" d="M131.25 449.685H127.086V470.752H131.25V449.685Z" fill="black"/>
<path opacity="0.2" d="M140.805 449.685H136.641V470.752H140.805V449.685Z" fill="black"/>
<path opacity="0.2" d="M150.359 449.685H146.195V470.752H150.359V449.685Z" fill="black"/>
<path opacity="0.2" d="M159.926 449.685H155.762V470.752H159.926V449.685Z" fill="black"/>
<path opacity="0.2" d="M169.481 449.685H165.316V470.752H169.481V449.685Z" fill="black"/>
<path opacity="0.2" d="M179.035 449.685H174.871V470.752H179.035V449.685Z" fill="black"/>
<path opacity="0.2" d="M188.602 449.685H184.438V470.752H188.602V449.685Z" fill="black"/>
<path opacity="0.2" d="M198.156 449.685H193.992V470.752H198.156V449.685Z" fill="black"/>
<path d="M201.59 428.618H95.9375V449.685H201.59V428.618Z" fill="#88CDA4"/>
<path opacity="0.2" d="M201.59 428.618H95.9375V431.012H201.59V428.618Z" fill="black"/>
<path opacity="0.2" d="M107.824 428.618H103.66V449.685H107.824V428.618Z" fill="black"/>
<path opacity="0.2" d="M117.391 428.618H113.227V449.685H117.391V428.618Z" fill="black"/>
<path opacity="0.2" d="M126.945 428.618H122.781V449.685H126.945V428.618Z" fill="black"/>
<path opacity="0.2" d="M136.5 428.618H132.336V449.685H136.5V428.618Z" fill="black"/>
<path opacity="0.2" d="M146.066 428.618H141.902V449.685H146.066V428.618Z" fill="black"/>
<path opacity="0.2" d="M155.621 428.618H151.457V449.685H155.621V428.618Z" fill="black"/>
<path opacity="0.2" d="M165.176 428.618H161.012V449.685H165.176V428.618Z" fill="black"/>
<path opacity="0.2" d="M174.742 428.618H170.578V449.685H174.742V428.618Z" fill="black"/>
<path opacity="0.2" d="M184.297 428.618H180.133V449.685H184.297V428.618Z" fill="black"/>
<path opacity="0.2" d="M193.852 428.618H189.688V449.685H193.852V428.618Z" fill="black"/>
<path d="M198.543 407.55H92.8906V428.618H198.543V407.55Z" fill="#88CDA4"/>
<path opacity="0.2" d="M198.543 407.55H92.8906V409.944H198.543V407.55Z" fill="black"/>
<path opacity="0.2" d="M104.793 407.55H100.629V428.618H104.793V407.55Z" fill="black"/>
<path opacity="0.2" d="M114.348 407.55H110.184V428.618H114.348V407.55Z" fill="black"/>
<path opacity="0.2" d="M123.91 407.55H119.746V428.618H123.91V407.55Z" fill="black"/>
<path opacity="0.2" d="M133.465 407.55H129.301V428.618H133.465V407.55Z" fill="black"/>
<path opacity="0.2" d="M143.02 407.55H138.855V428.618H143.02V407.55Z" fill="black"/>
<path opacity="0.2" d="M152.586 407.55H148.422V428.618H152.586V407.55Z" fill="black"/>
<path opacity="0.2" d="M162.141 407.55H157.977V428.618H162.141V407.55Z" fill="black"/>
<path opacity="0.2" d="M171.695 407.55H167.531V428.618H171.695V407.55Z" fill="black"/>
<path opacity="0.2" d="M181.262 407.55H177.098V428.618H181.262V407.55Z" fill="black"/>
<path opacity="0.2" d="M190.816 407.55H186.652V428.618H190.816V407.55Z" fill="black"/>
<path d="M203.332 386.495H97.6797V407.562H203.332V386.495Z" fill="#88CDA4"/>
<path opacity="0.2" d="M203.332 386.495H97.6797V388.889H203.332V386.495Z" fill="black"/>
<path opacity="0.2" d="M109.57 386.495H105.406V407.562H109.57V386.495Z" fill="black"/>
<path opacity="0.2" d="M119.133 386.495H114.969V407.562H119.133V386.495Z" fill="black"/>
<path opacity="0.2" d="M128.688 386.495H124.523V407.562H128.688V386.495Z" fill="black"/>
<path opacity="0.2" d="M138.242 386.495H134.078V407.562H138.242V386.495Z" fill="black"/>
<path opacity="0.2" d="M147.809 386.495H143.645V407.562H147.809V386.495Z" fill="black"/>
<path opacity="0.2" d="M157.363 386.495H153.199V407.562H157.363V386.495Z" fill="black"/>
<path opacity="0.2" d="M166.918 386.495H162.754V407.562H166.918V386.495Z" fill="black"/>
<path opacity="0.2" d="M176.484 386.495H172.32V407.562H176.484V386.495Z" fill="black"/>
<path opacity="0.2" d="M186.039 386.495H181.875V407.562H186.039V386.495Z" fill="black"/>
<path opacity="0.2" d="M195.594 386.495H191.43V407.562H195.594V386.495Z" fill="black"/>
<path d="M93.0429 386.483H198.695V365.416H93.0429V386.483Z" fill="#88CDA4"/>
<path opacity="0.2" d="M93.0429 367.81H198.695V365.416H93.0429V367.81Z" fill="black"/>
<path opacity="0.2" d="M186.793 386.483H190.957V365.416H186.793V386.483Z" fill="black"/>
<path opacity="0.2" d="M177.227 386.483H181.391V365.416H177.227V386.483Z" fill="black"/>
<path opacity="0.2" d="M167.672 386.483H171.836V365.416H167.672V386.483Z" fill="black"/>
<path opacity="0.2" d="M158.117 386.483H162.281V365.416H158.117V386.483Z" fill="black"/>
<path opacity="0.2" d="M148.551 386.483H152.715V365.416H148.551V386.483Z" fill="black"/>
<path opacity="0.2" d="M138.996 386.483H143.16V365.416H138.996V386.483Z" fill="black"/>
<path opacity="0.2" d="M129.441 386.483H133.605V365.416H129.441V386.483Z" fill="black"/>
<path opacity="0.2" d="M119.875 386.483H124.039V365.416H119.875V386.483Z" fill="black"/>
<path opacity="0.2" d="M110.32 386.483H114.484V365.416H110.32V386.483Z" fill="black"/>
<path opacity="0.2" d="M100.766 386.483H104.93V365.416H100.766V386.483Z" fill="black"/>
<path d="M97.3358 365.427H202.988V344.36H97.3358V365.427Z" fill="#88CDA4"/>
<path opacity="0.2" d="M97.3358 346.754H202.988V344.36H97.3358V346.754Z" fill="black"/>
<path opacity="0.2" d="M191.086 365.427H195.25V344.36H191.086V365.427Z" fill="black"/>
<path opacity="0.2" d="M181.543 365.427H185.707V344.36H181.543V365.427Z" fill="black"/>
<path opacity="0.2" d="M171.977 365.427H176.141V344.36H171.977V365.427Z" fill="black"/>
<path opacity="0.2" d="M162.41 365.427H166.574V344.36H162.41V365.427Z" fill="black"/>
<path opacity="0.2" d="M152.867 365.427H157.031V344.36H152.867V365.427Z" fill="black"/>
<path opacity="0.2" d="M143.301 365.427H147.465V344.36H143.301V365.427Z" fill="black"/>
<path opacity="0.2" d="M133.734 365.427H137.898V344.36H133.734V365.427Z" fill="black"/>
<path opacity="0.2" d="M124.191 365.427H128.355V344.36H124.191V365.427Z" fill="black"/>
<path opacity="0.2" d="M114.625 365.427H118.789V344.36H114.625V365.427Z" fill="black"/>
<path opacity="0.2" d="M105.059 365.427H109.223V344.36H105.059V365.427Z" fill="black"/>
<path d="M100.379 344.36H206.031V323.293H100.379V344.36Z" fill="#88CDA4"/>
<path opacity="0.2" d="M100.379 325.687H206.031V323.293H100.379V325.687Z" fill="black"/>
<path opacity="0.2" d="M194.133 344.36H198.297V323.293H194.133V344.36Z" fill="black"/>
<path opacity="0.2" d="M184.566 344.36H188.73V323.293H184.566V344.36Z" fill="black"/>
<path opacity="0.2" d="M175.012 344.36H179.176V323.293H175.012V344.36Z" fill="black"/>
<path opacity="0.2" d="M165.457 344.36H169.621V323.293H165.457V344.36Z" fill="black"/>
<path opacity="0.2" d="M155.891 344.36H160.055V323.293H155.891V344.36Z" fill="black"/>
<path opacity="0.2" d="M146.336 344.36H150.5V323.293H146.336V344.36Z" fill="black"/>
<path opacity="0.2" d="M136.781 344.36H140.945V323.293H136.781V344.36Z" fill="black"/>
<path opacity="0.2" d="M127.215 344.36H131.379V323.293H127.215V344.36Z" fill="black"/>
<path opacity="0.2" d="M117.66 344.36H121.824V323.293H117.66V344.36Z" fill="black"/>
<path opacity="0.2" d="M108.105 344.36H112.27V323.293H108.105V344.36Z" fill="black"/>
<path d="M95.5897 323.293H201.242V302.226H95.5897V323.293Z" fill="#88CDA4"/>
<path opacity="0.2" d="M95.5897 304.62H201.242V302.226H95.5897V304.62Z" fill="black"/>
<path opacity="0.2" d="M189.344 323.293H193.508V302.226H189.344V323.293Z" fill="black"/>
<path opacity="0.2" d="M179.801 323.293H183.965V302.226H179.801V323.293Z" fill="black"/>
<path opacity="0.2" d="M170.234 323.293H174.398V302.226H170.234V323.293Z" fill="black"/>
<path opacity="0.2" d="M160.668 323.293H164.832V302.226H160.668V323.293Z" fill="black"/>
<path opacity="0.2" d="M151.125 323.293H155.289V302.226H151.125V323.293Z" fill="black"/>
<path opacity="0.2" d="M141.559 323.293H145.723V302.226H141.559V323.293Z" fill="black"/>
<path opacity="0.2" d="M131.992 323.293H136.156V302.226H131.992V323.293Z" fill="black"/>
<path opacity="0.2" d="M122.449 323.293H126.613V302.226H122.449V323.293Z" fill="black"/>
<path opacity="0.2" d="M112.883 323.293H117.047V302.226H112.883V323.293Z" fill="black"/>
<path opacity="0.2" d="M103.316 323.293H107.48V302.226H103.316V323.293Z" fill="black"/>
<path d="M431.111 218.88L388.975 226.529C388.165 226.674 387.413 227.071 386.816 227.669C386.219 228.268 385.803 229.041 385.622 229.89C385.441 230.74 385.502 231.627 385.799 232.44C386.095 233.252 386.613 233.953 387.286 234.452L395.055 240.278L347.42 311.619C347.11 312.083 346.717 312.477 346.263 312.78C345.81 313.083 345.304 313.288 344.775 313.383C344.246 313.478 343.705 313.462 343.182 313.335C342.659 313.209 342.165 312.974 341.728 312.645L271.713 260.205C270.826 259.543 269.728 259.281 268.659 259.476C267.59 259.67 266.638 260.305 266.01 261.242L124.871 472.598H175.594L275.909 322.358C276.219 321.894 276.612 321.499 277.066 321.197C277.52 320.894 278.026 320.689 278.554 320.594C279.083 320.498 279.624 320.514 280.147 320.641C280.67 320.768 281.164 321.002 281.601 321.332L351.617 373.772C352.055 374.101 352.551 374.335 353.075 374.461C353.599 374.587 354.141 374.602 354.671 374.505C355.201 374.409 355.707 374.203 356.162 373.899C356.616 373.595 357.009 373.199 357.319 372.734L428.863 265.574L436.642 271.4C437.313 271.889 438.104 272.159 438.918 272.176C439.732 272.193 440.533 271.956 441.221 271.494C441.909 271.032 442.454 270.367 442.788 269.58C443.121 268.793 443.229 267.919 443.098 267.068L435.867 222.425C435.673 221.291 435.065 220.283 434.175 219.62C433.285 218.956 432.185 218.691 431.111 218.88Z" fill="#38A169"/>
<path opacity="0.2" d="M431.111 218.88L388.975 226.529C388.165 226.674 387.413 227.071 386.816 227.669C386.219 228.268 385.803 229.041 385.622 229.89C385.441 230.74 385.502 231.627 385.799 232.44C386.095 233.252 386.613 233.953 387.286 234.452L395.055 240.278L347.42 311.619C347.11 312.083 346.717 312.477 346.263 312.78C345.81 313.083 345.304 313.288 344.775 313.383C344.246 313.478 343.705 313.462 343.182 313.335C342.659 313.209 342.165 312.974 341.728 312.645L271.713 260.205C270.826 259.543 269.728 259.281 268.659 259.476C267.59 259.67 266.638 260.305 266.01 261.242L124.871 472.598H175.594L275.909 322.358C276.219 321.894 276.612 321.499 277.066 321.197C277.52 320.894 278.026 320.689 278.554 320.594C279.083 320.498 279.624 320.514 280.147 320.641C280.67 320.768 281.164 321.002 281.601 321.332L351.617 373.772C352.055 374.101 352.551 374.335 353.075 374.461C353.599 374.587 354.141 374.602 354.671 374.505C355.201 374.409 355.707 374.203 356.162 373.899C356.616 373.595 357.009 373.199 357.319 372.734L428.863 265.574L436.642 271.4C437.313 271.889 438.104 272.159 438.918 272.176C439.732 272.193 440.533 271.956 441.221 271.494C441.909 271.032 442.454 270.367 442.788 269.58C443.121 268.793 443.229 267.919 443.098 267.068L435.867 222.425C435.673 221.291 435.065 220.283 434.175 219.62C433.285 218.956 432.185 218.691 431.111 218.88Z" fill="#38A169"/>
<path opacity="0.2" d="M172.419 466.385H136.717C136.668 466.383 136.62 466.367 136.579 466.339C136.537 466.311 136.503 466.272 136.481 466.226C136.455 466.181 136.441 466.13 136.441 466.077C136.441 466.025 136.455 465.974 136.481 465.929L267.236 270.077C267.564 269.579 267.982 269.153 268.465 268.826C268.948 268.499 269.488 268.276 270.052 268.17C270.617 268.064 271.196 268.077 271.756 268.209C272.316 268.341 272.846 268.588 273.316 268.937L343.32 321.377C343.732 321.693 344.198 321.919 344.693 322.042C345.188 322.164 345.701 322.181 346.202 322.09C346.703 322 347.182 321.805 347.611 321.516C348.04 321.227 348.41 320.851 348.7 320.408L403.264 238.693L394.656 232.206C394.61 232.176 394.575 232.131 394.555 232.077C394.536 232.024 394.533 231.965 394.548 231.91C394.56 231.856 394.587 231.806 394.625 231.767C394.664 231.729 394.712 231.703 394.764 231.693L430.272 225.252C430.306 225.246 430.34 225.247 430.374 225.255C430.408 225.263 430.44 225.278 430.468 225.299C430.496 225.32 430.52 225.347 430.538 225.378C430.556 225.41 430.568 225.444 430.573 225.48L436.652 263.1C436.66 263.157 436.654 263.214 436.633 263.266C436.612 263.319 436.578 263.364 436.534 263.397C436.489 263.427 436.437 263.443 436.383 263.443C436.33 263.443 436.278 263.427 436.233 263.397L427.625 256.91L356.232 363.842C355.904 364.339 355.487 364.763 355.005 365.089C354.523 365.416 353.984 365.638 353.421 365.744C352.857 365.85 352.279 365.837 351.721 365.706C351.162 365.576 350.633 365.33 350.163 364.982L280.148 312.542C279.738 312.235 279.276 312.017 278.786 311.899C278.297 311.782 277.79 311.767 277.296 311.857C276.801 311.947 276.328 312.14 275.903 312.424C275.479 312.707 275.111 313.077 274.822 313.511L172.645 466.26C172.619 466.298 172.586 466.33 172.546 466.351C172.507 466.373 172.463 466.385 172.419 466.385ZM137.234 465.815H172.279L274.219 313.135C274.883 312.13 275.897 311.446 277.036 311.232C278.176 311.019 279.35 311.293 280.299 311.995L350.314 364.435C350.724 364.742 351.187 364.961 351.676 365.078C352.166 365.196 352.672 365.21 353.167 365.12C353.661 365.03 354.134 364.838 354.559 364.554C354.983 364.27 355.351 363.9 355.64 363.466L427.184 256.306C427.202 256.274 427.227 256.247 427.257 256.227C427.287 256.208 427.321 256.195 427.356 256.192C427.388 256.176 427.423 256.167 427.458 256.167C427.493 256.167 427.528 256.176 427.56 256.192L435.899 262.439L429.97 225.948L395.42 232.218L403.759 238.465C403.814 238.51 403.853 238.575 403.867 238.647C403.894 238.717 403.894 238.795 403.867 238.864L349.152 320.819C348.824 321.315 348.405 321.737 347.921 322.06C347.437 322.383 346.897 322.6 346.333 322.7C345.203 322.899 344.044 322.62 343.105 321.924L273.1 269.484C272.689 269.168 272.222 268.943 271.727 268.82C271.232 268.698 270.719 268.681 270.218 268.771C269.717 268.861 269.238 269.057 268.809 269.346C268.38 269.634 268.01 270.011 267.72 270.453L137.234 465.815Z" fill="white"/>
<path d="M374.5 401.041H370.078V470.752H374.5V401.041Z" fill="#263238"/>
<path d="M413.192 363.056H408.77V470.751H413.192V363.056Z" fill="#263238"/>
<path d="M452.594 388.888H448.172V470.752H452.594V388.888Z" fill="#263238"/>
<path d="M370.088 401.041H339.078V470.752H370.088V401.041Z" fill="#0BB0CF"/>
<path opacity="0.2" d="M339.078 401.041V442.377L354.573 401.041H339.078Z" fill="white"/>
<path d="M408.772 363.056H377.762V470.751H408.772V363.056Z" fill="#0BB0CF"/>
<path opacity="0.2" d="M377.762 363.056V404.392L393.267 363.056H377.762Z" fill="white"/>
<path d="M448.186 388.888H417.176V470.752H448.186V388.888Z" fill="#0BB0CF"/>
<path opacity="0.2" d="M417.176 388.888V425.676L432.681 388.888H417.176Z" fill="white"/>
<path d="M266.935 465.051L258.617 463.398L260.027 442.548L268.344 444.212L266.935 465.051Z" fill="#7F3E3B"/>
<path d="M322.91 464.812H314.442L312.344 444.053H320.801L322.91 464.812Z" fill="#7F3E3B"/>
<path d="M313.753 463.774H324.061C324.229 463.775 324.392 463.837 324.523 463.949C324.654 464.06 324.746 464.216 324.782 464.39L326.461 472.37C326.499 472.564 326.496 472.765 326.452 472.958C326.408 473.15 326.323 473.33 326.204 473.483C326.085 473.636 325.935 473.759 325.766 473.843C325.596 473.927 325.41 473.969 325.223 473.966C321.898 473.909 319.477 473.692 315.303 473.692C312.731 473.692 304.973 473.977 301.422 473.977C297.871 473.977 297.409 470.261 298.861 469.919C305.382 468.414 310.288 466.328 312.376 464.344C312.752 463.979 313.243 463.776 313.753 463.774Z" fill="#263238"/>
<path d="M258.79 461.46L267.904 463.125C268.068 463.155 268.219 463.244 268.33 463.376C268.441 463.509 268.507 463.677 268.517 463.854L268.883 472.005C268.892 472.202 268.859 472.399 268.787 472.581C268.715 472.762 268.605 472.924 268.465 473.055C268.325 473.185 268.16 473.28 267.981 473.334C267.802 473.387 267.613 473.396 267.43 473.362C264.202 472.701 259.435 471.629 255.314 470.877C250.483 469.999 248.127 469.361 242.467 468.323C239.045 467.696 239.788 463.763 241.283 463.661C248.051 463.341 250.44 464.436 256.67 461.78C257.335 461.466 258.069 461.355 258.79 461.46Z" fill="#263238"/>
<path d="M287.767 190.483C287.476 191.395 287.25 192.056 286.981 192.763C286.712 193.469 286.443 194.222 286.164 194.94C285.604 196.388 285.012 197.801 284.388 199.215C283.142 202.052 281.744 204.811 280.203 207.48C277.048 213.189 272.939 218.242 268.076 222.391C266.722 223.485 265.282 224.454 263.772 225.287C263.385 225.515 262.987 225.709 262.578 225.902C262.169 226.096 261.803 226.279 261.319 226.472C260.365 226.844 259.382 227.127 258.381 227.316C256.757 227.606 255.112 227.755 253.464 227.761C251.915 227.761 250.43 227.761 248.966 227.612C243.258 227.13 237.61 226.045 232.105 224.375L232.956 217.706C238.336 217.489 243.791 217.307 248.913 216.828C250.193 216.703 251.452 216.543 252.646 216.349C253.74 216.192 254.819 215.94 255.874 215.597C256.219 215.493 256.551 215.347 256.864 215.164C257.219 214.936 257.703 214.719 258.102 214.423C258.979 213.837 259.81 213.177 260.587 212.45C262.304 210.837 263.851 209.033 265.203 207.07C266.676 204.987 268.021 202.805 269.227 200.537C270.486 198.257 271.616 195.829 272.724 193.39C273.262 192.17 273.8 190.927 274.274 189.685L274.995 187.826L275.651 186.071L287.767 190.483Z" fill="#7F3E3B"/>
<path d="M283.687 179.972C299.127 179.972 282.159 215.312 282.159 215.312L262.457 206.864C262.457 206.864 267.837 194.575 271.377 187.541C272.524 185.158 274.295 183.177 276.478 181.834C278.662 180.491 281.165 179.845 283.687 179.972Z" fill="#A7F0FA"/>
<g opacity="0.3">
<path d="M283.687 179.972C299.127 179.972 282.159 215.312 282.159 215.312L262.457 206.864C262.457 206.864 267.837 194.575 271.377 187.541C272.524 185.158 274.295 183.177 276.478 181.834C278.662 180.491 281.165 179.845 283.687 179.972Z" fill="white"/>
</g>
<path opacity="0.2" d="M279.91 191.395C274.261 195.601 270.334 203.41 269.215 209.749L280.47 214.582C282.514 211.345 284.505 207.526 286.7 204.174C287.302 202.43 287.894 200.594 288.411 198.736L279.91 191.395Z" fill="black"/>
<path d="M237.798 218.561L231.03 214.514L225.844 224.774C228.839 225.311 231.905 225.229 234.871 224.534L237.798 218.561Z" fill="#7F3E3B"/>
<path d="M224.551 214.514L220.785 223.565L225.799 224.808L230.986 214.514H224.551Z" fill="#7F3E3B"/>
<path opacity="0.2" d="M260.026 442.559L259.305 453.298L267.622 454.951L268.343 444.212L260.026 442.559Z" fill="black"/>
<path opacity="0.2" d="M320.8 444.064H312.332L313.43 454.769H321.887L320.8 444.064Z" fill="black"/>
<path d="M325.791 183.882C323.31 193.557 321.511 203.415 320.411 213.374C319.604 220.316 319.13 226.94 318.829 232.959C318.119 247.049 318.42 257.788 318.022 261.459C311.405 260.98 286.474 259.179 272.83 258.13C266.686 207.138 278.425 180.872 278.425 180.872C281.981 180.164 285.574 179.688 289.185 179.447C289.949 179.447 290.735 179.367 291.52 179.356C297.939 179.436 304.348 179.908 310.716 180.77C311.921 180.918 313.148 181.112 314.331 181.317C320.475 182.32 325.791 183.882 325.791 183.882Z" fill="#A7F0FA"/>
<g opacity="0.3">
<path d="M325.791 183.882C323.31 193.557 321.511 203.415 320.411 213.374C319.604 220.316 319.13 226.94 318.829 232.959C318.119 247.049 318.42 257.788 318.022 261.459C311.405 260.98 286.474 259.179 272.83 258.13C266.686 207.138 278.425 180.872 278.425 180.872C281.981 180.164 285.574 179.688 289.185 179.447C289.949 179.447 290.735 179.367 291.52 179.356C297.939 179.436 304.348 179.908 310.716 180.77C311.921 180.918 313.148 181.112 314.331 181.317C320.475 182.32 325.791 183.882 325.791 183.882Z" fill="white"/>
</g>
<path opacity="0.2" d="M314.397 196.787C314.311 204.124 316.252 211.328 319.982 217.512C320.111 216.144 320.261 214.764 320.423 213.374C321.025 208.152 321.8 202.749 322.822 197.288L314.397 196.787Z" fill="black"/>
<path d="M310.415 157.696C308.78 164.16 306.779 176.05 310.814 180.735C308.773 182.696 306.358 184.17 303.734 185.057C301.109 185.944 298.335 186.224 295.599 185.877C290.294 185.364 290.294 181.408 291.618 179.322C298.622 178.09 298.795 172.664 297.934 167.488L310.415 157.696Z" fill="#7F3E3B"/>
<path d="M291.715 188.009C291.84 189.015 292.063 190.004 292.382 190.961C292.473 191.266 292.654 191.532 292.898 191.72C293.142 191.909 293.436 192.01 293.738 192.01C294.622 191.996 295.505 192.076 296.374 192.249C296.557 192.295 296.747 192.3 296.932 192.265C297.117 192.229 297.293 192.154 297.45 192.044C298.526 191.326 299.903 190.266 299.548 188.943C299.129 187.393 296.611 185.991 296.611 185.991C296.611 185.991 292.285 187.119 291.715 188.009Z" fill="#0BB0CF"/>
<path d="M293.985 190.961C292.252 194.974 288.249 220.67 287.754 224.557C287.259 228.445 288.949 234.715 291.295 239.696C293.991 235.779 295.526 231.1 295.706 226.256C296.018 220.943 296.319 191.6 296.319 191.6L293.985 190.961Z" fill="#0BB0CF"/>
<path d="M296.578 185.991C298.18 187.407 299.503 189.142 300.473 191.098C303.196 190.87 315.214 185.284 313.504 180.975C312.008 180.53 310.695 179.618 310.276 180.086C309.705 181.009 304.605 184.27 296.578 185.991Z" fill="white"/>
<path d="M296.577 185.991C296.577 185.991 291.961 187.644 290.885 190.425C288.098 189.114 286.581 183.198 289.045 179.31C290.584 179.174 292.058 178.364 292.338 178.9C292.768 179.915 291.595 182.639 296.577 185.991Z" fill="white"/>
<path opacity="0.2" d="M305.326 161.697L297.934 167.477C298.157 168.683 298.275 169.908 298.289 171.136C300.946 170.931 304.745 168.138 305.24 165.243C305.474 164.077 305.503 162.875 305.326 161.697Z" fill="black"/>
<path d="M292.492 136.937C289.264 138.282 288.069 151.517 294.644 150.218C301.218 148.918 298.991 134.235 292.492 136.937Z" fill="#263238"/>
<path d="M313.804 150.172C311.168 158.62 310.038 163.704 304.852 166.976C297.04 171.889 288.013 165.163 288.206 156.055C288.378 147.858 292.65 135.409 301.441 134.212C303.376 133.935 305.347 134.186 307.165 134.943C308.982 135.7 310.587 136.937 311.826 138.537C313.065 140.137 313.898 142.045 314.244 144.082C314.59 146.118 314.439 148.215 313.804 150.172Z" fill="#7F3E3B"/>
<path d="M310.815 155.986C307.469 156.054 304.725 145.316 311.471 142.306C306.156 141.656 289.833 142.602 286.906 134.873C283.98 127.144 295.331 125.947 299.194 128.865C297.968 124.613 302.96 118.343 311.934 124.043C320.908 129.743 320.8 136.777 319.961 138.863C323.964 140.003 324.749 149.442 320.327 150.708C322.92 154.515 320.682 162.518 313.688 160.808C313.451 165.471 308.545 163.43 308.846 159.851C309.147 156.271 310.815 155.986 310.815 155.986Z" fill="#263238"/>
<path d="M295.9 158.049C296.846 158.343 297.844 158.392 298.812 158.194C299.779 157.995 300.688 157.555 301.463 156.909C301.503 156.865 301.525 156.806 301.525 156.744C301.525 156.683 301.503 156.623 301.463 156.579C301.422 156.537 301.368 156.514 301.312 156.514C301.256 156.514 301.202 156.537 301.161 156.579C300.446 157.186 299.605 157.606 298.708 157.804C297.81 158.002 296.881 157.973 295.997 157.719C295.97 157.71 295.941 157.708 295.914 157.711C295.886 157.715 295.859 157.724 295.835 157.739C295.81 157.754 295.789 157.774 295.773 157.798C295.756 157.822 295.744 157.849 295.738 157.878C295.746 157.921 295.766 157.96 295.794 157.99C295.823 158.02 295.86 158.041 295.9 158.049Z" fill="#263238"/>
<path d="M315.473 159.133C313.927 160.661 311.873 161.481 309.759 161.413C306.962 161.287 306.424 158.414 307.92 156.1C309.275 154.014 312.353 151.54 314.806 152.806C315.34 153.089 315.798 153.51 316.139 154.029C316.48 154.548 316.694 155.149 316.76 155.777C316.826 156.406 316.743 157.042 316.519 157.628C316.294 158.214 315.934 158.731 315.473 159.133Z" fill="#7F3E3B"/>
<path d="M256.497 449.821L270.485 453.321C270.485 453.321 275.434 395.58 279.685 363.854C280.814 355.44 282.558 343.607 285.215 330.999C288.562 315.119 292.747 297.939 296.212 284.487C299.838 270.317 302.604 260.296 302.604 260.296L272.927 258.096C272.927 258.096 256.863 332.31 255.163 359.556C253.344 387.987 256.497 449.821 256.497 449.821Z" fill="#263238"/>
<path opacity="0.2" d="M285.141 330.999C288.487 315.119 292.673 297.939 296.138 284.487L293.05 277.453C285.722 286.721 283.742 315.415 285.141 330.999Z" fill="black"/>
<path d="M288.895 259.281C288.895 259.281 292.123 336.026 295.673 362.018C299.579 390.518 309.511 452.694 309.511 452.694H325.016C325.016 452.694 320.712 393.562 317.796 365.689C314.471 333.94 318.022 261.436 318.022 261.436L288.895 259.281Z" fill="#263238"/>
<path d="M307.661 453.047H325.91L326.717 447.267L306.574 446.891L307.661 453.047Z" fill="#A7F0FA"/>
<path d="M255.606 450.813L271.499 453.982L273.296 448.111L255.176 444.475L255.606 450.813Z" fill="#A7F0FA"/>
<path d="M301.552 149.499C301.369 150.195 300.884 150.639 300.476 150.548C300.067 150.457 299.83 149.761 300.002 149.066C300.174 148.371 300.669 147.926 301.078 148.017C301.487 148.108 301.724 148.804 301.552 149.499Z" fill="#263238"/>
<path d="M294.081 147.424C293.909 148.12 293.414 148.564 293.005 148.462C292.596 148.359 292.37 147.687 292.543 146.98C292.715 146.273 293.21 145.84 293.619 145.931C294.027 146.022 294.253 146.718 294.081 147.424Z" fill="#263238"/>
<path d="M295.739 148.074C294.419 149.991 292.858 151.709 291.102 153.181C291.973 154.652 294.222 154.527 294.222 154.527L295.739 148.074Z" fill="#630F0F"/>
<path d="M303.864 147.231C303.789 147.226 303.717 147.199 303.656 147.152C303.595 147.106 303.548 147.042 303.52 146.969C303.338 146.471 303.048 146.025 302.675 145.666C302.301 145.308 301.853 145.047 301.368 144.905C301.316 144.895 301.267 144.874 301.223 144.843C301.179 144.812 301.141 144.773 301.112 144.727C301.082 144.681 301.062 144.629 301.051 144.575C301.041 144.52 301.04 144.464 301.05 144.409C301.06 144.355 301.08 144.303 301.109 144.256C301.138 144.21 301.175 144.17 301.218 144.138C301.262 144.107 301.311 144.085 301.362 144.074C301.414 144.063 301.467 144.063 301.518 144.073C302.135 144.24 302.705 144.561 303.181 145.009C303.656 145.457 304.023 146.02 304.251 146.649C304.272 146.701 304.284 146.756 304.284 146.813C304.285 146.869 304.275 146.925 304.255 146.977C304.235 147.029 304.205 147.076 304.167 147.116C304.13 147.155 304.085 147.187 304.036 147.208C303.981 147.23 303.922 147.238 303.864 147.231Z" fill="#263238"/>
<path d="M290.928 143.457C290.845 143.447 290.767 143.412 290.702 143.355C290.664 143.316 290.634 143.269 290.613 143.217C290.593 143.165 290.582 143.109 290.582 143.053C290.582 142.996 290.593 142.941 290.613 142.889C290.634 142.837 290.664 142.79 290.702 142.751C291.105 142.229 291.62 141.816 292.204 141.549C292.788 141.281 293.424 141.165 294.059 141.212C294.163 141.231 294.256 141.291 294.32 141.38C294.383 141.469 294.413 141.579 294.404 141.69C294.388 141.801 294.332 141.902 294.247 141.97C294.163 142.038 294.057 142.068 293.952 142.055C293.449 142.031 292.948 142.132 292.488 142.35C292.028 142.567 291.623 142.896 291.305 143.309C291.259 143.366 291.201 143.41 291.135 143.436C291.069 143.462 290.998 143.469 290.928 143.457Z" fill="#263238"/>
<path d="M310.965 465.348C310.387 465.395 309.811 465.234 309.33 464.892C309.177 464.753 309.06 464.576 308.989 464.377C308.917 464.178 308.894 463.963 308.921 463.752C308.918 463.628 308.949 463.506 309.01 463.401C309.071 463.296 309.16 463.212 309.265 463.159C310.202 462.646 312.924 464.424 313.236 464.63C313.268 464.65 313.294 464.681 313.31 464.718C313.325 464.754 313.329 464.795 313.322 464.835C313.318 464.878 313.302 464.919 313.275 464.952C313.248 464.985 313.211 465.008 313.171 465.017C312.45 465.214 311.71 465.325 310.965 465.348ZM309.707 463.49C309.617 463.482 309.527 463.501 309.448 463.547C309.395 463.547 309.33 463.626 309.319 463.797C309.3 463.938 309.315 464.082 309.362 464.215C309.409 464.349 309.487 464.468 309.588 464.561C310.533 465.017 311.607 465.074 312.59 464.721C311.71 464.115 310.727 463.697 309.696 463.49H309.707Z" fill="#A7F0FA"/>
<path d="M313.116 465.029H313.02C312.148 464.527 310.448 462.555 310.631 461.609C310.66 461.453 310.74 461.312 310.855 461.21C310.971 461.109 311.116 461.052 311.266 461.05C311.419 461.027 311.576 461.04 311.724 461.087C311.873 461.134 312.01 461.215 312.126 461.324C313.106 462.167 313.31 464.744 313.321 464.869C313.321 464.907 313.313 464.945 313.296 464.979C313.279 465.013 313.254 465.042 313.224 465.063C313.186 465.064 313.148 465.052 313.116 465.029ZM311.406 461.392H311.319C311.061 461.392 311.04 461.552 311.029 461.609C310.921 462.19 311.997 463.684 312.869 464.379C312.812 463.358 312.463 462.38 311.868 461.575C311.74 461.456 311.576 461.391 311.406 461.392Z" fill="#A7F0FA"/>
<path d="M257.777 462.532C256.389 462.532 253.946 462.475 253.171 461.461C253.049 461.305 252.966 461.118 252.93 460.919C252.894 460.719 252.907 460.513 252.967 460.321C252.99 460.209 253.04 460.105 253.111 460.019C253.183 459.934 253.274 459.868 253.376 459.83C254.452 459.431 257.551 461.825 257.895 462.11C257.928 462.135 257.952 462.171 257.964 462.213C257.976 462.254 257.974 462.298 257.96 462.338C257.955 462.388 257.934 462.435 257.901 462.47C257.867 462.505 257.824 462.527 257.777 462.532ZM253.537 460.252C253.495 460.267 253.457 460.294 253.429 460.33C253.4 460.366 253.382 460.411 253.376 460.457C253.341 460.577 253.334 460.705 253.357 460.828C253.379 460.951 253.43 461.067 253.505 461.164C253.935 461.746 255.291 462.076 257.185 462.088C255.904 461.198 254.183 460.115 253.537 460.264V460.252Z" fill="#A7F0FA"/>
<path d="M257.778 462.532C257.729 462.552 257.675 462.552 257.627 462.532C256.702 461.871 255.023 459.591 255.335 458.622C255.41 458.394 255.615 458.131 256.164 458.166C256.37 458.175 256.571 458.23 256.757 458.326C256.942 458.422 257.106 458.558 257.24 458.724C258.154 459.864 257.993 462.27 257.982 462.372C257.98 462.408 257.969 462.443 257.95 462.473C257.931 462.503 257.905 462.527 257.874 462.543L257.778 462.532ZM255.905 458.576C255.755 458.576 255.722 458.69 255.712 458.724C255.529 459.306 256.637 461.061 257.552 461.893C257.627 460.872 257.397 459.851 256.895 458.975C256.802 458.856 256.688 458.759 256.558 458.688C256.429 458.617 256.287 458.575 256.142 458.565C256.063 458.549 255.982 458.553 255.905 458.576Z" fill="#A7F0FA"/>
<path d="M287.41 223.919L283.978 221.319L227.703 304.779L231.136 307.378C241.595 314.885 254.409 317.764 266.844 315.401C279.279 313.037 290.349 305.618 297.693 294.727C305.036 283.836 308.071 270.335 306.15 257.106C304.229 243.877 297.504 231.967 287.41 223.919Z" fill="#38A169"/>
<path opacity="0.1" d="M287.41 223.919L283.978 221.319L227.703 304.779L231.136 307.378C241.595 314.885 254.409 317.764 266.844 315.401C279.279 313.037 290.349 305.618 297.693 294.727C305.036 283.836 308.071 270.335 306.15 257.106C304.229 243.877 297.504 231.967 287.41 223.919Z" fill="black"/>
<path d="M204.064 269.576C203.263 262.524 203.756 255.374 205.517 248.52L206.593 248.816C204.863 255.532 204.381 262.54 205.172 269.45L204.064 269.576Z" fill="#38A169"/>
<path d="M207.325 283.335C206.365 280.741 205.592 278.073 205.012 275.355L206.088 275.104C206.661 277.76 207.42 280.366 208.358 282.902L207.325 283.335Z" fill="#38A169"/>
<path d="M265.624 313.257C291.805 307.543 308.656 280.426 303.263 252.688C297.87 224.951 272.275 207.098 246.095 212.811C219.915 218.525 203.063 245.643 208.456 273.38C213.849 301.117 239.444 318.971 265.624 313.257Z" fill="#38A169"/>
<path d="M244.415 276.017L252.012 264.765C249.372 261.254 247.962 257.894 247.783 254.687C247.647 251.409 248.594 248.184 250.462 245.567C252.238 242.778 254.972 240.835 258.08 240.152C261.294 239.504 264.62 240.159 267.399 241.988L269.228 239.274L272.908 242.056L271.068 244.769C273.319 246.772 274.884 249.504 275.522 252.544C276.004 255.53 275.55 258.6 274.231 261.288L267.216 257.321C267.727 256.297 267.982 255.152 267.956 253.994C267.929 252.836 267.623 251.705 267.065 250.709L259.985 261.219C263.256 265.46 265.003 269.063 265.225 272.027C265.387 275.197 264.462 278.322 262.621 280.827C260.676 283.897 257.71 286.075 254.314 286.926C250.736 287.707 247.011 287.083 243.834 285.171L242.005 287.884L238.325 285.102L240.068 282.515C237.559 280.232 235.869 277.104 235.28 273.657C234.83 269.903 235.54 266.095 237.303 262.804L244.437 267.068C243.764 268.586 243.429 270.247 243.458 271.924C243.471 273.349 243.799 274.75 244.415 276.017ZM263.439 247.802C262.264 247.397 260.998 247.397 259.824 247.802C258.689 248.185 257.703 248.949 257.015 249.979C256.379 250.932 256.041 252.072 256.047 253.239C256.059 254.601 256.432 255.932 257.123 257.081L263.439 247.802ZM247.837 279.186C249.175 279.872 250.699 280.037 252.141 279.653C253.588 279.277 254.855 278.352 255.702 277.054C256.48 275.941 256.861 274.572 256.778 273.189C256.573 271.52 255.898 269.955 254.842 268.698L247.837 279.186Z" fill="white"/>
<path opacity="0.1" d="M295.05 258.78C292.797 248.418 286.899 239.357 278.559 233.443C270.218 227.528 260.063 225.207 250.163 226.952C240.263 228.696 231.363 234.375 225.278 242.831C219.194 251.287 216.382 261.883 217.416 272.46C216.208 266.903 216.087 261.144 217.059 255.536C218.032 249.928 220.078 244.591 223.071 239.852C226.064 235.114 229.941 231.075 234.464 227.984C238.986 224.893 244.058 222.816 249.367 221.88C254.675 220.945 260.109 221.171 265.332 222.544C270.555 223.918 275.457 226.41 279.737 229.867C284.017 233.324 287.583 237.672 290.217 242.645C292.85 247.617 294.495 253.108 295.05 258.78Z" fill="black"/>
<path d="M326.877 188.784C327.953 190.231 328.846 191.531 329.75 192.945C330.654 194.358 331.536 195.715 332.397 197.128C334.108 199.956 335.733 202.828 337.239 205.827C338.746 208.825 340.144 211.891 341.414 215.061L342.339 217.466L343.179 219.94C343.458 220.749 343.695 221.616 343.943 222.459L344.298 223.736L344.395 224.055L344.556 224.751C344.658 225.224 344.73 225.704 344.771 226.187C344.873 227.794 344.672 229.406 344.179 230.929C343.807 232.076 343.32 233.176 342.727 234.213C341.745 235.909 340.606 237.498 339.327 238.955C337.057 241.511 334.592 243.864 331.956 245.989C326.945 250.043 321.609 253.624 316.01 256.693L312.523 251.062C317.032 246.992 321.54 242.706 325.618 238.362C327.6 236.283 329.441 234.058 331.127 231.705C331.844 230.721 332.464 229.663 332.978 228.547C333.137 228.181 333.26 227.799 333.344 227.407C333.344 227.11 333.344 227.156 333.344 227.407C333.328 227.49 333.328 227.575 333.344 227.658C333.342 227.692 333.342 227.726 333.344 227.76L333.247 227.509L332.871 226.506C332.612 225.822 332.386 225.15 332.085 224.477L331.224 222.459L330.31 220.441C329.029 217.762 327.663 215.095 326.178 212.461C324.693 209.828 323.154 207.206 321.551 204.63C320.766 203.33 319.948 202.042 319.13 200.776L316.677 197.071L326.877 188.784Z" fill="#7F3E3B"/>
<path d="M325.791 183.882C333.721 185.581 340.683 206.123 340.683 206.123L324.134 220.408C324.134 220.408 318.754 209.965 314.364 199.888C309.641 188.909 316.183 181.83 325.791 183.882Z" fill="#A7F0FA"/>
<g opacity="0.3">
<path d="M325.791 183.882C333.721 185.581 340.683 206.123 340.683 206.123L324.134 220.408C324.134 220.408 318.754 209.965 314.364 199.888C309.641 188.909 316.183 181.83 325.791 183.882Z" fill="white"/>
</g>
<path d="M314.485 250.275L305.941 251.267L311.483 261.094C311.483 261.094 318.584 258.54 317.724 254.414L314.485 250.275Z" fill="#7F3E3B"/>
<path d="M300.852 256.454L305.79 264.354L311.482 261.094L305.941 251.267L300.852 256.454Z" fill="#7F3E3B"/>
</svg>
