<svg width="103" height="30" viewBox="0 0 103 30" fill="none" xmlns="http://www.w3.org/2000/svg">
<g clip-path="url(#clip0_2120_21594)">
<path d="M29.9585 16.125H24.6C19.9193 16.125 16.125 19.9194 16.125 24.6V29.9585C23.5124 29.4107 29.4107 23.5124 29.9585 16.125Z" fill="#38A169"/>
<path d="M13.8764 29.9585V24.6C13.8764 19.9194 10.082 16.125 5.40142 16.125H0.0429688C0.590719 23.5124 6.48899 29.4107 13.8764 29.9585Z" fill="#38A169"/>
<path d="M29.9585 13.875C29.4107 6.48752 23.5124 0.589255 16.125 0.0415039V5.39995C16.125 10.0806 19.9193 13.875 24.6 13.875H29.9585Z" fill="#0BB0CF"/>
<path d="M13.8764 0.0415039C6.48899 0.589255 0.590719 6.48752 0.0429688 13.875H5.40142C10.082 13.875 13.8764 10.0806 13.8764 5.39995V0.0415039Z" fill="#0BB0CF"/>
<path d="M10.1875 15C12.2669 13.961 13.9615 12.2664 15.0004 10.187C16.0394 12.2664 17.7339 13.961 19.8134 15C17.7339 16.0389 16.0394 17.7335 15.0004 19.8129C13.9615 17.7335 12.2669 16.0389 10.1875 15Z" fill="#BE8E89"/>
</g>
<path d="M43.8176 13.384C43.8176 14.0347 43.6683 14.632 43.3696 15.176C43.071 15.7093 42.6123 16.1413 41.9936 16.472C41.375 16.8027 40.607 16.968 39.6896 16.968H37.9936V21H35.2576V9.768H39.6896C40.5856 9.768 41.343 9.92267 41.9616 10.232C42.5803 10.5413 43.0443 10.968 43.3536 11.512C43.663 12.056 43.8176 12.68 43.8176 13.384ZM39.4816 14.792C40.0043 14.792 40.3936 14.6693 40.6496 14.424C40.9056 14.1787 41.0336 13.832 41.0336 13.384C41.0336 12.936 40.9056 12.5893 40.6496 12.344C40.3936 12.0987 40.0043 11.976 39.4816 11.976H37.9936V14.792H39.4816ZM44.698 16.52C44.698 15.6027 44.8687 14.7973 45.21 14.104C45.562 13.4107 46.0367 12.8773 46.634 12.504C47.2313 12.1307 47.898 11.944 48.634 11.944C49.2633 11.944 49.8127 12.072 50.282 12.328C50.762 12.584 51.13 12.92 51.386 13.336V12.072H54.122V21H51.386V19.736C51.1193 20.152 50.746 20.488 50.266 20.744C49.7967 21 49.2473 21.128 48.618 21.128C47.8927 21.128 47.2313 20.9413 46.634 20.568C46.0367 20.184 45.562 19.6453 45.21 18.952C44.8687 18.248 44.698 17.4373 44.698 16.52ZM51.386 16.536C51.386 15.8533 51.194 15.3147 50.81 14.92C50.4367 14.5253 49.978 14.328 49.434 14.328C48.89 14.328 48.426 14.5253 48.042 14.92C47.6687 15.304 47.482 15.8373 47.482 16.52C47.482 17.2027 47.6687 17.7467 48.042 18.152C48.426 18.5467 48.89 18.744 49.434 18.744C49.978 18.744 50.4367 18.5467 50.81 18.152C51.194 17.7573 51.386 17.2187 51.386 16.536ZM65.2214 12.072L59.6214 25.24H56.6774L58.7254 20.696L55.0934 12.072H58.1494L60.2134 17.656L62.2614 12.072H65.2214ZM73.5228 9.768V11.96H68.9468V14.328H72.3708V16.456H68.9468V21H66.2108V9.768H73.5228ZM77.6968 9.16V21H74.9608V9.16H77.6968ZM83.7435 21.128C82.8688 21.128 82.0795 20.9413 81.3755 20.568C80.6822 20.1947 80.1328 19.6613 79.7275 18.968C79.3328 18.2747 79.1355 17.464 79.1355 16.536C79.1355 15.6187 79.3382 14.8133 79.7435 14.12C80.1488 13.416 80.7035 12.8773 81.4075 12.504C82.1115 12.1307 82.9008 11.944 83.7755 11.944C84.6502 11.944 85.4395 12.1307 86.1435 12.504C86.8475 12.8773 87.4022 13.416 87.8075 14.12C88.2128 14.8133 88.4155 15.6187 88.4155 16.536C88.4155 17.4533 88.2075 18.264 87.7915 18.968C87.3862 19.6613 86.8262 20.1947 86.1115 20.568C85.4075 20.9413 84.6182 21.128 83.7435 21.128ZM83.7435 18.76C84.2662 18.76 84.7088 18.568 85.0715 18.184C85.4448 17.8 85.6315 17.2507 85.6315 16.536C85.6315 15.8213 85.4502 15.272 85.0875 14.888C84.7355 14.504 84.2982 14.312 83.7755 14.312C83.2422 14.312 82.7995 14.504 82.4475 14.888C82.0955 15.2613 81.9195 15.8107 81.9195 16.536C81.9195 17.2507 82.0902 17.8 82.4315 18.184C82.7835 18.568 83.2208 18.76 83.7435 18.76ZM102.683 12.072L100.267 21H97.243L95.835 15.208L94.379 21H91.371L88.939 12.072H91.675L92.939 18.456L94.443 12.072H97.339L98.859 18.424L100.107 12.072H102.683Z" fill="#38A169"/>
<defs>
<clipPath id="clip0_2120_21594">
<rect width="30" height="30" fill="white"/>
</clipPath>
</defs>
</svg>
