<svg width="508" height="508" viewBox="0 0 508 508" fill="none" xmlns="http://www.w3.org/2000/svg">
<path d="M508 388.518H0V388.772H508V388.518Z" fill="#EBEBEB"/>
<path d="M457.099 404.866H423.449V405.12H457.099V404.866Z" fill="#EBEBEB"/>
<path d="M336.52 407.629H327.691V407.883H336.52V407.629Z" fill="#EBEBEB"/>
<path d="M422.431 395.437H402.934V395.691H422.431V395.437Z" fill="#EBEBEB"/>
<path d="M97.1818 397.144H53.3008V397.398H97.1818V397.144Z" fill="#EBEBEB"/>
<path d="M112.666 397.144H106.234V397.398H112.666V397.144Z" fill="#EBEBEB"/>
<path d="M228.753 401.432H133.574V401.686H228.753V401.432Z" fill="#EBEBEB"/>
<path d="M240.791 343.205H44.6115C43.0747 343.202 41.6017 342.59 40.5159 341.502C39.4301 340.414 38.8203 338.94 38.8203 337.403V61.6304C38.8337 60.1024 39.4494 58.6413 40.5337 57.5646C41.6181 56.4879 43.0834 55.8825 44.6115 55.8799H240.791C242.33 55.8799 243.805 56.4911 244.893 57.5791C245.981 58.667 246.592 60.1426 246.592 61.6812V337.403C246.592 338.942 245.981 340.418 244.893 341.506C243.805 342.594 242.33 343.205 240.791 343.205ZM44.6115 56.0831C43.142 56.0858 41.7336 56.6714 40.6955 57.7115C39.6574 58.7515 39.0743 60.161 39.0743 61.6304V337.403C39.0743 338.873 39.6574 340.282 40.6955 341.322C41.7336 342.362 43.142 342.948 44.6115 342.951H240.791C242.261 342.948 243.671 342.363 244.711 341.323C245.75 340.283 246.336 338.874 246.338 337.403V61.6304C246.336 60.16 245.75 58.7506 244.711 57.7108C243.671 56.6711 242.261 56.0858 240.791 56.0831H44.6115Z" fill="#EBEBEB"/>
<path d="M460.561 343.205H264.372C262.834 343.202 261.36 342.59 260.272 341.503C259.185 340.415 258.573 338.941 258.57 337.403V61.6304C258.586 60.1015 259.204 58.6404 260.29 57.564C261.376 56.4876 262.843 55.8825 264.372 55.8799H460.561C462.088 55.8852 463.55 56.4918 464.632 57.5682C465.715 58.6446 466.329 60.1042 466.342 61.6304V337.403C466.342 338.938 465.734 340.411 464.65 341.498C463.567 342.586 462.096 343.199 460.561 343.205ZM264.372 56.0831C262.901 56.0858 261.492 56.6711 260.452 57.7108C259.412 58.7506 258.827 60.16 258.824 61.6304V337.403C258.827 338.874 259.412 340.283 260.452 341.323C261.492 342.363 262.901 342.948 264.372 342.951H460.561C462.032 342.948 463.441 342.363 464.481 341.323C465.521 340.283 466.106 338.874 466.109 337.403V61.6304C466.106 60.16 465.521 58.7506 464.481 57.7108C463.441 56.6711 462.032 56.0858 460.561 56.0831H264.372Z" fill="#EBEBEB"/>
<path d="M444.887 387.848V340.279H440.823V317.622H434.88V238.811H426.284V228.641L407.925 220.086V209.824H405.385V238.811H401.829V317.622H398.273V276.179H388.611V254.823H385.908V317.622H378.573V293.725H373.747V287.619H362.561V266.771H356.434V252.029H348.906V230.551H346.213V252.029H338.685V266.771H332.558V287.619H321.372V293.725H316.546V317.622H310.816V287.619H299.63V223.042H296.074V215.93H272.177V223.042H267.097V269.819H246.757V274.401H239.127V277.957H246.757V296.265H225.401V235.255H220.829V222.28H210.913V176.276H208.119V222.28H200.996V235.255H159.269V230.977H156.719V259.964H153.163V260.472H151.03V289.448H147.474V297.332H139.945V275.976H137.253V326.827H134.245V305.47H131.553V338.775H129.917V314.879H125.081V308.772H113.895V287.924H107.768V273.182H100.24V251.704H97.5575V273.182H90.0289V287.924H83.9024V308.772H72.7163V314.879H67.8801V338.267H67.0165V338.775H64.6289V387.848H444.887Z" fill="#E6E6E6"/>
<path d="M185.428 238.1H182.543V240.985H185.428V238.1Z" fill="#F0F0F0"/>
<path d="M185.428 242.936H182.543V245.821H185.428V242.936Z" fill="#F0F0F0"/>
<path d="M185.428 262.25H182.543V265.135H185.428V262.25Z" fill="#F0F0F0"/>
<path d="M185.428 267.086H182.543V269.971H185.428V267.086Z" fill="#F0F0F0"/>
<path d="M185.428 271.912H182.543V274.798H185.428V271.912Z" fill="#F0F0F0"/>
<path d="M185.428 286.4H182.543V289.285H185.428V286.4Z" fill="#F0F0F0"/>
<path d="M185.428 291.236H182.543V294.122H185.428V291.236Z" fill="#F0F0F0"/>
<path d="M190.01 257.424H187.125V260.309H190.01V257.424Z" fill="#F0F0F0"/>
<path d="M190.01 262.25H187.125V265.135H190.01V262.25Z" fill="#F0F0F0"/>
<path d="M190.01 267.086H187.125V269.971H190.01V267.086Z" fill="#F0F0F0"/>
<path d="M190.01 271.912H187.125V274.798H190.01V271.912Z" fill="#F0F0F0"/>
<path d="M190.01 276.738H187.125V279.623H190.01V276.738Z" fill="#F0F0F0"/>
<path d="M190.01 286.4H187.125V289.285H190.01V286.4Z" fill="#F0F0F0"/>
<path d="M190.01 291.236H187.125V294.122H190.01V291.236Z" fill="#F0F0F0"/>
<path d="M194.585 238.1H191.699V240.985H194.585V238.1Z" fill="#F0F0F0"/>
<path d="M194.585 242.936H191.699V245.821H194.585V242.936Z" fill="#F0F0F0"/>
<path d="M194.585 247.762H191.699V250.647H194.585V247.762Z" fill="#F0F0F0"/>
<path d="M194.585 252.588H191.699V255.473H194.585V252.588Z" fill="#F0F0F0"/>
<path d="M194.585 257.424H191.699V260.309H194.585V257.424Z" fill="#F0F0F0"/>
<path d="M194.585 262.25H191.699V265.135H194.585V262.25Z" fill="#F0F0F0"/>
<path d="M194.585 267.086H191.699V269.971H194.585V267.086Z" fill="#F0F0F0"/>
<path d="M194.585 271.912H191.699V274.798H194.585V271.912Z" fill="#F0F0F0"/>
<path d="M194.585 276.738H191.699V279.623H194.585V276.738Z" fill="#F0F0F0"/>
<path d="M194.585 281.574H191.699V284.46H194.585V281.574Z" fill="#F0F0F0"/>
<path d="M194.585 291.236H191.699V294.122H194.585V291.236Z" fill="#F0F0F0"/>
<path d="M199.167 238.1H196.281V240.985H199.167V238.1Z" fill="#F0F0F0"/>
<path d="M199.167 242.936H196.281V245.821H199.167V242.936Z" fill="#F0F0F0"/>
<path d="M199.167 247.762H196.281V250.647H199.167V247.762Z" fill="#F0F0F0"/>
<path d="M199.167 252.588H196.281V255.473H199.167V252.588Z" fill="#F0F0F0"/>
<path d="M199.167 257.424H196.281V260.309H199.167V257.424Z" fill="#F0F0F0"/>
<path d="M199.167 262.25H196.281V265.135H199.167V262.25Z" fill="#F0F0F0"/>
<path d="M199.167 267.086H196.281V269.971H199.167V267.086Z" fill="#F0F0F0"/>
<path d="M199.167 310.55H196.281V313.436H199.167V310.55Z" fill="#F0F0F0"/>
<path d="M203.737 238.1H200.852V240.985H203.737V238.1Z" fill="#F0F0F0"/>
<path d="M203.737 242.936H200.852V245.821H203.737V242.936Z" fill="#F0F0F0"/>
<path d="M203.737 247.762H200.852V250.647H203.737V247.762Z" fill="#F0F0F0"/>
<path d="M203.737 252.588H200.852V255.473H203.737V252.588Z" fill="#F0F0F0"/>
<path d="M203.737 257.424H200.852V260.309H203.737V257.424Z" fill="#F0F0F0"/>
<path d="M203.737 262.25H200.852V265.135H203.737V262.25Z" fill="#F0F0F0"/>
<path d="M203.737 267.086H200.852V269.971H203.737V267.086Z" fill="#F0F0F0"/>
<path d="M203.737 271.912H200.852V274.798H203.737V271.912Z" fill="#F0F0F0"/>
<path d="M203.737 300.888H200.852V303.774H203.737V300.888Z" fill="#F0F0F0"/>
<path d="M203.737 305.725H200.852V308.61H203.737V305.725Z" fill="#F0F0F0"/>
<path d="M203.737 310.55H200.852V313.436H203.737V310.55Z" fill="#F0F0F0"/>
<path d="M203.737 315.387H200.852V318.272H203.737V315.387Z" fill="#F0F0F0"/>
<path d="M203.737 334.701H200.852V337.586H203.737V334.701Z" fill="#F0F0F0"/>
<path d="M208.311 238.1H205.426V240.985H208.311V238.1Z" fill="#F0F0F0"/>
<path d="M208.311 242.936H205.426V245.821H208.311V242.936Z" fill="#F0F0F0"/>
<path d="M208.311 247.762H205.426V250.647H208.311V247.762Z" fill="#F0F0F0"/>
<path d="M208.311 252.588H205.426V255.473H208.311V252.588Z" fill="#F0F0F0"/>
<path d="M208.311 257.424H205.426V260.309H208.311V257.424Z" fill="#F0F0F0"/>
<path d="M208.311 262.25H205.426V265.135H208.311V262.25Z" fill="#F0F0F0"/>
<path d="M208.311 267.086H205.426V269.971H208.311V267.086Z" fill="#F0F0F0"/>
<path d="M208.311 271.912H205.426V274.798H208.311V271.912Z" fill="#F0F0F0"/>
<path d="M208.311 276.738H205.426V279.623H208.311V276.738Z" fill="#F0F0F0"/>
<path d="M208.311 281.574H205.426V284.46H208.311V281.574Z" fill="#F0F0F0"/>
<path d="M208.311 296.062H205.426V298.948H208.311V296.062Z" fill="#F0F0F0"/>
<path d="M208.311 300.888H205.426V303.774H208.311V300.888Z" fill="#F0F0F0"/>
<path d="M208.311 305.725H205.426V308.61H208.311V305.725Z" fill="#F0F0F0"/>
<path d="M208.311 310.55H205.426V313.436H208.311V310.55Z" fill="#F0F0F0"/>
<path d="M208.311 315.387H205.426V318.272H208.311V315.387Z" fill="#F0F0F0"/>
<path d="M208.311 334.701H205.426V337.586H208.311V334.701Z" fill="#F0F0F0"/>
<path d="M212.893 238.1H210.008V240.985H212.893V238.1Z" fill="#F0F0F0"/>
<path d="M212.893 242.936H210.008V245.821H212.893V242.936Z" fill="#F0F0F0"/>
<path d="M212.893 247.762H210.008V250.647H212.893V247.762Z" fill="#F0F0F0"/>
<path d="M212.893 252.588H210.008V255.473H212.893V252.588Z" fill="#F0F0F0"/>
<path d="M212.893 257.424H210.008V260.309H212.893V257.424Z" fill="#F0F0F0"/>
<path d="M212.893 262.25H210.008V265.135H212.893V262.25Z" fill="#F0F0F0"/>
<path d="M212.893 267.086H210.008V269.971H212.893V267.086Z" fill="#F0F0F0"/>
<path d="M212.893 271.912H210.008V274.798H212.893V271.912Z" fill="#F0F0F0"/>
<path d="M212.893 276.738H210.008V279.623H212.893V276.738Z" fill="#F0F0F0"/>
<path d="M212.893 281.574H210.008V284.46H212.893V281.574Z" fill="#F0F0F0"/>
<path d="M212.893 286.4H210.008V289.285H212.893V286.4Z" fill="#F0F0F0"/>
<path d="M212.893 291.236H210.008V294.122H212.893V291.236Z" fill="#F0F0F0"/>
<path d="M212.893 296.062H210.008V298.948H212.893V296.062Z" fill="#F0F0F0"/>
<path d="M212.893 300.888H210.008V303.774H212.893V300.888Z" fill="#F0F0F0"/>
<path d="M212.893 305.725H210.008V308.61H212.893V305.725Z" fill="#F0F0F0"/>
<path d="M212.893 310.55H210.008V313.436H212.893V310.55Z" fill="#F0F0F0"/>
<path d="M212.893 315.387H210.008V318.272H212.893V315.387Z" fill="#F0F0F0"/>
<path d="M212.893 320.212H210.008V323.098H212.893V320.212Z" fill="#F0F0F0"/>
<path d="M217.464 238.1H214.578V240.985H217.464V238.1Z" fill="#F0F0F0"/>
<path d="M217.464 242.936H214.578V245.821H217.464V242.936Z" fill="#F0F0F0"/>
<path d="M217.464 247.762H214.578V250.647H217.464V247.762Z" fill="#F0F0F0"/>
<path d="M217.464 252.588H214.578V255.473H217.464V252.588Z" fill="#F0F0F0"/>
<path d="M217.464 257.424H214.578V260.309H217.464V257.424Z" fill="#F0F0F0"/>
<path d="M217.464 262.25H214.578V265.135H217.464V262.25Z" fill="#F0F0F0"/>
<path d="M217.464 267.086H214.578V269.971H217.464V267.086Z" fill="#F0F0F0"/>
<path d="M217.464 271.912H214.578V274.798H217.464V271.912Z" fill="#F0F0F0"/>
<path d="M217.464 276.738H214.578V279.623H217.464V276.738Z" fill="#F0F0F0"/>
<path d="M217.464 281.574H214.578V284.46H217.464V281.574Z" fill="#F0F0F0"/>
<path d="M217.464 296.062H214.578V298.948H217.464V296.062Z" fill="#F0F0F0"/>
<path d="M217.464 300.888H214.578V303.774H217.464V300.888Z" fill="#F0F0F0"/>
<path d="M217.464 305.725H214.578V308.61H217.464V305.725Z" fill="#F0F0F0"/>
<path d="M217.464 310.55H214.578V313.436H217.464V310.55Z" fill="#F0F0F0"/>
<path d="M222.046 238.1H219.16V240.985H222.046V238.1Z" fill="#F0F0F0"/>
<path d="M222.046 242.936H219.16V245.821H222.046V242.936Z" fill="#F0F0F0"/>
<path d="M222.046 247.762H219.16V250.647H222.046V247.762Z" fill="#F0F0F0"/>
<path d="M222.046 252.588H219.16V255.473H222.046V252.588Z" fill="#F0F0F0"/>
<path d="M222.046 257.424H219.16V260.309H222.046V257.424Z" fill="#F0F0F0"/>
<path d="M222.046 262.25H219.16V265.135H222.046V262.25Z" fill="#F0F0F0"/>
<path d="M222.046 267.086H219.16V269.971H222.046V267.086Z" fill="#F0F0F0"/>
<path d="M222.046 271.912H219.16V274.798H222.046V271.912Z" fill="#F0F0F0"/>
<path d="M222.046 276.738H219.16V279.623H222.046V276.738Z" fill="#F0F0F0"/>
<path d="M222.046 281.574H219.16V284.46H222.046V281.574Z" fill="#F0F0F0"/>
<path d="M222.046 296.062H219.16V298.948H222.046V296.062Z" fill="#F0F0F0"/>
<path d="M222.046 300.888H219.16V303.774H222.046V300.888Z" fill="#F0F0F0"/>
<path d="M222.046 305.725H219.16V308.61H222.046V305.725Z" fill="#F0F0F0"/>
<path d="M273.569 225.562H270.684V228.447H273.569V225.562Z" fill="#F0F0F0"/>
<path d="M273.569 230.388H270.684V233.274H273.569V230.388Z" fill="#F0F0F0"/>
<path d="M273.569 235.224H270.684V238.11H273.569V235.224Z" fill="#F0F0F0"/>
<path d="M273.569 240.05H270.684V242.936H273.569V240.05Z" fill="#F0F0F0"/>
<path d="M273.569 244.876H270.684V247.761H273.569V244.876Z" fill="#F0F0F0"/>
<path d="M273.569 249.712H270.684V252.598H273.569V249.712Z" fill="#F0F0F0"/>
<path d="M273.569 254.539H270.684V257.424H273.569V254.539Z" fill="#F0F0F0"/>
<path d="M273.569 259.375H270.684V262.26H273.569V259.375Z" fill="#F0F0F0"/>
<path d="M273.569 273.863H270.684V276.748H273.569V273.863Z" fill="#F0F0F0"/>
<path d="M273.569 278.688H270.684V281.574H273.569V278.688Z" fill="#F0F0F0"/>
<path d="M278.139 225.562H275.254V228.447H278.139V225.562Z" fill="#F0F0F0"/>
<path d="M278.139 230.388H275.254V233.274H278.139V230.388Z" fill="#F0F0F0"/>
<path d="M278.139 235.224H275.254V238.11H278.139V235.224Z" fill="#F0F0F0"/>
<path d="M278.139 240.05H275.254V242.936H278.139V240.05Z" fill="#F0F0F0"/>
<path d="M278.139 244.876H275.254V247.761H278.139V244.876Z" fill="#F0F0F0"/>
<path d="M278.139 249.712H275.254V252.598H278.139V249.712Z" fill="#F0F0F0"/>
<path d="M278.139 254.539H275.254V257.424H278.139V254.539Z" fill="#F0F0F0"/>
<path d="M278.139 259.375H275.254V262.26H278.139V259.375Z" fill="#F0F0F0"/>
<path d="M278.139 278.688H275.254V281.574H278.139V278.688Z" fill="#F0F0F0"/>
<path d="M282.714 225.562H279.828V228.447H282.714V225.562Z" fill="#F0F0F0"/>
<path d="M282.714 230.388H279.828V233.274H282.714V230.388Z" fill="#F0F0F0"/>
<path d="M282.714 235.224H279.828V238.11H282.714V235.224Z" fill="#F0F0F0"/>
<path d="M282.714 240.05H279.828V242.936H282.714V240.05Z" fill="#F0F0F0"/>
<path d="M282.714 244.876H279.828V247.761H282.714V244.876Z" fill="#F0F0F0"/>
<path d="M282.714 249.712H279.828V252.598H282.714V249.712Z" fill="#F0F0F0"/>
<path d="M282.714 254.539H279.828V257.424H282.714V254.539Z" fill="#F0F0F0"/>
<path d="M282.714 259.375H279.828V262.26H282.714V259.375Z" fill="#F0F0F0"/>
<path d="M287.296 225.562H284.41V228.447H287.296V225.562Z" fill="#F0F0F0"/>
<path d="M287.296 230.388H284.41V233.274H287.296V230.388Z" fill="#F0F0F0"/>
<path d="M287.296 235.224H284.41V238.11H287.296V235.224Z" fill="#F0F0F0"/>
<path d="M287.296 240.05H284.41V242.936H287.296V240.05Z" fill="#F0F0F0"/>
<path d="M287.296 244.876H284.41V247.761H287.296V244.876Z" fill="#F0F0F0"/>
<path d="M287.296 249.712H284.41V252.598H287.296V249.712Z" fill="#F0F0F0"/>
<path d="M287.296 259.375H284.41V262.26H287.296V259.375Z" fill="#F0F0F0"/>
<path d="M287.296 264.201H284.41V267.086H287.296V264.201Z" fill="#F0F0F0"/>
<path d="M287.296 278.688H284.41V281.574H287.296V278.688Z" fill="#F0F0F0"/>
<path d="M287.296 283.525H284.41V286.41H287.296V283.525Z" fill="#F0F0F0"/>
<path d="M287.296 288.351H284.41V291.237H287.296V288.351Z" fill="#F0F0F0"/>
<path d="M287.296 293.177H284.41V296.062H287.296V293.177Z" fill="#F0F0F0"/>
<path d="M287.296 298.013H284.41V300.899H287.296V298.013Z" fill="#F0F0F0"/>
<path d="M287.296 302.839H284.41V305.724H287.296V302.839Z" fill="#F0F0F0"/>
<path d="M287.296 307.675H284.41V310.561H287.296V307.675Z" fill="#F0F0F0"/>
<path d="M291.866 225.562H288.98V228.447H291.866V225.562Z" fill="#F0F0F0"/>
<path d="M291.866 230.388H288.98V233.274H291.866V230.388Z" fill="#F0F0F0"/>
<path d="M291.866 235.224H288.98V238.11H291.866V235.224Z" fill="#F0F0F0"/>
<path d="M291.866 240.05H288.98V242.936H291.866V240.05Z" fill="#F0F0F0"/>
<path d="M291.866 244.876H288.98V247.761H291.866V244.876Z" fill="#F0F0F0"/>
<path d="M291.866 249.712H288.98V252.598H291.866V249.712Z" fill="#F0F0F0"/>
<path d="M291.866 264.201H288.98V267.086H291.866V264.201Z" fill="#F0F0F0"/>
<path d="M291.866 269.026H288.98V271.912H291.866V269.026Z" fill="#F0F0F0"/>
<path d="M291.866 273.863H288.98V276.748H291.866V273.863Z" fill="#F0F0F0"/>
<path d="M291.866 278.688H288.98V281.574H291.866V278.688Z" fill="#F0F0F0"/>
<path d="M291.866 283.525H288.98V286.41H291.866V283.525Z" fill="#F0F0F0"/>
<path d="M291.866 288.351H288.98V291.237H291.866V288.351Z" fill="#F0F0F0"/>
<path d="M291.866 293.177H288.98V296.062H291.866V293.177Z" fill="#F0F0F0"/>
<path d="M291.866 298.013H288.98V300.899H291.866V298.013Z" fill="#F0F0F0"/>
<path d="M291.866 302.839H288.98V305.724H291.866V302.839Z" fill="#F0F0F0"/>
<path d="M291.866 307.675H288.98V310.561H291.866V307.675Z" fill="#F0F0F0"/>
<path d="M291.866 312.501H288.98V315.386H291.866V312.501Z" fill="#F0F0F0"/>
<path d="M291.866 322.163H288.98V325.049H291.866V322.163Z" fill="#F0F0F0"/>
<path d="M296.44 225.562H293.555V228.447H296.44V225.562Z" fill="#F0F0F0"/>
<path d="M296.44 230.388H293.555V233.274H296.44V230.388Z" fill="#F0F0F0"/>
<path d="M296.44 235.224H293.555V238.11H296.44V235.224Z" fill="#F0F0F0"/>
<path d="M296.44 240.05H293.555V242.936H296.44V240.05Z" fill="#F0F0F0"/>
<path d="M296.44 244.876H293.555V247.761H296.44V244.876Z" fill="#F0F0F0"/>
<path d="M296.44 249.712H293.555V252.598H296.44V249.712Z" fill="#F0F0F0"/>
<path d="M296.44 264.201H293.555V267.086H296.44V264.201Z" fill="#F0F0F0"/>
<path d="M296.44 269.026H293.555V271.912H296.44V269.026Z" fill="#F0F0F0"/>
<path d="M296.44 273.863H293.555V276.748H296.44V273.863Z" fill="#F0F0F0"/>
<path d="M296.44 278.688H293.555V281.574H296.44V278.688Z" fill="#F0F0F0"/>
<path d="M296.44 293.177H293.555V296.062H296.44V293.177Z" fill="#F0F0F0"/>
<path d="M296.44 298.013H293.555V300.899H296.44V298.013Z" fill="#F0F0F0"/>
<path d="M296.44 302.839H293.555V305.724H296.44V302.839Z" fill="#F0F0F0"/>
<path d="M296.44 307.675H293.555V310.561H296.44V307.675Z" fill="#F0F0F0"/>
<path d="M296.44 312.501H293.555V315.386H296.44V312.501Z" fill="#F0F0F0"/>
<path d="M296.44 322.163H293.555V325.049H296.44V322.163Z" fill="#F0F0F0"/>
<path d="M296.44 326.989H293.555V329.875H296.44V326.989Z" fill="#F0F0F0"/>
<path d="M337.964 270.469H335.078V273.355H337.964V270.469Z" fill="#F0F0F0"/>
<path d="M337.964 275.305H335.078V278.191H337.964V275.305Z" fill="#F0F0F0"/>
<path d="M337.964 280.131H335.078V283.017H337.964V280.131Z" fill="#F0F0F0"/>
<path d="M337.964 284.958H335.078V287.843H337.964V284.958Z" fill="#F0F0F0"/>
<path d="M337.964 289.793H335.078V292.679H337.964V289.793Z" fill="#F0F0F0"/>
<path d="M337.964 294.62H335.078V297.505H337.964V294.62Z" fill="#F0F0F0"/>
<path d="M337.964 299.456H335.078V302.341H337.964V299.456Z" fill="#F0F0F0"/>
<path d="M337.964 313.944H335.078V316.829H337.964V313.944Z" fill="#F0F0F0"/>
<path d="M337.964 318.77H335.078V321.655H337.964V318.77Z" fill="#F0F0F0"/>
<path d="M337.964 323.606H335.078V326.491H337.964V323.606Z" fill="#F0F0F0"/>
<path d="M342.546 270.469H339.66V273.355H342.546V270.469Z" fill="#F0F0F0"/>
<path d="M342.546 275.305H339.66V278.191H342.546V275.305Z" fill="#F0F0F0"/>
<path d="M342.546 280.131H339.66V283.017H342.546V280.131Z" fill="#F0F0F0"/>
<path d="M342.546 284.958H339.66V287.843H342.546V284.958Z" fill="#F0F0F0"/>
<path d="M342.546 289.793H339.66V292.679H342.546V289.793Z" fill="#F0F0F0"/>
<path d="M342.546 294.62H339.66V297.505H342.546V294.62Z" fill="#F0F0F0"/>
<path d="M342.546 299.456H339.66V302.341H342.546V299.456Z" fill="#F0F0F0"/>
<path d="M347.116 270.469H344.23V273.355H347.116V270.469Z" fill="#F0F0F0"/>
<path d="M347.116 275.305H344.23V278.191H347.116V275.305Z" fill="#F0F0F0"/>
<path d="M347.116 280.131H344.23V283.017H347.116V280.131Z" fill="#F0F0F0"/>
<path d="M347.116 284.958H344.23V287.843H347.116V284.958Z" fill="#F0F0F0"/>
<path d="M347.116 289.793H344.23V292.679H347.116V289.793Z" fill="#F0F0F0"/>
<path d="M347.116 294.62H344.23V297.505H347.116V294.62Z" fill="#F0F0F0"/>
<path d="M347.116 299.456H344.23V302.341H347.116V299.456Z" fill="#F0F0F0"/>
<path d="M351.69 270.469H348.805V273.355H351.69V270.469Z" fill="#F0F0F0"/>
<path d="M351.69 275.305H348.805V278.191H351.69V275.305Z" fill="#F0F0F0"/>
<path d="M351.69 280.131H348.805V283.017H351.69V280.131Z" fill="#F0F0F0"/>
<path d="M351.69 284.958H348.805V287.843H351.69V284.958Z" fill="#F0F0F0"/>
<path d="M351.69 289.793H348.805V292.679H351.69V289.793Z" fill="#F0F0F0"/>
<path d="M351.69 294.62H348.805V297.505H351.69V294.62Z" fill="#F0F0F0"/>
<path d="M351.69 299.456H348.805V302.341H351.69V299.456Z" fill="#F0F0F0"/>
<path d="M351.69 304.282H348.805V307.167H351.69V304.282Z" fill="#F0F0F0"/>
<path d="M351.69 309.108H348.805V311.993H351.69V309.108Z" fill="#F0F0F0"/>
<path d="M351.69 313.944H348.805V316.829H351.69V313.944Z" fill="#F0F0F0"/>
<path d="M351.69 318.77H348.805V321.655H351.69V318.77Z" fill="#F0F0F0"/>
<path d="M356.272 270.469H353.387V273.355H356.272V270.469Z" fill="#F0F0F0"/>
<path d="M356.272 275.305H353.387V278.191H356.272V275.305Z" fill="#F0F0F0"/>
<path d="M356.272 280.131H353.387V283.017H356.272V280.131Z" fill="#F0F0F0"/>
<path d="M356.272 284.958H353.387V287.843H356.272V284.958Z" fill="#F0F0F0"/>
<path d="M356.272 289.793H353.387V292.679H356.272V289.793Z" fill="#F0F0F0"/>
<path d="M356.272 294.62H353.387V297.505H356.272V294.62Z" fill="#F0F0F0"/>
<path d="M356.272 299.456H353.387V302.341H356.272V299.456Z" fill="#F0F0F0"/>
<path d="M356.272 304.282H353.387V307.167H356.272V304.282Z" fill="#F0F0F0"/>
<path d="M356.272 309.108H353.387V311.993H356.272V309.108Z" fill="#F0F0F0"/>
<path d="M356.272 313.944H353.387V316.829H356.272V313.944Z" fill="#F0F0F0"/>
<path d="M356.272 318.77H353.387V321.655H356.272V318.77Z" fill="#F0F0F0"/>
<path d="M356.272 323.606H353.387V326.491H356.272V323.606Z" fill="#F0F0F0"/>
<path d="M356.272 338.094H353.387V340.98H356.272V338.094Z" fill="#F0F0F0"/>
<path d="M356.272 342.92H353.387V345.806H356.272V342.92Z" fill="#F0F0F0"/>
<path d="M360.842 270.469H357.957V273.355H360.842V270.469Z" fill="#F0F0F0"/>
<path d="M360.842 275.305H357.957V278.191H360.842V275.305Z" fill="#F0F0F0"/>
<path d="M360.842 280.131H357.957V283.017H360.842V280.131Z" fill="#F0F0F0"/>
<path d="M360.842 294.62H357.957V297.505H360.842V294.62Z" fill="#F0F0F0"/>
<path d="M360.842 299.456H357.957V302.341H360.842V299.456Z" fill="#F0F0F0"/>
<path d="M360.842 304.282H357.957V307.167H360.842V304.282Z" fill="#F0F0F0"/>
<path d="M360.842 309.108H357.957V311.993H360.842V309.108Z" fill="#F0F0F0"/>
<path d="M360.842 313.944H357.957V316.829H360.842V313.944Z" fill="#F0F0F0"/>
<path d="M360.842 318.77H357.957V321.655H360.842V318.77Z" fill="#F0F0F0"/>
<path d="M360.842 323.606H357.957V326.491H360.842V323.606Z" fill="#F0F0F0"/>
<path d="M360.842 338.094H357.957V340.98H360.842V338.094Z" fill="#F0F0F0"/>
<path d="M360.842 342.92H357.957V345.806H360.842V342.92Z" fill="#F0F0F0"/>
<path d="M360.842 347.756H357.957V350.642H360.842V347.756Z" fill="#F0F0F0"/>
<path d="M408.807 241.493H405.922V244.379H408.807V241.493Z" fill="#F0F0F0"/>
<path d="M408.807 246.319H405.922V249.204H408.807V246.319Z" fill="#F0F0F0"/>
<path d="M408.807 251.155H405.922V254.041H408.807V251.155Z" fill="#F0F0F0"/>
<path d="M408.807 255.981H405.922V258.866H408.807V255.981Z" fill="#F0F0F0"/>
<path d="M408.807 260.807H405.922V263.693H408.807V260.807Z" fill="#F0F0F0"/>
<path d="M408.807 265.643H405.922V268.529H408.807V265.643Z" fill="#F0F0F0"/>
<path d="M408.807 270.469H405.922V273.355H408.807V270.469Z" fill="#F0F0F0"/>
<path d="M408.807 275.305H405.922V278.191H408.807V275.305Z" fill="#F0F0F0"/>
<path d="M408.807 280.131H405.922V283.017H408.807V280.131Z" fill="#F0F0F0"/>
<path d="M408.807 284.958H405.922V287.843H408.807V284.958Z" fill="#F0F0F0"/>
<path d="M408.807 289.793H405.922V292.679H408.807V289.793Z" fill="#F0F0F0"/>
<path d="M408.807 294.62H405.922V297.505H408.807V294.62Z" fill="#F0F0F0"/>
<path d="M408.807 299.456H405.922V302.341H408.807V299.456Z" fill="#F0F0F0"/>
<path d="M408.807 304.282H405.922V307.167H408.807V304.282Z" fill="#F0F0F0"/>
<path d="M408.807 309.108H405.922V311.993H408.807V309.108Z" fill="#F0F0F0"/>
<path d="M408.807 313.944H405.922V316.829H408.807V313.944Z" fill="#F0F0F0"/>
<path d="M408.807 318.77H405.922V321.655H408.807V318.77Z" fill="#F0F0F0"/>
<path d="M408.807 323.606H405.922V326.491H408.807V323.606Z" fill="#F0F0F0"/>
<path d="M408.807 328.432H405.922V331.318H408.807V328.432Z" fill="#F0F0F0"/>
<path d="M408.807 333.258H405.922V336.143H408.807V333.258Z" fill="#F0F0F0"/>
<path d="M408.807 338.094H405.922V340.98H408.807V338.094Z" fill="#F0F0F0"/>
<path d="M408.807 342.92H405.922V345.806H408.807V342.92Z" fill="#F0F0F0"/>
<path d="M408.807 347.756H405.922V350.642H408.807V347.756Z" fill="#F0F0F0"/>
<path d="M413.382 241.493H410.496V244.379H413.382V241.493Z" fill="#F0F0F0"/>
<path d="M413.382 246.319H410.496V249.204H413.382V246.319Z" fill="#F0F0F0"/>
<path d="M413.382 251.155H410.496V254.041H413.382V251.155Z" fill="#F0F0F0"/>
<path d="M413.382 255.981H410.496V258.866H413.382V255.981Z" fill="#F0F0F0"/>
<path d="M413.382 260.807H410.496V263.693H413.382V260.807Z" fill="#F0F0F0"/>
<path d="M413.382 265.643H410.496V268.529H413.382V265.643Z" fill="#F0F0F0"/>
<path d="M413.382 270.469H410.496V273.355H413.382V270.469Z" fill="#F0F0F0"/>
<path d="M413.382 275.305H410.496V278.191H413.382V275.305Z" fill="#F0F0F0"/>
<path d="M413.382 280.131H410.496V283.017H413.382V280.131Z" fill="#F0F0F0"/>
<path d="M413.382 284.958H410.496V287.843H413.382V284.958Z" fill="#F0F0F0"/>
<path d="M413.382 289.793H410.496V292.679H413.382V289.793Z" fill="#F0F0F0"/>
<path d="M413.382 294.62H410.496V297.505H413.382V294.62Z" fill="#F0F0F0"/>
<path d="M413.382 299.456H410.496V302.341H413.382V299.456Z" fill="#F0F0F0"/>
<path d="M413.382 304.282H410.496V307.167H413.382V304.282Z" fill="#F0F0F0"/>
<path d="M413.382 309.108H410.496V311.993H413.382V309.108Z" fill="#F0F0F0"/>
<path d="M413.382 313.944H410.496V316.829H413.382V313.944Z" fill="#F0F0F0"/>
<path d="M413.382 318.77H410.496V321.655H413.382V318.77Z" fill="#F0F0F0"/>
<path d="M413.382 323.606H410.496V326.491H413.382V323.606Z" fill="#F0F0F0"/>
<path d="M413.382 328.432H410.496V331.318H413.382V328.432Z" fill="#F0F0F0"/>
<path d="M417.964 241.493H415.078V244.379H417.964V241.493Z" fill="#F0F0F0"/>
<path d="M417.964 246.319H415.078V249.204H417.964V246.319Z" fill="#F0F0F0"/>
<path d="M417.964 251.155H415.078V254.041H417.964V251.155Z" fill="#F0F0F0"/>
<path d="M417.964 255.981H415.078V258.866H417.964V255.981Z" fill="#F0F0F0"/>
<path d="M417.964 260.807H415.078V263.693H417.964V260.807Z" fill="#F0F0F0"/>
<path d="M417.964 265.643H415.078V268.529H417.964V265.643Z" fill="#F0F0F0"/>
<path d="M417.964 270.469H415.078V273.355H417.964V270.469Z" fill="#F0F0F0"/>
<path d="M417.964 275.305H415.078V278.191H417.964V275.305Z" fill="#F0F0F0"/>
<path d="M417.964 280.131H415.078V283.017H417.964V280.131Z" fill="#F0F0F0"/>
<path d="M417.964 284.958H415.078V287.843H417.964V284.958Z" fill="#F0F0F0"/>
<path d="M417.964 289.793H415.078V292.679H417.964V289.793Z" fill="#F0F0F0"/>
<path d="M417.964 294.62H415.078V297.505H417.964V294.62Z" fill="#F0F0F0"/>
<path d="M417.964 299.456H415.078V302.341H417.964V299.456Z" fill="#F0F0F0"/>
<path d="M417.964 304.282H415.078V307.167H417.964V304.282Z" fill="#F0F0F0"/>
<path d="M417.964 309.108H415.078V311.993H417.964V309.108Z" fill="#F0F0F0"/>
<path d="M417.964 313.944H415.078V316.829H417.964V313.944Z" fill="#F0F0F0"/>
<path d="M417.964 318.77H415.078V321.655H417.964V318.77Z" fill="#F0F0F0"/>
<path d="M417.964 323.606H415.078V326.491H417.964V323.606Z" fill="#F0F0F0"/>
<path d="M417.964 328.432H415.078V331.318H417.964V328.432Z" fill="#F0F0F0"/>
<path d="M422.534 241.493H419.648V244.379H422.534V241.493Z" fill="#F0F0F0"/>
<path d="M422.534 246.319H419.648V249.204H422.534V246.319Z" fill="#F0F0F0"/>
<path d="M422.534 251.155H419.648V254.041H422.534V251.155Z" fill="#F0F0F0"/>
<path d="M422.534 255.981H419.648V258.866H422.534V255.981Z" fill="#F0F0F0"/>
<path d="M422.534 260.807H419.648V263.693H422.534V260.807Z" fill="#F0F0F0"/>
<path d="M422.534 265.643H419.648V268.529H422.534V265.643Z" fill="#F0F0F0"/>
<path d="M422.534 270.469H419.648V273.355H422.534V270.469Z" fill="#F0F0F0"/>
<path d="M422.534 275.305H419.648V278.191H422.534V275.305Z" fill="#F0F0F0"/>
<path d="M422.534 280.131H419.648V283.017H422.534V280.131Z" fill="#F0F0F0"/>
<path d="M422.534 284.958H419.648V287.843H422.534V284.958Z" fill="#F0F0F0"/>
<path d="M422.534 289.793H419.648V292.679H422.534V289.793Z" fill="#F0F0F0"/>
<path d="M422.534 294.62H419.648V297.505H422.534V294.62Z" fill="#F0F0F0"/>
<path d="M422.534 299.456H419.648V302.341H422.534V299.456Z" fill="#F0F0F0"/>
<path d="M422.534 304.282H419.648V307.167H422.534V304.282Z" fill="#F0F0F0"/>
<path d="M422.534 309.108H419.648V311.993H422.534V309.108Z" fill="#F0F0F0"/>
<path d="M427.104 241.493H424.219V244.379H427.104V241.493Z" fill="#F0F0F0"/>
<path d="M427.104 246.319H424.219V249.204H427.104V246.319Z" fill="#F0F0F0"/>
<path d="M427.104 251.155H424.219V254.041H427.104V251.155Z" fill="#F0F0F0"/>
<path d="M427.104 255.981H424.219V258.866H427.104V255.981Z" fill="#F0F0F0"/>
<path d="M427.104 260.807H424.219V263.693H427.104V260.807Z" fill="#F0F0F0"/>
<path d="M427.104 265.643H424.219V268.529H427.104V265.643Z" fill="#F0F0F0"/>
<path d="M427.104 270.469H424.219V273.355H427.104V270.469Z" fill="#F0F0F0"/>
<path d="M427.104 275.305H424.219V278.191H427.104V275.305Z" fill="#F0F0F0"/>
<path d="M427.104 280.131H424.219V283.017H427.104V280.131Z" fill="#F0F0F0"/>
<path d="M427.104 284.958H424.219V287.843H427.104V284.958Z" fill="#F0F0F0"/>
<path d="M427.104 289.793H424.219V292.679H427.104V289.793Z" fill="#F0F0F0"/>
<path d="M427.104 294.62H424.219V297.505H427.104V294.62Z" fill="#F0F0F0"/>
<path d="M427.104 299.456H424.219V302.341H427.104V299.456Z" fill="#F0F0F0"/>
<path d="M431.69 241.493H428.805V244.379H431.69V241.493Z" fill="#F0F0F0"/>
<path d="M431.69 246.319H428.805V249.204H431.69V246.319Z" fill="#F0F0F0"/>
<path d="M431.69 251.155H428.805V254.041H431.69V251.155Z" fill="#F0F0F0"/>
<path d="M431.69 255.981H428.805V258.866H431.69V255.981Z" fill="#F0F0F0"/>
<path d="M431.69 260.807H428.805V263.693H431.69V260.807Z" fill="#F0F0F0"/>
<path d="M431.69 265.643H428.805V268.529H431.69V265.643Z" fill="#F0F0F0"/>
<path d="M431.69 270.469H428.805V273.355H431.69V270.469Z" fill="#F0F0F0"/>
<path d="M431.69 275.305H428.805V278.191H431.69V275.305Z" fill="#F0F0F0"/>
<path d="M431.69 280.131H428.805V283.017H431.69V280.131Z" fill="#F0F0F0"/>
<path d="M431.69 284.958H428.805V287.843H431.69V284.958Z" fill="#F0F0F0"/>
<path d="M431.69 289.793H428.805V292.679H431.69V289.793Z" fill="#F0F0F0"/>
<path d="M431.69 294.62H428.805V297.505H431.69V294.62Z" fill="#F0F0F0"/>
<path d="M95.444 276.738H92.5586V279.623H95.444V276.738Z" fill="#F0F0F0"/>
<path d="M95.444 281.574H92.5586V284.46H95.444V281.574Z" fill="#F0F0F0"/>
<path d="M95.444 286.4H92.5586V289.285H95.444V286.4Z" fill="#F0F0F0"/>
<path d="M95.444 291.236H92.5586V294.122H95.444V291.236Z" fill="#F0F0F0"/>
<path d="M95.444 296.062H92.5586V298.948H95.444V296.062Z" fill="#F0F0F0"/>
<path d="M95.444 300.888H92.5586V303.774H95.444V300.888Z" fill="#F0F0F0"/>
<path d="M95.444 305.725H92.5586V308.61H95.444V305.725Z" fill="#F0F0F0"/>
<path d="M95.444 310.55H92.5586V313.436H95.444V310.55Z" fill="#F0F0F0"/>
<path d="M95.444 315.387H92.5586V318.272H95.444V315.387Z" fill="#F0F0F0"/>
<path d="M95.444 320.212H92.5586V323.098H95.444V320.212Z" fill="#F0F0F0"/>
<path d="M95.444 325.039H92.5586V327.924H95.444V325.039Z" fill="#F0F0F0"/>
<path d="M95.444 329.875H92.5586V332.76H95.444V329.875Z" fill="#F0F0F0"/>
<path d="M95.444 334.701H92.5586V337.586H95.444V334.701Z" fill="#F0F0F0"/>
<path d="M95.444 339.537H92.5586V342.423H95.444V339.537Z" fill="#F0F0F0"/>
<path d="M95.444 344.363H92.5586V347.248H95.444V344.363Z" fill="#F0F0F0"/>
<path d="M95.444 349.189H92.5586V352.074H95.444V349.189Z" fill="#F0F0F0"/>
<path d="M95.444 354.025H92.5586V356.91H95.444V354.025Z" fill="#F0F0F0"/>
<path d="M95.444 358.851H92.5586V361.737H95.444V358.851Z" fill="#F0F0F0"/>
<path d="M95.444 363.687H92.5586V366.572H95.444V363.687Z" fill="#F0F0F0"/>
<path d="M95.444 368.513H92.5586V371.399H95.444V368.513Z" fill="#F0F0F0"/>
<path d="M100.014 276.738H97.1289V279.623H100.014V276.738Z" fill="#F0F0F0"/>
<path d="M100.014 281.574H97.1289V284.46H100.014V281.574Z" fill="#F0F0F0"/>
<path d="M100.014 286.4H97.1289V289.285H100.014V286.4Z" fill="#F0F0F0"/>
<path d="M100.014 291.236H97.1289V294.122H100.014V291.236Z" fill="#F0F0F0"/>
<path d="M100.014 296.062H97.1289V298.948H100.014V296.062Z" fill="#F0F0F0"/>
<path d="M100.014 300.888H97.1289V303.774H100.014V300.888Z" fill="#F0F0F0"/>
<path d="M100.014 305.725H97.1289V308.61H100.014V305.725Z" fill="#F0F0F0"/>
<path d="M100.014 310.55H97.1289V313.436H100.014V310.55Z" fill="#F0F0F0"/>
<path d="M100.014 315.387H97.1289V318.272H100.014V315.387Z" fill="#F0F0F0"/>
<path d="M100.014 320.212H97.1289V323.098H100.014V320.212Z" fill="#F0F0F0"/>
<path d="M100.014 325.039H97.1289V327.924H100.014V325.039Z" fill="#F0F0F0"/>
<path d="M100.014 329.875H97.1289V332.76H100.014V329.875Z" fill="#F0F0F0"/>
<path d="M100.014 334.701H97.1289V337.586H100.014V334.701Z" fill="#F0F0F0"/>
<path d="M100.014 339.537H97.1289V342.423H100.014V339.537Z" fill="#F0F0F0"/>
<path d="M100.014 344.363H97.1289V347.248H100.014V344.363Z" fill="#F0F0F0"/>
<path d="M100.014 349.189H97.1289V352.074H100.014V349.189Z" fill="#F0F0F0"/>
<path d="M100.014 354.025H97.1289V356.91H100.014V354.025Z" fill="#F0F0F0"/>
<path d="M100.014 358.851H97.1289V361.737H100.014V358.851Z" fill="#F0F0F0"/>
<path d="M104.596 276.738H101.711V279.623H104.596V276.738Z" fill="#F0F0F0"/>
<path d="M104.596 281.574H101.711V284.46H104.596V281.574Z" fill="#F0F0F0"/>
<path d="M104.596 286.4H101.711V289.285H104.596V286.4Z" fill="#F0F0F0"/>
<path d="M104.596 291.236H101.711V294.122H104.596V291.236Z" fill="#F0F0F0"/>
<path d="M104.596 296.062H101.711V298.948H104.596V296.062Z" fill="#F0F0F0"/>
<path d="M104.596 300.888H101.711V303.774H104.596V300.888Z" fill="#F0F0F0"/>
<path d="M104.596 305.725H101.711V308.61H104.596V305.725Z" fill="#F0F0F0"/>
<path d="M104.596 310.55H101.711V313.436H104.596V310.55Z" fill="#F0F0F0"/>
<path d="M104.596 315.387H101.711V318.272H104.596V315.387Z" fill="#F0F0F0"/>
<path d="M104.596 320.212H101.711V323.098H104.596V320.212Z" fill="#F0F0F0"/>
<path d="M104.596 325.039H101.711V327.924H104.596V325.039Z" fill="#F0F0F0"/>
<path d="M104.596 329.875H101.711V332.76H104.596V329.875Z" fill="#F0F0F0"/>
<path d="M104.596 334.701H101.711V337.586H104.596V334.701Z" fill="#F0F0F0"/>
<path d="M104.596 339.537H101.711V342.423H104.596V339.537Z" fill="#F0F0F0"/>
<path d="M104.596 344.363H101.711V347.248H104.596V344.363Z" fill="#F0F0F0"/>
<path d="M104.596 349.189H101.711V352.074H104.596V349.189Z" fill="#F0F0F0"/>
<path d="M104.596 354.025H101.711V356.91H104.596V354.025Z" fill="#F0F0F0"/>
<path d="M104.596 358.851H101.711V361.737H104.596V358.851Z" fill="#F0F0F0"/>
<path d="M78.3229 311.993H75.4375V314.879H78.3229V311.993Z" fill="#F0F0F0"/>
<path d="M78.3229 316.819H75.4375V319.705H78.3229V316.819Z" fill="#F0F0F0"/>
<path d="M78.3229 321.655H75.4375V324.541H78.3229V321.655Z" fill="#F0F0F0"/>
<path d="M78.3229 326.481H75.4375V329.367H78.3229V326.481Z" fill="#F0F0F0"/>
<path d="M78.3229 331.317H75.4375V334.203H78.3229V331.317Z" fill="#F0F0F0"/>
<path d="M78.3229 336.144H75.4375V339.029H78.3229V336.144Z" fill="#F0F0F0"/>
<path d="M78.3229 340.97H75.4375V343.855H78.3229V340.97Z" fill="#F0F0F0"/>
<path d="M78.3229 345.806H75.4375V348.691H78.3229V345.806Z" fill="#F0F0F0"/>
<path d="M78.3229 350.632H75.4375V353.517H78.3229V350.632Z" fill="#F0F0F0"/>
<path d="M78.3229 355.468H75.4375V358.353H78.3229V355.468Z" fill="#F0F0F0"/>
<path d="M78.3229 360.294H75.4375V363.179H78.3229V360.294Z" fill="#F0F0F0"/>
<path d="M78.3229 365.13H75.4375V368.015H78.3229V365.13Z" fill="#F0F0F0"/>
<path d="M78.3229 369.956H75.4375V372.841H78.3229V369.956Z" fill="#F0F0F0"/>
<path d="M82.905 311.993H80.0195V314.879H82.905V311.993Z" fill="#F0F0F0"/>
<path d="M82.905 316.819H80.0195V319.705H82.905V316.819Z" fill="#F0F0F0"/>
<path d="M82.905 321.655H80.0195V324.541H82.905V321.655Z" fill="#F0F0F0"/>
<path d="M82.905 326.481H80.0195V329.367H82.905V326.481Z" fill="#F0F0F0"/>
<path d="M82.905 331.317H80.0195V334.203H82.905V331.317Z" fill="#F0F0F0"/>
<path d="M82.905 336.144H80.0195V339.029H82.905V336.144Z" fill="#F0F0F0"/>
<path d="M82.905 340.97H80.0195V343.855H82.905V340.97Z" fill="#F0F0F0"/>
<path d="M82.905 345.806H80.0195V348.691H82.905V345.806Z" fill="#F0F0F0"/>
<path d="M82.905 350.632H80.0195V353.517H82.905V350.632Z" fill="#F0F0F0"/>
<path d="M82.905 355.468H80.0195V358.353H82.905V355.468Z" fill="#F0F0F0"/>
<path d="M82.905 360.294H80.0195V363.179H82.905V360.294Z" fill="#F0F0F0"/>
<path d="M82.905 365.13H80.0195V368.015H82.905V365.13Z" fill="#F0F0F0"/>
<path d="M82.905 369.956H80.0195V372.841H82.905V369.956Z" fill="#F0F0F0"/>
<path d="M87.4792 311.993H84.5938V314.879H87.4792V311.993Z" fill="#F0F0F0"/>
<path d="M87.4792 316.819H84.5938V319.705H87.4792V316.819Z" fill="#F0F0F0"/>
<path d="M87.4792 321.655H84.5938V324.541H87.4792V321.655Z" fill="#F0F0F0"/>
<path d="M87.4792 326.481H84.5938V329.367H87.4792V326.481Z" fill="#F0F0F0"/>
<path d="M87.4792 331.317H84.5938V334.203H87.4792V331.317Z" fill="#F0F0F0"/>
<path d="M87.4792 336.144H84.5938V339.029H87.4792V336.144Z" fill="#F0F0F0"/>
<path d="M87.4792 340.97H84.5938V343.855H87.4792V340.97Z" fill="#F0F0F0"/>
<path d="M87.4792 345.806H84.5938V348.691H87.4792V345.806Z" fill="#F0F0F0"/>
<path d="M87.4792 350.632H84.5938V353.517H87.4792V350.632Z" fill="#F0F0F0"/>
<path d="M87.4792 355.468H84.5938V358.353H87.4792V355.468Z" fill="#F0F0F0"/>
<path d="M87.4792 360.294H84.5938V363.179H87.4792V360.294Z" fill="#F0F0F0"/>
<path d="M87.4792 365.13H84.5938V368.015H87.4792V365.13Z" fill="#F0F0F0"/>
<path d="M87.4792 369.956H84.5938V372.841H87.4792V369.956Z" fill="#F0F0F0"/>
<path d="M87.4792 374.782H84.5938V377.667H87.4792V374.782Z" fill="#F0F0F0"/>
<path d="M112.897 313.436H110.012V316.321H112.897V313.436Z" fill="#F0F0F0"/>
<path d="M112.897 318.262H110.012V321.147H112.897V318.262Z" fill="#F0F0F0"/>
<path d="M112.897 323.098H110.012V325.984H112.897V323.098Z" fill="#F0F0F0"/>
<path d="M112.897 327.924H110.012V330.809H112.897V327.924Z" fill="#F0F0F0"/>
<path d="M112.897 332.75H110.012V335.635H112.897V332.75Z" fill="#F0F0F0"/>
<path d="M112.897 337.586H110.012V340.471H112.897V337.586Z" fill="#F0F0F0"/>
<path d="M112.897 342.412H110.012V345.298H112.897V342.412Z" fill="#F0F0F0"/>
<path d="M112.897 347.249H110.012V350.134H112.897V347.249Z" fill="#F0F0F0"/>
<path d="M112.897 352.074H110.012V354.96H112.897V352.074Z" fill="#F0F0F0"/>
<path d="M112.897 356.9H110.012V359.786H112.897V356.9Z" fill="#F0F0F0"/>
<path d="M112.897 371.398H110.012V374.284H112.897V371.398Z" fill="#F0F0F0"/>
<path d="M117.471 313.436H114.586V316.321H117.471V313.436Z" fill="#F0F0F0"/>
<path d="M117.471 318.262H114.586V321.147H117.471V318.262Z" fill="#F0F0F0"/>
<path d="M117.471 323.098H114.586V325.984H117.471V323.098Z" fill="#F0F0F0"/>
<path d="M117.471 327.924H114.586V330.809H117.471V327.924Z" fill="#F0F0F0"/>
<path d="M117.471 332.75H114.586V335.635H117.471V332.75Z" fill="#F0F0F0"/>
<path d="M117.471 337.586H114.586V340.471H117.471V337.586Z" fill="#F0F0F0"/>
<path d="M117.471 342.412H114.586V345.298H117.471V342.412Z" fill="#F0F0F0"/>
<path d="M117.471 347.249H114.586V350.134H117.471V347.249Z" fill="#F0F0F0"/>
<path d="M117.471 352.074H114.586V354.96H117.471V352.074Z" fill="#F0F0F0"/>
<path d="M117.471 366.562H114.586V369.448H117.471V366.562Z" fill="#F0F0F0"/>
<path d="M117.471 371.398H114.586V374.284H117.471V371.398Z" fill="#F0F0F0"/>
<path d="M122.053 313.436H119.168V316.321H122.053V313.436Z" fill="#F0F0F0"/>
<path d="M122.053 318.262H119.168V321.147H122.053V318.262Z" fill="#F0F0F0"/>
<path d="M122.053 323.098H119.168V325.984H122.053V323.098Z" fill="#F0F0F0"/>
<path d="M122.053 327.924H119.168V330.809H122.053V327.924Z" fill="#F0F0F0"/>
<path d="M122.053 332.75H119.168V335.635H122.053V332.75Z" fill="#F0F0F0"/>
<path d="M122.053 337.586H119.168V340.471H122.053V337.586Z" fill="#F0F0F0"/>
<path d="M122.053 342.412H119.168V345.298H122.053V342.412Z" fill="#F0F0F0"/>
<path d="M122.053 347.249H119.168V350.134H122.053V347.249Z" fill="#F0F0F0"/>
<path d="M122.053 361.736H119.168V364.622H122.053V361.736Z" fill="#F0F0F0"/>
<path d="M122.053 366.562H119.168V369.448H122.053V366.562Z" fill="#F0F0F0"/>
<path d="M122.053 371.398H119.168V374.284H122.053V371.398Z" fill="#F0F0F0"/>
<path d="M164.592 240.05H161.707V242.936H164.592V240.05Z" fill="#F0F0F0"/>
<path d="M164.592 244.876H161.707V247.761H164.592V244.876Z" fill="#F0F0F0"/>
<path d="M164.592 249.712H161.707V252.598H164.592V249.712Z" fill="#F0F0F0"/>
<path d="M164.592 254.539H161.707V257.424H164.592V254.539Z" fill="#F0F0F0"/>
<path d="M164.592 259.375H161.707V262.26H164.592V259.375Z" fill="#F0F0F0"/>
<path d="M164.592 264.201H161.707V267.086H164.592V264.201Z" fill="#F0F0F0"/>
<path d="M164.592 269.026H161.707V271.912H164.592V269.026Z" fill="#F0F0F0"/>
<path d="M164.592 273.863H161.707V276.748H164.592V273.863Z" fill="#F0F0F0"/>
<path d="M164.592 278.688H161.707V281.574H164.592V278.688Z" fill="#F0F0F0"/>
<path d="M164.592 283.525H161.707V286.41H164.592V283.525Z" fill="#F0F0F0"/>
<path d="M164.592 288.351H161.707V291.237H164.592V288.351Z" fill="#F0F0F0"/>
<path d="M164.592 293.177H161.707V296.062H164.592V293.177Z" fill="#F0F0F0"/>
<path d="M164.592 298.013H161.707V300.899H164.592V298.013Z" fill="#F0F0F0"/>
<path d="M164.592 302.839H161.707V305.724H164.592V302.839Z" fill="#F0F0F0"/>
<path d="M164.592 307.675H161.707V310.561H164.592V307.675Z" fill="#F0F0F0"/>
<path d="M164.592 312.501H161.707V315.386H164.592V312.501Z" fill="#F0F0F0"/>
<path d="M164.592 317.327H161.707V320.213H164.592V317.327Z" fill="#F0F0F0"/>
<path d="M164.592 326.989H161.707V329.875H164.592V326.989Z" fill="#F0F0F0"/>
<path d="M164.592 331.826H161.707V334.711H164.592V331.826Z" fill="#F0F0F0"/>
<path d="M164.592 336.651H161.707V339.537H164.592V336.651Z" fill="#F0F0F0"/>
<path d="M164.592 341.488H161.707V344.373H164.592V341.488Z" fill="#F0F0F0"/>
<path d="M164.592 346.313H161.707V349.199H164.592V346.313Z" fill="#F0F0F0"/>
<path d="M169.163 240.05H166.277V242.936H169.163V240.05Z" fill="#F0F0F0"/>
<path d="M169.163 244.876H166.277V247.761H169.163V244.876Z" fill="#F0F0F0"/>
<path d="M169.163 249.712H166.277V252.598H169.163V249.712Z" fill="#F0F0F0"/>
<path d="M169.163 254.539H166.277V257.424H169.163V254.539Z" fill="#F0F0F0"/>
<path d="M169.163 259.375H166.277V262.26H169.163V259.375Z" fill="#F0F0F0"/>
<path d="M169.163 264.201H166.277V267.086H169.163V264.201Z" fill="#F0F0F0"/>
<path d="M169.163 269.026H166.277V271.912H169.163V269.026Z" fill="#F0F0F0"/>
<path d="M169.163 273.863H166.277V276.748H169.163V273.863Z" fill="#F0F0F0"/>
<path d="M169.163 278.688H166.277V281.574H169.163V278.688Z" fill="#F0F0F0"/>
<path d="M169.163 283.525H166.277V286.41H169.163V283.525Z" fill="#F0F0F0"/>
<path d="M169.163 288.351H166.277V291.237H169.163V288.351Z" fill="#F0F0F0"/>
<path d="M169.163 293.177H166.277V296.062H169.163V293.177Z" fill="#F0F0F0"/>
<path d="M169.163 298.013H166.277V300.899H169.163V298.013Z" fill="#F0F0F0"/>
<path d="M169.163 302.839H166.277V305.724H169.163V302.839Z" fill="#F0F0F0"/>
<path d="M169.163 307.675H166.277V310.561H169.163V307.675Z" fill="#F0F0F0"/>
<path d="M169.163 312.501H166.277V315.386H169.163V312.501Z" fill="#F0F0F0"/>
<path d="M169.163 341.488H166.277V344.373H169.163V341.488Z" fill="#F0F0F0"/>
<path d="M169.163 346.313H166.277V349.199H169.163V346.313Z" fill="#F0F0F0"/>
<path d="M173.737 240.05H170.852V242.936H173.737V240.05Z" fill="#F0F0F0"/>
<path d="M173.737 244.876H170.852V247.761H173.737V244.876Z" fill="#F0F0F0"/>
<path d="M173.737 249.712H170.852V252.598H173.737V249.712Z" fill="#F0F0F0"/>
<path d="M173.737 254.539H170.852V257.424H173.737V254.539Z" fill="#F0F0F0"/>
<path d="M173.737 259.375H170.852V262.26H173.737V259.375Z" fill="#F0F0F0"/>
<path d="M173.737 264.201H170.852V267.086H173.737V264.201Z" fill="#F0F0F0"/>
<path d="M173.737 269.026H170.852V271.912H173.737V269.026Z" fill="#F0F0F0"/>
<path d="M173.737 273.863H170.852V276.748H173.737V273.863Z" fill="#F0F0F0"/>
<path d="M173.737 278.688H170.852V281.574H173.737V278.688Z" fill="#F0F0F0"/>
<path d="M173.737 283.525H170.852V286.41H173.737V283.525Z" fill="#F0F0F0"/>
<path d="M173.737 288.351H170.852V291.237H173.737V288.351Z" fill="#F0F0F0"/>
<path d="M173.737 293.177H170.852V296.062H173.737V293.177Z" fill="#F0F0F0"/>
<path d="M173.737 298.013H170.852V300.899H173.737V298.013Z" fill="#F0F0F0"/>
<path d="M173.737 302.839H170.852V305.724H173.737V302.839Z" fill="#F0F0F0"/>
<path d="M173.737 307.675H170.852V310.561H173.737V307.675Z" fill="#F0F0F0"/>
<path d="M173.737 312.501H170.852V315.386H173.737V312.501Z" fill="#F0F0F0"/>
<path d="M173.737 322.163H170.852V325.049H173.737V322.163Z" fill="#F0F0F0"/>
<path d="M173.737 326.989H170.852V329.875H173.737V326.989Z" fill="#F0F0F0"/>
<path d="M173.737 331.826H170.852V334.711H173.737V331.826Z" fill="#F0F0F0"/>
<path d="M173.737 336.651H170.852V339.537H173.737V336.651Z" fill="#F0F0F0"/>
<path d="M173.737 346.313H170.852V349.199H173.737V346.313Z" fill="#F0F0F0"/>
<path d="M147.979 300.888H145.094V303.774H147.979V300.888Z" fill="#F0F0F0"/>
<path d="M147.979 305.725H145.094V308.61H147.979V305.725Z" fill="#F0F0F0"/>
<path d="M147.979 310.55H145.094V313.436H147.979V310.55Z" fill="#F0F0F0"/>
<path d="M147.979 315.387H145.094V318.272H147.979V315.387Z" fill="#F0F0F0"/>
<path d="M147.979 320.212H145.094V323.098H147.979V320.212Z" fill="#F0F0F0"/>
<path d="M147.979 325.039H145.094V327.924H147.979V325.039Z" fill="#F0F0F0"/>
<path d="M147.979 329.875H145.094V332.76H147.979V329.875Z" fill="#F0F0F0"/>
<path d="M147.979 339.537H145.094V342.423H147.979V339.537Z" fill="#F0F0F0"/>
<path d="M147.979 344.363H145.094V347.248H147.979V344.363Z" fill="#F0F0F0"/>
<path d="M147.979 349.189H145.094V352.074H147.979V349.189Z" fill="#F0F0F0"/>
<path d="M147.979 354.025H145.094V356.91H147.979V354.025Z" fill="#F0F0F0"/>
<path d="M147.979 358.851H145.094V361.737H147.979V358.851Z" fill="#F0F0F0"/>
<path d="M147.979 363.687H145.094V366.572H147.979V363.687Z" fill="#F0F0F0"/>
<path d="M147.979 368.513H145.094V371.399H147.979V368.513Z" fill="#F0F0F0"/>
<path d="M147.979 373.35H145.094V376.235H147.979V373.35Z" fill="#F0F0F0"/>
<path d="M152.553 300.888H149.668V303.774H152.553V300.888Z" fill="#F0F0F0"/>
<path d="M152.553 305.725H149.668V308.61H152.553V305.725Z" fill="#F0F0F0"/>
<path d="M152.553 310.55H149.668V313.436H152.553V310.55Z" fill="#F0F0F0"/>
<path d="M152.553 315.387H149.668V318.272H152.553V315.387Z" fill="#F0F0F0"/>
<path d="M152.553 320.212H149.668V323.098H152.553V320.212Z" fill="#F0F0F0"/>
<path d="M152.553 325.039H149.668V327.924H152.553V325.039Z" fill="#F0F0F0"/>
<path d="M152.553 339.537H149.668V342.423H152.553V339.537Z" fill="#F0F0F0"/>
<path d="M152.553 344.363H149.668V347.248H152.553V344.363Z" fill="#F0F0F0"/>
<path d="M152.553 349.189H149.668V352.074H152.553V349.189Z" fill="#F0F0F0"/>
<path d="M152.553 354.025H149.668V356.91H152.553V354.025Z" fill="#F0F0F0"/>
<path d="M152.553 358.851H149.668V361.737H152.553V358.851Z" fill="#F0F0F0"/>
<path d="M152.553 363.687H149.668V366.572H152.553V363.687Z" fill="#F0F0F0"/>
<path d="M152.553 368.513H149.668V371.399H152.553V368.513Z" fill="#F0F0F0"/>
<path d="M152.553 373.35H149.668V376.235H152.553V373.35Z" fill="#F0F0F0"/>
<path d="M157.135 300.888H154.25V303.774H157.135V300.888Z" fill="#F0F0F0"/>
<path d="M157.135 305.725H154.25V308.61H157.135V305.725Z" fill="#F0F0F0"/>
<path d="M157.135 310.55H154.25V313.436H157.135V310.55Z" fill="#F0F0F0"/>
<path d="M157.135 315.387H154.25V318.272H157.135V315.387Z" fill="#F0F0F0"/>
<path d="M157.135 320.212H154.25V323.098H157.135V320.212Z" fill="#F0F0F0"/>
<path d="M157.135 325.039H154.25V327.924H157.135V325.039Z" fill="#F0F0F0"/>
<path d="M157.135 334.701H154.25V337.586H157.135V334.701Z" fill="#F0F0F0"/>
<path d="M157.135 339.537H154.25V342.423H157.135V339.537Z" fill="#F0F0F0"/>
<path d="M157.135 344.363H154.25V347.248H157.135V344.363Z" fill="#F0F0F0"/>
<path d="M157.135 349.189H154.25V352.074H157.135V349.189Z" fill="#F0F0F0"/>
<path d="M157.135 354.025H154.25V356.91H157.135V354.025Z" fill="#F0F0F0"/>
<path d="M157.135 358.851H154.25V361.737H157.135V358.851Z" fill="#F0F0F0"/>
<path d="M157.135 363.687H154.25V366.572H157.135V363.687Z" fill="#F0F0F0"/>
<path d="M157.135 368.513H154.25V371.399H157.135V368.513Z" fill="#F0F0F0"/>
<path d="M157.135 373.35H154.25V376.235H157.135V373.35Z" fill="#F0F0F0"/>
<path d="M253.561 273.863H250.676V276.748H253.561V273.863Z" fill="#F0F0F0"/>
<path d="M253.561 278.688H250.676V281.574H253.561V278.688Z" fill="#F0F0F0"/>
<path d="M253.561 283.525H250.676V286.41H253.561V283.525Z" fill="#F0F0F0"/>
<path d="M253.561 288.351H250.676V291.237H253.561V288.351Z" fill="#F0F0F0"/>
<path d="M253.561 293.177H250.676V296.062H253.561V293.177Z" fill="#F0F0F0"/>
<path d="M253.561 298.013H250.676V300.899H253.561V298.013Z" fill="#F0F0F0"/>
<path d="M253.561 302.839H250.676V305.724H253.561V302.839Z" fill="#F0F0F0"/>
<path d="M253.561 307.675H250.676V310.561H253.561V307.675Z" fill="#F0F0F0"/>
<path d="M253.561 312.501H250.676V315.386H253.561V312.501Z" fill="#F0F0F0"/>
<path d="M253.561 317.327H250.676V320.213H253.561V317.327Z" fill="#F0F0F0"/>
<path d="M253.561 322.163H250.676V325.049H253.561V322.163Z" fill="#F0F0F0"/>
<path d="M253.561 326.989H250.676V329.875H253.561V326.989Z" fill="#F0F0F0"/>
<path d="M253.561 331.826H250.676V334.711H253.561V331.826Z" fill="#F0F0F0"/>
<path d="M253.561 341.488H250.676V344.373H253.561V341.488Z" fill="#F0F0F0"/>
<path d="M253.561 346.313H250.676V349.199H253.561V346.313Z" fill="#F0F0F0"/>
<path d="M253.561 351.14H250.676V354.025H253.561V351.14Z" fill="#F0F0F0"/>
<path d="M253.561 355.976H250.676V358.861H253.561V355.976Z" fill="#F0F0F0"/>
<path d="M253.561 365.638H250.676V368.524H253.561V365.638Z" fill="#F0F0F0"/>
<path d="M253.561 370.464H250.676V373.349H253.561V370.464Z" fill="#F0F0F0"/>
<path d="M253.561 375.29H250.676V378.175H253.561V375.29Z" fill="#F0F0F0"/>
<path d="M258.147 273.863H255.262V276.748H258.147V273.863Z" fill="#F0F0F0"/>
<path d="M258.147 278.688H255.262V281.574H258.147V278.688Z" fill="#F0F0F0"/>
<path d="M258.147 283.525H255.262V286.41H258.147V283.525Z" fill="#F0F0F0"/>
<path d="M258.147 288.351H255.262V291.237H258.147V288.351Z" fill="#F0F0F0"/>
<path d="M258.147 293.177H255.262V296.062H258.147V293.177Z" fill="#F0F0F0"/>
<path d="M258.147 298.013H255.262V300.899H258.147V298.013Z" fill="#F0F0F0"/>
<path d="M258.147 302.839H255.262V305.724H258.147V302.839Z" fill="#F0F0F0"/>
<path d="M258.147 307.675H255.262V310.561H258.147V307.675Z" fill="#F0F0F0"/>
<path d="M258.147 312.501H255.262V315.386H258.147V312.501Z" fill="#F0F0F0"/>
<path d="M258.147 317.327H255.262V320.213H258.147V317.327Z" fill="#F0F0F0"/>
<path d="M258.147 322.163H255.262V325.049H258.147V322.163Z" fill="#F0F0F0"/>
<path d="M258.147 326.989H255.262V329.875H258.147V326.989Z" fill="#F0F0F0"/>
<path d="M258.147 331.826H255.262V334.711H258.147V331.826Z" fill="#F0F0F0"/>
<path d="M258.147 346.313H255.262V349.199H258.147V346.313Z" fill="#F0F0F0"/>
<path d="M258.147 351.14H255.262V354.025H258.147V351.14Z" fill="#F0F0F0"/>
<path d="M258.147 360.802H255.262V363.687H258.147V360.802Z" fill="#F0F0F0"/>
<path d="M258.147 365.638H255.262V368.524H258.147V365.638Z" fill="#F0F0F0"/>
<path d="M258.147 370.464H255.262V373.349H258.147V370.464Z" fill="#F0F0F0"/>
<path d="M258.147 375.29H255.262V378.175H258.147V375.29Z" fill="#F0F0F0"/>
<path d="M262.717 273.863H259.832V276.748H262.717V273.863Z" fill="#F0F0F0"/>
<path d="M262.717 278.688H259.832V281.574H262.717V278.688Z" fill="#F0F0F0"/>
<path d="M262.717 283.525H259.832V286.41H262.717V283.525Z" fill="#F0F0F0"/>
<path d="M262.717 288.351H259.832V291.237H262.717V288.351Z" fill="#F0F0F0"/>
<path d="M262.717 293.177H259.832V296.062H262.717V293.177Z" fill="#F0F0F0"/>
<path d="M262.717 298.013H259.832V300.899H262.717V298.013Z" fill="#F0F0F0"/>
<path d="M262.717 302.839H259.832V305.724H262.717V302.839Z" fill="#F0F0F0"/>
<path d="M262.717 307.675H259.832V310.561H262.717V307.675Z" fill="#F0F0F0"/>
<path d="M262.717 312.501H259.832V315.386H262.717V312.501Z" fill="#F0F0F0"/>
<path d="M262.717 317.327H259.832V320.213H262.717V317.327Z" fill="#F0F0F0"/>
<path d="M262.717 322.163H259.832V325.049H262.717V322.163Z" fill="#F0F0F0"/>
<path d="M262.717 326.989H259.832V329.875H262.717V326.989Z" fill="#F0F0F0"/>
<path d="M262.717 331.826H259.832V334.711H262.717V331.826Z" fill="#F0F0F0"/>
<path d="M262.717 336.651H259.832V339.537H262.717V336.651Z" fill="#F0F0F0"/>
<path d="M262.717 346.313H259.832V349.199H262.717V346.313Z" fill="#F0F0F0"/>
<path d="M262.717 355.976H259.832V358.861H262.717V355.976Z" fill="#F0F0F0"/>
<path d="M262.717 360.802H259.832V363.687H262.717V360.802Z" fill="#F0F0F0"/>
<path d="M262.717 365.638H259.832V368.524H262.717V365.638Z" fill="#F0F0F0"/>
<path d="M262.717 370.464H259.832V373.349H262.717V370.464Z" fill="#F0F0F0"/>
<path d="M262.717 375.29H259.832V378.175H262.717V375.29Z" fill="#F0F0F0"/>
<path d="M234.921 301.396H232.035V304.282H234.921V301.396Z" fill="#F0F0F0"/>
<path d="M234.921 306.232H232.035V309.118H234.921V306.232Z" fill="#F0F0F0"/>
<path d="M234.921 311.059H232.035V313.944H234.921V311.059Z" fill="#F0F0F0"/>
<path d="M234.921 315.895H232.035V318.78H234.921V315.895Z" fill="#F0F0F0"/>
<path d="M234.921 320.721H232.035V323.606H234.921V320.721Z" fill="#F0F0F0"/>
<path d="M234.921 325.557H232.035V328.442H234.921V325.557Z" fill="#F0F0F0"/>
<path d="M234.921 340.045H232.035V342.93H234.921V340.045Z" fill="#F0F0F0"/>
<path d="M234.921 344.871H232.035V347.757H234.921V344.871Z" fill="#F0F0F0"/>
<path d="M234.921 349.707H232.035V352.592H234.921V349.707Z" fill="#F0F0F0"/>
<path d="M234.921 354.533H232.035V357.419H234.921V354.533Z" fill="#F0F0F0"/>
<path d="M234.921 359.359H232.035V362.244H234.921V359.359Z" fill="#F0F0F0"/>
<path d="M234.921 364.195H232.035V367.081H234.921V364.195Z" fill="#F0F0F0"/>
<path d="M234.921 369.021H232.035V371.907H234.921V369.021Z" fill="#F0F0F0"/>
<path d="M239.503 301.396H236.617V304.282H239.503V301.396Z" fill="#F0F0F0"/>
<path d="M239.503 306.232H236.617V309.118H239.503V306.232Z" fill="#F0F0F0"/>
<path d="M239.503 311.059H236.617V313.944H239.503V311.059Z" fill="#F0F0F0"/>
<path d="M239.503 315.895H236.617V318.78H239.503V315.895Z" fill="#F0F0F0"/>
<path d="M239.503 320.721H236.617V323.606H239.503V320.721Z" fill="#F0F0F0"/>
<path d="M239.503 325.557H236.617V328.442H239.503V325.557Z" fill="#F0F0F0"/>
<path d="M239.503 340.045H236.617V342.93H239.503V340.045Z" fill="#F0F0F0"/>
<path d="M239.503 344.871H236.617V347.757H239.503V344.871Z" fill="#F0F0F0"/>
<path d="M239.503 349.707H236.617V352.592H239.503V349.707Z" fill="#F0F0F0"/>
<path d="M239.503 354.533H236.617V357.419H239.503V354.533Z" fill="#F0F0F0"/>
<path d="M239.503 359.359H236.617V362.244H239.503V359.359Z" fill="#F0F0F0"/>
<path d="M239.503 364.195H236.617V367.081H239.503V364.195Z" fill="#F0F0F0"/>
<path d="M239.503 373.857H236.617V376.743H239.503V373.857Z" fill="#F0F0F0"/>
<path d="M391.514 280.131H388.629V283.017H391.514V280.131Z" fill="#F0F0F0"/>
<path d="M391.514 284.958H388.629V287.843H391.514V284.958Z" fill="#F0F0F0"/>
<path d="M391.514 289.793H388.629V292.679H391.514V289.793Z" fill="#F0F0F0"/>
<path d="M391.514 294.62H388.629V297.505H391.514V294.62Z" fill="#F0F0F0"/>
<path d="M391.514 299.456H388.629V302.341H391.514V299.456Z" fill="#F0F0F0"/>
<path d="M391.514 304.282H388.629V307.167H391.514V304.282Z" fill="#F0F0F0"/>
<path d="M391.514 309.108H388.629V311.993H391.514V309.108Z" fill="#F0F0F0"/>
<path d="M391.514 313.944H388.629V316.829H391.514V313.944Z" fill="#F0F0F0"/>
<path d="M391.514 318.77H388.629V321.655H391.514V318.77Z" fill="#F0F0F0"/>
<path d="M391.514 323.606H388.629V326.491H391.514V323.606Z" fill="#F0F0F0"/>
<path d="M391.514 328.432H388.629V331.318H391.514V328.432Z" fill="#F0F0F0"/>
<path d="M391.514 338.094H388.629V340.98H391.514V338.094Z" fill="#F0F0F0"/>
<path d="M391.514 342.92H388.629V345.806H391.514V342.92Z" fill="#F0F0F0"/>
<path d="M391.514 347.756H388.629V350.642H391.514V347.756Z" fill="#F0F0F0"/>
<path d="M391.514 352.583H388.629V355.468H391.514V352.583Z" fill="#F0F0F0"/>
<path d="M391.514 357.418H388.629V360.304H391.514V357.418Z" fill="#F0F0F0"/>
<path d="M391.514 362.245H388.629V365.13H391.514V362.245Z" fill="#F0F0F0"/>
<path d="M391.514 367.07H388.629V369.956H391.514V367.07Z" fill="#F0F0F0"/>
<path d="M391.514 371.907H388.629V374.792H391.514V371.907Z" fill="#F0F0F0"/>
<path d="M396.096 280.131H393.211V283.017H396.096V280.131Z" fill="#F0F0F0"/>
<path d="M396.096 284.958H393.211V287.843H396.096V284.958Z" fill="#F0F0F0"/>
<path d="M396.096 289.793H393.211V292.679H396.096V289.793Z" fill="#F0F0F0"/>
<path d="M396.096 294.62H393.211V297.505H396.096V294.62Z" fill="#F0F0F0"/>
<path d="M396.096 299.456H393.211V302.341H396.096V299.456Z" fill="#F0F0F0"/>
<path d="M396.096 304.282H393.211V307.167H396.096V304.282Z" fill="#F0F0F0"/>
<path d="M396.096 309.108H393.211V311.993H396.096V309.108Z" fill="#F0F0F0"/>
<path d="M396.096 313.944H393.211V316.829H396.096V313.944Z" fill="#F0F0F0"/>
<path d="M396.096 318.77H393.211V321.655H396.096V318.77Z" fill="#F0F0F0"/>
<path d="M396.096 323.606H393.211V326.491H396.096V323.606Z" fill="#F0F0F0"/>
<path d="M396.096 328.432H393.211V331.318H396.096V328.432Z" fill="#F0F0F0"/>
<path d="M396.096 333.258H393.211V336.143H396.096V333.258Z" fill="#F0F0F0"/>
<path d="M396.096 338.094H393.211V340.98H396.096V338.094Z" fill="#F0F0F0"/>
<path d="M396.096 342.92H393.211V345.806H396.096V342.92Z" fill="#F0F0F0"/>
<path d="M396.096 347.756H393.211V350.642H396.096V347.756Z" fill="#F0F0F0"/>
<path d="M396.096 352.583H393.211V355.468H396.096V352.583Z" fill="#F0F0F0"/>
<path d="M396.096 357.418H393.211V360.304H396.096V357.418Z" fill="#F0F0F0"/>
<path d="M396.096 362.245H393.211V365.13H396.096V362.245Z" fill="#F0F0F0"/>
<path d="M396.096 367.07H393.211V369.956H396.096V367.07Z" fill="#F0F0F0"/>
<path d="M396.096 371.907H393.211V374.792H396.096V371.907Z" fill="#F0F0F0"/>
<path d="M368.979 298.948H366.094V301.833H368.979V298.948Z" fill="#F0F0F0"/>
<path d="M368.979 303.774H366.094V306.659H368.979V303.774Z" fill="#F0F0F0"/>
<path d="M368.979 308.6H366.094V311.485H368.979V308.6Z" fill="#F0F0F0"/>
<path d="M368.979 313.436H366.094V316.321H368.979V313.436Z" fill="#F0F0F0"/>
<path d="M368.979 318.262H366.094V321.147H368.979V318.262Z" fill="#F0F0F0"/>
<path d="M368.979 323.098H366.094V325.984H368.979V323.098Z" fill="#F0F0F0"/>
<path d="M368.979 327.924H366.094V330.809H368.979V327.924Z" fill="#F0F0F0"/>
<path d="M368.979 332.75H366.094V335.635H368.979V332.75Z" fill="#F0F0F0"/>
<path d="M368.979 337.586H366.094V340.471H368.979V337.586Z" fill="#F0F0F0"/>
<path d="M368.979 342.412H366.094V345.298H368.979V342.412Z" fill="#F0F0F0"/>
<path d="M373.553 298.948H370.668V301.833H373.553V298.948Z" fill="#F0F0F0"/>
<path d="M373.553 303.774H370.668V306.659H373.553V303.774Z" fill="#F0F0F0"/>
<path d="M373.553 308.6H370.668V311.485H373.553V308.6Z" fill="#F0F0F0"/>
<path d="M373.553 313.436H370.668V316.321H373.553V313.436Z" fill="#F0F0F0"/>
<path d="M373.553 318.262H370.668V321.147H373.553V318.262Z" fill="#F0F0F0"/>
<path d="M373.553 323.098H370.668V325.984H373.553V323.098Z" fill="#F0F0F0"/>
<path d="M373.553 327.924H370.668V330.809H373.553V327.924Z" fill="#F0F0F0"/>
<path d="M373.553 332.75H370.668V335.635H373.553V332.75Z" fill="#F0F0F0"/>
<path d="M373.553 337.586H370.668V340.471H373.553V337.586Z" fill="#F0F0F0"/>
<path d="M149.495 183.418C149.5 182.02 149.176 180.641 148.551 179.39C147.925 178.14 147.015 177.054 145.893 176.22C144.771 175.386 143.469 174.827 142.092 174.588C140.715 174.348 139.301 174.436 137.963 174.843C138.36 172.148 138.172 169.399 137.411 166.784C136.65 164.168 135.334 161.747 133.554 159.686C131.773 157.624 129.569 155.971 127.091 154.838C124.614 153.705 121.922 153.12 119.198 153.121C118.025 153.12 116.855 153.229 115.703 153.446C113.833 150.373 111.014 147.992 107.673 146.661C104.331 145.33 100.647 145.122 97.1765 146.068C93.7061 147.014 90.6375 149.063 88.4336 151.906C86.2297 154.749 85.01 158.231 84.9585 161.828H84.6842C80.6301 161.828 76.7421 163.439 73.8755 166.305C71.0089 169.172 69.3984 173.06 69.3984 177.114C69.3984 181.168 71.0089 185.056 73.8755 187.922C76.7421 190.789 80.6301 192.4 84.6842 192.4H140.798C143.133 192.333 145.349 191.357 146.974 189.679C148.599 188.001 149.504 185.754 149.495 183.418Z" fill="#F0F0F0"/>
<path d="M222.371 167.315C222.371 165.798 222.974 164.343 224.046 163.27C225.119 162.198 226.574 161.595 228.091 161.595C228.648 161.595 229.202 161.674 229.737 161.829C229.647 161.25 229.603 160.666 229.605 160.081C229.605 156.869 230.881 153.789 233.152 151.517C235.423 149.246 238.504 147.97 241.716 147.97C242.465 147.971 243.214 148.039 243.951 148.173C245.145 146.212 246.945 144.691 249.079 143.842C251.212 142.992 253.565 142.86 255.78 143.464C257.996 144.068 259.955 145.377 261.362 147.192C262.769 149.008 263.548 151.231 263.58 153.528H263.753C266.286 153.61 268.689 154.674 270.452 156.495C272.216 158.316 273.202 160.752 273.202 163.286C273.202 165.821 272.216 168.257 270.452 170.078C268.689 171.899 266.286 172.963 263.753 173.045H227.929C226.438 173.003 225.023 172.38 223.985 171.31C222.947 170.239 222.368 168.806 222.371 167.315Z" fill="#F0F0F0"/>
<path d="M388.426 181.549C388.426 180.032 389.028 178.577 390.101 177.504C391.174 176.431 392.629 175.829 394.146 175.829C394.704 175.826 395.259 175.909 395.792 176.073C395.707 175.49 395.663 174.903 395.66 174.315C395.66 171.103 396.936 168.023 399.207 165.751C401.478 163.48 404.558 162.204 407.77 162.204C408.52 162.204 409.268 162.272 410.006 162.407C411.2 160.445 412.999 158.925 415.133 158.076C417.267 157.226 419.619 157.093 421.835 157.698C424.051 158.302 426.01 159.611 427.417 161.426C428.824 163.242 429.602 165.465 429.635 167.762H429.767C431.075 167.719 432.378 167.941 433.599 168.412C434.82 168.884 435.933 169.596 436.874 170.506C437.814 171.416 438.561 172.506 439.072 173.711C439.582 174.916 439.846 176.212 439.846 177.52C439.846 178.829 439.582 180.124 439.072 181.329C438.561 182.534 437.814 183.625 436.874 184.535C435.933 185.445 434.82 186.157 433.599 186.629C432.378 187.1 431.075 187.321 429.767 187.279H393.983C392.493 187.237 391.078 186.614 390.04 185.544C389.002 184.473 388.423 183.04 388.426 181.549Z" fill="#F0F0F0"/>
<path d="M160.445 110.195C160.444 109.734 160.534 109.278 160.709 108.852C160.885 108.426 161.143 108.039 161.469 107.714C161.795 107.388 162.182 107.13 162.608 106.954C163.033 106.778 163.49 106.689 163.951 106.69C164.295 106.688 164.638 106.74 164.967 106.842C164.914 106.486 164.887 106.126 164.885 105.765C164.885 103.798 165.667 101.912 167.058 100.521C168.449 99.13 170.335 98.3486 172.302 98.3486C172.762 98.3479 173.221 98.3887 173.674 98.4705C174.405 97.2687 175.507 96.3374 176.814 95.8171C178.121 95.2968 179.562 95.2158 180.919 95.5863C182.276 95.9568 183.476 96.7588 184.337 97.871C185.198 98.9833 185.674 100.346 185.693 101.752H185.805C187.348 101.816 188.807 102.474 189.876 103.588C190.945 104.702 191.542 106.187 191.542 107.731C191.542 109.276 190.945 110.76 189.876 111.875C188.807 112.989 187.348 113.647 185.805 113.71H163.859C162.943 113.689 162.072 113.309 161.433 112.651C160.794 111.994 160.44 111.112 160.445 110.195Z" fill="#F0F0F0"/>
<path d="M309.746 112.776C309.746 111.846 310.115 110.955 310.773 110.297C311.43 109.64 312.322 109.271 313.251 109.271C313.595 109.27 313.937 109.318 314.267 109.413C314.109 108.358 314.181 107.281 314.478 106.257C314.775 105.232 315.29 104.284 315.987 103.477C316.685 102.67 317.549 102.024 318.52 101.582C319.491 101.141 320.546 100.915 321.613 100.919C322.07 100.922 322.526 100.966 322.974 101.051C323.703 99.8452 324.805 98.9096 326.113 98.3858C327.421 97.8621 328.864 97.7788 330.223 98.1486C331.583 98.5183 332.785 99.321 333.648 100.435C334.51 101.549 334.986 102.914 335.004 104.323H335.105C336.69 104.323 338.209 104.952 339.33 106.072C340.45 107.193 341.08 108.712 341.08 110.297C341.08 111.881 340.45 113.401 339.33 114.521C338.209 115.641 336.69 116.271 335.105 116.271H313.16C312.247 116.25 311.379 115.872 310.741 115.219C310.103 114.566 309.746 113.689 309.746 112.776Z" fill="#F0F0F0"/>
<path d="M254 434.401C362.796 434.401 450.992 429.252 450.992 422.9C450.992 416.548 362.796 411.399 254 411.399C145.204 411.399 57.0078 416.548 57.0078 422.9C57.0078 429.252 145.204 434.401 254 434.401Z" fill="#F5F5F5"/>
<path d="M86.5842 232.888H74.4531V407.934H86.5842V232.888Z" fill="#0BB0CF"/>
<path d="M109.92 269.982H97.7891V407.934H109.92V269.982Z" fill="#0BB0CF"/>
<path d="M133.26 298.928H121.129V407.934H133.26V298.928Z" fill="#0BB0CF"/>
<path d="M156.596 324.562H144.465V407.934H156.596V324.562Z" fill="#0BB0CF"/>
<path d="M179.924 346.984H167.793V407.944H179.924V346.984Z" fill="#0BB0CF"/>
<path d="M203.26 363.2H191.129V407.934H203.26V363.2Z" fill="#0BB0CF"/>
<path d="M226.6 376.53H214.469V407.934H226.6V376.53Z" fill="#0BB0CF"/>
<g opacity="0.7">
<path d="M86.5842 232.888H74.4531V407.934H86.5842V232.888Z" fill="white"/>
<path d="M109.92 269.982H97.7891V407.934H109.92V269.982Z" fill="white"/>
<path d="M133.26 298.928H121.129V407.934H133.26V298.928Z" fill="white"/>
<path d="M156.596 324.562H144.465V407.934H156.596V324.562Z" fill="white"/>
<path d="M179.924 346.984H167.793V407.944H179.924V346.984Z" fill="white"/>
<path d="M203.26 363.2H191.129V407.934H203.26V363.2Z" fill="white"/>
<path d="M226.6 376.53H214.469V407.934H226.6V376.53Z" fill="white"/>
</g>
<path d="M72.765 185.521L70.3164 199.227L84.0121 193.741L72.765 185.521Z" fill="#0BB0CF"/>
<path d="M243.838 381.843C179.718 351.262 136.66 302.687 111.819 267.33C84.9357 229.027 73.333 198.374 72.8555 197.104L80.4653 194.259C80.5771 194.564 92.2712 225.39 118.626 262.88C142.888 297.363 184.91 344.729 247.343 374.508L243.838 381.843Z" fill="#0BB0CF"/>
<path d="M364.094 411.866C364.094 411.866 355.966 396.098 357.998 394.594C360.03 393.09 364.094 407.802 364.094 406.623C364.094 405.445 363.86 385.43 367.599 386.222C371.338 387.015 367.599 405.475 367.599 405.475C367.599 405.475 372.618 396.047 374.589 396.758C376.56 397.469 368.808 408.645 368.808 408.645C368.808 408.645 373.451 405.841 374.62 406.054C375.788 406.268 368.808 411.866 368.808 411.866H364.094Z" fill="#38A169"/>
<path d="M145.958 416.285C145.958 416.285 154.086 400.527 152.054 399.013C150.022 397.5 146.019 412.221 145.958 411.033C145.897 409.844 146.191 389.849 142.453 390.642C138.714 391.434 142.453 409.946 142.453 409.946C142.453 409.946 135.473 396.616 133.613 400.019C132.008 402.966 141.264 413.156 141.264 413.156C141.264 413.156 132.059 406.918 132.008 409.661C131.957 412.608 141.264 416.367 141.264 416.367L145.958 416.285Z" fill="#38A169"/>
<path d="M269.828 403.027C269.828 403.027 262.157 393.486 265.103 392.613C268.05 391.739 270.072 399.674 270.59 398.627C271.108 397.581 270.773 387.096 275.67 388.671C280.567 390.245 273.841 399.186 273.841 399.186C273.841 399.186 278.271 395.803 279.46 396.667C280.648 397.53 274.146 403.779 274.146 403.779L269.828 403.027Z" fill="#38A169"/>
<path d="M199.604 391.312C199.604 391.312 204.786 380.228 201.718 380.075C198.649 379.923 197.654 388.508 197.654 388.508C197.654 388.508 195.927 377.007 191.334 378.602C186.468 380.289 194.85 389.351 194.85 389.351C194.85 389.351 186.803 384.271 186.275 387.075C185.614 390.53 196.668 392.592 196.668 392.592L199.604 391.312Z" fill="#38A169"/>
<path d="M118.395 423.58H392.054L380.807 411.398L299.283 402.813H270.774L250.18 386.13L196.698 390.489L152.776 406.948L143.744 415.279H129.713L118.395 423.58Z" fill="#263238"/>
<path opacity="0.5" d="M118.395 423.58H392.054L380.807 411.398L299.283 402.813H270.774L250.18 386.13L196.698 390.489L152.776 406.948L143.744 415.279H129.713L118.395 423.58Z" fill="white"/>
<path opacity="0.2" d="M143.742 415.279L172.546 420.187H188.141L170.463 417.129L152.774 406.948L143.742 415.279Z" fill="black"/>
<path opacity="0.2" d="M270.774 402.813H255.229L230.215 411.723L243.077 399.013L261.66 395.437L270.774 402.813Z" fill="black"/>
<path opacity="0.2" d="M380.805 411.398L351.331 420.187L325.738 413.573L348.517 423.58H392.053L380.805 411.398Z" fill="black"/>
<path d="M240.388 392.766L233.266 390.754L235.907 373.706L243.019 375.717L240.388 392.766Z" fill="#E4897B"/>
<path d="M233.113 384.79H242.125C242.271 384.786 242.414 384.834 242.529 384.925C242.644 385.016 242.724 385.144 242.755 385.288L244.289 391.861C244.324 392.021 244.323 392.187 244.285 392.347C244.247 392.506 244.173 392.655 244.07 392.782C243.966 392.909 243.835 393.011 243.687 393.08C243.538 393.149 243.376 393.184 243.212 393.182C240.316 393.131 238.193 392.958 234.545 392.958C232.3 392.958 225.523 393.192 222.414 393.192C219.305 393.192 218.879 390.144 220.149 389.849C225.828 388.6 230.106 386.883 231.914 385.237C232.244 384.943 232.671 384.784 233.113 384.79Z" fill="#263238"/>
<path d="M355.226 412.527L347.992 414.051L342.414 397.724L349.648 396.21L355.226 412.527Z" fill="#E4897B"/>
<path d="M291.887 251.247C291.887 251.247 258.064 288.544 248.971 303.256C239.878 317.968 231.902 380.371 231.902 380.371L245.354 383.622C245.354 383.622 261.001 322.814 265.166 316.718C269.332 310.622 313.579 269.352 313.579 269.352L291.887 251.247Z" fill="#263238"/>
<path opacity="0.1" d="M313.579 269.352L309.189 273.416C305.532 276.86 299.964 282.093 294 287.792C281.585 299.619 267.442 313.355 265.166 316.677C261.001 322.773 245.354 383.591 245.354 383.591L231.902 380.33C231.902 380.33 239.847 317.968 248.981 303.225C258.115 288.483 291.887 251.216 291.887 251.216L313.579 269.352Z" fill="white"/>
<path opacity="0.2" d="M309.189 273.456C305.532 276.901 299.964 282.133 294 287.833C297.952 277.114 307.503 270.175 307.503 270.175L309.189 273.456Z" fill="black"/>
<path d="M303.652 253.919C303.652 253.919 312.339 317.338 316.535 338.623C321.128 361.93 341.58 405.181 341.58 405.181L354.788 402.397C354.788 402.397 340.858 362.418 337.77 339.019C334.325 312.847 329.154 253.675 329.154 253.675L303.652 253.919Z" fill="#263238"/>
<g opacity="0.1">
<path d="M303.652 253.919C303.652 253.919 312.339 317.338 316.535 338.623C321.128 361.93 341.58 405.181 341.58 405.181L354.788 402.397C354.788 402.397 340.858 362.418 337.77 339.019C334.325 312.847 329.154 253.675 329.154 253.675L303.652 253.919Z" fill="white"/>
</g>
<path d="M252.142 174.64L251.562 167.122L259.355 170.17C259.355 170.17 259.467 176.906 255.992 176.815L252.142 174.64Z" fill="#E4897B"/>
<path d="M254.59 162.784L261.956 163.251L259.355 170.14L251.562 167.122L254.59 162.784Z" fill="#E4897B"/>
<path d="M251.879 175.961L252.082 173.878L258.381 175.169L257.883 177.353L251.879 175.961Z" fill="#38A169"/>
<path opacity="0.7" d="M251.879 175.961L252.082 173.878L258.381 175.169L257.883 177.353L251.879 175.961Z" fill="white"/>
<path d="M281.92 164.795H265.614C265.035 164.795 264.598 166.045 264.598 167.579C264.598 169.113 265.065 170.353 265.614 170.353H281.92C282.489 170.353 282.936 169.113 282.936 167.579C282.936 166.045 282.449 164.795 281.92 164.795Z" fill="#BE8E89"/>
<path opacity="0.4" d="M281.92 164.795H265.614C265.035 164.795 264.598 166.045 264.598 167.579C264.598 169.113 265.065 170.353 265.614 170.353H281.92C282.489 170.353 282.936 169.113 282.936 167.579C282.936 166.045 282.449 164.795 281.92 164.795Z" fill="#BE8E89"/>
<path d="M265.373 164.033H245.875C245.144 164.033 244.555 165.618 244.555 167.579C244.555 169.54 245.144 171.115 245.875 171.115H265.332C266.063 171.115 266.663 169.53 266.663 167.579C266.663 165.628 266.104 164.033 265.373 164.033Z" fill="#BE8E89"/>
<path opacity="0.2" d="M265.373 164.033H245.875C245.144 164.033 244.555 165.618 244.555 167.579C244.555 169.54 245.144 171.115 245.875 171.115H265.332C266.063 171.115 266.663 169.53 266.663 167.579C266.663 165.628 266.104 164.033 265.373 164.033Z" fill="#BE8E89"/>
<path d="M246.189 163.322H225.869C224.985 163.322 224.273 165.222 224.273 167.579C224.273 169.936 224.985 171.826 225.869 171.826H246.189C247.062 171.826 247.784 169.926 247.784 167.579C247.784 165.232 247.062 163.322 246.189 163.322Z" fill="#BE8E89"/>
<path opacity="0.4" d="M246.189 163.322H225.869C224.985 163.322 224.273 165.222 224.273 167.579C224.273 169.936 224.985 171.826 225.869 171.826H246.189C247.062 171.826 247.784 169.926 247.784 167.579C247.784 165.232 247.062 163.322 246.189 163.322Z" fill="#BE8E89"/>
<path opacity="0.2" d="M227.452 167.579C227.452 169.926 226.741 171.826 225.857 171.826C224.973 171.826 224.262 169.926 224.262 167.579C224.262 165.232 224.973 163.322 225.857 163.322C226.741 163.322 227.452 165.222 227.452 167.579Z" fill="white"/>
<path d="M225.86 171.349C225.464 171.349 224.742 169.916 224.742 167.579C224.742 165.243 225.464 163.8 225.86 163.8C226.256 163.8 226.967 165.232 226.967 167.579C226.967 169.926 226.256 171.349 225.86 171.349Z" fill="black"/>
<path d="M345.359 406.674H354.371C354.519 406.675 354.663 406.725 354.779 406.817C354.895 406.91 354.977 407.038 355.011 407.182L356.535 413.756C356.57 413.915 356.569 414.079 356.532 414.237C356.494 414.396 356.422 414.543 356.319 414.67C356.216 414.796 356.086 414.897 355.939 414.966C355.792 415.034 355.631 415.069 355.468 415.067C352.562 415.067 350.449 414.853 346.792 414.853C344.546 414.853 337.769 415.087 334.66 415.087C331.552 415.087 331.125 412.039 332.395 411.734C338.074 410.495 342.352 408.777 344.16 407.132C344.489 406.835 344.916 406.672 345.359 406.674Z" fill="#263238"/>
<path d="M279.048 193.467C279.048 193.467 275.045 194.483 270.798 195.083C268.665 195.387 266.551 195.682 264.509 195.895C263.493 195.997 262.477 196.058 261.573 196.109H261.034C260.781 195.389 260.564 194.656 260.384 193.914C259.907 191.984 259.51 189.85 259.165 187.757C258.484 183.521 258.281 176.307 258.281 176.307L251.738 174.752C251.112 179.298 250.796 183.88 250.793 188.468C250.789 190.844 250.918 193.219 251.179 195.58C251.327 196.896 251.568 198.2 251.901 199.482C252.104 200.285 252.383 201.068 252.734 201.819C252.977 202.335 253.266 202.828 253.597 203.292C254.119 204.017 254.77 204.641 255.517 205.131C255.783 205.296 256.058 205.445 256.34 205.578C256.672 205.712 257.011 205.828 257.356 205.923L258.057 206.096C258.535 206.208 258.901 206.259 259.307 206.32C260.059 206.421 260.76 206.482 261.42 206.523C262.731 206.604 263.971 206.594 265.169 206.523C267.577 206.523 269.894 206.299 272.19 206.066C276.793 205.608 281.232 204.928 285.764 204.034L279.048 193.467Z" fill="#263238"/>
<path d="M321.373 191.059C321.174 198.796 321.572 206.537 322.562 214.214C323.233 219.934 324.106 225.39 325.021 230.266C327.154 241.788 329.471 250.444 329.847 253.472L290.223 259.283C274.454 217.109 279.951 193.304 279.951 193.304C283.02 192.256 286.152 191.401 289.329 190.744C289.999 190.602 290.68 190.48 291.361 190.368C296.951 189.634 302.579 189.223 308.216 189.139C309.232 189.139 310.339 189.139 311.376 189.139C314.788 189.257 318.16 189.904 321.373 191.059Z" fill="#0BB0CF"/>
<path opacity="0.7" d="M321.373 191.059C321.174 198.796 321.572 206.537 322.562 214.214C323.233 219.934 324.106 225.39 325.021 230.266C327.154 241.788 329.471 250.444 329.847 253.472L290.223 259.283C274.454 217.109 279.951 193.304 279.951 193.304C283.02 192.256 286.152 191.401 289.329 190.744C289.999 190.602 290.68 190.48 291.361 190.368C296.951 189.634 302.579 189.223 308.216 189.139C309.232 189.139 310.339 189.139 311.376 189.139C314.788 189.257 318.16 189.904 321.373 191.059Z" fill="white"/>
<path d="M294.895 199.939C294.397 202.987 292.863 210.902 292.863 218.684C293.595 220.188 294.58 223.866 295.464 225.359C296.114 223.663 297.242 220.158 298.014 218.44C297.334 211.044 295.982 203.627 296.419 199.746L294.895 199.939Z" fill="#0BB0CF"/>
<path d="M295.362 202.276L293.422 198.821L295.881 197.257L298.055 198.161L295.362 202.276Z" fill="#0BB0CF"/>
<path d="M303.308 171.775C303.125 177.272 303.673 187.208 308.001 190.195C306.627 192.165 304.843 193.815 302.772 195.032C300.701 196.249 298.392 197.004 296.002 197.247C291.38 197.846 291.542 193.975 292.274 192.045C297.09 190.013 296.226 186.02 294.509 182.027L303.308 171.775Z" fill="#E4897B"/>
<path d="M295.883 197.257C295.883 197.257 297.915 199.218 300.353 201.117C303.137 199.085 309.609 193.731 308.756 189.789C308.224 189.024 307.446 188.464 306.551 188.204C303.504 191.775 299.902 194.832 295.883 197.257Z" fill="white"/>
<path d="M295.883 197.257C294.57 198.74 293.469 200.398 292.611 202.184C290.213 200.975 291.067 193.04 291.768 192.136C292.78 190.838 294.081 189.794 295.568 189.088C294.667 191.757 294.779 194.665 295.883 197.257Z" fill="white"/>
<path opacity="0.2" d="M299.721 175.961L294.52 182.057C294.941 182.981 295.281 183.94 295.536 184.923C297.771 184.242 300.494 181.265 300.341 178.827C300.312 177.842 300.102 176.87 299.721 175.961Z" fill="black"/>
<path d="M284.321 159.086C283.183 161.839 283.183 167.712 287.298 166.198C291.413 164.684 286.272 154.341 284.321 159.086Z" fill="#263238"/>
<path d="M304.424 164.653C304.241 171.978 304.506 176.276 300.939 180.137C295.585 185.928 286.411 182.819 284.399 175.565C282.591 169.032 283.19 158.151 290.261 155.042C291.828 154.369 293.539 154.102 295.236 154.264C296.933 154.427 298.562 155.014 299.973 155.971C301.384 156.929 302.531 158.226 303.309 159.743C304.087 161.26 304.47 162.949 304.424 164.653Z" fill="#E4897B"/>
<path d="M299.997 152.218C299.733 152.218 299.53 152.329 299.316 152.329C299.316 152.329 299.946 166.655 303.238 169.784C311.661 167.407 315.979 151.445 299.997 152.218Z" fill="#263238"/>
<path d="M307.475 170.688C307.228 171.564 306.809 172.381 306.245 173.095C305.68 173.808 304.979 174.402 304.184 174.843C302.04 176.002 300.404 174.214 300.526 171.897C300.638 169.865 301.887 166.705 304.265 166.502C304.786 166.467 305.307 166.562 305.782 166.777C306.258 166.992 306.673 167.322 306.99 167.736C307.308 168.15 307.518 168.636 307.603 169.151C307.688 169.666 307.644 170.194 307.475 170.688Z" fill="#E4897B"/>
<path d="M286.648 167.173C286.648 167.762 286.363 168.26 285.977 168.27C285.591 168.28 285.256 167.803 285.235 167.203C285.215 166.604 285.51 166.116 285.896 166.106C286.282 166.096 286.617 166.624 286.648 167.173Z" fill="#263238"/>
<path d="M288.801 167.407C288.131 169.192 287.214 170.874 286.078 172.405C286.5 172.667 286.972 172.837 287.464 172.905C287.955 172.973 288.456 172.938 288.933 172.802L288.801 167.407Z" fill="#DE5753"/>
<path d="M292.214 174.996C291.956 175.041 291.694 175.065 291.432 175.067C291.388 175.067 291.345 175.05 291.313 175.02C291.281 174.99 291.262 174.949 291.259 174.904C291.256 174.882 291.258 174.858 291.265 174.836C291.272 174.814 291.283 174.793 291.299 174.776C291.314 174.759 291.333 174.745 291.354 174.736C291.376 174.726 291.398 174.721 291.422 174.722C292.163 174.72 292.893 174.543 293.552 174.203C294.211 173.864 294.78 173.373 295.211 172.771C295.224 172.751 295.24 172.734 295.259 172.721C295.278 172.708 295.3 172.698 295.322 172.694C295.345 172.689 295.369 172.689 295.391 172.693C295.414 172.698 295.436 172.707 295.455 172.72C295.475 172.731 295.491 172.747 295.505 172.765C295.518 172.783 295.527 172.804 295.532 172.826C295.537 172.848 295.537 172.87 295.532 172.892C295.528 172.915 295.519 172.935 295.506 172.954C295.129 173.504 294.642 173.97 294.075 174.321C293.508 174.673 292.874 174.903 292.214 174.996Z" fill="#263238"/>
<path d="M293.868 165.415C293.814 165.448 293.753 165.465 293.69 165.465C293.628 165.465 293.566 165.448 293.513 165.415C293.13 165.195 292.701 165.066 292.261 165.039C291.82 165.013 291.379 165.089 290.973 165.263C290.933 165.285 290.889 165.299 290.843 165.304C290.798 165.309 290.752 165.305 290.708 165.292C290.664 165.28 290.623 165.258 290.587 165.23C290.552 165.201 290.522 165.166 290.5 165.126C290.478 165.086 290.464 165.042 290.459 164.996C290.454 164.951 290.458 164.905 290.471 164.861C290.484 164.817 290.505 164.776 290.533 164.741C290.562 164.705 290.597 164.675 290.637 164.653C291.146 164.421 291.702 164.313 292.261 164.34C292.82 164.366 293.364 164.526 293.848 164.806C293.901 164.836 293.944 164.88 293.975 164.932C294.005 164.985 294.021 165.045 294.021 165.105C294.021 165.166 294.005 165.226 293.975 165.279C293.944 165.331 293.901 165.375 293.848 165.405L293.868 165.415Z" fill="#263238"/>
<path d="M283.274 164.491C283.209 164.479 283.149 164.447 283.102 164.399C283.037 164.333 283 164.244 283 164.15C283 164.057 283.037 163.968 283.102 163.902C283.49 163.499 283.971 163.197 284.501 163.02C285.032 162.843 285.597 162.797 286.15 162.886C286.24 162.907 286.318 162.963 286.369 163.04C286.42 163.117 286.439 163.211 286.424 163.302C286.415 163.347 286.398 163.39 286.373 163.428C286.348 163.466 286.316 163.498 286.278 163.524C286.24 163.549 286.198 163.567 286.153 163.576C286.108 163.585 286.062 163.585 286.018 163.576C285.581 163.516 285.136 163.562 284.722 163.713C284.307 163.863 283.936 164.113 283.64 164.44C283.59 164.481 283.529 164.508 283.464 164.517C283.4 164.526 283.334 164.517 283.274 164.491Z" fill="#263238"/>
<path d="M291.737 167.346C291.695 167.344 291.655 167.326 291.626 167.295C291.598 167.266 291.582 167.228 291.582 167.188C291.582 167.148 291.598 167.11 291.626 167.081C291.866 166.855 292.167 166.704 292.492 166.648C292.818 166.592 293.152 166.633 293.454 166.767C293.489 166.786 293.515 166.817 293.528 166.855C293.542 166.892 293.54 166.933 293.526 166.97C293.506 167.004 293.475 167.031 293.437 167.044C293.4 167.057 293.359 167.056 293.322 167.041C293.078 166.931 292.806 166.897 292.542 166.942C292.278 166.987 292.033 167.11 291.839 167.295C291.812 167.323 291.776 167.341 291.737 167.346Z" fill="#263238"/>
<path d="M301.957 161.707C300.974 161.617 300.033 161.264 299.234 160.685C298.435 160.106 297.807 159.321 297.416 158.415C296.105 155.296 294.987 157.836 294.987 157.836C294.987 157.836 294.561 156.901 291.736 156.332C288.912 155.763 287.052 163.353 284.004 162.123C283.174 161.809 282.491 161.193 282.092 160.399C281.693 159.605 281.607 158.69 281.851 157.836C281.851 157.836 283.182 157.186 284.685 153.05C286.372 148.387 294.51 146.314 301.561 149.84C308.612 153.365 301.957 161.707 301.957 161.707Z" fill="#263238"/>
<path d="M335.375 263.144L305.819 269.352L298.067 258.176L293.455 268.61L280.572 261.305L287.43 251.298C274.719 220.432 279.058 193.508 279.058 193.508C283.131 191.738 287.472 190.663 291.9 190.327C284.524 201.503 295.517 225.4 295.517 225.4C302.131 206.97 310.046 189.159 310.046 189.159C314.262 188.889 318.493 189.329 322.563 190.46C322.563 190.46 325.448 232.512 329.258 243.2C333.068 253.888 335.375 263.144 335.375 263.144Z" fill="#263238"/>
<path opacity="0.1" d="M305.717 204.359L311.914 212.141C311.914 212.141 297.487 222.474 293.24 239.573L294.764 229.555L282.897 212.893L288.353 206.076L281.871 201.26C281.871 201.26 287.449 191.862 291.909 190.236C284.533 201.412 295.526 225.309 295.526 225.309C302.14 206.878 310.055 189.068 310.055 189.068C313.753 192.065 316.538 196.039 318.091 200.539L305.717 204.359Z" fill="white"/>
<path d="M355.979 263.337C355.327 263.342 354.675 263.297 354.029 263.205C351.885 262.89 350.534 262.037 350.239 260.807C349.64 258.379 353.358 255.545 358.865 254.203C364.372 252.862 369.025 253.675 369.574 256.093C369.868 257.333 369.066 258.704 367.308 259.974C365.369 261.265 363.21 262.188 360.938 262.697C359.316 263.108 357.652 263.323 355.979 263.337ZM363.843 254.772C362.264 254.793 360.692 254.997 359.16 255.382C354.151 256.601 351.032 259.07 351.418 260.523C351.59 261.214 352.627 261.773 354.201 261.996C356.363 262.235 358.55 262.073 360.653 261.519C362.775 261.048 364.79 260.186 366.597 258.979C367.887 258.054 368.558 257.089 368.385 256.388C368.161 255.433 366.414 254.772 363.843 254.772Z" fill="#855550"/>
<path d="M382.964 253.746L390.787 285.872C390.851 286.123 390.864 286.384 390.825 286.64C390.787 286.896 390.698 287.142 390.564 287.363C390.43 287.584 390.253 287.777 390.043 287.929C389.834 288.081 389.596 288.19 389.344 288.25L342.487 299.659C342.236 299.722 341.975 299.733 341.719 299.694C341.464 299.656 341.219 299.566 340.998 299.432C340.777 299.298 340.585 299.122 340.432 298.913C340.28 298.705 340.17 298.468 340.109 298.217L332.286 266.091C332.163 265.584 332.246 265.05 332.516 264.604C332.787 264.159 333.223 263.838 333.729 263.713L380.586 252.304C380.837 252.241 381.098 252.23 381.354 252.268C381.609 252.307 381.854 252.397 382.075 252.531C382.296 252.665 382.488 252.841 382.641 253.05C382.793 253.258 382.903 253.495 382.964 253.746Z" fill="#BE8E89"/>
<path opacity="0.1" d="M382.964 253.746L390.787 285.872C390.851 286.123 390.864 286.384 390.825 286.64C390.787 286.896 390.698 287.142 390.564 287.363C390.43 287.584 390.253 287.777 390.043 287.929C389.834 288.081 389.596 288.19 389.344 288.25L342.487 299.659C342.236 299.722 341.975 299.733 341.719 299.694C341.464 299.656 341.219 299.566 340.998 299.432C340.777 299.298 340.585 299.122 340.432 298.913C340.28 298.705 340.17 298.468 340.109 298.217L332.286 266.091C332.163 265.584 332.246 265.05 332.516 264.604C332.787 264.159 333.223 263.838 333.729 263.713L380.586 252.304C380.837 252.241 381.098 252.23 381.354 252.268C381.609 252.307 381.854 252.397 382.075 252.531C382.296 252.665 382.488 252.841 382.641 253.05C382.793 253.258 382.903 253.495 382.964 253.746Z" fill="white"/>
<path d="M336.888 264.973L344.712 297.099C344.818 297.604 344.729 298.132 344.461 298.573C344.193 299.015 343.766 299.338 343.269 299.477L342.487 299.659C342.236 299.722 341.975 299.733 341.719 299.694C341.464 299.656 341.219 299.566 340.998 299.432C340.777 299.298 340.585 299.122 340.432 298.913C340.28 298.705 340.17 298.468 340.109 298.217L332.286 266.091C332.163 265.584 332.246 265.05 332.516 264.604C332.787 264.159 333.223 263.838 333.729 263.713L334.511 263.53C334.762 263.467 335.023 263.454 335.279 263.492C335.535 263.531 335.781 263.619 336.002 263.754C336.223 263.888 336.415 264.065 336.568 264.274C336.72 264.484 336.829 264.721 336.888 264.973Z" fill="#BE8E89"/>
<path d="M335.028 263.429C335.521 263.337 336.031 263.439 336.451 263.714C336.871 263.988 337.169 264.414 337.283 264.902L340.91 279.797C341.009 280.199 341.263 280.546 341.618 280.762C341.972 280.977 342.397 281.043 342.8 280.945L385.848 270.46C386.047 270.411 386.235 270.323 386.4 270.202C386.565 270.08 386.704 269.927 386.81 269.751C386.916 269.576 386.986 269.381 387.016 269.178C387.046 268.975 387.036 268.769 386.986 268.57L383.349 253.635C383.226 253.132 382.909 252.699 382.467 252.43C382.025 252.162 381.494 252.079 380.992 252.202L334.113 263.622L335.028 263.429Z" fill="#855550"/>
<path opacity="0.2" d="M335.028 263.429C335.521 263.337 336.031 263.439 336.451 263.714C336.871 263.988 337.169 264.414 337.283 264.902L340.91 279.797C341.009 280.199 341.263 280.546 341.618 280.762C341.972 280.977 342.397 281.043 342.8 280.945L385.848 270.46C386.047 270.411 386.235 270.323 386.4 270.202C386.565 270.08 386.704 269.927 386.81 269.751C386.916 269.576 386.986 269.381 387.016 269.178C387.046 268.975 387.036 268.769 386.986 268.57L383.349 253.635C383.226 253.132 382.909 252.699 382.467 252.43C382.025 252.162 381.494 252.079 380.992 252.202L334.113 263.622L335.028 263.429Z" fill="#BE8E89"/>
<path d="M362.246 274.036L366.856 272.913L368.958 281.541C368.994 281.69 368.97 281.848 368.89 281.979C368.81 282.11 368.681 282.204 368.532 282.24L365.047 283.089C364.898 283.126 364.741 283.101 364.609 283.021C364.478 282.942 364.384 282.813 364.348 282.664L362.246 274.036Z" fill="#704844"/>
<path d="M363.974 281.097C363.753 281.096 363.535 281.037 363.345 280.924C363.209 280.841 363.092 280.732 363 280.602C362.907 280.473 362.842 280.327 362.806 280.173L362.339 278.252C362.299 278.099 362.29 277.939 362.313 277.782C362.336 277.625 362.389 277.474 362.471 277.338C362.641 277.065 362.911 276.869 363.223 276.789L367.287 275.773C367.441 275.733 367.601 275.725 367.759 275.749C367.916 275.774 368.067 275.83 368.201 275.916C368.337 275.997 368.455 276.104 368.55 276.231C368.644 276.359 368.712 276.503 368.75 276.657L369.217 278.588C369.288 278.896 369.237 279.22 369.075 279.492C368.993 279.628 368.886 279.746 368.759 279.84C368.632 279.935 368.487 280.003 368.333 280.04L364.269 281.056C364.174 281.086 364.074 281.1 363.974 281.097ZM367.541 276.383H367.388L363.324 277.399C363.248 277.418 363.176 277.452 363.114 277.499C363.051 277.546 362.998 277.605 362.958 277.673C362.915 277.738 362.886 277.812 362.874 277.889C362.861 277.966 362.866 278.045 362.887 278.12L363.355 280.051C363.393 280.202 363.487 280.333 363.619 280.416C363.686 280.46 363.761 280.488 363.84 280.501C363.919 280.513 363.999 280.508 364.076 280.488L368.14 279.472C368.216 279.452 368.288 279.418 368.351 279.371C368.413 279.324 368.466 279.265 368.506 279.197C368.585 279.062 368.61 278.903 368.577 278.75L368.11 276.82C368.068 276.667 367.97 276.537 367.835 276.454C367.749 276.393 367.646 276.358 367.541 276.352V276.383Z" fill="white"/>
<path d="M354.881 246.187L353.57 253.574L362.714 251.095C362.714 251.095 362.42 244.572 358.925 244.379L354.881 246.187Z" fill="#E4897B"/>
<path d="M356.485 258.999L363.953 256.591L362.754 251.095L353.59 253.574L356.485 258.999Z" fill="#E4897B"/>
<path d="M354.312 243.221L354.546 246.533L360.612 245.283L360.134 242.164L354.312 243.221Z" fill="#38A169"/>
<path opacity="0.7" d="M354.312 243.221L354.546 246.533L360.612 245.283L360.134 242.164L354.312 243.221Z" fill="white"/>
<path d="M322.4 190.328C327.726 192.423 332.915 194.853 337.935 197.602C340.514 199 343.021 200.529 345.443 202.184C346.672 203.048 347.912 203.983 349.141 205.039C350.513 206.194 351.747 207.503 352.819 208.941C353.146 209.394 353.441 209.869 353.703 210.363C353.845 210.627 353.998 210.912 354.12 211.156L354.353 211.735L354.81 212.903L355.176 213.99C355.43 214.722 355.633 215.433 355.826 216.134C356.019 216.835 356.223 217.546 356.395 218.237C357.137 221.011 357.706 223.774 358.255 226.528C359.271 232.034 360.144 237.541 360.724 243.119L354.191 244.338C354.191 244.338 351.742 233.863 349.995 228.702C349.141 226.121 348.237 223.561 347.322 221.072C347.099 220.442 346.865 219.832 346.621 219.233C346.378 218.633 346.144 218.024 345.9 217.475L345.534 216.622L345.169 215.89L344.986 215.524C344.96 215.484 344.929 215.446 344.894 215.413C344.82 215.306 344.739 215.204 344.65 215.108C343.988 214.394 343.256 213.748 342.466 213.177C341.562 212.487 340.556 211.806 339.489 211.145C337.356 209.845 335.069 208.585 332.712 207.386C328.029 205.019 323.05 202.753 318.234 200.691L322.4 190.328Z" fill="#263238"/>
<path d="M382.263 193.172C408.877 193.172 430.452 171.597 430.452 144.983C430.452 118.369 408.877 96.7944 382.263 96.7944C355.649 96.7944 334.074 118.369 334.074 144.983C334.074 171.597 355.649 193.172 382.263 193.172Z" fill="#3182CE"/>
<path opacity="0.7" d="M382.263 193.172C408.877 193.172 430.452 171.597 430.452 144.983C430.452 118.369 408.877 96.7944 382.263 96.7944C355.649 96.7944 334.074 118.369 334.074 144.983C334.074 171.597 355.649 193.172 382.263 193.172Z" fill="#DAF1E0"/>
<path d="M332.731 168.412C335.542 168.412 337.821 166.133 337.821 163.322C337.821 160.511 335.542 158.232 332.731 158.232C329.92 158.232 327.641 160.511 327.641 163.322C327.641 166.133 329.92 168.412 332.731 168.412Z" fill="#3182CE"/>
<path opacity="0.7" d="M332.731 168.412C335.542 168.412 337.821 166.133 337.821 163.322C337.821 160.511 335.542 158.232 332.731 158.232C329.92 158.232 327.641 160.511 327.641 163.322C327.641 166.133 329.92 168.412 332.731 168.412Z" fill="#DAF1E0"/>
<path d="M324.747 166.817C324.707 167.393 324.498 167.943 324.145 168.4C323.792 168.856 323.312 169.198 322.764 169.381C322.217 169.565 321.628 169.582 321.072 169.43C320.515 169.278 320.016 168.965 319.637 168.53C319.259 168.094 319.018 167.556 318.945 166.984C318.872 166.411 318.971 165.83 319.229 165.314C319.487 164.798 319.892 164.37 320.393 164.084C320.894 163.798 321.469 163.667 322.044 163.708C322.815 163.763 323.532 164.121 324.038 164.704C324.545 165.286 324.8 166.046 324.747 166.817Z" fill="#3182CE"/>
<path opacity="0.7" d="M324.747 166.817C324.707 167.393 324.498 167.943 324.145 168.4C323.792 168.856 323.312 169.198 322.764 169.381C322.217 169.565 321.628 169.582 321.072 169.43C320.515 169.278 320.016 168.965 319.637 168.53C319.259 168.094 319.018 167.556 318.945 166.984C318.872 166.411 318.971 165.83 319.229 165.314C319.487 164.798 319.892 164.37 320.393 164.084C320.894 163.798 321.469 163.667 322.044 163.708C322.815 163.763 323.532 164.121 324.038 164.704C324.545 165.286 324.8 166.046 324.747 166.817Z" fill="#DAF1E0"/>
<path d="M315.978 166.035C315.959 166.324 315.855 166.601 315.679 166.83C315.503 167.06 315.262 167.232 314.988 167.325C314.714 167.419 314.418 167.428 314.139 167.353C313.859 167.278 313.608 167.122 313.417 166.904C313.226 166.686 313.105 166.417 313.067 166.13C313.03 165.843 313.078 165.551 313.206 165.291C313.335 165.032 313.537 164.816 313.788 164.672C314.039 164.528 314.327 164.461 314.616 164.48C315.002 164.509 315.361 164.688 315.615 164.979C315.87 165.27 316 165.649 315.978 166.035Z" fill="#3182CE"/>
<path opacity="0.7" d="M315.978 166.035C315.959 166.324 315.855 166.601 315.679 166.83C315.503 167.06 315.262 167.232 314.988 167.325C314.714 167.419 314.418 167.428 314.139 167.353C313.859 167.278 313.608 167.122 313.417 166.904C313.226 166.686 313.105 166.417 313.067 166.13C313.03 165.843 313.078 165.551 313.206 165.291C313.335 165.032 313.537 164.816 313.788 164.672C314.039 164.528 314.327 164.461 314.616 164.48C315.002 164.509 315.361 164.688 315.615 164.979C315.87 165.27 316 165.649 315.978 166.035Z" fill="#DAF1E0"/>
<path d="M389.005 167.953C398.759 164.464 403.149 151.807 398.813 139.681C394.476 127.556 383.054 120.554 373.3 124.042C363.547 127.531 359.156 140.188 363.493 152.314C367.83 164.439 379.252 171.441 389.005 167.953Z" fill="#38A169"/>
<path d="M388.869 163.218C396.741 160.402 400.286 150.187 396.786 140.402C393.287 130.617 384.068 124.968 376.196 127.783C368.323 130.599 364.778 140.814 368.278 150.599C371.778 160.384 380.997 166.033 388.869 163.218Z" fill="white"/>
<path d="M395.156 140.991C397.961 148.834 395.156 157.013 388.817 159.279C382.477 161.544 375.121 157.003 372.317 149.169C369.513 141.336 372.317 133.157 378.667 130.881C385.017 128.606 392.352 133.157 395.156 140.991Z" fill="#38A169"/>
<path d="M388.482 155.667C393.132 154.004 395.156 147.777 393.004 141.76C390.851 135.742 385.338 132.211 380.688 133.874C376.039 135.537 374.014 141.764 376.167 147.782C378.319 153.799 383.833 157.33 388.482 155.667Z" fill="white"/>
<path d="M391.425 142.697C392.959 146.985 391.628 151.384 388.458 152.522C385.288 153.66 381.478 151.089 379.944 146.802C378.41 142.514 379.731 138.115 382.901 136.977C386.071 135.839 389.891 138.41 391.425 142.697Z" fill="#38A169"/>
<path d="M390.307 143.093C391.424 146.141 390.581 149.332 388.427 150.094C386.273 150.856 383.642 148.976 382.534 145.877C381.427 142.779 382.27 139.639 384.414 138.867C386.558 138.095 389.199 139.995 390.307 143.093Z" fill="white"/>
<path d="M415.902 129.093L410.131 131.156L409.023 136.398L413.209 139.761L418.98 137.689L414.703 134.376L415.902 129.093Z" fill="#38A169"/>
<path d="M387.32 145.176C387.081 145.176 386.85 145.092 386.667 144.938C386.484 144.784 386.361 144.571 386.32 144.336C386.279 144.101 386.322 143.858 386.441 143.652C386.561 143.445 386.75 143.287 386.974 143.205L415.239 133.096C415.494 133.006 415.774 133.02 416.018 133.137C416.262 133.253 416.449 133.461 416.54 133.716C416.63 133.971 416.615 134.251 416.499 134.494C416.383 134.738 416.175 134.926 415.92 135.016L387.665 145.115C387.554 145.156 387.437 145.176 387.32 145.176Z" fill="#263238"/>
</svg>
